<?xml version="1.0" encoding="UTF-8" standalone="no"?>
<!DOCTYPE svg PUBLIC "-//W3C//DTD SVG 1.1//EN"
 "http://www.w3.org/Graphics/SVG/1.1/DTD/svg11.dtd">
<!-- Generated by graphviz version 2.38.0 (20140413.2041)
 -->
<!-- Title: %3 Pages: 1 -->
<svg width="510pt" height="344pt"
 viewBox="0.00 0.00 510.39 343.95" xmlns="http://www.w3.org/2000/svg" xmlns:xlink="http://www.w3.org/1999/xlink">
<g id="graph0" class="graph" transform="scale(1 1) rotate(0) translate(4 339.948)">
<title>%3</title>
<polygon fill="white" stroke="none" points="-4,4 -4,-339.948 506.387,-339.948 506.387,4 -4,4"/>
<!-- direc_dist -->
<g id="node1" class="node"><title>direc_dist</title>
<polygon fill="lightgray" stroke="black" points="280.539,-335.948 228.539,-335.948 228.539,-317.948 280.539,-317.948 280.539,-335.948"/>
<text text-anchor="middle" x="254.539" y="-324.748" font-family="Times New Roman,serif" font-size="9.00">direc_dist</text>
</g>
<!-- right -->
<g id="node9" class="node"><title>right</title>
<ellipse fill="lightblue" stroke="black" cx="254.539" cy="-255.785" rx="23.1702" ry="23.1702"/>
<text text-anchor="middle" x="254.539" y="-253.585" font-family="Times New Roman,serif" font-size="9.00">right</text>
</g>
<!-- direc_dist&#45;&gt;right -->
<g id="edge15" class="edge"><title>direc_dist&#45;&gt;right</title>
<path fill="none" stroke="green" stroke-width="0.415149" d="M254.539,-317.743C254.539,-310.658 254.539,-299.936 254.539,-289.451"/>
<polygon fill="green" stroke="green" stroke-width="0.415149" points="258.04,-289.187 254.539,-279.187 251.04,-289.187 258.04,-289.187"/>
</g>
<!-- vx -->
<g id="node2" class="node"><title>vx</title>
<polygon fill="lightgray" stroke="black" points="56.0395,-335.948 31.0395,-335.948 31.0395,-317.948 56.0395,-317.948 56.0395,-335.948"/>
<text text-anchor="middle" x="43.5395" y="-324.748" font-family="Times New Roman,serif" font-size="9.00">vx</text>
</g>
<!-- down -->
<g id="node7" class="node"><title>down</title>
<ellipse fill="lightblue" stroke="black" cx="43.5395" cy="-255.785" rx="26.3269" ry="26.3269"/>
<text text-anchor="middle" x="43.5395" y="-253.585" font-family="Times New Roman,serif" font-size="9.00">down</text>
</g>
<!-- vx&#45;&gt;down -->
<g id="edge6" class="edge"><title>vx&#45;&gt;down</title>
<path fill="none" stroke="red" stroke-width="0.280525" stroke-dasharray="1,5" d="M43.5395,-317.743C43.5395,-311.331 43.5395,-301.941 43.5395,-292.443"/>
<polygon fill="red" stroke="red" stroke-width="0.280525" points="47.0396,-292.229 43.5395,-282.229 40.0396,-292.229 47.0396,-292.229"/>
</g>
<!-- vy -->
<g id="node3" class="node"><title>vy</title>
<polygon fill="lightgray" stroke="black" points="500.539,-335.948 474.539,-335.948 474.539,-317.948 500.539,-317.948 500.539,-335.948"/>
<text text-anchor="middle" x="487.539" y="-324.748" font-family="Times New Roman,serif" font-size="9.00">vy</text>
</g>
<!-- up -->
<g id="node6" class="node"><title>up</title>
<ellipse fill="lightblue" stroke="black" cx="413.539" cy="-18.3848" rx="18.2703" ry="18.2703"/>
<text text-anchor="middle" x="413.539" y="-16.1848" font-family="Times New Roman,serif" font-size="9.00">up</text>
</g>
<!-- vy&#45;&gt;up -->
<g id="edge23" class="edge"><title>vy&#45;&gt;up</title>
<path fill="none" stroke="green" stroke-width="0.420174" d="M489.345,-317.869C494.652,-292.889 509.175,-214.758 498.539,-151.196 492.456,-114.837 491.717,-103.621 471.539,-72.7696 462.257,-58.5761 448.37,-45.6146 436.512,-36.0182"/>
<polygon fill="green" stroke="green" stroke-width="0.420174" points="438.374,-33.0319 428.331,-29.6558 434.076,-38.5576 438.374,-33.0319"/>
</g>
<!-- left -->
<g id="node8" class="node"><title>left</title>
<ellipse fill="lightblue" stroke="black" cx="374.539" cy="-93.9828" rx="20.5122" ry="20.5122"/>
<text text-anchor="middle" x="374.539" y="-91.7828" font-family="Times New Roman,serif" font-size="9.00">left</text>
</g>
<!-- vy&#45;&gt;left -->
<g id="edge5" class="edge"><title>vy&#45;&gt;left</title>
<path fill="none" stroke="red" stroke-width="0.322793" d="M487.071,-317.881C485.848,-300.908 481.681,-260.523 468.539,-229.622 450.116,-186.302 416.349,-142.849 394.699,-117.458"/>
<polygon fill="red" stroke="red" stroke-width="0.322793" points="397.322,-115.141 388.13,-109.872 392.03,-119.723 397.322,-115.141"/>
</g>
<!-- 1097 -->
<g id="node10" class="node"><title>1097</title>
<ellipse fill="white" stroke="black" cx="434.539" cy="-255.785" rx="25" ry="25"/>
<text text-anchor="middle" x="434.539" y="-253.585" font-family="Times New Roman,serif" font-size="9.00">1097</text>
</g>
<!-- vy&#45;&gt;1097 -->
<g id="edge25" class="edge"><title>vy&#45;&gt;1097</title>
<path fill="none" stroke="red" stroke-width="0.44747" d="M481.252,-317.743C474.88,-309.428 464.67,-296.104 455.418,-284.031"/>
<polygon fill="red" stroke="red" stroke-width="0.44747" points="458.086,-281.758 449.225,-275.949 452.529,-286.016 458.086,-281.758"/>
</g>
<!-- cp2x -->
<g id="node4" class="node"><title>cp2x</title>
<polygon fill="lightgray" stroke="black" points="360.539,-335.948 326.539,-335.948 326.539,-317.948 360.539,-317.948 360.539,-335.948"/>
<text text-anchor="middle" x="343.539" y="-324.748" font-family="Times New Roman,serif" font-size="9.00">cp2x</text>
</g>
<!-- cp2x&#45;&gt;up -->
<g id="edge8" class="edge"><title>cp2x&#45;&gt;up</title>
<path fill="none" stroke="green" stroke-width="0.128418" stroke-dasharray="1,5" d="M360.919,-325.711C389.028,-324.274 443.809,-316.871 468.539,-281.948 521.639,-206.963 460.233,-91.6171 429.272,-42.6511"/>
<polygon fill="green" stroke="green" stroke-width="0.128418" points="432.072,-40.5367 423.704,-34.0394 426.194,-44.3374 432.072,-40.5367"/>
</g>
<!-- cp2x&#45;&gt;down -->
<g id="edge3" class="edge"><title>cp2x&#45;&gt;down</title>
<path fill="none" stroke="red" stroke-width="0.51583" d="M326.266,-323.45C288.07,-317.74 193.705,-302.616 116.539,-281.948 103.692,-278.507 89.8372,-273.953 77.6864,-269.667"/>
<polygon fill="red" stroke="red" stroke-width="0.51583" points="78.5343,-266.252 67.9398,-266.159 76.1637,-272.839 78.5343,-266.252"/>
</g>
<!-- cp2x&#45;&gt;left -->
<g id="edge1" class="edge"><title>cp2x&#45;&gt;left</title>
<path fill="none" stroke="red" stroke-width="0.261729" d="M346.776,-317.656C350.044,-308.916 354.968,-294.677 357.539,-281.948 368.614,-227.138 372.48,-161.82 373.826,-124.696"/>
<polygon fill="red" stroke="red" stroke-width="0.261729" points="377.328,-124.671 374.155,-114.563 370.332,-124.444 377.328,-124.671"/>
</g>
<!-- cp2x&#45;&gt;right -->
<g id="edge4" class="edge"><title>cp2x&#45;&gt;right</title>
<path fill="none" stroke="green" stroke-width="1.25539" d="M332.981,-317.743C320.239,-307.841 298.357,-290.837 280.937,-277.299"/>
<polygon fill="green" stroke="green" stroke-width="1.25539" points="282.847,-274.351 272.803,-270.978 278.552,-279.878 282.847,-274.351"/>
</g>
<!-- cp2x&#45;&gt;1097 -->
<g id="edge21" class="edge"><title>cp2x&#45;&gt;1097</title>
<path fill="none" stroke="green" stroke-width="0.122482" d="M354.336,-317.743C367.202,-307.964 389.183,-291.258 406.883,-277.805"/>
<polygon fill="green" stroke="green" stroke-width="0.122482" points="409.326,-280.345 415.169,-271.507 405.09,-274.772 409.326,-280.345"/>
</g>
<!-- 531 -->
<g id="node11" class="node"><title>531</title>
<ellipse fill="white" stroke="black" cx="294.539" cy="-172.409" rx="21.4286" ry="21.4286"/>
<text text-anchor="middle" x="294.539" y="-170.209" font-family="Times New Roman,serif" font-size="9.00">531</text>
</g>
<!-- cp2x&#45;&gt;531 -->
<g id="edge12" class="edge"><title>cp2x&#45;&gt;531</title>
<path fill="none" stroke="red" stroke-width="0.150177" d="M340.905,-317.747C334.048,-296.401 315.385,-238.301 303.936,-202.661"/>
<polygon fill="red" stroke="red" stroke-width="0.150177" points="307.166,-201.271 300.775,-192.82 300.501,-203.412 307.166,-201.271"/>
</g>
<!-- 444 -->
<g id="node13" class="node"><title>444</title>
<ellipse fill="white" stroke="black" cx="301.539" cy="-93.9828" rx="21.4286" ry="21.4286"/>
<text text-anchor="middle" x="301.539" y="-91.7828" font-family="Times New Roman,serif" font-size="9.00">444</text>
</g>
<!-- cp2x&#45;&gt;444 -->
<g id="edge9" class="edge"><title>cp2x&#45;&gt;444</title>
<path fill="none" stroke="red" stroke-width="0.216623" stroke-dasharray="1,5" d="M343.458,-317.794C343.036,-292.597 340.442,-213.909 324.539,-151.196 322.103,-141.588 318.355,-131.457 314.587,-122.482"/>
<polygon fill="red" stroke="red" stroke-width="0.216623" points="317.772,-121.03 310.551,-113.277 311.361,-123.841 317.772,-121.03"/>
</g>
<!-- cp2y -->
<g id="node5" class="node"><title>cp2y</title>
<polygon fill="lightgray" stroke="black" points="141.039,-335.948 106.039,-335.948 106.039,-317.948 141.039,-317.948 141.039,-335.948"/>
<text text-anchor="middle" x="123.539" y="-324.748" font-family="Times New Roman,serif" font-size="9.00">cp2y</text>
</g>
<!-- cp2y&#45;&gt;up -->
<g id="edge7" class="edge"><title>cp2y&#45;&gt;up</title>
<path fill="none" stroke="red" stroke-width="0.299696" d="M105.796,-325.079C79.4141,-322.717 30.5934,-313.999 8.53947,-281.948 -4.64334,-262.79 -0.330906,-251.12 8.53947,-229.622 72.0159,-75.7841 304.024,-32.8552 385.235,-22.4029"/>
<polygon fill="red" stroke="red" stroke-width="0.299696" points="385.73,-25.8686 395.233,-21.1844 384.883,-18.9201 385.73,-25.8686"/>
</g>
<!-- cp2y&#45;&gt;down -->
<g id="edge2" class="edge"><title>cp2y&#45;&gt;down</title>
<path fill="none" stroke="green" stroke-width="1.13778" d="M114.048,-317.743C103.502,-308.625 85.9889,-293.484 71.0558,-280.574"/>
<polygon fill="green" stroke="green" stroke-width="1.13778" points="72.9396,-277.576 63.0857,-273.684 68.3615,-282.872 72.9396,-277.576"/>
</g>
<!-- cp2y&#45;&gt;right -->
<g id="edge24" class="edge"><title>cp2y&#45;&gt;right</title>
<path fill="none" stroke="green" stroke-width="0.174376" d="M141.284,-318.649C160.503,-310.514 191.858,-296.568 217.539,-281.948 220.839,-280.07 224.227,-277.992 227.55,-275.858"/>
<polygon fill="green" stroke="green" stroke-width="0.174376" points="229.698,-278.633 236.088,-270.181 225.822,-272.804 229.698,-278.633"/>
</g>
<!-- cp2y&#45;&gt;531 -->
<g id="edge16" class="edge"><title>cp2y&#45;&gt;531</title>
<path fill="none" stroke="red" stroke-width="0.410483" d="M137.089,-317.944C150.116,-309.86 169.927,-296.513 184.539,-281.948 204.895,-261.658 202.573,-250.296 222.539,-229.622 236.498,-215.169 254.277,-201.253 268.675,-190.882"/>
<polygon fill="red" stroke="red" stroke-width="0.410483" points="270.985,-193.536 277.138,-184.91 266.95,-187.816 270.985,-193.536"/>
</g>
<!-- 1013 -->
<g id="node12" class="node"><title>1013</title>
<ellipse fill="white" stroke="black" cx="150.539" cy="-255.785" rx="25" ry="25"/>
<text text-anchor="middle" x="150.539" y="-253.585" font-family="Times New Roman,serif" font-size="9.00">1013</text>
</g>
<!-- cp2y&#45;&gt;1013 -->
<g id="edge19" class="edge"><title>cp2y&#45;&gt;1013</title>
<path fill="none" stroke="green" stroke-width="0.1631" d="M126.743,-317.743C129.566,-310.51 133.869,-299.488 138.043,-288.796"/>
<polygon fill="green" stroke="green" stroke-width="0.1631" points="141.418,-289.775 141.794,-279.187 134.897,-287.229 141.418,-289.775"/>
</g>
<!-- 989 -->
<g id="node14" class="node"><title>989</title>
<ellipse fill="white" stroke="black" cx="165.539" cy="-172.409" rx="21.4286" ry="21.4286"/>
<text text-anchor="middle" x="165.539" y="-170.209" font-family="Times New Roman,serif" font-size="9.00">989</text>
</g>
<!-- cp2y&#45;&gt;989 -->
<g id="edge17" class="edge"><title>cp2y&#45;&gt;989</title>
<path fill="none" stroke="green" stroke-width="0.431081" d="M120.749,-317.886C115.343,-300.922 104.95,-260.554 116.539,-229.622 121.752,-215.711 132.136,-202.976 142.009,-193.159"/>
<polygon fill="green" stroke="green" stroke-width="0.431081" points="144.473,-195.646 149.365,-186.249 139.68,-190.544 144.473,-195.646"/>
</g>
<!-- down&#45;&gt;444 -->
<g id="edge11" class="edge"><title>down&#45;&gt;444</title>
<path fill="none" stroke="red" stroke-width="0.389723" d="M57.6115,-233.137C73.8059,-209.822 102.464,-173.129 135.539,-151.196 177.824,-123.156 235.454,-107.794 270.497,-100.492"/>
<polygon fill="red" stroke="red" stroke-width="0.389723" points="271.481,-103.864 280.605,-98.4788 270.114,-96.9991 271.481,-103.864"/>
</g>
<!-- 1097&#45;&gt;531 -->
<g id="edge22" class="edge"><title>1097&#45;&gt;531</title>
<path fill="none" stroke="red" stroke-width="0.143684" stroke-dasharray="1,5" d="M413.58,-242.602C389.016,-228.324 348.259,-204.634 321.397,-189.02"/>
<polygon fill="red" stroke="red" stroke-width="0.143684" points="322.929,-185.862 312.524,-183.863 319.411,-191.914 322.929,-185.862"/>
</g>
<!-- 531&#45;&gt;left -->
<g id="edge14" class="edge"><title>531&#45;&gt;left</title>
<path fill="none" stroke="red" stroke-width="0.331726" stroke-dasharray="1,5" d="M309.587,-157.034C321.694,-145.467 338.88,-129.049 352.533,-116.006"/>
<polygon fill="red" stroke="red" stroke-width="0.331726" points="355.285,-118.217 360.098,-108.779 350.45,-113.156 355.285,-118.217"/>
</g>
<!-- 531&#45;&gt;444 -->
<g id="edge13" class="edge"><title>531&#45;&gt;444</title>
<path fill="none" stroke="red" stroke-width="0.255359" d="M296.415,-150.928C297.135,-143.07 297.973,-133.925 298.759,-125.335"/>
<polygon fill="red" stroke="red" stroke-width="0.255359" points="302.256,-125.533 299.683,-115.255 295.285,-124.894 302.256,-125.533"/>
</g>
<!-- 1013&#45;&gt;531 -->
<g id="edge20" class="edge"><title>1013&#45;&gt;531</title>
<path fill="none" stroke="green" stroke-width="0.231039" d="M170.989,-241.148C176.912,-237.319 183.43,-233.221 189.539,-229.622 215.187,-214.517 245.192,-198.625 266.543,-187.607"/>
<polygon fill="green" stroke="green" stroke-width="0.231039" points="268.4,-190.589 275.698,-182.908 265.203,-184.361 268.4,-190.589"/>
</g>
<!-- 444&#45;&gt;up -->
<g id="edge10" class="edge"><title>444&#45;&gt;up</title>
<path fill="none" stroke="red" stroke-width="0.184349" d="M319.039,-81.4831C338.096,-68.9603 368.682,-48.8615 389.873,-34.9368"/>
<polygon fill="red" stroke="red" stroke-width="0.184349" points="391.883,-37.8038 398.318,-29.3871 388.039,-31.9538 391.883,-37.8038"/>
</g>
<!-- 989&#45;&gt;left -->
<g id="edge18" class="edge"><title>989&#45;&gt;left</title>
<path fill="none" stroke="green" stroke-width="0.942808" d="M185.737,-165.379C217.258,-155.787 279.892,-136.003 331.539,-115.196 336.575,-113.167 341.863,-110.846 346.942,-108.516"/>
<polygon fill="green" stroke="green" stroke-width="0.942808" points="348.768,-111.525 356.327,-104.101 345.788,-105.191 348.768,-111.525"/>
</g>
</g>
</svg>
