<?xml version="1.0" encoding="UTF-8" standalone="no"?>
<!DOCTYPE svg PUBLIC "-//W3C//DTD SVG 1.1//EN"
 "http://www.w3.org/Graphics/SVG/1.1/DTD/svg11.dtd">
<!-- Generated by graphviz version 2.38.0 (20140413.2041)
 -->
<!-- Title: %3 Pages: 1 -->
<svg width="154pt" height="381pt"
 viewBox="0.00 0.00 153.96 380.72" xmlns="http://www.w3.org/2000/svg" xmlns:xlink="http://www.w3.org/1999/xlink">
<g id="graph0" class="graph" transform="scale(1 1) rotate(0) translate(4 376.718)">
<title>%3</title>
<polygon fill="white" stroke="none" points="-4,4 -4,-376.718 149.96,-376.718 149.96,4 -4,4"/>
<!-- A -->
<g id="node1" class="node"><title>A</title>
<polygon fill="lightgray" stroke="black" points="23,-372.718 0,-372.718 0,-354.718 23,-354.718 23,-372.718"/>
<text text-anchor="middle" x="11.5" y="-361.518" font-family="Times,serif" font-size="9.00">A</text>
</g>
<!-- A XOR B -->
<g id="node3" class="node"><title>A XOR B</title>
<ellipse fill="lightblue" stroke="black" cx="46.5" cy="-37.4767" rx="37.4533" ry="37.4533"/>
<text text-anchor="middle" x="46.5" y="-35.2767" font-family="Times,serif" font-size="9.00">A XOR B</text>
</g>
<!-- A&#45;&gt;A XOR B -->
<g id="edge7" class="edge"><title>A&#45;&gt;A XOR B</title>
<path fill="none" stroke="red" stroke-width="0.355201" d="M11.1295,-354.364C9.8817,-322.434 6.84101,-205.163 24.5,-110.953 26.2257,-101.747 28.6945,-92.0518 31.3591,-82.8535"/>
<polygon fill="red" stroke="red" stroke-width="0.355201" points="34.76,-83.6987 34.3016,-73.1138 28.0591,-81.6743 34.76,-83.6987"/>
</g>
<!-- 52 -->
<g id="node5" class="node"><title>52</title>
<ellipse fill="white" stroke="black" cx="38.5" cy="-300.333" rx="18.2703" ry="18.2703"/>
<text text-anchor="middle" x="38.5" y="-298.133" font-family="Times,serif" font-size="9.00">52</text>
</g>
<!-- A&#45;&gt;52 -->
<g id="edge3" class="edge"><title>A&#45;&gt;52</title>
<path fill="none" stroke="red" stroke-width="1.20116" d="M15.0298,-354.693C18.1495,-347.6 22.8742,-336.858 27.2687,-326.867"/>
<polygon fill="red" stroke="red" stroke-width="1.20116" points="30.4952,-328.225 31.3177,-317.662 24.0876,-325.407 30.4952,-328.225"/>
</g>
<!-- B -->
<g id="node2" class="node"><title>B</title>
<polygon fill="lightgray" stroke="black" points="77,-372.718 54,-372.718 54,-354.718 77,-354.718 77,-372.718"/>
<text text-anchor="middle" x="65.5" y="-361.518" font-family="Times,serif" font-size="9.00">B</text>
</g>
<!-- B&#45;&gt;A XOR B -->
<g id="edge4" class="edge"><title>B&#45;&gt;A XOR B</title>
<path fill="none" stroke="red" stroke-width="0.234537" d="M71.6628,-354.533C95.1646,-322.256 175.755,-201.152 133.5,-110.953 123.896,-90.4532 105.329,-73.7308 87.8045,-61.5356"/>
<polygon fill="red" stroke="red" stroke-width="0.234537" points="89.598,-58.5253 79.3296,-55.9158 85.7295,-64.3593 89.598,-58.5253"/>
</g>
<!-- B&#45;&gt;52 -->
<g id="edge1" class="edge"><title>B&#45;&gt;52</title>
<path fill="none" stroke="red" stroke-width="0.638432" d="M61.9702,-354.693C58.8505,-347.6 54.1258,-336.858 49.7313,-326.867"/>
<polygon fill="red" stroke="red" stroke-width="0.638432" points="52.9124,-325.407 45.6823,-317.662 46.5048,-328.225 52.9124,-325.407"/>
</g>
<!-- 1691 -->
<g id="node4" class="node"><title>1691</title>
<ellipse fill="white" stroke="black" cx="99.5" cy="-135.702" rx="25" ry="25"/>
<text text-anchor="middle" x="99.5" y="-133.502" font-family="Times,serif" font-size="9.00">1691</text>
</g>
<!-- 1691&#45;&gt;A XOR B -->
<g id="edge9" class="edge"><title>1691&#45;&gt;A XOR B</title>
<path fill="none" stroke="green" stroke-width="0.303735" d="M87.7376,-113.347C82.2992,-103.473 75.6466,-91.3944 69.2853,-79.8451"/>
<polygon fill="green" stroke="green" stroke-width="0.303735" points="72.1652,-77.819 64.2749,-70.7483 66.0337,-81.1962 72.1652,-77.819"/>
</g>
<!-- 52&#45;&gt;A XOR B -->
<g id="edge2" class="edge"><title>52&#45;&gt;A XOR B</title>
<path fill="none" stroke="red" stroke-width="0.727666" d="M34.0357,-282.16C31.5649,-271.762 28.7478,-258.187 27.5,-245.948 21.84,-190.433 29.9026,-126.479 37.2036,-84.4199"/>
<polygon fill="red" stroke="red" stroke-width="0.727666" points="40.666,-84.9406 38.9859,-74.4798 33.7759,-83.7051 40.666,-84.9406"/>
</g>
<!-- 1263 -->
<g id="node6" class="node"><title>1263</title>
<ellipse fill="white" stroke="black" cx="61.5" cy="-221.2" rx="25" ry="25"/>
<text text-anchor="middle" x="61.5" y="-219" font-family="Times,serif" font-size="9.00">1263</text>
</g>
<!-- 52&#45;&gt;1263 -->
<g id="edge5" class="edge"><title>52&#45;&gt;1263</title>
<path fill="none" stroke="red" stroke-width="0.182111" d="M43.4907,-282.596C45.9225,-274.441 48.9333,-264.344 51.7926,-254.755"/>
<polygon fill="red" stroke="red" stroke-width="0.182111" points="55.1833,-255.632 54.6868,-245.049 48.4751,-253.631 55.1833,-255.632"/>
</g>
<!-- 1263&#45;&gt;A XOR B -->
<g id="edge6" class="edge"><title>1263&#45;&gt;A XOR B</title>
<path fill="none" stroke="green" stroke-width="0.119795" stroke-dasharray="1,5" d="M59.539,-196.442C57.2189,-168.334 53.3009,-120.869 50.3641,-85.2901"/>
<polygon fill="green" stroke="green" stroke-width="0.119795" points="53.8365,-84.8095 49.5256,-75.1314 46.8602,-85.3855 53.8365,-84.8095"/>
</g>
<!-- 1263&#45;&gt;1691 -->
<g id="edge8" class="edge"><title>1263&#45;&gt;1691</title>
<path fill="none" stroke="green" stroke-width="0.486858" d="M71.4841,-198.262C75.7167,-188.961 80.7265,-177.953 85.3309,-167.836"/>
<polygon fill="green" stroke="green" stroke-width="0.486858" points="88.6259,-169.045 89.5826,-158.494 82.2547,-166.145 88.6259,-169.045"/>
</g>
</g>
</svg>
