<?xml version="1.0" encoding="utf-8" standalone="no"?>
<!DOCTYPE svg PUBLIC "-//W3C//DTD SVG 1.1//EN"
  "http://www.w3.org/Graphics/SVG/1.1/DTD/svg11.dtd">
<!-- Created with matplotlib (http://matplotlib.org/) -->
<svg height="345.6pt" version="1.1" viewBox="0 0 460.8 345.6" width="460.8pt" xmlns="http://www.w3.org/2000/svg" xmlns:xlink="http://www.w3.org/1999/xlink">
 <defs>
  <style type="text/css">
*{stroke-linecap:butt;stroke-linejoin:round;}
  </style>
 </defs>
 <g id="figure_1">
  <g id="patch_1">
   <path d="M 0 345.6 
L 460.8 345.6 
L 460.8 0 
L 0 0 
z
" style="fill:#ffffff;"/>
  </g>
  <g id="axes_1">
   <g id="patch_2">
    <path d="M 57.6 307.584 
L 414.72 307.584 
L 414.72 41.472 
L 57.6 41.472 
z
" style="fill:#ffffff;"/>
   </g>
   <g id="matplotlib.axis_1">
    <g id="xtick_1">
     <g id="line2d_1">
      <path clip-path="url(#p828a415fdf)" d="M 73.832727 307.584 
L 73.832727 41.472 
" style="fill:none;stroke:#b0b0b0;stroke-linecap:square;stroke-width:0.8;"/>
     </g>
     <g id="line2d_2">
      <defs>
       <path d="M 0 0 
L 0 3.5 
" id="mfee6a1dd1e" style="stroke:#000000;stroke-width:0.8;"/>
      </defs>
      <g>
       <use style="stroke:#000000;stroke-width:0.8;" x="73.832727" xlink:href="#mfee6a1dd1e" y="307.584"/>
      </g>
     </g>
     <g id="text_1">
      <!-- 0 -->
      <defs>
       <path d="M 31.78125 66.40625 
Q 24.171875 66.40625 20.328125 58.90625 
Q 16.5 51.421875 16.5 36.375 
Q 16.5 21.390625 20.328125 13.890625 
Q 24.171875 6.390625 31.78125 6.390625 
Q 39.453125 6.390625 43.28125 13.890625 
Q 47.125 21.390625 47.125 36.375 
Q 47.125 51.421875 43.28125 58.90625 
Q 39.453125 66.40625 31.78125 66.40625 
z
M 31.78125 74.21875 
Q 44.046875 74.21875 50.515625 64.515625 
Q 56.984375 54.828125 56.984375 36.375 
Q 56.984375 17.96875 50.515625 8.265625 
Q 44.046875 -1.421875 31.78125 -1.421875 
Q 19.53125 -1.421875 13.0625 8.265625 
Q 6.59375 17.96875 6.59375 36.375 
Q 6.59375 54.828125 13.0625 64.515625 
Q 19.53125 74.21875 31.78125 74.21875 
z
" id="DejaVuSans-30"/>
      </defs>
      <g transform="translate(70.651477 322.182437)scale(0.1 -0.1)">
       <use xlink:href="#DejaVuSans-30"/>
      </g>
     </g>
    </g>
    <g id="xtick_2">
     <g id="line2d_3">
      <path clip-path="url(#p828a415fdf)" d="M 114.618474 307.584 
L 114.618474 41.472 
" style="fill:none;stroke:#b0b0b0;stroke-linecap:square;stroke-width:0.8;"/>
     </g>
     <g id="line2d_4">
      <g>
       <use style="stroke:#000000;stroke-width:0.8;" x="114.618474" xlink:href="#mfee6a1dd1e" y="307.584"/>
      </g>
     </g>
     <g id="text_2">
      <!-- 25 -->
      <defs>
       <path d="M 19.1875 8.296875 
L 53.609375 8.296875 
L 53.609375 0 
L 7.328125 0 
L 7.328125 8.296875 
Q 12.9375 14.109375 22.625 23.890625 
Q 32.328125 33.6875 34.8125 36.53125 
Q 39.546875 41.84375 41.421875 45.53125 
Q 43.3125 49.21875 43.3125 52.78125 
Q 43.3125 58.59375 39.234375 62.25 
Q 35.15625 65.921875 28.609375 65.921875 
Q 23.96875 65.921875 18.8125 64.3125 
Q 13.671875 62.703125 7.8125 59.421875 
L 7.8125 69.390625 
Q 13.765625 71.78125 18.9375 73 
Q 24.125 74.21875 28.421875 74.21875 
Q 39.75 74.21875 46.484375 68.546875 
Q 53.21875 62.890625 53.21875 53.421875 
Q 53.21875 48.921875 51.53125 44.890625 
Q 49.859375 40.875 45.40625 35.40625 
Q 44.1875 33.984375 37.640625 27.21875 
Q 31.109375 20.453125 19.1875 8.296875 
z
" id="DejaVuSans-32"/>
       <path d="M 10.796875 72.90625 
L 49.515625 72.90625 
L 49.515625 64.59375 
L 19.828125 64.59375 
L 19.828125 46.734375 
Q 21.96875 47.46875 24.109375 47.828125 
Q 26.265625 48.1875 28.421875 48.1875 
Q 40.625 48.1875 47.75 41.5 
Q 54.890625 34.8125 54.890625 23.390625 
Q 54.890625 11.625 47.5625 5.09375 
Q 40.234375 -1.421875 26.90625 -1.421875 
Q 22.3125 -1.421875 17.546875 -0.640625 
Q 12.796875 0.140625 7.71875 1.703125 
L 7.71875 11.625 
Q 12.109375 9.234375 16.796875 8.0625 
Q 21.484375 6.890625 26.703125 6.890625 
Q 35.15625 6.890625 40.078125 11.328125 
Q 45.015625 15.765625 45.015625 23.390625 
Q 45.015625 31 40.078125 35.4375 
Q 35.15625 39.890625 26.703125 39.890625 
Q 22.75 39.890625 18.8125 39.015625 
Q 14.890625 38.140625 10.796875 36.28125 
z
" id="DejaVuSans-35"/>
      </defs>
      <g transform="translate(108.255974 322.182437)scale(0.1 -0.1)">
       <use xlink:href="#DejaVuSans-32"/>
       <use x="63.623047" xlink:href="#DejaVuSans-35"/>
      </g>
     </g>
    </g>
    <g id="xtick_3">
     <g id="line2d_5">
      <path clip-path="url(#p828a415fdf)" d="M 155.404221 307.584 
L 155.404221 41.472 
" style="fill:none;stroke:#b0b0b0;stroke-linecap:square;stroke-width:0.8;"/>
     </g>
     <g id="line2d_6">
      <g>
       <use style="stroke:#000000;stroke-width:0.8;" x="155.404221" xlink:href="#mfee6a1dd1e" y="307.584"/>
      </g>
     </g>
     <g id="text_3">
      <!-- 50 -->
      <g transform="translate(149.041721 322.182437)scale(0.1 -0.1)">
       <use xlink:href="#DejaVuSans-35"/>
       <use x="63.623047" xlink:href="#DejaVuSans-30"/>
      </g>
     </g>
    </g>
    <g id="xtick_4">
     <g id="line2d_7">
      <path clip-path="url(#p828a415fdf)" d="M 196.189968 307.584 
L 196.189968 41.472 
" style="fill:none;stroke:#b0b0b0;stroke-linecap:square;stroke-width:0.8;"/>
     </g>
     <g id="line2d_8">
      <g>
       <use style="stroke:#000000;stroke-width:0.8;" x="196.189968" xlink:href="#mfee6a1dd1e" y="307.584"/>
      </g>
     </g>
     <g id="text_4">
      <!-- 75 -->
      <defs>
       <path d="M 8.203125 72.90625 
L 55.078125 72.90625 
L 55.078125 68.703125 
L 28.609375 0 
L 18.3125 0 
L 43.21875 64.59375 
L 8.203125 64.59375 
z
" id="DejaVuSans-37"/>
      </defs>
      <g transform="translate(189.827468 322.182437)scale(0.1 -0.1)">
       <use xlink:href="#DejaVuSans-37"/>
       <use x="63.623047" xlink:href="#DejaVuSans-35"/>
      </g>
     </g>
    </g>
    <g id="xtick_5">
     <g id="line2d_9">
      <path clip-path="url(#p828a415fdf)" d="M 236.975715 307.584 
L 236.975715 41.472 
" style="fill:none;stroke:#b0b0b0;stroke-linecap:square;stroke-width:0.8;"/>
     </g>
     <g id="line2d_10">
      <g>
       <use style="stroke:#000000;stroke-width:0.8;" x="236.975715" xlink:href="#mfee6a1dd1e" y="307.584"/>
      </g>
     </g>
     <g id="text_5">
      <!-- 100 -->
      <defs>
       <path d="M 12.40625 8.296875 
L 28.515625 8.296875 
L 28.515625 63.921875 
L 10.984375 60.40625 
L 10.984375 69.390625 
L 28.421875 72.90625 
L 38.28125 72.90625 
L 38.28125 8.296875 
L 54.390625 8.296875 
L 54.390625 0 
L 12.40625 0 
z
" id="DejaVuSans-31"/>
      </defs>
      <g transform="translate(227.431965 322.182437)scale(0.1 -0.1)">
       <use xlink:href="#DejaVuSans-31"/>
       <use x="63.623047" xlink:href="#DejaVuSans-30"/>
       <use x="127.246094" xlink:href="#DejaVuSans-30"/>
      </g>
     </g>
    </g>
    <g id="xtick_6">
     <g id="line2d_11">
      <path clip-path="url(#p828a415fdf)" d="M 277.761462 307.584 
L 277.761462 41.472 
" style="fill:none;stroke:#b0b0b0;stroke-linecap:square;stroke-width:0.8;"/>
     </g>
     <g id="line2d_12">
      <g>
       <use style="stroke:#000000;stroke-width:0.8;" x="277.761462" xlink:href="#mfee6a1dd1e" y="307.584"/>
      </g>
     </g>
     <g id="text_6">
      <!-- 125 -->
      <g transform="translate(268.217712 322.182437)scale(0.1 -0.1)">
       <use xlink:href="#DejaVuSans-31"/>
       <use x="63.623047" xlink:href="#DejaVuSans-32"/>
       <use x="127.246094" xlink:href="#DejaVuSans-35"/>
      </g>
     </g>
    </g>
    <g id="xtick_7">
     <g id="line2d_13">
      <path clip-path="url(#p828a415fdf)" d="M 318.547209 307.584 
L 318.547209 41.472 
" style="fill:none;stroke:#b0b0b0;stroke-linecap:square;stroke-width:0.8;"/>
     </g>
     <g id="line2d_14">
      <g>
       <use style="stroke:#000000;stroke-width:0.8;" x="318.547209" xlink:href="#mfee6a1dd1e" y="307.584"/>
      </g>
     </g>
     <g id="text_7">
      <!-- 150 -->
      <g transform="translate(309.003459 322.182437)scale(0.1 -0.1)">
       <use xlink:href="#DejaVuSans-31"/>
       <use x="63.623047" xlink:href="#DejaVuSans-35"/>
       <use x="127.246094" xlink:href="#DejaVuSans-30"/>
      </g>
     </g>
    </g>
    <g id="xtick_8">
     <g id="line2d_15">
      <path clip-path="url(#p828a415fdf)" d="M 359.332956 307.584 
L 359.332956 41.472 
" style="fill:none;stroke:#b0b0b0;stroke-linecap:square;stroke-width:0.8;"/>
     </g>
     <g id="line2d_16">
      <g>
       <use style="stroke:#000000;stroke-width:0.8;" x="359.332956" xlink:href="#mfee6a1dd1e" y="307.584"/>
      </g>
     </g>
     <g id="text_8">
      <!-- 175 -->
      <g transform="translate(349.789206 322.182437)scale(0.1 -0.1)">
       <use xlink:href="#DejaVuSans-31"/>
       <use x="63.623047" xlink:href="#DejaVuSans-37"/>
       <use x="127.246094" xlink:href="#DejaVuSans-35"/>
      </g>
     </g>
    </g>
    <g id="xtick_9">
     <g id="line2d_17">
      <path clip-path="url(#p828a415fdf)" d="M 400.118703 307.584 
L 400.118703 41.472 
" style="fill:none;stroke:#b0b0b0;stroke-linecap:square;stroke-width:0.8;"/>
     </g>
     <g id="line2d_18">
      <g>
       <use style="stroke:#000000;stroke-width:0.8;" x="400.118703" xlink:href="#mfee6a1dd1e" y="307.584"/>
      </g>
     </g>
     <g id="text_9">
      <!-- 200 -->
      <g transform="translate(390.574953 322.182437)scale(0.1 -0.1)">
       <use xlink:href="#DejaVuSans-32"/>
       <use x="63.623047" xlink:href="#DejaVuSans-30"/>
       <use x="127.246094" xlink:href="#DejaVuSans-30"/>
      </g>
     </g>
    </g>
    <g id="text_10">
     <!-- Generations -->
     <defs>
      <path d="M 59.515625 10.40625 
L 59.515625 29.984375 
L 43.40625 29.984375 
L 43.40625 38.09375 
L 69.28125 38.09375 
L 69.28125 6.78125 
Q 63.578125 2.734375 56.6875 0.65625 
Q 49.8125 -1.421875 42 -1.421875 
Q 24.90625 -1.421875 15.25 8.5625 
Q 5.609375 18.5625 5.609375 36.375 
Q 5.609375 54.25 15.25 64.234375 
Q 24.90625 74.21875 42 74.21875 
Q 49.125 74.21875 55.546875 72.453125 
Q 61.96875 70.703125 67.390625 67.28125 
L 67.390625 56.78125 
Q 61.921875 61.421875 55.765625 63.765625 
Q 49.609375 66.109375 42.828125 66.109375 
Q 29.4375 66.109375 22.71875 58.640625 
Q 16.015625 51.171875 16.015625 36.375 
Q 16.015625 21.625 22.71875 14.15625 
Q 29.4375 6.6875 42.828125 6.6875 
Q 48.046875 6.6875 52.140625 7.59375 
Q 56.25 8.5 59.515625 10.40625 
z
" id="DejaVuSans-47"/>
      <path d="M 56.203125 29.59375 
L 56.203125 25.203125 
L 14.890625 25.203125 
Q 15.484375 15.921875 20.484375 11.0625 
Q 25.484375 6.203125 34.421875 6.203125 
Q 39.59375 6.203125 44.453125 7.46875 
Q 49.3125 8.734375 54.109375 11.28125 
L 54.109375 2.78125 
Q 49.265625 0.734375 44.1875 -0.34375 
Q 39.109375 -1.421875 33.890625 -1.421875 
Q 20.796875 -1.421875 13.15625 6.1875 
Q 5.515625 13.8125 5.515625 26.8125 
Q 5.515625 40.234375 12.765625 48.109375 
Q 20.015625 56 32.328125 56 
Q 43.359375 56 49.78125 48.890625 
Q 56.203125 41.796875 56.203125 29.59375 
z
M 47.21875 32.234375 
Q 47.125 39.59375 43.09375 43.984375 
Q 39.0625 48.390625 32.421875 48.390625 
Q 24.90625 48.390625 20.390625 44.140625 
Q 15.875 39.890625 15.1875 32.171875 
z
" id="DejaVuSans-65"/>
      <path d="M 54.890625 33.015625 
L 54.890625 0 
L 45.90625 0 
L 45.90625 32.71875 
Q 45.90625 40.484375 42.875 44.328125 
Q 39.84375 48.1875 33.796875 48.1875 
Q 26.515625 48.1875 22.3125 43.546875 
Q 18.109375 38.921875 18.109375 30.90625 
L 18.109375 0 
L 9.078125 0 
L 9.078125 54.6875 
L 18.109375 54.6875 
L 18.109375 46.1875 
Q 21.34375 51.125 25.703125 53.5625 
Q 30.078125 56 35.796875 56 
Q 45.21875 56 50.046875 50.171875 
Q 54.890625 44.34375 54.890625 33.015625 
z
" id="DejaVuSans-6e"/>
      <path d="M 41.109375 46.296875 
Q 39.59375 47.171875 37.8125 47.578125 
Q 36.03125 48 33.890625 48 
Q 26.265625 48 22.1875 43.046875 
Q 18.109375 38.09375 18.109375 28.8125 
L 18.109375 0 
L 9.078125 0 
L 9.078125 54.6875 
L 18.109375 54.6875 
L 18.109375 46.1875 
Q 20.953125 51.171875 25.484375 53.578125 
Q 30.03125 56 36.53125 56 
Q 37.453125 56 38.578125 55.875 
Q 39.703125 55.765625 41.0625 55.515625 
z
" id="DejaVuSans-72"/>
      <path d="M 34.28125 27.484375 
Q 23.390625 27.484375 19.1875 25 
Q 14.984375 22.515625 14.984375 16.5 
Q 14.984375 11.71875 18.140625 8.90625 
Q 21.296875 6.109375 26.703125 6.109375 
Q 34.1875 6.109375 38.703125 11.40625 
Q 43.21875 16.703125 43.21875 25.484375 
L 43.21875 27.484375 
z
M 52.203125 31.203125 
L 52.203125 0 
L 43.21875 0 
L 43.21875 8.296875 
Q 40.140625 3.328125 35.546875 0.953125 
Q 30.953125 -1.421875 24.3125 -1.421875 
Q 15.921875 -1.421875 10.953125 3.296875 
Q 6 8.015625 6 15.921875 
Q 6 25.140625 12.171875 29.828125 
Q 18.359375 34.515625 30.609375 34.515625 
L 43.21875 34.515625 
L 43.21875 35.40625 
Q 43.21875 41.609375 39.140625 45 
Q 35.0625 48.390625 27.6875 48.390625 
Q 23 48.390625 18.546875 47.265625 
Q 14.109375 46.140625 10.015625 43.890625 
L 10.015625 52.203125 
Q 14.9375 54.109375 19.578125 55.046875 
Q 24.21875 56 28.609375 56 
Q 40.484375 56 46.34375 49.84375 
Q 52.203125 43.703125 52.203125 31.203125 
z
" id="DejaVuSans-61"/>
      <path d="M 18.3125 70.21875 
L 18.3125 54.6875 
L 36.8125 54.6875 
L 36.8125 47.703125 
L 18.3125 47.703125 
L 18.3125 18.015625 
Q 18.3125 11.328125 20.140625 9.421875 
Q 21.96875 7.515625 27.59375 7.515625 
L 36.8125 7.515625 
L 36.8125 0 
L 27.59375 0 
Q 17.1875 0 13.234375 3.875 
Q 9.28125 7.765625 9.28125 18.015625 
L 9.28125 47.703125 
L 2.6875 47.703125 
L 2.6875 54.6875 
L 9.28125 54.6875 
L 9.28125 70.21875 
z
" id="DejaVuSans-74"/>
      <path d="M 9.421875 54.6875 
L 18.40625 54.6875 
L 18.40625 0 
L 9.421875 0 
z
M 9.421875 75.984375 
L 18.40625 75.984375 
L 18.40625 64.59375 
L 9.421875 64.59375 
z
" id="DejaVuSans-69"/>
      <path d="M 30.609375 48.390625 
Q 23.390625 48.390625 19.1875 42.75 
Q 14.984375 37.109375 14.984375 27.296875 
Q 14.984375 17.484375 19.15625 11.84375 
Q 23.34375 6.203125 30.609375 6.203125 
Q 37.796875 6.203125 41.984375 11.859375 
Q 46.1875 17.53125 46.1875 27.296875 
Q 46.1875 37.015625 41.984375 42.703125 
Q 37.796875 48.390625 30.609375 48.390625 
z
M 30.609375 56 
Q 42.328125 56 49.015625 48.375 
Q 55.71875 40.765625 55.71875 27.296875 
Q 55.71875 13.875 49.015625 6.21875 
Q 42.328125 -1.421875 30.609375 -1.421875 
Q 18.84375 -1.421875 12.171875 6.21875 
Q 5.515625 13.875 5.515625 27.296875 
Q 5.515625 40.765625 12.171875 48.375 
Q 18.84375 56 30.609375 56 
z
" id="DejaVuSans-6f"/>
      <path d="M 44.28125 53.078125 
L 44.28125 44.578125 
Q 40.484375 46.53125 36.375 47.5 
Q 32.28125 48.484375 27.875 48.484375 
Q 21.1875 48.484375 17.84375 46.4375 
Q 14.5 44.390625 14.5 40.28125 
Q 14.5 37.15625 16.890625 35.375 
Q 19.28125 33.59375 26.515625 31.984375 
L 29.59375 31.296875 
Q 39.15625 29.25 43.1875 25.515625 
Q 47.21875 21.78125 47.21875 15.09375 
Q 47.21875 7.46875 41.1875 3.015625 
Q 35.15625 -1.421875 24.609375 -1.421875 
Q 20.21875 -1.421875 15.453125 -0.5625 
Q 10.6875 0.296875 5.421875 2 
L 5.421875 11.28125 
Q 10.40625 8.6875 15.234375 7.390625 
Q 20.0625 6.109375 24.8125 6.109375 
Q 31.15625 6.109375 34.5625 8.28125 
Q 37.984375 10.453125 37.984375 14.40625 
Q 37.984375 18.0625 35.515625 20.015625 
Q 33.0625 21.96875 24.703125 23.78125 
L 21.578125 24.515625 
Q 13.234375 26.265625 9.515625 29.90625 
Q 5.8125 33.546875 5.8125 39.890625 
Q 5.8125 47.609375 11.28125 51.796875 
Q 16.75 56 26.8125 56 
Q 31.78125 56 36.171875 55.265625 
Q 40.578125 54.546875 44.28125 53.078125 
z
" id="DejaVuSans-73"/>
     </defs>
     <g transform="translate(205.662344 335.860562)scale(0.1 -0.1)">
      <use xlink:href="#DejaVuSans-47"/>
      <use x="77.490234" xlink:href="#DejaVuSans-65"/>
      <use x="139.013672" xlink:href="#DejaVuSans-6e"/>
      <use x="202.392578" xlink:href="#DejaVuSans-65"/>
      <use x="263.916016" xlink:href="#DejaVuSans-72"/>
      <use x="305.029297" xlink:href="#DejaVuSans-61"/>
      <use x="366.308594" xlink:href="#DejaVuSans-74"/>
      <use x="405.517578" xlink:href="#DejaVuSans-69"/>
      <use x="433.300781" xlink:href="#DejaVuSans-6f"/>
      <use x="494.482422" xlink:href="#DejaVuSans-6e"/>
      <use x="557.861328" xlink:href="#DejaVuSans-73"/>
     </g>
    </g>
   </g>
   <g id="matplotlib.axis_2">
    <g id="ytick_1">
     <g id="line2d_19">
      <path clip-path="url(#p828a415fdf)" d="M 57.6 287.236298 
L 414.72 287.236298 
" style="fill:none;stroke:#b0b0b0;stroke-linecap:square;stroke-width:0.8;"/>
     </g>
     <g id="line2d_20">
      <defs>
       <path d="M 0 0 
L -3.5 0 
" id="m256587eee0" style="stroke:#000000;stroke-width:0.8;"/>
      </defs>
      <g>
       <use style="stroke:#000000;stroke-width:0.8;" x="57.6" xlink:href="#m256587eee0" y="287.236298"/>
      </g>
     </g>
     <g id="text_11">
      <!-- 0 -->
      <g transform="translate(44.2375 291.035516)scale(0.1 -0.1)">
       <use xlink:href="#DejaVuSans-30"/>
      </g>
     </g>
    </g>
    <g id="ytick_2">
     <g id="line2d_21">
      <path clip-path="url(#p828a415fdf)" d="M 57.6 247.382387 
L 414.72 247.382387 
" style="fill:none;stroke:#b0b0b0;stroke-linecap:square;stroke-width:0.8;"/>
     </g>
     <g id="line2d_22">
      <g>
       <use style="stroke:#000000;stroke-width:0.8;" x="57.6" xlink:href="#m256587eee0" y="247.382387"/>
      </g>
     </g>
     <g id="text_12">
      <!-- 50 -->
      <g transform="translate(37.875 251.181605)scale(0.1 -0.1)">
       <use xlink:href="#DejaVuSans-35"/>
       <use x="63.623047" xlink:href="#DejaVuSans-30"/>
      </g>
     </g>
    </g>
    <g id="ytick_3">
     <g id="line2d_23">
      <path clip-path="url(#p828a415fdf)" d="M 57.6 207.528476 
L 414.72 207.528476 
" style="fill:none;stroke:#b0b0b0;stroke-linecap:square;stroke-width:0.8;"/>
     </g>
     <g id="line2d_24">
      <g>
       <use style="stroke:#000000;stroke-width:0.8;" x="57.6" xlink:href="#m256587eee0" y="207.528476"/>
      </g>
     </g>
     <g id="text_13">
      <!-- 100 -->
      <g transform="translate(31.5125 211.327695)scale(0.1 -0.1)">
       <use xlink:href="#DejaVuSans-31"/>
       <use x="63.623047" xlink:href="#DejaVuSans-30"/>
       <use x="127.246094" xlink:href="#DejaVuSans-30"/>
      </g>
     </g>
    </g>
    <g id="ytick_4">
     <g id="line2d_25">
      <path clip-path="url(#p828a415fdf)" d="M 57.6 167.674565 
L 414.72 167.674565 
" style="fill:none;stroke:#b0b0b0;stroke-linecap:square;stroke-width:0.8;"/>
     </g>
     <g id="line2d_26">
      <g>
       <use style="stroke:#000000;stroke-width:0.8;" x="57.6" xlink:href="#m256587eee0" y="167.674565"/>
      </g>
     </g>
     <g id="text_14">
      <!-- 150 -->
      <g transform="translate(31.5125 171.473784)scale(0.1 -0.1)">
       <use xlink:href="#DejaVuSans-31"/>
       <use x="63.623047" xlink:href="#DejaVuSans-35"/>
       <use x="127.246094" xlink:href="#DejaVuSans-30"/>
      </g>
     </g>
    </g>
    <g id="ytick_5">
     <g id="line2d_27">
      <path clip-path="url(#p828a415fdf)" d="M 57.6 127.820654 
L 414.72 127.820654 
" style="fill:none;stroke:#b0b0b0;stroke-linecap:square;stroke-width:0.8;"/>
     </g>
     <g id="line2d_28">
      <g>
       <use style="stroke:#000000;stroke-width:0.8;" x="57.6" xlink:href="#m256587eee0" y="127.820654"/>
      </g>
     </g>
     <g id="text_15">
      <!-- 200 -->
      <g transform="translate(31.5125 131.619873)scale(0.1 -0.1)">
       <use xlink:href="#DejaVuSans-32"/>
       <use x="63.623047" xlink:href="#DejaVuSans-30"/>
       <use x="127.246094" xlink:href="#DejaVuSans-30"/>
      </g>
     </g>
    </g>
    <g id="ytick_6">
     <g id="line2d_29">
      <path clip-path="url(#p828a415fdf)" d="M 57.6 87.966743 
L 414.72 87.966743 
" style="fill:none;stroke:#b0b0b0;stroke-linecap:square;stroke-width:0.8;"/>
     </g>
     <g id="line2d_30">
      <g>
       <use style="stroke:#000000;stroke-width:0.8;" x="57.6" xlink:href="#m256587eee0" y="87.966743"/>
      </g>
     </g>
     <g id="text_16">
      <!-- 250 -->
      <g transform="translate(31.5125 91.765962)scale(0.1 -0.1)">
       <use xlink:href="#DejaVuSans-32"/>
       <use x="63.623047" xlink:href="#DejaVuSans-35"/>
       <use x="127.246094" xlink:href="#DejaVuSans-30"/>
      </g>
     </g>
    </g>
    <g id="ytick_7">
     <g id="line2d_31">
      <path clip-path="url(#p828a415fdf)" d="M 57.6 48.112832 
L 414.72 48.112832 
" style="fill:none;stroke:#b0b0b0;stroke-linecap:square;stroke-width:0.8;"/>
     </g>
     <g id="line2d_32">
      <g>
       <use style="stroke:#000000;stroke-width:0.8;" x="57.6" xlink:href="#m256587eee0" y="48.112832"/>
      </g>
     </g>
     <g id="text_17">
      <!-- 300 -->
      <defs>
       <path d="M 40.578125 39.3125 
Q 47.65625 37.796875 51.625 33 
Q 55.609375 28.21875 55.609375 21.1875 
Q 55.609375 10.40625 48.1875 4.484375 
Q 40.765625 -1.421875 27.09375 -1.421875 
Q 22.515625 -1.421875 17.65625 -0.515625 
Q 12.796875 0.390625 7.625 2.203125 
L 7.625 11.71875 
Q 11.71875 9.328125 16.59375 8.109375 
Q 21.484375 6.890625 26.8125 6.890625 
Q 36.078125 6.890625 40.9375 10.546875 
Q 45.796875 14.203125 45.796875 21.1875 
Q 45.796875 27.640625 41.28125 31.265625 
Q 36.765625 34.90625 28.71875 34.90625 
L 20.21875 34.90625 
L 20.21875 43.015625 
L 29.109375 43.015625 
Q 36.375 43.015625 40.234375 45.921875 
Q 44.09375 48.828125 44.09375 54.296875 
Q 44.09375 59.90625 40.109375 62.90625 
Q 36.140625 65.921875 28.71875 65.921875 
Q 24.65625 65.921875 20.015625 65.03125 
Q 15.375 64.15625 9.8125 62.3125 
L 9.8125 71.09375 
Q 15.4375 72.65625 20.34375 73.4375 
Q 25.25 74.21875 29.59375 74.21875 
Q 40.828125 74.21875 47.359375 69.109375 
Q 53.90625 64.015625 53.90625 55.328125 
Q 53.90625 49.265625 50.4375 45.09375 
Q 46.96875 40.921875 40.578125 39.3125 
z
" id="DejaVuSans-33"/>
      </defs>
      <g transform="translate(31.5125 51.912051)scale(0.1 -0.1)">
       <use xlink:href="#DejaVuSans-33"/>
       <use x="63.623047" xlink:href="#DejaVuSans-30"/>
       <use x="127.246094" xlink:href="#DejaVuSans-30"/>
      </g>
     </g>
    </g>
    <g id="text_18">
     <!-- Fitness -->
     <defs>
      <path d="M 9.8125 72.90625 
L 51.703125 72.90625 
L 51.703125 64.59375 
L 19.671875 64.59375 
L 19.671875 43.109375 
L 48.578125 43.109375 
L 48.578125 34.8125 
L 19.671875 34.8125 
L 19.671875 0 
L 9.8125 0 
z
" id="DejaVuSans-46"/>
     </defs>
     <g transform="translate(25.432812 192.202219)rotate(-90)scale(0.1 -0.1)">
      <use xlink:href="#DejaVuSans-46"/>
      <use x="57.410156" xlink:href="#DejaVuSans-69"/>
      <use x="85.193359" xlink:href="#DejaVuSans-74"/>
      <use x="124.402344" xlink:href="#DejaVuSans-6e"/>
      <use x="187.78125" xlink:href="#DejaVuSans-65"/>
      <use x="249.304688" xlink:href="#DejaVuSans-73"/>
      <use x="301.404297" xlink:href="#DejaVuSans-73"/>
     </g>
    </g>
   </g>
   <g id="line2d_33">
    <path clip-path="url(#p828a415fdf)" d="M 73.832727 281.922443 
L 75.464157 279.126893 
L 77.095587 278.680991 
L 78.727017 277.532737 
L 80.358447 274.431063 
L 81.989877 270.237738 
L 83.621307 264.882682 
L 85.252736 258.749415 
L 86.884166 259.745956 
L 88.515596 256.306197 
L 90.147026 248.197178 
L 91.778456 245.221419 
L 93.409886 231.529387 
L 95.041316 234.22174 
L 96.672746 240.421237 
L 98.304175 234.452007 
L 99.935605 229.96796 
L 101.567035 232.619112 
L 103.198465 218.723802 
L 104.829895 216.708248 
L 106.461325 198.320146 
L 108.092755 219.61137 
L 109.724185 210.949379 
L 111.355614 196.542441 
L 112.987044 221.727389 
L 114.618474 207.876604 
L 116.249904 212.983822 
L 117.881334 219.48275 
L 119.512764 208.3438 
L 121.144194 214.178908 
L 122.775624 208.984898 
L 124.407053 200.446305 
L 126.038483 220.160368 
L 127.669913 198.153431 
L 129.301343 200.718622 
L 130.932773 187.416743 
L 132.564203 194.470752 
L 134.195633 208.251655 
L 135.827063 183.326172 
L 137.458492 195.84146 
L 139.089922 197.967416 
L 140.721352 208.790725 
L 142.352782 209.664994 
L 143.984212 215.327886 
L 145.615642 193.856557 
L 147.247072 197.913527 
L 148.878502 199.89999 
L 150.509931 208.43032 
L 152.141361 210.234946 
L 153.772791 198.53914 
L 155.404221 199.633443 
L 157.035651 211.825156 
L 158.667081 195.581526 
L 160.298511 205.360196 
L 161.929941 183.822594 
L 163.56137 179.419584 
L 165.1928 197.867806 
L 166.82423 170.89587 
L 168.45566 182.055611 
L 170.08709 186.368868 
L 171.71852 174.815065 
L 173.34995 174.38312 
L 174.98138 168.60687 
L 176.61281 170.90184 
L 178.244239 156.264732 
L 179.875669 178.707618 
L 181.507099 198.178641 
L 183.138529 196.057231 
L 184.769959 191.257711 
L 186.401389 160.194807 
L 188.032819 158.102342 
L 189.664249 175.290784 
L 191.295678 186.239785 
L 192.927108 185.940275 
L 194.558538 186.108549 
L 196.189968 201.717008 
L 197.821398 168.832014 
L 199.452828 176.599557 
L 201.084258 191.213383 
L 202.715688 158.816916 
L 204.347117 188.508646 
L 205.978547 175.362396 
L 207.609977 192.75463 
L 209.241407 166.366951 
L 210.872837 194.618083 
L 212.504267 182.352117 
L 214.135697 166.585067 
L 215.767127 201.804712 
L 217.398556 187.520531 
L 219.029986 187.580289 
L 220.661416 182.04343 
L 222.292846 174.59845 
L 223.924276 197.239456 
L 225.555706 190.532041 
L 227.187136 194.257974 
L 228.818566 181.630243 
L 230.449995 203.130112 
L 232.081425 180.051341 
L 233.712855 195.313505 
L 235.344285 174.947458 
L 236.975715 194.246878 
L 238.607145 202.622373 
L 240.238575 185.069654 
L 241.870005 175.91539 
L 243.501434 184.405056 
L 245.132864 164.5089 
L 248.395724 175.555818 
L 250.027154 158.983946 
L 251.658584 175.41704 
L 253.290014 179.156466 
L 254.921444 188.042722 
L 256.552873 194.0024 
L 258.184303 178.06801 
L 259.815733 180.602745 
L 261.447163 163.709513 
L 263.078593 172.785858 
L 264.710023 183.269565 
L 266.341453 188.495656 
L 267.972883 192.775673 
L 269.604312 217.471128 
L 271.235742 201.390054 
L 272.867172 189.058588 
L 274.498602 188.835597 
L 276.130032 172.953719 
L 277.761462 196.087033 
L 279.392892 198.398717 
L 281.024322 193.46351 
L 282.655751 191.228232 
L 284.287181 186.66836 
L 285.918611 190.003368 
L 287.550041 178.26159 
L 289.181471 200.608549 
L 290.812901 206.306086 
L 292.444331 207.436689 
L 294.075761 185.620454 
L 295.70719 198.649287 
L 297.33862 223.033898 
L 298.97005 183.729212 
L 300.60148 168.167307 
L 302.23291 190.605177 
L 303.86434 194.623305 
L 305.49577 190.606994 
L 307.1272 188.222308 
L 308.75863 197.08748 
L 310.390059 193.761323 
L 312.021489 182.800021 
L 313.652919 189.20165 
L 315.284349 183.081043 
L 316.915779 171.245184 
L 318.547209 173.270423 
L 320.178639 164.950847 
L 321.810069 166.766217 
L 323.441498 186.47347 
L 325.072928 188.936397 
L 326.704358 176.233752 
L 328.335788 158.23686 
L 329.967218 158.74809 
L 331.598648 176.970128 
L 333.230078 170.026282 
L 334.861508 179.700703 
L 336.492937 169.425555 
L 338.124367 185.17315 
L 339.755797 178.114788 
L 341.387227 166.850576 
L 343.018657 154.790314 
L 344.650087 184.326843 
L 346.281517 188.632022 
L 347.912947 186.951366 
L 349.544376 194.252666 
L 352.807236 169.187741 
L 354.438666 156.095558 
L 356.070096 193.690726 
L 357.701526 183.358196 
L 359.332956 163.057788 
L 360.964386 163.866162 
L 362.595815 156.804065 
L 364.227245 161.571617 
L 365.858675 163.894835 
L 367.490105 199.160458 
L 369.121535 174.083944 
L 370.752965 160.642306 
L 372.384395 173.681774 
L 374.015825 175.44352 
L 375.647254 162.826951 
L 377.278684 190.289332 
L 378.910114 167.021759 
L 380.541544 157.87727 
L 382.172974 184.027055 
L 383.804404 170.572021 
L 385.435834 164.026729 
L 387.067264 184.548321 
L 388.698693 187.86622 
L 390.330123 190.153366 
L 391.961553 164.526841 
L 393.592983 178.448281 
L 395.224413 172.767048 
L 396.855843 182.347074 
L 398.487273 166.508214 
L 398.487273 166.508214 
" style="fill:none;stroke:#0000ff;stroke-linecap:square;stroke-width:1.5;"/>
   </g>
   <g id="line2d_34">
    <path clip-path="url(#p828a415fdf)" d="M 73.832727 287.063443 
L 75.464157 283.964792 
L 77.095587 284.247619 
L 78.727017 285.091387 
L 80.358447 287.866133 
L 81.989877 287.823838 
L 83.621307 287.384178 
L 85.252736 283.956576 
L 86.884166 288.876652 
L 88.515596 288.300299 
L 90.147026 284.317513 
L 91.778456 285.655497 
L 93.409886 276.030255 
L 95.041316 285.817771 
L 96.672746 290.162267 
L 98.304175 283.328463 
L 99.935605 281.77457 
L 101.567035 284.495197 
L 103.198465 273.833392 
L 104.829895 270.628522 
L 106.461325 255.787694 
L 108.092755 277.235183 
L 109.724185 271.971338 
L 111.355614 257.736137 
L 112.987044 280.861455 
L 114.618474 265.464334 
L 116.249904 279.943678 
L 117.881334 277.423195 
L 119.512764 263.673718 
L 121.144194 267.708258 
L 122.775624 273.643392 
L 124.407053 258.440057 
L 126.038483 282.281367 
L 127.669913 258.827704 
L 129.301343 262.737417 
L 130.932773 249.104581 
L 132.564203 261.412595 
L 134.195633 267.673509 
L 135.827063 240.03571 
L 137.458492 257.56192 
L 139.089922 262.369179 
L 140.721352 275.750589 
L 142.352782 273.819767 
L 143.984212 281.9837 
L 145.615642 258.989395 
L 147.247072 258.892669 
L 148.878502 262.82779 
L 150.509931 272.531006 
L 152.141361 273.270678 
L 153.772791 253.41456 
L 155.404221 255.906131 
L 157.035651 274.752279 
L 158.667081 265.043433 
L 160.298511 275.565458 
L 161.929941 253.388626 
L 163.56137 245.505786 
L 165.1928 274.184029 
L 166.82423 240.741255 
L 170.08709 260.617942 
L 171.71852 250.332709 
L 173.34995 257.137805 
L 174.98138 247.094966 
L 176.61281 254.328843 
L 178.244239 235.994485 
L 179.875669 263.470041 
L 181.507099 278.100099 
L 183.138529 270.607272 
L 184.769959 277.562352 
L 186.401389 245.006134 
L 188.032819 241.041037 
L 191.295678 271.42444 
L 192.927108 272.292874 
L 194.558538 276.270433 
L 196.189968 283.087216 
L 197.821398 249.779314 
L 199.452828 263.330825 
L 201.084258 262.206085 
L 202.715688 228.501409 
L 204.347117 274.093006 
L 205.978547 257.572098 
L 207.609977 279.435756 
L 209.241407 252.721404 
L 210.872837 283.413782 
L 212.504267 267.946438 
L 214.135697 248.43696 
L 215.767127 286.087972 
L 217.398556 272.778247 
L 219.029986 268.076963 
L 220.661416 261.050583 
L 222.292846 250.704718 
L 223.924276 282.762932 
L 225.555706 276.640265 
L 227.187136 283.730813 
L 228.818566 261.972584 
L 230.449995 288.032353 
L 232.081425 255.426879 
L 233.712855 267.224019 
L 235.344285 252.35012 
L 236.975715 281.678506 
L 238.607145 279.878901 
L 240.238575 259.218249 
L 241.870005 252.719408 
L 243.501434 261.677363 
L 245.132864 246.046573 
L 246.764294 257.993427 
L 248.395724 258.833308 
L 250.027154 231.98249 
L 251.658584 247.005781 
L 253.290014 256.730707 
L 254.921444 270.292079 
L 256.552873 271.926994 
L 258.184303 263.020202 
L 259.815733 259.276228 
L 261.447163 252.01834 
L 263.078593 260.646421 
L 264.710023 265.644646 
L 266.341453 266.90425 
L 267.972883 261.11462 
L 269.604312 286.334357 
L 271.235742 283.975181 
L 272.867172 269.729521 
L 274.498602 271.091455 
L 276.130032 238.987163 
L 277.761462 275.051228 
L 279.392892 274.241754 
L 281.024322 267.872469 
L 282.655751 264.715027 
L 284.287181 268.204151 
L 285.918611 276.80673 
L 287.550041 259.233797 
L 289.181471 280.616946 
L 290.812901 286.944716 
L 292.444331 288.822331 
L 294.075761 264.110535 
L 295.70719 276.299036 
L 297.33862 295.488 
L 298.97005 251.210464 
L 300.60148 242.592272 
L 302.23291 267.756371 
L 303.86434 272.156567 
L 307.1272 259.753382 
L 308.75863 273.235005 
L 310.390059 278.091801 
L 312.021489 255.843612 
L 313.652919 270.419272 
L 315.284349 266.236531 
L 316.915779 251.405313 
L 318.547209 261.618103 
L 320.178639 247.995642 
L 321.810069 249.577878 
L 323.441498 269.121665 
L 325.072928 273.514932 
L 326.704358 261.387841 
L 328.335788 238.777657 
L 329.967218 238.14079 
L 331.598648 262.384348 
L 333.230078 254.476642 
L 334.861508 265.178119 
L 336.492937 252.86114 
L 338.124367 267.856696 
L 339.755797 262.397539 
L 341.387227 247.12896 
L 343.018657 233.503235 
L 344.650087 264.873672 
L 346.281517 269.291055 
L 347.912947 265.64053 
L 349.544376 276.434499 
L 351.175806 262.624049 
L 352.807236 247.212225 
L 354.438666 237.229737 
L 356.070096 269.756218 
L 357.701526 265.994988 
L 359.332956 246.230227 
L 360.964386 243.217631 
L 362.595815 245.195281 
L 364.227245 254.244876 
L 365.858675 247.252372 
L 367.490105 281.439377 
L 369.121535 256.628247 
L 370.752965 237.263549 
L 372.384395 257.662605 
L 374.015825 251.61617 
L 375.647254 243.79856 
L 377.278684 276.270109 
L 378.910114 254.794178 
L 380.541544 237.169017 
L 382.172974 266.52099 
L 383.804404 254.546024 
L 385.435834 244.110758 
L 387.067264 271.421538 
L 388.698693 271.458269 
L 390.330123 275.001615 
L 391.961553 246.733749 
L 393.592983 259.972749 
L 395.224413 253.234792 
L 396.855843 264.379204 
L 398.487273 250.426349 
L 398.487273 250.426349 
" style="fill:none;stroke:#008000;stroke-dasharray:9.6,2.4,1.5,2.4;stroke-dashoffset:0;stroke-width:1.5;"/>
   </g>
   <g id="line2d_35">
    <path clip-path="url(#p828a415fdf)" d="M 73.832727 276.781443 
L 75.464157 274.288995 
L 77.095587 273.114364 
L 78.727017 269.974087 
L 80.358447 260.995992 
L 81.989877 252.651639 
L 83.621307 242.381185 
L 85.252736 233.542255 
L 86.884166 230.615259 
L 88.515596 224.312095 
L 90.147026 212.076843 
L 91.778456 204.787341 
L 93.409886 187.028519 
L 95.041316 182.625709 
L 96.672746 190.680207 
L 98.304175 185.57555 
L 99.935605 178.161351 
L 101.567035 180.743027 
L 103.198465 163.614211 
L 104.829895 162.787975 
L 106.461325 140.852598 
L 108.092755 161.987557 
L 109.724185 149.927421 
L 111.355614 135.348746 
L 112.987044 162.593323 
L 114.618474 150.288874 
L 116.249904 146.023967 
L 117.881334 161.542305 
L 119.512764 153.013882 
L 121.144194 160.649559 
L 122.775624 144.326404 
L 124.407053 142.452553 
L 126.038483 158.039369 
L 127.669913 137.479158 
L 129.301343 138.699826 
L 130.932773 125.728906 
L 132.564203 127.528909 
L 134.195633 148.829801 
L 135.827063 126.616634 
L 137.458492 134.121 
L 139.089922 133.565653 
L 140.721352 141.830861 
L 142.352782 145.51022 
L 143.984212 148.672072 
L 145.615642 128.723718 
L 147.247072 136.934385 
L 148.878502 136.97219 
L 150.509931 144.329635 
L 152.141361 147.199215 
L 153.772791 143.66372 
L 155.404221 143.360756 
L 157.035651 148.898033 
L 158.667081 126.11962 
L 160.298511 135.154935 
L 161.929941 114.256562 
L 163.56137 113.333382 
L 165.1928 121.551584 
L 166.82423 101.050484 
L 168.45566 113.235244 
L 170.08709 112.119794 
L 171.71852 99.29742 
L 173.34995 91.628435 
L 174.98138 90.118773 
L 176.61281 87.474838 
L 178.244239 76.53498 
L 179.875669 93.945194 
L 181.507099 118.257184 
L 183.138529 121.507189 
L 184.769959 104.95307 
L 186.401389 75.38348 
L 188.032819 75.163647 
L 189.664249 94.254949 
L 191.295678 101.05513 
L 192.927108 99.587675 
L 194.558538 95.946665 
L 196.189968 120.3468 
L 197.821398 87.884715 
L 199.452828 89.868288 
L 201.084258 120.220681 
L 202.715688 89.132423 
L 204.347117 102.924285 
L 205.978547 93.152693 
L 207.609977 106.073504 
L 209.241407 80.012498 
L 210.872837 105.822385 
L 212.504267 96.757795 
L 214.135697 84.733175 
L 215.767127 117.521451 
L 217.398556 102.262816 
L 219.029986 107.083615 
L 220.661416 103.036277 
L 222.292846 98.492182 
L 223.924276 111.715979 
L 225.555706 104.423818 
L 227.187136 104.785135 
L 228.818566 101.287901 
L 230.449995 118.227871 
L 232.081425 104.675803 
L 233.712855 123.40299 
L 235.344285 97.544797 
L 236.975715 106.81525 
L 238.607145 125.365845 
L 240.238575 110.92106 
L 241.870005 99.111371 
L 243.501434 107.13275 
L 245.132864 82.971227 
L 246.764294 82.355975 
L 248.395724 92.278327 
L 250.027154 85.985401 
L 251.658584 103.828299 
L 253.290014 101.582225 
L 254.921444 105.793366 
L 256.552873 116.077806 
L 258.184303 93.115819 
L 259.815733 101.929261 
L 261.447163 75.400685 
L 263.078593 84.925295 
L 264.710023 100.894484 
L 266.341453 110.087061 
L 267.972883 124.436727 
L 269.604312 148.607898 
L 271.235742 118.804926 
L 272.867172 108.387655 
L 274.498602 106.579739 
L 276.130032 106.920275 
L 277.761462 117.122837 
L 279.392892 122.555681 
L 281.024322 119.054551 
L 282.655751 117.741437 
L 284.287181 105.132569 
L 285.918611 103.200006 
L 287.550041 97.289382 
L 289.181471 120.600151 
L 290.812901 125.667456 
L 292.444331 126.051046 
L 294.075761 107.130372 
L 295.70719 120.999538 
L 297.33862 150.579796 
L 298.97005 116.24796 
L 300.60148 93.742343 
L 302.23291 113.453982 
L 303.86434 117.090044 
L 305.49577 115.111643 
L 307.1272 116.691234 
L 308.75863 120.939954 
L 310.390059 109.430846 
L 312.021489 109.75643 
L 313.652919 107.984027 
L 315.284349 99.925556 
L 316.915779 91.085056 
L 318.547209 84.922743 
L 320.178639 81.906053 
L 321.810069 83.954555 
L 323.441498 103.825275 
L 325.072928 104.357863 
L 328.335788 77.696063 
L 329.967218 79.355391 
L 331.598648 91.555908 
L 333.230078 85.575922 
L 334.861508 94.223286 
L 336.492937 85.989969 
L 338.124367 102.489604 
L 339.755797 93.832038 
L 341.387227 86.572192 
L 343.018657 76.077393 
L 344.650087 103.780014 
L 346.281517 107.972988 
L 347.912947 108.262202 
L 349.544376 112.070833 
L 352.807236 91.163258 
L 354.438666 74.961379 
L 356.070096 117.625234 
L 357.701526 100.721404 
L 359.332956 79.885349 
L 360.964386 84.514694 
L 362.595815 68.412848 
L 364.227245 68.898358 
L 365.858675 80.537298 
L 367.490105 116.88154 
L 369.121535 91.539641 
L 370.752965 84.021064 
L 372.384395 89.700943 
L 374.015825 99.27087 
L 375.647254 81.855342 
L 377.278684 104.308556 
L 378.910114 79.249339 
L 380.541544 78.585523 
L 382.172974 101.53312 
L 383.804404 86.598018 
L 385.435834 83.9427 
L 387.067264 97.675104 
L 388.698693 104.274171 
L 390.330123 105.305116 
L 391.961553 82.319932 
L 393.592983 96.923813 
L 395.224413 92.299305 
L 396.855843 100.314945 
L 398.487273 82.590078 
L 398.487273 82.590078 
" style="fill:none;stroke:#008000;stroke-dasharray:9.6,2.4,1.5,2.4;stroke-dashoffset:0;stroke-width:1.5;"/>
   </g>
   <g id="line2d_36">
    <path clip-path="url(#p828a415fdf)" d="M 73.832727 268.10642 
L 77.095587 268.10642 
L 78.727017 257.744404 
L 80.358447 217.093414 
L 81.989877 218.687571 
L 83.621307 213.905102 
L 85.252736 198.760615 
L 86.884166 182.021973 
L 88.515596 169.268721 
L 90.147026 166.080408 
L 91.778456 157.312548 
L 93.409886 127.820654 
L 95.041316 127.820654 
L 96.672746 138.979749 
L 98.304175 143.762218 
L 99.935605 132.603123 
L 101.567035 129.41481 
L 103.198465 97.531682 
L 104.829895 90.176057 
L 106.461325 81.008684 
L 108.092755 95.624888 
L 109.724185 69.678442 
L 111.355614 85.885183 
L 112.987044 64.419537 
L 114.618474 66.517963 
L 116.249904 68.904841 
L 117.881334 70.21904 
L 119.512764 69.433693 
L 121.144194 65.216605 
L 122.775624 69.376529 
L 124.407053 77.665856 
L 126.038483 74.791131 
L 127.669913 63.495234 
L 129.301343 62.686362 
L 130.932773 60.695722 
L 132.564203 68.786965 
L 134.195633 68.699731 
L 135.827063 83.184274 
L 137.458492 66.742478 
L 139.089922 61.149398 
L 140.721352 61.717533 
L 142.352782 63.177373 
L 143.984212 60.215825 
L 145.615642 68.69099 
L 147.247072 62.065933 
L 148.878502 68.231014 
L 150.509931 84.951512 
L 152.141361 70.862236 
L 153.772791 69.23249 
L 155.404221 67.985189 
L 157.035651 63.005181 
L 158.667081 67.670759 
L 160.298511 70.156388 
L 161.929941 56.654212 
L 163.56137 68.013503 
L 165.1928 58.682646 
L 166.82423 60.425582 
L 168.45566 71.380326 
L 170.08709 59.117871 
L 171.71852 65.274434 
L 173.34995 62.620588 
L 174.98138 63.619539 
L 176.61281 61.70545 
L 178.244239 66.208526 
L 179.875669 62.378531 
L 181.507099 68.109519 
L 183.138529 60.483739 
L 184.769959 62.448745 
L 186.401389 60.252849 
L 188.032819 60.335232 
L 189.664249 65.348288 
L 191.295678 62.485136 
L 192.927108 56.615975 
L 194.558538 59.377134 
L 196.189968 68.656393 
L 197.821398 60.084488 
L 199.452828 61.229554 
L 201.084258 66.278191 
L 202.715688 65.810472 
L 204.347117 63.409559 
L 205.978547 57.189453 
L 207.609977 61.787852 
L 209.241407 60.310535 
L 210.872837 57.782355 
L 212.504267 65.19665 
L 214.135697 64.784486 
L 215.767127 63.476566 
L 217.398556 60.887392 
L 219.029986 65.584714 
L 220.661416 64.11264 
L 222.292846 65.420152 
L 223.924276 62.973842 
L 225.555706 59.961597 
L 227.187136 64.574766 
L 228.818566 62.753345 
L 230.449995 58.335482 
L 232.081425 61.250377 
L 233.712855 63.132804 
L 235.344285 63.115935 
L 236.975715 65.715056 
L 238.607145 67.415702 
L 240.238575 58.406931 
L 241.870005 59.744135 
L 243.501434 57.571956 
L 245.132864 66.180828 
L 246.764294 59.081278 
L 248.395724 53.568 
L 250.027154 75.721535 
L 251.658584 61.120236 
L 253.290014 62.771263 
L 254.921444 69.235383 
L 256.552873 63.137096 
L 258.184303 60.66052 
L 259.815733 53.951094 
L 261.447163 53.570495 
L 264.710023 63.362588 
L 266.341453 62.982211 
L 267.972883 55.915609 
L 269.604312 67.397795 
L 271.235742 63.602153 
L 272.867172 62.490785 
L 274.498602 59.450376 
L 276.130032 64.810506 
L 277.761462 67.127915 
L 279.392892 76.295258 
L 281.024322 55.781892 
L 282.655751 64.565227 
L 284.287181 62.034183 
L 285.918611 58.285637 
L 287.550041 66.280405 
L 289.181471 60.356654 
L 290.812901 56.113816 
L 292.444331 58.069245 
L 294.075761 65.957025 
L 295.70719 61.658733 
L 297.33862 55.007581 
L 298.97005 67.229531 
L 300.60148 55.190871 
L 302.23291 64.292985 
L 303.86434 64.72003 
L 305.49577 69.866202 
L 307.1272 66.350626 
L 308.75863 65.393655 
L 310.390059 61.185391 
L 312.021489 61.963696 
L 313.652919 63.068301 
L 315.284349 63.680936 
L 316.915779 63.967058 
L 318.547209 64.831208 
L 320.178639 66.320336 
L 321.810069 57.088447 
L 323.441498 61.310827 
L 325.072928 65.097164 
L 326.704358 62.52354 
L 328.335788 58.899091 
L 329.967218 57.494174 
L 331.598648 54.719186 
L 333.230078 63.966971 
L 334.861508 58.725997 
L 336.492937 63.788582 
L 338.124367 62.794051 
L 339.755797 57.599595 
L 341.387227 58.513809 
L 343.018657 62.87118 
L 344.650087 58.841696 
L 346.281517 54.489307 
L 347.912947 70.111788 
L 349.544376 60.292064 
L 351.175806 62.222582 
L 352.807236 58.531184 
L 354.438666 59.906564 
L 356.070096 65.082384 
L 357.701526 58.957985 
L 359.332956 60.155756 
L 360.964386 64.676396 
L 362.595815 59.467497 
L 364.227245 59.418124 
L 365.858675 63.939516 
L 367.490105 59.053975 
L 369.121535 65.092603 
L 370.752965 72.760399 
L 372.384395 61.449396 
L 374.015825 63.790589 
L 375.647254 59.556361 
L 377.278684 58.378114 
L 378.910114 63.075243 
L 380.541544 63.156415 
L 382.172974 66.772227 
L 383.804404 64.72089 
L 385.435834 57.654618 
L 387.067264 61.258443 
L 388.698693 57.630616 
L 390.330123 59.496553 
L 391.961553 64.998049 
L 393.592983 67.154135 
L 395.224413 64.235216 
L 396.855843 61.713789 
L 398.487273 60.812722 
L 398.487273 60.812722 
" style="fill:none;stroke:#ff0000;stroke-linecap:square;stroke-width:1.5;"/>
   </g>
   <g id="patch_3">
    <path d="M 57.6 307.584 
L 57.6 41.472 
" style="fill:none;stroke:#000000;stroke-linecap:square;stroke-linejoin:miter;stroke-width:0.8;"/>
   </g>
   <g id="patch_4">
    <path d="M 414.72 307.584 
L 414.72 41.472 
" style="fill:none;stroke:#000000;stroke-linecap:square;stroke-linejoin:miter;stroke-width:0.8;"/>
   </g>
   <g id="patch_5">
    <path d="M 57.6 307.584 
L 414.72 307.584 
" style="fill:none;stroke:#000000;stroke-linecap:square;stroke-linejoin:miter;stroke-width:0.8;"/>
   </g>
   <g id="patch_6">
    <path d="M 57.6 41.472 
L 414.72 41.472 
" style="fill:none;stroke:#000000;stroke-linecap:square;stroke-linejoin:miter;stroke-width:0.8;"/>
   </g>
   <g id="text_19">
    <!-- Population's average and best fitness -->
    <defs>
     <path d="M 19.671875 64.796875 
L 19.671875 37.40625 
L 32.078125 37.40625 
Q 38.96875 37.40625 42.71875 40.96875 
Q 46.484375 44.53125 46.484375 51.125 
Q 46.484375 57.671875 42.71875 61.234375 
Q 38.96875 64.796875 32.078125 64.796875 
z
M 9.8125 72.90625 
L 32.078125 72.90625 
Q 44.34375 72.90625 50.609375 67.359375 
Q 56.890625 61.8125 56.890625 51.125 
Q 56.890625 40.328125 50.609375 34.8125 
Q 44.34375 29.296875 32.078125 29.296875 
L 19.671875 29.296875 
L 19.671875 0 
L 9.8125 0 
z
" id="DejaVuSans-50"/>
     <path d="M 18.109375 8.203125 
L 18.109375 -20.796875 
L 9.078125 -20.796875 
L 9.078125 54.6875 
L 18.109375 54.6875 
L 18.109375 46.390625 
Q 20.953125 51.265625 25.265625 53.625 
Q 29.59375 56 35.59375 56 
Q 45.5625 56 51.78125 48.09375 
Q 58.015625 40.1875 58.015625 27.296875 
Q 58.015625 14.40625 51.78125 6.484375 
Q 45.5625 -1.421875 35.59375 -1.421875 
Q 29.59375 -1.421875 25.265625 0.953125 
Q 20.953125 3.328125 18.109375 8.203125 
z
M 48.6875 27.296875 
Q 48.6875 37.203125 44.609375 42.84375 
Q 40.53125 48.484375 33.40625 48.484375 
Q 26.265625 48.484375 22.1875 42.84375 
Q 18.109375 37.203125 18.109375 27.296875 
Q 18.109375 17.390625 22.1875 11.75 
Q 26.265625 6.109375 33.40625 6.109375 
Q 40.53125 6.109375 44.609375 11.75 
Q 48.6875 17.390625 48.6875 27.296875 
z
" id="DejaVuSans-70"/>
     <path d="M 8.5 21.578125 
L 8.5 54.6875 
L 17.484375 54.6875 
L 17.484375 21.921875 
Q 17.484375 14.15625 20.5 10.265625 
Q 23.53125 6.390625 29.59375 6.390625 
Q 36.859375 6.390625 41.078125 11.03125 
Q 45.3125 15.671875 45.3125 23.6875 
L 45.3125 54.6875 
L 54.296875 54.6875 
L 54.296875 0 
L 45.3125 0 
L 45.3125 8.40625 
Q 42.046875 3.421875 37.71875 1 
Q 33.40625 -1.421875 27.6875 -1.421875 
Q 18.265625 -1.421875 13.375 4.4375 
Q 8.5 10.296875 8.5 21.578125 
z
M 31.109375 56 
z
" id="DejaVuSans-75"/>
     <path d="M 9.421875 75.984375 
L 18.40625 75.984375 
L 18.40625 0 
L 9.421875 0 
z
" id="DejaVuSans-6c"/>
     <path d="M 17.921875 72.90625 
L 17.921875 45.796875 
L 9.625 45.796875 
L 9.625 72.90625 
z
" id="DejaVuSans-27"/>
     <path id="DejaVuSans-20"/>
     <path d="M 2.984375 54.6875 
L 12.5 54.6875 
L 29.59375 8.796875 
L 46.6875 54.6875 
L 56.203125 54.6875 
L 35.6875 0 
L 23.484375 0 
z
" id="DejaVuSans-76"/>
     <path d="M 45.40625 27.984375 
Q 45.40625 37.75 41.375 43.109375 
Q 37.359375 48.484375 30.078125 48.484375 
Q 22.859375 48.484375 18.828125 43.109375 
Q 14.796875 37.75 14.796875 27.984375 
Q 14.796875 18.265625 18.828125 12.890625 
Q 22.859375 7.515625 30.078125 7.515625 
Q 37.359375 7.515625 41.375 12.890625 
Q 45.40625 18.265625 45.40625 27.984375 
z
M 54.390625 6.78125 
Q 54.390625 -7.171875 48.1875 -13.984375 
Q 42 -20.796875 29.203125 -20.796875 
Q 24.46875 -20.796875 20.265625 -20.09375 
Q 16.0625 -19.390625 12.109375 -17.921875 
L 12.109375 -9.1875 
Q 16.0625 -11.328125 19.921875 -12.34375 
Q 23.78125 -13.375 27.78125 -13.375 
Q 36.625 -13.375 41.015625 -8.765625 
Q 45.40625 -4.15625 45.40625 5.171875 
L 45.40625 9.625 
Q 42.625 4.78125 38.28125 2.390625 
Q 33.9375 0 27.875 0 
Q 17.828125 0 11.671875 7.65625 
Q 5.515625 15.328125 5.515625 27.984375 
Q 5.515625 40.671875 11.671875 48.328125 
Q 17.828125 56 27.875 56 
Q 33.9375 56 38.28125 53.609375 
Q 42.625 51.21875 45.40625 46.390625 
L 45.40625 54.6875 
L 54.390625 54.6875 
z
" id="DejaVuSans-67"/>
     <path d="M 45.40625 46.390625 
L 45.40625 75.984375 
L 54.390625 75.984375 
L 54.390625 0 
L 45.40625 0 
L 45.40625 8.203125 
Q 42.578125 3.328125 38.25 0.953125 
Q 33.9375 -1.421875 27.875 -1.421875 
Q 17.96875 -1.421875 11.734375 6.484375 
Q 5.515625 14.40625 5.515625 27.296875 
Q 5.515625 40.1875 11.734375 48.09375 
Q 17.96875 56 27.875 56 
Q 33.9375 56 38.25 53.625 
Q 42.578125 51.265625 45.40625 46.390625 
z
M 14.796875 27.296875 
Q 14.796875 17.390625 18.875 11.75 
Q 22.953125 6.109375 30.078125 6.109375 
Q 37.203125 6.109375 41.296875 11.75 
Q 45.40625 17.390625 45.40625 27.296875 
Q 45.40625 37.203125 41.296875 42.84375 
Q 37.203125 48.484375 30.078125 48.484375 
Q 22.953125 48.484375 18.875 42.84375 
Q 14.796875 37.203125 14.796875 27.296875 
z
" id="DejaVuSans-64"/>
     <path d="M 48.6875 27.296875 
Q 48.6875 37.203125 44.609375 42.84375 
Q 40.53125 48.484375 33.40625 48.484375 
Q 26.265625 48.484375 22.1875 42.84375 
Q 18.109375 37.203125 18.109375 27.296875 
Q 18.109375 17.390625 22.1875 11.75 
Q 26.265625 6.109375 33.40625 6.109375 
Q 40.53125 6.109375 44.609375 11.75 
Q 48.6875 17.390625 48.6875 27.296875 
z
M 18.109375 46.390625 
Q 20.953125 51.265625 25.265625 53.625 
Q 29.59375 56 35.59375 56 
Q 45.5625 56 51.78125 48.09375 
Q 58.015625 40.1875 58.015625 27.296875 
Q 58.015625 14.40625 51.78125 6.484375 
Q 45.5625 -1.421875 35.59375 -1.421875 
Q 29.59375 -1.421875 25.265625 0.953125 
Q 20.953125 3.328125 18.109375 8.203125 
L 18.109375 0 
L 9.078125 0 
L 9.078125 75.984375 
L 18.109375 75.984375 
z
" id="DejaVuSans-62"/>
     <path d="M 37.109375 75.984375 
L 37.109375 68.5 
L 28.515625 68.5 
Q 23.6875 68.5 21.796875 66.546875 
Q 19.921875 64.59375 19.921875 59.515625 
L 19.921875 54.6875 
L 34.71875 54.6875 
L 34.71875 47.703125 
L 19.921875 47.703125 
L 19.921875 0 
L 10.890625 0 
L 10.890625 47.703125 
L 2.296875 47.703125 
L 2.296875 54.6875 
L 10.890625 54.6875 
L 10.890625 58.5 
Q 10.890625 67.625 15.140625 71.796875 
Q 19.390625 75.984375 28.609375 75.984375 
z
" id="DejaVuSans-66"/>
    </defs>
    <g transform="translate(123.315 35.472)scale(0.12 -0.12)">
     <use xlink:href="#DejaVuSans-50"/>
     <use x="60.255859" xlink:href="#DejaVuSans-6f"/>
     <use x="121.4375" xlink:href="#DejaVuSans-70"/>
     <use x="184.914062" xlink:href="#DejaVuSans-75"/>
     <use x="248.292969" xlink:href="#DejaVuSans-6c"/>
     <use x="276.076172" xlink:href="#DejaVuSans-61"/>
     <use x="337.355469" xlink:href="#DejaVuSans-74"/>
     <use x="376.564453" xlink:href="#DejaVuSans-69"/>
     <use x="404.347656" xlink:href="#DejaVuSans-6f"/>
     <use x="465.529297" xlink:href="#DejaVuSans-6e"/>
     <use x="528.908203" xlink:href="#DejaVuSans-27"/>
     <use x="556.398438" xlink:href="#DejaVuSans-73"/>
     <use x="608.498047" xlink:href="#DejaVuSans-20"/>
     <use x="640.285156" xlink:href="#DejaVuSans-61"/>
     <use x="701.564453" xlink:href="#DejaVuSans-76"/>
     <use x="760.744141" xlink:href="#DejaVuSans-65"/>
     <use x="822.267578" xlink:href="#DejaVuSans-72"/>
     <use x="863.380859" xlink:href="#DejaVuSans-61"/>
     <use x="924.660156" xlink:href="#DejaVuSans-67"/>
     <use x="988.136719" xlink:href="#DejaVuSans-65"/>
     <use x="1049.660156" xlink:href="#DejaVuSans-20"/>
     <use x="1081.447266" xlink:href="#DejaVuSans-61"/>
     <use x="1142.726562" xlink:href="#DejaVuSans-6e"/>
     <use x="1206.105469" xlink:href="#DejaVuSans-64"/>
     <use x="1269.582031" xlink:href="#DejaVuSans-20"/>
     <use x="1301.369141" xlink:href="#DejaVuSans-62"/>
     <use x="1364.845703" xlink:href="#DejaVuSans-65"/>
     <use x="1426.369141" xlink:href="#DejaVuSans-73"/>
     <use x="1478.46875" xlink:href="#DejaVuSans-74"/>
     <use x="1517.677734" xlink:href="#DejaVuSans-20"/>
     <use x="1549.464844" xlink:href="#DejaVuSans-66"/>
     <use x="1584.669922" xlink:href="#DejaVuSans-69"/>
     <use x="1612.453125" xlink:href="#DejaVuSans-74"/>
     <use x="1651.662109" xlink:href="#DejaVuSans-6e"/>
     <use x="1715.041016" xlink:href="#DejaVuSans-65"/>
     <use x="1776.564453" xlink:href="#DejaVuSans-73"/>
     <use x="1828.664062" xlink:href="#DejaVuSans-73"/>
    </g>
   </g>
   <g id="legend_1">
    <g id="patch_7">
     <path d="M 64.6 108.1845 
L 137.540625 108.1845 
Q 139.540625 108.1845 139.540625 106.1845 
L 139.540625 48.472 
Q 139.540625 46.472 137.540625 46.472 
L 64.6 46.472 
Q 62.6 46.472 62.6 48.472 
L 62.6 106.1845 
Q 62.6 108.1845 64.6 108.1845 
z
" style="fill:#ffffff;opacity:0.8;stroke:#cccccc;stroke-linejoin:miter;"/>
    </g>
    <g id="line2d_37">
     <path d="M 66.6 54.570438 
L 86.6 54.570438 
" style="fill:none;stroke:#0000ff;stroke-linecap:square;stroke-width:1.5;"/>
    </g>
    <g id="line2d_38"/>
    <g id="text_20">
     <!-- average -->
     <g transform="translate(94.6 58.070438)scale(0.1 -0.1)">
      <use xlink:href="#DejaVuSans-61"/>
      <use x="61.279297" xlink:href="#DejaVuSans-76"/>
      <use x="120.458984" xlink:href="#DejaVuSans-65"/>
      <use x="181.982422" xlink:href="#DejaVuSans-72"/>
      <use x="223.095703" xlink:href="#DejaVuSans-61"/>
      <use x="284.375" xlink:href="#DejaVuSans-67"/>
      <use x="347.851562" xlink:href="#DejaVuSans-65"/>
     </g>
    </g>
    <g id="line2d_39">
     <path d="M 66.6 69.248563 
L 86.6 69.248563 
" style="fill:none;stroke:#008000;stroke-dasharray:9.6,2.4,1.5,2.4;stroke-dashoffset:0;stroke-width:1.5;"/>
    </g>
    <g id="line2d_40"/>
    <g id="text_21">
     <!-- -1 sd -->
     <defs>
      <path d="M 4.890625 31.390625 
L 31.203125 31.390625 
L 31.203125 23.390625 
L 4.890625 23.390625 
z
" id="DejaVuSans-2d"/>
     </defs>
     <g transform="translate(94.6 72.748563)scale(0.1 -0.1)">
      <use xlink:href="#DejaVuSans-2d"/>
      <use x="36.083984" xlink:href="#DejaVuSans-31"/>
      <use x="99.707031" xlink:href="#DejaVuSans-20"/>
      <use x="131.494141" xlink:href="#DejaVuSans-73"/>
      <use x="183.59375" xlink:href="#DejaVuSans-64"/>
     </g>
    </g>
    <g id="line2d_41">
     <path d="M 66.6 83.926688 
L 86.6 83.926688 
" style="fill:none;stroke:#008000;stroke-dasharray:9.6,2.4,1.5,2.4;stroke-dashoffset:0;stroke-width:1.5;"/>
    </g>
    <g id="line2d_42"/>
    <g id="text_22">
     <!-- +1 sd -->
     <defs>
      <path d="M 46 62.703125 
L 46 35.5 
L 73.1875 35.5 
L 73.1875 27.203125 
L 46 27.203125 
L 46 0 
L 37.796875 0 
L 37.796875 27.203125 
L 10.59375 27.203125 
L 10.59375 35.5 
L 37.796875 35.5 
L 37.796875 62.703125 
z
" id="DejaVuSans-2b"/>
     </defs>
     <g transform="translate(94.6 87.426688)scale(0.1 -0.1)">
      <use xlink:href="#DejaVuSans-2b"/>
      <use x="83.789062" xlink:href="#DejaVuSans-31"/>
      <use x="147.412109" xlink:href="#DejaVuSans-20"/>
      <use x="179.199219" xlink:href="#DejaVuSans-73"/>
      <use x="231.298828" xlink:href="#DejaVuSans-64"/>
     </g>
    </g>
    <g id="line2d_43">
     <path d="M 66.6 98.604813 
L 86.6 98.604813 
" style="fill:none;stroke:#ff0000;stroke-linecap:square;stroke-width:1.5;"/>
    </g>
    <g id="line2d_44"/>
    <g id="text_23">
     <!-- best -->
     <g transform="translate(94.6 102.104813)scale(0.1 -0.1)">
      <use xlink:href="#DejaVuSans-62"/>
      <use x="63.476562" xlink:href="#DejaVuSans-65"/>
      <use x="125" xlink:href="#DejaVuSans-73"/>
      <use x="177.099609" xlink:href="#DejaVuSans-74"/>
     </g>
    </g>
   </g>
  </g>
 </g>
 <defs>
  <clipPath id="p828a415fdf">
   <rect height="266.112" width="357.12" x="57.6" y="41.472"/>
  </clipPath>
 </defs>
</svg>
