<?xml version="1.0" encoding="utf-8" standalone="no"?>
<!DOCTYPE svg PUBLIC "-//W3C//DTD SVG 1.1//EN"
  "http://www.w3.org/Graphics/SVG/1.1/DTD/svg11.dtd">
<!-- Created with matplotlib (http://matplotlib.org/) -->
<svg height="345.6pt" version="1.1" viewBox="0 0 460.8 345.6" width="460.8pt" xmlns="http://www.w3.org/2000/svg" xmlns:xlink="http://www.w3.org/1999/xlink">
 <defs>
  <style type="text/css">
*{stroke-linecap:butt;stroke-linejoin:round;}
  </style>
 </defs>
 <g id="figure_1">
  <g id="patch_1">
   <path d="M 0 345.6 
L 460.8 345.6 
L 460.8 0 
L 0 0 
z
" style="fill:#ffffff;"/>
  </g>
  <g id="axes_1">
   <g id="patch_2">
    <path d="M 57.6 307.584 
L 414.72 307.584 
L 414.72 41.472 
L 57.6 41.472 
z
" style="fill:#ffffff;"/>
   </g>
   <g id="PolyCollection_1">
    <path clip-path="url(#p377a48143a)" d="M 73.832727 208.411826 
L 73.832727 307.584 
L 75.464157 307.584 
L 77.095587 307.584 
L 78.727017 307.584 
L 80.358447 307.584 
L 81.989877 307.584 
L 83.621307 307.584 
L 85.252736 307.584 
L 86.884166 307.584 
L 88.515596 307.584 
L 90.147026 307.584 
L 91.778456 307.584 
L 93.409886 307.584 
L 95.041316 307.584 
L 96.672746 307.584 
L 98.304175 307.584 
L 99.935605 307.584 
L 101.567035 307.584 
L 103.198465 307.584 
L 104.829895 307.584 
L 106.461325 307.584 
L 108.092755 307.584 
L 109.724185 307.584 
L 111.355614 307.584 
L 112.987044 307.584 
L 114.618474 307.584 
L 116.249904 307.584 
L 117.881334 307.584 
L 119.512764 307.584 
L 121.144194 307.584 
L 122.775624 307.584 
L 124.407053 307.584 
L 126.038483 307.584 
L 127.669913 307.584 
L 129.301343 307.584 
L 130.932773 307.584 
L 132.564203 307.584 
L 134.195633 307.584 
L 135.827063 307.584 
L 137.458492 307.584 
L 139.089922 307.584 
L 140.721352 307.584 
L 142.352782 307.584 
L 143.984212 307.584 
L 145.615642 307.584 
L 147.247072 307.584 
L 148.878502 307.584 
L 150.509931 307.584 
L 152.141361 307.584 
L 153.772791 307.584 
L 155.404221 307.584 
L 157.035651 307.584 
L 158.667081 307.584 
L 160.298511 307.584 
L 161.929941 307.584 
L 163.56137 307.584 
L 165.1928 307.584 
L 166.82423 307.584 
L 168.45566 307.584 
L 170.08709 307.584 
L 171.71852 307.584 
L 173.34995 307.584 
L 174.98138 307.584 
L 176.61281 307.584 
L 178.244239 307.584 
L 179.875669 307.584 
L 181.507099 307.584 
L 183.138529 307.584 
L 184.769959 307.584 
L 186.401389 307.584 
L 188.032819 307.584 
L 189.664249 307.584 
L 191.295678 307.584 
L 192.927108 307.584 
L 194.558538 307.584 
L 196.189968 307.584 
L 197.821398 307.584 
L 199.452828 307.584 
L 201.084258 307.584 
L 202.715688 307.584 
L 204.347117 307.584 
L 205.978547 307.584 
L 207.609977 307.584 
L 209.241407 307.584 
L 210.872837 307.584 
L 212.504267 307.584 
L 214.135697 307.584 
L 215.767127 307.584 
L 217.398556 307.584 
L 219.029986 307.584 
L 220.661416 307.584 
L 222.292846 307.584 
L 223.924276 307.584 
L 225.555706 307.584 
L 227.187136 307.584 
L 228.818566 307.584 
L 230.449995 307.584 
L 232.081425 307.584 
L 233.712855 307.584 
L 235.344285 307.584 
L 236.975715 307.584 
L 238.607145 307.584 
L 240.238575 307.584 
L 241.870005 307.584 
L 243.501434 307.584 
L 245.132864 307.584 
L 246.764294 307.584 
L 248.395724 307.584 
L 250.027154 307.584 
L 251.658584 307.584 
L 253.290014 307.584 
L 254.921444 307.584 
L 256.552873 307.584 
L 258.184303 307.584 
L 259.815733 307.584 
L 261.447163 307.584 
L 263.078593 307.584 
L 264.710023 307.584 
L 266.341453 307.584 
L 267.972883 307.584 
L 269.604312 307.584 
L 271.235742 307.584 
L 272.867172 307.584 
L 274.498602 307.584 
L 276.130032 307.584 
L 277.761462 307.584 
L 279.392892 307.584 
L 281.024322 307.584 
L 282.655751 307.584 
L 284.287181 307.584 
L 285.918611 307.584 
L 287.550041 307.584 
L 289.181471 307.584 
L 290.812901 307.584 
L 292.444331 307.584 
L 294.075761 307.584 
L 295.70719 307.584 
L 297.33862 307.584 
L 298.97005 307.584 
L 300.60148 307.584 
L 302.23291 307.584 
L 303.86434 307.584 
L 305.49577 307.584 
L 307.1272 307.584 
L 308.75863 307.584 
L 310.390059 307.584 
L 312.021489 307.584 
L 313.652919 307.584 
L 315.284349 307.584 
L 316.915779 307.584 
L 318.547209 307.584 
L 320.178639 307.584 
L 321.810069 307.584 
L 323.441498 307.584 
L 325.072928 307.584 
L 326.704358 307.584 
L 328.335788 307.584 
L 329.967218 307.584 
L 331.598648 307.584 
L 333.230078 307.584 
L 334.861508 307.584 
L 336.492937 307.584 
L 338.124367 307.584 
L 339.755797 307.584 
L 341.387227 307.584 
L 343.018657 307.584 
L 344.650087 307.584 
L 346.281517 307.584 
L 347.912947 307.584 
L 349.544376 307.584 
L 351.175806 307.584 
L 352.807236 307.584 
L 354.438666 307.584 
L 356.070096 307.584 
L 357.701526 307.584 
L 359.332956 307.584 
L 360.964386 307.584 
L 362.595815 307.584 
L 364.227245 307.584 
L 365.858675 307.584 
L 367.490105 307.584 
L 369.121535 307.584 
L 370.752965 307.584 
L 372.384395 307.584 
L 374.015825 307.584 
L 375.647254 307.584 
L 377.278684 307.584 
L 378.910114 307.584 
L 380.541544 307.584 
L 382.172974 307.584 
L 383.804404 307.584 
L 385.435834 307.584 
L 387.067264 307.584 
L 388.698693 307.584 
L 390.330123 307.584 
L 391.961553 307.584 
L 393.592983 307.584 
L 395.224413 307.584 
L 396.855843 307.584 
L 398.487273 307.584 
L 398.487273 202.902261 
L 398.487273 202.902261 
L 396.855843 197.392696 
L 395.224413 202.902261 
L 393.592983 191.88313 
L 391.961553 180.864 
L 390.330123 191.88313 
L 388.698693 175.354435 
L 387.067264 191.88313 
L 385.435834 186.373565 
L 383.804404 191.88313 
L 382.172974 202.902261 
L 380.541544 208.411826 
L 378.910114 202.902261 
L 377.278684 213.921391 
L 375.647254 208.411826 
L 374.015825 202.902261 
L 372.384395 208.411826 
L 370.752965 202.902261 
L 369.121535 197.392696 
L 367.490105 213.921391 
L 365.858675 208.411826 
L 364.227245 202.902261 
L 362.595815 191.88313 
L 360.964386 202.902261 
L 359.332956 208.411826 
L 357.701526 197.392696 
L 356.070096 191.88313 
L 354.438666 175.354435 
L 352.807236 180.864 
L 351.175806 197.392696 
L 349.544376 202.902261 
L 347.912947 208.411826 
L 346.281517 213.921391 
L 344.650087 202.902261 
L 343.018657 208.411826 
L 341.387227 202.902261 
L 339.755797 213.921391 
L 338.124367 208.411826 
L 336.492937 202.902261 
L 334.861508 197.392696 
L 333.230078 191.88313 
L 331.598648 186.373565 
L 329.967218 180.864 
L 328.335788 186.373565 
L 326.704358 191.88313 
L 325.072928 202.902261 
L 323.441498 191.88313 
L 321.810069 180.864 
L 320.178639 186.373565 
L 318.547209 191.88313 
L 316.915779 180.864 
L 315.284349 175.354435 
L 313.652919 180.864 
L 312.021489 186.373565 
L 310.390059 197.392696 
L 308.75863 186.373565 
L 307.1272 191.88313 
L 305.49577 197.392696 
L 303.86434 180.864 
L 302.23291 186.373565 
L 300.60148 180.864 
L 298.97005 186.373565 
L 297.33862 191.88313 
L 295.70719 180.864 
L 294.075761 186.373565 
L 292.444331 197.392696 
L 290.812901 224.940522 
L 289.181471 208.411826 
L 287.550041 219.430957 
L 285.918611 213.921391 
L 284.287181 197.392696 
L 282.655751 191.88313 
L 281.024322 186.373565 
L 279.392892 191.88313 
L 277.761462 180.864 
L 276.130032 191.88313 
L 274.498602 186.373565 
L 272.867172 191.88313 
L 271.235742 186.373565 
L 269.604312 180.864 
L 267.972883 197.392696 
L 266.341453 191.88313 
L 264.710023 197.392696 
L 263.078593 191.88313 
L 261.447163 197.392696 
L 259.815733 202.902261 
L 258.184303 208.411826 
L 256.552873 202.902261 
L 254.921444 197.392696 
L 253.290014 191.88313 
L 251.658584 197.392696 
L 250.027154 186.373565 
L 248.395724 191.88313 
L 246.764294 180.864 
L 245.132864 175.354435 
L 243.501434 180.864 
L 241.870005 186.373565 
L 240.238575 191.88313 
L 238.607145 186.373565 
L 236.975715 191.88313 
L 235.344285 186.373565 
L 233.712855 191.88313 
L 232.081425 202.902261 
L 230.449995 197.392696 
L 228.818566 213.921391 
L 227.187136 208.411826 
L 225.555706 202.902261 
L 223.924276 197.392696 
L 222.292846 202.902261 
L 220.661416 208.411826 
L 219.029986 219.430957 
L 217.398556 208.411826 
L 215.767127 197.392696 
L 214.135697 208.411826 
L 212.504267 213.921391 
L 210.872837 208.411826 
L 209.241407 197.392696 
L 207.609977 186.373565 
L 205.978547 169.84487 
L 204.347117 175.354435 
L 202.715688 180.864 
L 201.084258 175.354435 
L 199.452828 186.373565 
L 197.821398 197.392696 
L 196.189968 186.373565 
L 194.558538 191.88313 
L 192.927108 197.392696 
L 191.295678 191.88313 
L 189.664249 224.940522 
L 188.032819 235.959652 
L 186.401389 224.940522 
L 184.769959 224.940522 
L 183.138529 224.940522 
L 181.507099 208.411826 
L 179.875669 213.921391 
L 178.244239 208.411826 
L 176.61281 219.430957 
L 174.98138 197.392696 
L 173.34995 230.450087 
L 171.71852 213.921391 
L 170.08709 208.411826 
L 168.45566 235.959652 
L 166.82423 219.430957 
L 165.1928 280.036174 
L 163.56137 269.017043 
L 161.929941 208.411826 
L 160.298511 230.450087 
L 158.667081 208.411826 
L 157.035651 197.392696 
L 155.404221 191.88313 
L 153.772791 186.373565 
L 152.141361 175.354435 
L 150.509931 180.864 
L 148.878502 191.88313 
L 147.247072 197.392696 
L 145.615642 202.902261 
L 143.984212 191.88313 
L 142.352782 186.373565 
L 140.721352 197.392696 
L 139.089922 186.373565 
L 137.458492 191.88313 
L 135.827063 186.373565 
L 134.195633 197.392696 
L 132.564203 191.88313 
L 130.932773 180.864 
L 129.301343 191.88313 
L 127.669913 186.373565 
L 126.038483 197.392696 
L 124.407053 191.88313 
L 122.775624 175.354435 
L 121.144194 180.864 
L 119.512764 191.88313 
L 117.881334 230.450087 
L 116.249904 224.940522 
L 114.618474 230.450087 
L 112.987044 235.959652 
L 111.355614 235.959652 
L 109.724185 241.469217 
L 108.092755 224.940522 
L 106.461325 230.450087 
L 104.829895 235.959652 
L 103.198465 246.978783 
L 101.567035 257.997913 
L 99.935605 208.411826 
L 98.304175 213.921391 
L 96.672746 202.902261 
L 95.041316 164.335304 
L 93.409886 175.354435 
L 91.778456 136.787478 
L 90.147026 197.392696 
L 88.515596 136.787478 
L 86.884166 186.373565 
L 85.252736 197.392696 
L 83.621307 197.392696 
L 81.989877 202.902261 
L 80.358447 246.978783 
L 78.727017 235.959652 
L 77.095587 235.959652 
L 75.464157 164.335304 
L 73.832727 208.411826 
z
" style="fill:#1f77b4;"/>
   </g>
   <g id="PolyCollection_2">
    <path clip-path="url(#p377a48143a)" d="M 73.832727 131.277913 
L 73.832727 208.411826 
L 75.464157 164.335304 
L 77.095587 235.959652 
L 78.727017 235.959652 
L 80.358447 246.978783 
L 81.989877 202.902261 
L 83.621307 197.392696 
L 85.252736 197.392696 
L 86.884166 186.373565 
L 88.515596 136.787478 
L 90.147026 197.392696 
L 91.778456 136.787478 
L 93.409886 175.354435 
L 95.041316 164.335304 
L 96.672746 202.902261 
L 98.304175 213.921391 
L 99.935605 208.411826 
L 101.567035 257.997913 
L 103.198465 246.978783 
L 104.829895 235.959652 
L 106.461325 230.450087 
L 108.092755 224.940522 
L 109.724185 241.469217 
L 111.355614 235.959652 
L 112.987044 235.959652 
L 114.618474 230.450087 
L 116.249904 224.940522 
L 117.881334 230.450087 
L 119.512764 191.88313 
L 121.144194 180.864 
L 122.775624 175.354435 
L 124.407053 191.88313 
L 126.038483 197.392696 
L 127.669913 186.373565 
L 129.301343 191.88313 
L 130.932773 180.864 
L 132.564203 191.88313 
L 134.195633 197.392696 
L 135.827063 186.373565 
L 137.458492 191.88313 
L 139.089922 186.373565 
L 140.721352 197.392696 
L 142.352782 186.373565 
L 143.984212 191.88313 
L 145.615642 202.902261 
L 147.247072 197.392696 
L 148.878502 191.88313 
L 150.509931 180.864 
L 152.141361 175.354435 
L 153.772791 186.373565 
L 155.404221 191.88313 
L 157.035651 197.392696 
L 158.667081 208.411826 
L 160.298511 230.450087 
L 161.929941 208.411826 
L 163.56137 269.017043 
L 165.1928 280.036174 
L 166.82423 219.430957 
L 168.45566 235.959652 
L 170.08709 208.411826 
L 171.71852 213.921391 
L 173.34995 230.450087 
L 174.98138 197.392696 
L 176.61281 219.430957 
L 178.244239 208.411826 
L 179.875669 213.921391 
L 181.507099 208.411826 
L 183.138529 224.940522 
L 184.769959 224.940522 
L 186.401389 224.940522 
L 188.032819 235.959652 
L 189.664249 224.940522 
L 191.295678 191.88313 
L 192.927108 197.392696 
L 194.558538 191.88313 
L 196.189968 186.373565 
L 197.821398 197.392696 
L 199.452828 186.373565 
L 201.084258 175.354435 
L 202.715688 180.864 
L 204.347117 175.354435 
L 205.978547 169.84487 
L 207.609977 186.373565 
L 209.241407 197.392696 
L 210.872837 208.411826 
L 212.504267 213.921391 
L 214.135697 208.411826 
L 215.767127 197.392696 
L 217.398556 208.411826 
L 219.029986 219.430957 
L 220.661416 208.411826 
L 222.292846 202.902261 
L 223.924276 197.392696 
L 225.555706 202.902261 
L 227.187136 208.411826 
L 228.818566 213.921391 
L 230.449995 197.392696 
L 232.081425 202.902261 
L 233.712855 191.88313 
L 235.344285 186.373565 
L 236.975715 191.88313 
L 238.607145 186.373565 
L 240.238575 191.88313 
L 241.870005 186.373565 
L 243.501434 180.864 
L 245.132864 175.354435 
L 246.764294 180.864 
L 248.395724 191.88313 
L 250.027154 186.373565 
L 251.658584 197.392696 
L 253.290014 191.88313 
L 254.921444 197.392696 
L 256.552873 202.902261 
L 258.184303 208.411826 
L 259.815733 202.902261 
L 261.447163 197.392696 
L 263.078593 191.88313 
L 264.710023 197.392696 
L 266.341453 191.88313 
L 267.972883 197.392696 
L 269.604312 180.864 
L 271.235742 186.373565 
L 272.867172 191.88313 
L 274.498602 186.373565 
L 276.130032 191.88313 
L 277.761462 180.864 
L 279.392892 191.88313 
L 281.024322 186.373565 
L 282.655751 191.88313 
L 284.287181 197.392696 
L 285.918611 213.921391 
L 287.550041 219.430957 
L 289.181471 208.411826 
L 290.812901 224.940522 
L 292.444331 197.392696 
L 294.075761 186.373565 
L 295.70719 180.864 
L 297.33862 191.88313 
L 298.97005 186.373565 
L 300.60148 180.864 
L 302.23291 186.373565 
L 303.86434 180.864 
L 305.49577 197.392696 
L 307.1272 191.88313 
L 308.75863 186.373565 
L 310.390059 197.392696 
L 312.021489 186.373565 
L 313.652919 180.864 
L 315.284349 175.354435 
L 316.915779 180.864 
L 318.547209 191.88313 
L 320.178639 186.373565 
L 321.810069 180.864 
L 323.441498 191.88313 
L 325.072928 202.902261 
L 326.704358 191.88313 
L 328.335788 186.373565 
L 329.967218 180.864 
L 331.598648 186.373565 
L 333.230078 191.88313 
L 334.861508 197.392696 
L 336.492937 202.902261 
L 338.124367 208.411826 
L 339.755797 213.921391 
L 341.387227 202.902261 
L 343.018657 208.411826 
L 344.650087 202.902261 
L 346.281517 213.921391 
L 347.912947 208.411826 
L 349.544376 202.902261 
L 351.175806 197.392696 
L 352.807236 180.864 
L 354.438666 175.354435 
L 356.070096 191.88313 
L 357.701526 197.392696 
L 359.332956 208.411826 
L 360.964386 202.902261 
L 362.595815 191.88313 
L 364.227245 202.902261 
L 365.858675 208.411826 
L 367.490105 213.921391 
L 369.121535 197.392696 
L 370.752965 202.902261 
L 372.384395 208.411826 
L 374.015825 202.902261 
L 375.647254 208.411826 
L 377.278684 213.921391 
L 378.910114 202.902261 
L 380.541544 208.411826 
L 382.172974 202.902261 
L 383.804404 191.88313 
L 385.435834 186.373565 
L 387.067264 191.88313 
L 388.698693 175.354435 
L 390.330123 191.88313 
L 391.961553 180.864 
L 393.592983 191.88313 
L 395.224413 202.902261 
L 396.855843 197.392696 
L 398.487273 202.902261 
L 398.487273 202.902261 
L 398.487273 202.902261 
L 396.855843 197.392696 
L 395.224413 202.902261 
L 393.592983 191.88313 
L 391.961553 180.864 
L 390.330123 191.88313 
L 388.698693 175.354435 
L 387.067264 191.88313 
L 385.435834 186.373565 
L 383.804404 191.88313 
L 382.172974 202.902261 
L 380.541544 208.411826 
L 378.910114 202.902261 
L 377.278684 213.921391 
L 375.647254 208.411826 
L 374.015825 202.902261 
L 372.384395 208.411826 
L 370.752965 202.902261 
L 369.121535 197.392696 
L 367.490105 213.921391 
L 365.858675 208.411826 
L 364.227245 202.902261 
L 362.595815 191.88313 
L 360.964386 202.902261 
L 359.332956 208.411826 
L 357.701526 197.392696 
L 356.070096 191.88313 
L 354.438666 175.354435 
L 352.807236 180.864 
L 351.175806 197.392696 
L 349.544376 202.902261 
L 347.912947 208.411826 
L 346.281517 213.921391 
L 344.650087 202.902261 
L 343.018657 208.411826 
L 341.387227 202.902261 
L 339.755797 213.921391 
L 338.124367 208.411826 
L 336.492937 202.902261 
L 334.861508 197.392696 
L 333.230078 191.88313 
L 331.598648 186.373565 
L 329.967218 180.864 
L 328.335788 186.373565 
L 326.704358 191.88313 
L 325.072928 202.902261 
L 323.441498 191.88313 
L 321.810069 180.864 
L 320.178639 186.373565 
L 318.547209 191.88313 
L 316.915779 180.864 
L 315.284349 175.354435 
L 313.652919 180.864 
L 312.021489 186.373565 
L 310.390059 197.392696 
L 308.75863 186.373565 
L 307.1272 191.88313 
L 305.49577 197.392696 
L 303.86434 180.864 
L 302.23291 186.373565 
L 300.60148 180.864 
L 298.97005 186.373565 
L 297.33862 191.88313 
L 295.70719 180.864 
L 294.075761 186.373565 
L 292.444331 197.392696 
L 290.812901 224.940522 
L 289.181471 208.411826 
L 287.550041 219.430957 
L 285.918611 213.921391 
L 284.287181 197.392696 
L 282.655751 191.88313 
L 281.024322 186.373565 
L 279.392892 191.88313 
L 277.761462 180.864 
L 276.130032 191.88313 
L 274.498602 186.373565 
L 272.867172 191.88313 
L 271.235742 186.373565 
L 269.604312 180.864 
L 267.972883 197.392696 
L 266.341453 191.88313 
L 264.710023 197.392696 
L 263.078593 191.88313 
L 261.447163 197.392696 
L 259.815733 202.902261 
L 258.184303 208.411826 
L 256.552873 202.902261 
L 254.921444 197.392696 
L 253.290014 191.88313 
L 251.658584 197.392696 
L 250.027154 186.373565 
L 248.395724 191.88313 
L 246.764294 180.864 
L 245.132864 175.354435 
L 243.501434 180.864 
L 241.870005 186.373565 
L 240.238575 191.88313 
L 238.607145 186.373565 
L 236.975715 191.88313 
L 235.344285 186.373565 
L 233.712855 191.88313 
L 232.081425 202.902261 
L 230.449995 197.392696 
L 228.818566 213.921391 
L 227.187136 208.411826 
L 225.555706 202.902261 
L 223.924276 197.392696 
L 222.292846 202.902261 
L 220.661416 208.411826 
L 219.029986 219.430957 
L 217.398556 208.411826 
L 215.767127 197.392696 
L 214.135697 208.411826 
L 212.504267 213.921391 
L 210.872837 208.411826 
L 209.241407 197.392696 
L 207.609977 186.373565 
L 205.978547 169.84487 
L 204.347117 175.354435 
L 202.715688 180.864 
L 201.084258 175.354435 
L 199.452828 186.373565 
L 197.821398 197.392696 
L 196.189968 186.373565 
L 194.558538 191.88313 
L 192.927108 197.392696 
L 191.295678 191.88313 
L 189.664249 224.940522 
L 188.032819 235.959652 
L 186.401389 224.940522 
L 184.769959 224.940522 
L 183.138529 224.940522 
L 181.507099 208.411826 
L 179.875669 213.921391 
L 178.244239 208.411826 
L 176.61281 219.430957 
L 174.98138 197.392696 
L 173.34995 230.450087 
L 171.71852 213.921391 
L 170.08709 208.411826 
L 168.45566 235.959652 
L 166.82423 219.430957 
L 165.1928 280.036174 
L 163.56137 269.017043 
L 161.929941 208.411826 
L 160.298511 230.450087 
L 158.667081 208.411826 
L 157.035651 197.392696 
L 155.404221 191.88313 
L 153.772791 186.373565 
L 152.141361 175.354435 
L 150.509931 180.864 
L 148.878502 191.88313 
L 147.247072 197.392696 
L 145.615642 202.902261 
L 143.984212 191.88313 
L 142.352782 186.373565 
L 140.721352 197.392696 
L 139.089922 186.373565 
L 137.458492 191.88313 
L 135.827063 186.373565 
L 134.195633 197.392696 
L 132.564203 191.88313 
L 130.932773 180.864 
L 129.301343 191.88313 
L 127.669913 186.373565 
L 126.038483 197.392696 
L 124.407053 191.88313 
L 122.775624 175.354435 
L 121.144194 180.864 
L 119.512764 191.88313 
L 117.881334 164.335304 
L 116.249904 153.316174 
L 114.618474 153.316174 
L 112.987044 169.84487 
L 111.355614 158.825739 
L 109.724185 169.84487 
L 108.092755 158.825739 
L 106.461325 158.825739 
L 104.829895 169.84487 
L 103.198465 186.373565 
L 101.567035 180.864 
L 99.935605 131.277913 
L 98.304175 109.239652 
L 96.672746 103.730087 
L 95.041316 103.730087 
L 93.409886 109.239652 
L 91.778456 109.239652 
L 90.147026 109.239652 
L 88.515596 120.258783 
L 86.884166 125.768348 
L 85.252736 136.787478 
L 83.621307 147.806609 
L 81.989877 125.768348 
L 80.358447 109.239652 
L 78.727017 153.316174 
L 77.095587 142.297043 
L 75.464157 76.182261 
L 73.832727 131.277913 
z
" style="fill:#ff7f0e;"/>
   </g>
   <g id="PolyCollection_3">
    <path clip-path="url(#p377a48143a)" d="M 73.832727 59.653565 
L 73.832727 131.277913 
L 75.464157 76.182261 
L 77.095587 142.297043 
L 78.727017 153.316174 
L 80.358447 109.239652 
L 81.989877 125.768348 
L 83.621307 147.806609 
L 85.252736 136.787478 
L 86.884166 125.768348 
L 88.515596 120.258783 
L 90.147026 109.239652 
L 91.778456 109.239652 
L 93.409886 109.239652 
L 95.041316 103.730087 
L 96.672746 103.730087 
L 98.304175 109.239652 
L 99.935605 131.277913 
L 101.567035 180.864 
L 103.198465 186.373565 
L 104.829895 169.84487 
L 106.461325 158.825739 
L 108.092755 158.825739 
L 109.724185 169.84487 
L 111.355614 158.825739 
L 112.987044 169.84487 
L 114.618474 153.316174 
L 116.249904 153.316174 
L 117.881334 164.335304 
L 119.512764 191.88313 
L 121.144194 180.864 
L 122.775624 175.354435 
L 124.407053 191.88313 
L 126.038483 197.392696 
L 127.669913 186.373565 
L 129.301343 191.88313 
L 130.932773 180.864 
L 132.564203 191.88313 
L 134.195633 197.392696 
L 135.827063 186.373565 
L 137.458492 191.88313 
L 139.089922 186.373565 
L 140.721352 197.392696 
L 142.352782 186.373565 
L 143.984212 191.88313 
L 145.615642 202.902261 
L 147.247072 197.392696 
L 148.878502 191.88313 
L 150.509931 180.864 
L 152.141361 175.354435 
L 153.772791 186.373565 
L 155.404221 191.88313 
L 157.035651 197.392696 
L 158.667081 208.411826 
L 160.298511 230.450087 
L 161.929941 208.411826 
L 163.56137 269.017043 
L 165.1928 280.036174 
L 166.82423 219.430957 
L 168.45566 235.959652 
L 170.08709 208.411826 
L 171.71852 213.921391 
L 173.34995 230.450087 
L 174.98138 197.392696 
L 176.61281 219.430957 
L 178.244239 208.411826 
L 179.875669 213.921391 
L 181.507099 208.411826 
L 183.138529 224.940522 
L 184.769959 224.940522 
L 186.401389 224.940522 
L 188.032819 235.959652 
L 189.664249 224.940522 
L 191.295678 191.88313 
L 192.927108 197.392696 
L 194.558538 191.88313 
L 196.189968 186.373565 
L 197.821398 197.392696 
L 199.452828 186.373565 
L 201.084258 175.354435 
L 202.715688 180.864 
L 204.347117 175.354435 
L 205.978547 169.84487 
L 207.609977 186.373565 
L 209.241407 197.392696 
L 210.872837 208.411826 
L 212.504267 213.921391 
L 214.135697 208.411826 
L 215.767127 197.392696 
L 217.398556 208.411826 
L 219.029986 219.430957 
L 220.661416 208.411826 
L 222.292846 202.902261 
L 223.924276 197.392696 
L 225.555706 202.902261 
L 227.187136 208.411826 
L 228.818566 213.921391 
L 230.449995 197.392696 
L 232.081425 202.902261 
L 233.712855 191.88313 
L 235.344285 186.373565 
L 236.975715 191.88313 
L 238.607145 186.373565 
L 240.238575 191.88313 
L 241.870005 186.373565 
L 243.501434 180.864 
L 245.132864 175.354435 
L 246.764294 180.864 
L 248.395724 191.88313 
L 250.027154 186.373565 
L 251.658584 197.392696 
L 253.290014 191.88313 
L 254.921444 197.392696 
L 256.552873 202.902261 
L 258.184303 208.411826 
L 259.815733 202.902261 
L 261.447163 197.392696 
L 263.078593 191.88313 
L 264.710023 197.392696 
L 266.341453 191.88313 
L 267.972883 197.392696 
L 269.604312 180.864 
L 271.235742 186.373565 
L 272.867172 191.88313 
L 274.498602 186.373565 
L 276.130032 191.88313 
L 277.761462 180.864 
L 279.392892 191.88313 
L 281.024322 186.373565 
L 282.655751 191.88313 
L 284.287181 197.392696 
L 285.918611 213.921391 
L 287.550041 219.430957 
L 289.181471 208.411826 
L 290.812901 224.940522 
L 292.444331 197.392696 
L 294.075761 186.373565 
L 295.70719 180.864 
L 297.33862 191.88313 
L 298.97005 186.373565 
L 300.60148 180.864 
L 302.23291 186.373565 
L 303.86434 180.864 
L 305.49577 197.392696 
L 307.1272 191.88313 
L 308.75863 186.373565 
L 310.390059 197.392696 
L 312.021489 186.373565 
L 313.652919 180.864 
L 315.284349 175.354435 
L 316.915779 180.864 
L 318.547209 191.88313 
L 320.178639 186.373565 
L 321.810069 180.864 
L 323.441498 191.88313 
L 325.072928 202.902261 
L 326.704358 191.88313 
L 328.335788 186.373565 
L 329.967218 180.864 
L 331.598648 186.373565 
L 333.230078 191.88313 
L 334.861508 197.392696 
L 336.492937 202.902261 
L 338.124367 208.411826 
L 339.755797 213.921391 
L 341.387227 202.902261 
L 343.018657 208.411826 
L 344.650087 202.902261 
L 346.281517 213.921391 
L 347.912947 208.411826 
L 349.544376 202.902261 
L 351.175806 197.392696 
L 352.807236 180.864 
L 354.438666 175.354435 
L 356.070096 191.88313 
L 357.701526 197.392696 
L 359.332956 208.411826 
L 360.964386 202.902261 
L 362.595815 191.88313 
L 364.227245 202.902261 
L 365.858675 208.411826 
L 367.490105 213.921391 
L 369.121535 197.392696 
L 370.752965 202.902261 
L 372.384395 208.411826 
L 374.015825 202.902261 
L 375.647254 208.411826 
L 377.278684 213.921391 
L 378.910114 202.902261 
L 380.541544 208.411826 
L 382.172974 202.902261 
L 383.804404 191.88313 
L 385.435834 186.373565 
L 387.067264 191.88313 
L 388.698693 175.354435 
L 390.330123 191.88313 
L 391.961553 180.864 
L 393.592983 191.88313 
L 395.224413 202.902261 
L 396.855843 197.392696 
L 398.487273 202.902261 
L 398.487273 202.902261 
L 398.487273 202.902261 
L 396.855843 197.392696 
L 395.224413 202.902261 
L 393.592983 191.88313 
L 391.961553 180.864 
L 390.330123 191.88313 
L 388.698693 175.354435 
L 387.067264 191.88313 
L 385.435834 186.373565 
L 383.804404 191.88313 
L 382.172974 202.902261 
L 380.541544 208.411826 
L 378.910114 202.902261 
L 377.278684 213.921391 
L 375.647254 208.411826 
L 374.015825 202.902261 
L 372.384395 208.411826 
L 370.752965 202.902261 
L 369.121535 197.392696 
L 367.490105 213.921391 
L 365.858675 208.411826 
L 364.227245 202.902261 
L 362.595815 191.88313 
L 360.964386 202.902261 
L 359.332956 208.411826 
L 357.701526 197.392696 
L 356.070096 191.88313 
L 354.438666 175.354435 
L 352.807236 180.864 
L 351.175806 197.392696 
L 349.544376 202.902261 
L 347.912947 208.411826 
L 346.281517 213.921391 
L 344.650087 202.902261 
L 343.018657 208.411826 
L 341.387227 202.902261 
L 339.755797 213.921391 
L 338.124367 208.411826 
L 336.492937 202.902261 
L 334.861508 197.392696 
L 333.230078 191.88313 
L 331.598648 186.373565 
L 329.967218 180.864 
L 328.335788 186.373565 
L 326.704358 191.88313 
L 325.072928 202.902261 
L 323.441498 191.88313 
L 321.810069 180.864 
L 320.178639 186.373565 
L 318.547209 191.88313 
L 316.915779 180.864 
L 315.284349 175.354435 
L 313.652919 180.864 
L 312.021489 186.373565 
L 310.390059 197.392696 
L 308.75863 186.373565 
L 307.1272 191.88313 
L 305.49577 197.392696 
L 303.86434 180.864 
L 302.23291 186.373565 
L 300.60148 180.864 
L 298.97005 186.373565 
L 297.33862 191.88313 
L 295.70719 180.864 
L 294.075761 186.373565 
L 292.444331 197.392696 
L 290.812901 224.940522 
L 289.181471 208.411826 
L 287.550041 219.430957 
L 285.918611 213.921391 
L 284.287181 197.392696 
L 282.655751 191.88313 
L 281.024322 186.373565 
L 279.392892 191.88313 
L 277.761462 180.864 
L 276.130032 191.88313 
L 274.498602 186.373565 
L 272.867172 191.88313 
L 271.235742 186.373565 
L 269.604312 180.864 
L 267.972883 197.392696 
L 266.341453 191.88313 
L 264.710023 197.392696 
L 263.078593 191.88313 
L 261.447163 197.392696 
L 259.815733 202.902261 
L 258.184303 208.411826 
L 256.552873 202.902261 
L 254.921444 197.392696 
L 253.290014 191.88313 
L 251.658584 197.392696 
L 250.027154 186.373565 
L 248.395724 191.88313 
L 246.764294 180.864 
L 245.132864 175.354435 
L 243.501434 180.864 
L 241.870005 186.373565 
L 240.238575 191.88313 
L 238.607145 186.373565 
L 236.975715 191.88313 
L 235.344285 186.373565 
L 233.712855 191.88313 
L 232.081425 202.902261 
L 230.449995 197.392696 
L 228.818566 213.921391 
L 227.187136 208.411826 
L 225.555706 202.902261 
L 223.924276 197.392696 
L 222.292846 202.902261 
L 220.661416 208.411826 
L 219.029986 219.430957 
L 217.398556 208.411826 
L 215.767127 197.392696 
L 214.135697 208.411826 
L 212.504267 213.921391 
L 210.872837 208.411826 
L 209.241407 197.392696 
L 207.609977 186.373565 
L 205.978547 169.84487 
L 204.347117 175.354435 
L 202.715688 180.864 
L 201.084258 175.354435 
L 199.452828 186.373565 
L 197.821398 197.392696 
L 196.189968 186.373565 
L 194.558538 191.88313 
L 192.927108 197.392696 
L 191.295678 191.88313 
L 189.664249 224.940522 
L 188.032819 235.959652 
L 186.401389 224.940522 
L 184.769959 224.940522 
L 183.138529 224.940522 
L 181.507099 208.411826 
L 179.875669 213.921391 
L 178.244239 208.411826 
L 176.61281 219.430957 
L 174.98138 197.392696 
L 173.34995 230.450087 
L 171.71852 213.921391 
L 170.08709 208.411826 
L 168.45566 235.959652 
L 166.82423 219.430957 
L 165.1928 280.036174 
L 163.56137 269.017043 
L 161.929941 208.411826 
L 160.298511 230.450087 
L 158.667081 208.411826 
L 157.035651 197.392696 
L 155.404221 191.88313 
L 153.772791 186.373565 
L 152.141361 175.354435 
L 150.509931 180.864 
L 148.878502 191.88313 
L 147.247072 197.392696 
L 145.615642 202.902261 
L 143.984212 191.88313 
L 142.352782 186.373565 
L 140.721352 197.392696 
L 139.089922 186.373565 
L 137.458492 191.88313 
L 135.827063 186.373565 
L 134.195633 197.392696 
L 132.564203 191.88313 
L 130.932773 180.864 
L 129.301343 191.88313 
L 127.669913 186.373565 
L 126.038483 197.392696 
L 124.407053 191.88313 
L 122.775624 175.354435 
L 121.144194 180.864 
L 119.512764 191.88313 
L 117.881334 164.335304 
L 116.249904 153.316174 
L 114.618474 153.316174 
L 112.987044 169.84487 
L 111.355614 158.825739 
L 109.724185 169.84487 
L 108.092755 158.825739 
L 106.461325 158.825739 
L 104.829895 169.84487 
L 103.198465 175.354435 
L 101.567035 164.335304 
L 99.935605 109.239652 
L 98.304175 81.691826 
L 96.672746 70.672696 
L 95.041316 76.182261 
L 93.409886 70.672696 
L 91.778456 76.182261 
L 90.147026 70.672696 
L 88.515596 70.672696 
L 86.884166 81.691826 
L 85.252736 81.691826 
L 83.621307 81.691826 
L 81.989877 70.672696 
L 80.358447 81.691826 
L 78.727017 54.144 
L 77.095587 59.653565 
L 75.464157 54.144 
L 73.832727 59.653565 
z
" style="fill:#2ca02c;"/>
   </g>
   <g id="PolyCollection_4">
    <path clip-path="url(#p377a48143a)" d="M 73.832727 59.653565 
L 73.832727 59.653565 
L 75.464157 54.144 
L 77.095587 59.653565 
L 78.727017 54.144 
L 80.358447 81.691826 
L 81.989877 70.672696 
L 83.621307 81.691826 
L 85.252736 81.691826 
L 86.884166 81.691826 
L 88.515596 70.672696 
L 90.147026 70.672696 
L 91.778456 76.182261 
L 93.409886 70.672696 
L 95.041316 76.182261 
L 96.672746 70.672696 
L 98.304175 81.691826 
L 99.935605 109.239652 
L 101.567035 164.335304 
L 103.198465 175.354435 
L 104.829895 169.84487 
L 106.461325 158.825739 
L 108.092755 158.825739 
L 109.724185 169.84487 
L 111.355614 158.825739 
L 112.987044 169.84487 
L 114.618474 153.316174 
L 116.249904 153.316174 
L 117.881334 164.335304 
L 119.512764 191.88313 
L 121.144194 180.864 
L 122.775624 175.354435 
L 124.407053 191.88313 
L 126.038483 197.392696 
L 127.669913 186.373565 
L 129.301343 191.88313 
L 130.932773 180.864 
L 132.564203 191.88313 
L 134.195633 197.392696 
L 135.827063 186.373565 
L 137.458492 191.88313 
L 139.089922 186.373565 
L 140.721352 197.392696 
L 142.352782 186.373565 
L 143.984212 191.88313 
L 145.615642 202.902261 
L 147.247072 197.392696 
L 148.878502 191.88313 
L 150.509931 180.864 
L 152.141361 175.354435 
L 153.772791 186.373565 
L 155.404221 191.88313 
L 157.035651 197.392696 
L 158.667081 208.411826 
L 160.298511 230.450087 
L 161.929941 208.411826 
L 163.56137 269.017043 
L 165.1928 280.036174 
L 166.82423 219.430957 
L 168.45566 235.959652 
L 170.08709 208.411826 
L 171.71852 213.921391 
L 173.34995 230.450087 
L 174.98138 197.392696 
L 176.61281 219.430957 
L 178.244239 208.411826 
L 179.875669 213.921391 
L 181.507099 208.411826 
L 183.138529 224.940522 
L 184.769959 224.940522 
L 186.401389 224.940522 
L 188.032819 235.959652 
L 189.664249 224.940522 
L 191.295678 191.88313 
L 192.927108 197.392696 
L 194.558538 191.88313 
L 196.189968 186.373565 
L 197.821398 197.392696 
L 199.452828 186.373565 
L 201.084258 175.354435 
L 202.715688 180.864 
L 204.347117 175.354435 
L 205.978547 169.84487 
L 207.609977 186.373565 
L 209.241407 197.392696 
L 210.872837 208.411826 
L 212.504267 213.921391 
L 214.135697 208.411826 
L 215.767127 197.392696 
L 217.398556 208.411826 
L 219.029986 219.430957 
L 220.661416 208.411826 
L 222.292846 202.902261 
L 223.924276 197.392696 
L 225.555706 202.902261 
L 227.187136 208.411826 
L 228.818566 213.921391 
L 230.449995 197.392696 
L 232.081425 202.902261 
L 233.712855 191.88313 
L 235.344285 186.373565 
L 236.975715 191.88313 
L 238.607145 186.373565 
L 240.238575 191.88313 
L 241.870005 186.373565 
L 243.501434 180.864 
L 245.132864 175.354435 
L 246.764294 180.864 
L 248.395724 191.88313 
L 250.027154 186.373565 
L 251.658584 197.392696 
L 253.290014 191.88313 
L 254.921444 197.392696 
L 256.552873 202.902261 
L 258.184303 208.411826 
L 259.815733 202.902261 
L 261.447163 197.392696 
L 263.078593 191.88313 
L 264.710023 197.392696 
L 266.341453 191.88313 
L 267.972883 197.392696 
L 269.604312 180.864 
L 271.235742 186.373565 
L 272.867172 191.88313 
L 274.498602 186.373565 
L 276.130032 191.88313 
L 277.761462 180.864 
L 279.392892 191.88313 
L 281.024322 186.373565 
L 282.655751 191.88313 
L 284.287181 197.392696 
L 285.918611 213.921391 
L 287.550041 219.430957 
L 289.181471 208.411826 
L 290.812901 224.940522 
L 292.444331 197.392696 
L 294.075761 186.373565 
L 295.70719 180.864 
L 297.33862 191.88313 
L 298.97005 186.373565 
L 300.60148 180.864 
L 302.23291 186.373565 
L 303.86434 180.864 
L 305.49577 197.392696 
L 307.1272 191.88313 
L 308.75863 186.373565 
L 310.390059 197.392696 
L 312.021489 186.373565 
L 313.652919 180.864 
L 315.284349 175.354435 
L 316.915779 180.864 
L 318.547209 191.88313 
L 320.178639 186.373565 
L 321.810069 180.864 
L 323.441498 191.88313 
L 325.072928 202.902261 
L 326.704358 191.88313 
L 328.335788 186.373565 
L 329.967218 180.864 
L 331.598648 186.373565 
L 333.230078 191.88313 
L 334.861508 197.392696 
L 336.492937 202.902261 
L 338.124367 208.411826 
L 339.755797 213.921391 
L 341.387227 202.902261 
L 343.018657 208.411826 
L 344.650087 202.902261 
L 346.281517 213.921391 
L 347.912947 208.411826 
L 349.544376 202.902261 
L 351.175806 197.392696 
L 352.807236 180.864 
L 354.438666 175.354435 
L 356.070096 191.88313 
L 357.701526 197.392696 
L 359.332956 208.411826 
L 360.964386 202.902261 
L 362.595815 191.88313 
L 364.227245 202.902261 
L 365.858675 208.411826 
L 367.490105 213.921391 
L 369.121535 197.392696 
L 370.752965 202.902261 
L 372.384395 208.411826 
L 374.015825 202.902261 
L 375.647254 208.411826 
L 377.278684 213.921391 
L 378.910114 202.902261 
L 380.541544 208.411826 
L 382.172974 202.902261 
L 383.804404 191.88313 
L 385.435834 186.373565 
L 387.067264 191.88313 
L 388.698693 175.354435 
L 390.330123 191.88313 
L 391.961553 180.864 
L 393.592983 191.88313 
L 395.224413 202.902261 
L 396.855843 197.392696 
L 398.487273 202.902261 
L 398.487273 202.902261 
L 398.487273 202.902261 
L 396.855843 197.392696 
L 395.224413 202.902261 
L 393.592983 191.88313 
L 391.961553 180.864 
L 390.330123 191.88313 
L 388.698693 175.354435 
L 387.067264 191.88313 
L 385.435834 186.373565 
L 383.804404 191.88313 
L 382.172974 202.902261 
L 380.541544 208.411826 
L 378.910114 202.902261 
L 377.278684 213.921391 
L 375.647254 208.411826 
L 374.015825 202.902261 
L 372.384395 208.411826 
L 370.752965 202.902261 
L 369.121535 197.392696 
L 367.490105 213.921391 
L 365.858675 208.411826 
L 364.227245 202.902261 
L 362.595815 191.88313 
L 360.964386 202.902261 
L 359.332956 208.411826 
L 357.701526 197.392696 
L 356.070096 191.88313 
L 354.438666 175.354435 
L 352.807236 180.864 
L 351.175806 197.392696 
L 349.544376 202.902261 
L 347.912947 208.411826 
L 346.281517 213.921391 
L 344.650087 202.902261 
L 343.018657 208.411826 
L 341.387227 202.902261 
L 339.755797 213.921391 
L 338.124367 208.411826 
L 336.492937 202.902261 
L 334.861508 197.392696 
L 333.230078 191.88313 
L 331.598648 186.373565 
L 329.967218 180.864 
L 328.335788 186.373565 
L 326.704358 191.88313 
L 325.072928 202.902261 
L 323.441498 191.88313 
L 321.810069 180.864 
L 320.178639 186.373565 
L 318.547209 191.88313 
L 316.915779 180.864 
L 315.284349 175.354435 
L 313.652919 180.864 
L 312.021489 186.373565 
L 310.390059 197.392696 
L 308.75863 186.373565 
L 307.1272 191.88313 
L 305.49577 197.392696 
L 303.86434 180.864 
L 302.23291 186.373565 
L 300.60148 180.864 
L 298.97005 186.373565 
L 297.33862 191.88313 
L 295.70719 180.864 
L 294.075761 186.373565 
L 292.444331 197.392696 
L 290.812901 224.940522 
L 289.181471 208.411826 
L 287.550041 219.430957 
L 285.918611 213.921391 
L 284.287181 197.392696 
L 282.655751 191.88313 
L 281.024322 186.373565 
L 279.392892 191.88313 
L 277.761462 180.864 
L 276.130032 191.88313 
L 274.498602 186.373565 
L 272.867172 191.88313 
L 271.235742 186.373565 
L 269.604312 180.864 
L 267.972883 197.392696 
L 266.341453 191.88313 
L 264.710023 197.392696 
L 263.078593 191.88313 
L 261.447163 197.392696 
L 259.815733 202.902261 
L 258.184303 208.411826 
L 256.552873 202.902261 
L 254.921444 197.392696 
L 253.290014 191.88313 
L 251.658584 197.392696 
L 250.027154 186.373565 
L 248.395724 191.88313 
L 246.764294 180.864 
L 245.132864 175.354435 
L 243.501434 180.864 
L 241.870005 186.373565 
L 240.238575 191.88313 
L 238.607145 186.373565 
L 236.975715 191.88313 
L 235.344285 186.373565 
L 233.712855 191.88313 
L 232.081425 202.902261 
L 230.449995 197.392696 
L 228.818566 213.921391 
L 227.187136 208.411826 
L 225.555706 202.902261 
L 223.924276 197.392696 
L 222.292846 202.902261 
L 220.661416 208.411826 
L 219.029986 219.430957 
L 217.398556 208.411826 
L 215.767127 197.392696 
L 214.135697 208.411826 
L 212.504267 213.921391 
L 210.872837 208.411826 
L 209.241407 197.392696 
L 207.609977 186.373565 
L 205.978547 169.84487 
L 204.347117 175.354435 
L 202.715688 180.864 
L 201.084258 175.354435 
L 199.452828 186.373565 
L 197.821398 197.392696 
L 196.189968 186.373565 
L 194.558538 191.88313 
L 192.927108 197.392696 
L 191.295678 191.88313 
L 189.664249 224.940522 
L 188.032819 235.959652 
L 186.401389 224.940522 
L 184.769959 224.940522 
L 183.138529 224.940522 
L 181.507099 208.411826 
L 179.875669 213.921391 
L 178.244239 208.411826 
L 176.61281 219.430957 
L 174.98138 197.392696 
L 173.34995 230.450087 
L 171.71852 213.921391 
L 170.08709 208.411826 
L 168.45566 235.959652 
L 166.82423 219.430957 
L 165.1928 280.036174 
L 163.56137 269.017043 
L 161.929941 208.411826 
L 160.298511 230.450087 
L 158.667081 208.411826 
L 157.035651 197.392696 
L 155.404221 191.88313 
L 153.772791 186.373565 
L 152.141361 175.354435 
L 150.509931 180.864 
L 148.878502 191.88313 
L 147.247072 197.392696 
L 145.615642 202.902261 
L 143.984212 191.88313 
L 142.352782 186.373565 
L 140.721352 197.392696 
L 139.089922 186.373565 
L 137.458492 191.88313 
L 135.827063 186.373565 
L 134.195633 197.392696 
L 132.564203 191.88313 
L 130.932773 180.864 
L 129.301343 191.88313 
L 127.669913 186.373565 
L 126.038483 197.392696 
L 124.407053 191.88313 
L 122.775624 175.354435 
L 121.144194 180.864 
L 119.512764 191.88313 
L 117.881334 164.335304 
L 116.249904 153.316174 
L 114.618474 153.316174 
L 112.987044 169.84487 
L 111.355614 158.825739 
L 109.724185 169.84487 
L 108.092755 158.825739 
L 106.461325 158.825739 
L 104.829895 158.825739 
L 103.198465 164.335304 
L 101.567035 147.806609 
L 99.935605 87.201391 
L 98.304175 65.16313 
L 96.672746 59.653565 
L 95.041316 59.653565 
L 93.409886 59.653565 
L 91.778456 59.653565 
L 90.147026 59.653565 
L 88.515596 54.144 
L 86.884166 59.653565 
L 85.252736 54.144 
L 83.621307 59.653565 
L 81.989877 54.144 
L 80.358447 54.144 
L 78.727017 54.144 
L 77.095587 59.653565 
L 75.464157 54.144 
L 73.832727 59.653565 
z
" style="fill:#d62728;"/>
   </g>
   <g id="PolyCollection_5">
    <path clip-path="url(#p377a48143a)" d="M 73.832727 59.653565 
L 73.832727 59.653565 
L 75.464157 54.144 
L 77.095587 59.653565 
L 78.727017 54.144 
L 80.358447 54.144 
L 81.989877 54.144 
L 83.621307 59.653565 
L 85.252736 54.144 
L 86.884166 59.653565 
L 88.515596 54.144 
L 90.147026 59.653565 
L 91.778456 59.653565 
L 93.409886 59.653565 
L 95.041316 59.653565 
L 96.672746 59.653565 
L 98.304175 65.16313 
L 99.935605 87.201391 
L 101.567035 147.806609 
L 103.198465 164.335304 
L 104.829895 158.825739 
L 106.461325 158.825739 
L 108.092755 158.825739 
L 109.724185 169.84487 
L 111.355614 158.825739 
L 112.987044 169.84487 
L 114.618474 153.316174 
L 116.249904 153.316174 
L 117.881334 164.335304 
L 119.512764 191.88313 
L 121.144194 180.864 
L 122.775624 175.354435 
L 124.407053 191.88313 
L 126.038483 197.392696 
L 127.669913 186.373565 
L 129.301343 191.88313 
L 130.932773 180.864 
L 132.564203 191.88313 
L 134.195633 197.392696 
L 135.827063 186.373565 
L 137.458492 191.88313 
L 139.089922 186.373565 
L 140.721352 197.392696 
L 142.352782 186.373565 
L 143.984212 191.88313 
L 145.615642 202.902261 
L 147.247072 197.392696 
L 148.878502 191.88313 
L 150.509931 180.864 
L 152.141361 175.354435 
L 153.772791 186.373565 
L 155.404221 191.88313 
L 157.035651 197.392696 
L 158.667081 208.411826 
L 160.298511 230.450087 
L 161.929941 208.411826 
L 163.56137 269.017043 
L 165.1928 280.036174 
L 166.82423 219.430957 
L 168.45566 235.959652 
L 170.08709 208.411826 
L 171.71852 213.921391 
L 173.34995 230.450087 
L 174.98138 197.392696 
L 176.61281 219.430957 
L 178.244239 208.411826 
L 179.875669 213.921391 
L 181.507099 208.411826 
L 183.138529 224.940522 
L 184.769959 224.940522 
L 186.401389 224.940522 
L 188.032819 235.959652 
L 189.664249 224.940522 
L 191.295678 191.88313 
L 192.927108 197.392696 
L 194.558538 191.88313 
L 196.189968 186.373565 
L 197.821398 197.392696 
L 199.452828 186.373565 
L 201.084258 175.354435 
L 202.715688 180.864 
L 204.347117 175.354435 
L 205.978547 169.84487 
L 207.609977 186.373565 
L 209.241407 197.392696 
L 210.872837 208.411826 
L 212.504267 213.921391 
L 214.135697 208.411826 
L 215.767127 197.392696 
L 217.398556 208.411826 
L 219.029986 219.430957 
L 220.661416 208.411826 
L 222.292846 202.902261 
L 223.924276 197.392696 
L 225.555706 202.902261 
L 227.187136 208.411826 
L 228.818566 213.921391 
L 230.449995 197.392696 
L 232.081425 202.902261 
L 233.712855 191.88313 
L 235.344285 186.373565 
L 236.975715 191.88313 
L 238.607145 186.373565 
L 240.238575 191.88313 
L 241.870005 186.373565 
L 243.501434 180.864 
L 245.132864 175.354435 
L 246.764294 180.864 
L 248.395724 191.88313 
L 250.027154 186.373565 
L 251.658584 197.392696 
L 253.290014 191.88313 
L 254.921444 197.392696 
L 256.552873 202.902261 
L 258.184303 208.411826 
L 259.815733 202.902261 
L 261.447163 197.392696 
L 263.078593 191.88313 
L 264.710023 197.392696 
L 266.341453 191.88313 
L 267.972883 197.392696 
L 269.604312 180.864 
L 271.235742 186.373565 
L 272.867172 191.88313 
L 274.498602 186.373565 
L 276.130032 191.88313 
L 277.761462 180.864 
L 279.392892 191.88313 
L 281.024322 186.373565 
L 282.655751 191.88313 
L 284.287181 197.392696 
L 285.918611 213.921391 
L 287.550041 219.430957 
L 289.181471 208.411826 
L 290.812901 224.940522 
L 292.444331 197.392696 
L 294.075761 186.373565 
L 295.70719 180.864 
L 297.33862 191.88313 
L 298.97005 186.373565 
L 300.60148 180.864 
L 302.23291 186.373565 
L 303.86434 180.864 
L 305.49577 197.392696 
L 307.1272 191.88313 
L 308.75863 186.373565 
L 310.390059 197.392696 
L 312.021489 186.373565 
L 313.652919 180.864 
L 315.284349 175.354435 
L 316.915779 180.864 
L 318.547209 191.88313 
L 320.178639 186.373565 
L 321.810069 180.864 
L 323.441498 191.88313 
L 325.072928 202.902261 
L 326.704358 191.88313 
L 328.335788 186.373565 
L 329.967218 180.864 
L 331.598648 186.373565 
L 333.230078 191.88313 
L 334.861508 197.392696 
L 336.492937 202.902261 
L 338.124367 208.411826 
L 339.755797 213.921391 
L 341.387227 202.902261 
L 343.018657 208.411826 
L 344.650087 202.902261 
L 346.281517 213.921391 
L 347.912947 208.411826 
L 349.544376 202.902261 
L 351.175806 197.392696 
L 352.807236 180.864 
L 354.438666 175.354435 
L 356.070096 191.88313 
L 357.701526 197.392696 
L 359.332956 208.411826 
L 360.964386 202.902261 
L 362.595815 191.88313 
L 364.227245 202.902261 
L 365.858675 208.411826 
L 367.490105 213.921391 
L 369.121535 197.392696 
L 370.752965 202.902261 
L 372.384395 208.411826 
L 374.015825 202.902261 
L 375.647254 208.411826 
L 377.278684 213.921391 
L 378.910114 202.902261 
L 380.541544 208.411826 
L 382.172974 202.902261 
L 383.804404 191.88313 
L 385.435834 186.373565 
L 387.067264 191.88313 
L 388.698693 175.354435 
L 390.330123 191.88313 
L 391.961553 180.864 
L 393.592983 191.88313 
L 395.224413 202.902261 
L 396.855843 197.392696 
L 398.487273 202.902261 
L 398.487273 202.902261 
L 398.487273 202.902261 
L 396.855843 197.392696 
L 395.224413 202.902261 
L 393.592983 191.88313 
L 391.961553 180.864 
L 390.330123 191.88313 
L 388.698693 175.354435 
L 387.067264 191.88313 
L 385.435834 186.373565 
L 383.804404 191.88313 
L 382.172974 202.902261 
L 380.541544 208.411826 
L 378.910114 202.902261 
L 377.278684 213.921391 
L 375.647254 208.411826 
L 374.015825 202.902261 
L 372.384395 208.411826 
L 370.752965 202.902261 
L 369.121535 197.392696 
L 367.490105 213.921391 
L 365.858675 208.411826 
L 364.227245 202.902261 
L 362.595815 191.88313 
L 360.964386 202.902261 
L 359.332956 208.411826 
L 357.701526 197.392696 
L 356.070096 191.88313 
L 354.438666 175.354435 
L 352.807236 180.864 
L 351.175806 197.392696 
L 349.544376 202.902261 
L 347.912947 208.411826 
L 346.281517 213.921391 
L 344.650087 202.902261 
L 343.018657 208.411826 
L 341.387227 202.902261 
L 339.755797 213.921391 
L 338.124367 208.411826 
L 336.492937 202.902261 
L 334.861508 197.392696 
L 333.230078 191.88313 
L 331.598648 186.373565 
L 329.967218 180.864 
L 328.335788 186.373565 
L 326.704358 191.88313 
L 325.072928 202.902261 
L 323.441498 191.88313 
L 321.810069 180.864 
L 320.178639 186.373565 
L 318.547209 191.88313 
L 316.915779 180.864 
L 315.284349 175.354435 
L 313.652919 180.864 
L 312.021489 186.373565 
L 310.390059 197.392696 
L 308.75863 186.373565 
L 307.1272 191.88313 
L 305.49577 197.392696 
L 303.86434 180.864 
L 302.23291 186.373565 
L 300.60148 180.864 
L 298.97005 186.373565 
L 297.33862 191.88313 
L 295.70719 180.864 
L 294.075761 186.373565 
L 292.444331 197.392696 
L 290.812901 224.940522 
L 289.181471 208.411826 
L 287.550041 219.430957 
L 285.918611 213.921391 
L 284.287181 197.392696 
L 282.655751 191.88313 
L 281.024322 186.373565 
L 279.392892 191.88313 
L 277.761462 180.864 
L 276.130032 191.88313 
L 274.498602 186.373565 
L 272.867172 191.88313 
L 271.235742 186.373565 
L 269.604312 180.864 
L 267.972883 197.392696 
L 266.341453 191.88313 
L 264.710023 197.392696 
L 263.078593 191.88313 
L 261.447163 197.392696 
L 259.815733 202.902261 
L 258.184303 208.411826 
L 256.552873 202.902261 
L 254.921444 197.392696 
L 253.290014 191.88313 
L 251.658584 197.392696 
L 250.027154 186.373565 
L 248.395724 191.88313 
L 246.764294 180.864 
L 245.132864 175.354435 
L 243.501434 180.864 
L 241.870005 186.373565 
L 240.238575 191.88313 
L 238.607145 186.373565 
L 236.975715 191.88313 
L 235.344285 186.373565 
L 233.712855 191.88313 
L 232.081425 202.902261 
L 230.449995 197.392696 
L 228.818566 213.921391 
L 227.187136 208.411826 
L 225.555706 202.902261 
L 223.924276 197.392696 
L 222.292846 202.902261 
L 220.661416 208.411826 
L 219.029986 219.430957 
L 217.398556 208.411826 
L 215.767127 197.392696 
L 214.135697 208.411826 
L 212.504267 213.921391 
L 210.872837 208.411826 
L 209.241407 197.392696 
L 207.609977 186.373565 
L 205.978547 169.84487 
L 204.347117 175.354435 
L 202.715688 180.864 
L 201.084258 175.354435 
L 199.452828 186.373565 
L 197.821398 197.392696 
L 196.189968 186.373565 
L 194.558538 191.88313 
L 192.927108 197.392696 
L 191.295678 191.88313 
L 189.664249 147.806609 
L 188.032819 164.335304 
L 186.401389 153.316174 
L 184.769959 169.84487 
L 183.138529 164.335304 
L 181.507099 153.316174 
L 179.875669 147.806609 
L 178.244239 131.277913 
L 176.61281 136.787478 
L 174.98138 125.768348 
L 173.34995 153.316174 
L 171.71852 142.297043 
L 170.08709 131.277913 
L 168.45566 158.825739 
L 166.82423 136.787478 
L 165.1928 191.88313 
L 163.56137 186.373565 
L 161.929941 103.730087 
L 160.298511 131.277913 
L 158.667081 103.730087 
L 157.035651 87.201391 
L 155.404221 76.182261 
L 153.772791 76.182261 
L 152.141361 70.672696 
L 150.509931 70.672696 
L 148.878502 70.672696 
L 147.247072 70.672696 
L 145.615642 76.182261 
L 143.984212 70.672696 
L 142.352782 65.16313 
L 140.721352 59.653565 
L 139.089922 59.653565 
L 137.458492 59.653565 
L 135.827063 59.653565 
L 134.195633 59.653565 
L 132.564203 59.653565 
L 130.932773 59.653565 
L 129.301343 59.653565 
L 127.669913 59.653565 
L 126.038483 59.653565 
L 124.407053 59.653565 
L 122.775624 59.653565 
L 121.144194 59.653565 
L 119.512764 59.653565 
L 117.881334 59.653565 
L 116.249904 59.653565 
L 114.618474 54.144 
L 112.987044 65.16313 
L 111.355614 59.653565 
L 109.724185 59.653565 
L 108.092755 54.144 
L 106.461325 59.653565 
L 104.829895 54.144 
L 103.198465 65.16313 
L 101.567035 54.144 
L 99.935605 54.144 
L 98.304175 59.653565 
L 96.672746 59.653565 
L 95.041316 59.653565 
L 93.409886 59.653565 
L 91.778456 59.653565 
L 90.147026 59.653565 
L 88.515596 54.144 
L 86.884166 59.653565 
L 85.252736 54.144 
L 83.621307 59.653565 
L 81.989877 54.144 
L 80.358447 54.144 
L 78.727017 54.144 
L 77.095587 59.653565 
L 75.464157 54.144 
L 73.832727 59.653565 
z
" style="fill:#9467bd;"/>
   </g>
   <g id="PolyCollection_6">
    <path clip-path="url(#p377a48143a)" d="M 73.832727 59.653565 
L 73.832727 59.653565 
L 75.464157 54.144 
L 77.095587 59.653565 
L 78.727017 54.144 
L 80.358447 54.144 
L 81.989877 54.144 
L 83.621307 59.653565 
L 85.252736 54.144 
L 86.884166 59.653565 
L 88.515596 54.144 
L 90.147026 59.653565 
L 91.778456 59.653565 
L 93.409886 59.653565 
L 95.041316 59.653565 
L 96.672746 59.653565 
L 98.304175 59.653565 
L 99.935605 54.144 
L 101.567035 54.144 
L 103.198465 65.16313 
L 104.829895 54.144 
L 106.461325 59.653565 
L 108.092755 54.144 
L 109.724185 59.653565 
L 111.355614 59.653565 
L 112.987044 65.16313 
L 114.618474 54.144 
L 116.249904 59.653565 
L 117.881334 59.653565 
L 119.512764 59.653565 
L 121.144194 59.653565 
L 122.775624 59.653565 
L 124.407053 59.653565 
L 126.038483 59.653565 
L 127.669913 59.653565 
L 129.301343 59.653565 
L 130.932773 59.653565 
L 132.564203 59.653565 
L 134.195633 59.653565 
L 135.827063 59.653565 
L 137.458492 59.653565 
L 139.089922 59.653565 
L 140.721352 59.653565 
L 142.352782 65.16313 
L 143.984212 70.672696 
L 145.615642 76.182261 
L 147.247072 70.672696 
L 148.878502 70.672696 
L 150.509931 70.672696 
L 152.141361 70.672696 
L 153.772791 76.182261 
L 155.404221 76.182261 
L 157.035651 87.201391 
L 158.667081 103.730087 
L 160.298511 131.277913 
L 161.929941 103.730087 
L 163.56137 186.373565 
L 165.1928 191.88313 
L 166.82423 136.787478 
L 168.45566 158.825739 
L 170.08709 131.277913 
L 171.71852 142.297043 
L 173.34995 153.316174 
L 174.98138 125.768348 
L 176.61281 136.787478 
L 178.244239 131.277913 
L 179.875669 147.806609 
L 181.507099 153.316174 
L 183.138529 164.335304 
L 184.769959 169.84487 
L 186.401389 153.316174 
L 188.032819 164.335304 
L 189.664249 147.806609 
L 191.295678 191.88313 
L 192.927108 197.392696 
L 194.558538 191.88313 
L 196.189968 186.373565 
L 197.821398 197.392696 
L 199.452828 186.373565 
L 201.084258 175.354435 
L 202.715688 180.864 
L 204.347117 175.354435 
L 205.978547 169.84487 
L 207.609977 186.373565 
L 209.241407 197.392696 
L 210.872837 208.411826 
L 212.504267 213.921391 
L 214.135697 208.411826 
L 215.767127 197.392696 
L 217.398556 208.411826 
L 219.029986 219.430957 
L 220.661416 208.411826 
L 222.292846 202.902261 
L 223.924276 197.392696 
L 225.555706 202.902261 
L 227.187136 208.411826 
L 228.818566 213.921391 
L 230.449995 197.392696 
L 232.081425 202.902261 
L 233.712855 191.88313 
L 235.344285 186.373565 
L 236.975715 191.88313 
L 238.607145 186.373565 
L 240.238575 191.88313 
L 241.870005 186.373565 
L 243.501434 180.864 
L 245.132864 175.354435 
L 246.764294 180.864 
L 248.395724 191.88313 
L 250.027154 186.373565 
L 251.658584 197.392696 
L 253.290014 191.88313 
L 254.921444 197.392696 
L 256.552873 202.902261 
L 258.184303 208.411826 
L 259.815733 202.902261 
L 261.447163 197.392696 
L 263.078593 191.88313 
L 264.710023 197.392696 
L 266.341453 191.88313 
L 267.972883 197.392696 
L 269.604312 180.864 
L 271.235742 186.373565 
L 272.867172 191.88313 
L 274.498602 186.373565 
L 276.130032 191.88313 
L 277.761462 180.864 
L 279.392892 191.88313 
L 281.024322 186.373565 
L 282.655751 191.88313 
L 284.287181 197.392696 
L 285.918611 213.921391 
L 287.550041 219.430957 
L 289.181471 208.411826 
L 290.812901 224.940522 
L 292.444331 197.392696 
L 294.075761 186.373565 
L 295.70719 180.864 
L 297.33862 191.88313 
L 298.97005 186.373565 
L 300.60148 180.864 
L 302.23291 186.373565 
L 303.86434 180.864 
L 305.49577 197.392696 
L 307.1272 191.88313 
L 308.75863 186.373565 
L 310.390059 197.392696 
L 312.021489 186.373565 
L 313.652919 180.864 
L 315.284349 175.354435 
L 316.915779 180.864 
L 318.547209 191.88313 
L 320.178639 186.373565 
L 321.810069 180.864 
L 323.441498 191.88313 
L 325.072928 202.902261 
L 326.704358 191.88313 
L 328.335788 186.373565 
L 329.967218 180.864 
L 331.598648 186.373565 
L 333.230078 191.88313 
L 334.861508 197.392696 
L 336.492937 202.902261 
L 338.124367 208.411826 
L 339.755797 213.921391 
L 341.387227 202.902261 
L 343.018657 208.411826 
L 344.650087 202.902261 
L 346.281517 213.921391 
L 347.912947 208.411826 
L 349.544376 202.902261 
L 351.175806 197.392696 
L 352.807236 180.864 
L 354.438666 175.354435 
L 356.070096 191.88313 
L 357.701526 197.392696 
L 359.332956 208.411826 
L 360.964386 202.902261 
L 362.595815 191.88313 
L 364.227245 202.902261 
L 365.858675 208.411826 
L 367.490105 213.921391 
L 369.121535 197.392696 
L 370.752965 202.902261 
L 372.384395 208.411826 
L 374.015825 202.902261 
L 375.647254 208.411826 
L 377.278684 213.921391 
L 378.910114 202.902261 
L 380.541544 208.411826 
L 382.172974 202.902261 
L 383.804404 191.88313 
L 385.435834 186.373565 
L 387.067264 191.88313 
L 388.698693 175.354435 
L 390.330123 191.88313 
L 391.961553 180.864 
L 393.592983 191.88313 
L 395.224413 202.902261 
L 396.855843 197.392696 
L 398.487273 202.902261 
L 398.487273 202.902261 
L 398.487273 202.902261 
L 396.855843 197.392696 
L 395.224413 202.902261 
L 393.592983 191.88313 
L 391.961553 180.864 
L 390.330123 191.88313 
L 388.698693 175.354435 
L 387.067264 191.88313 
L 385.435834 186.373565 
L 383.804404 191.88313 
L 382.172974 202.902261 
L 380.541544 208.411826 
L 378.910114 202.902261 
L 377.278684 213.921391 
L 375.647254 208.411826 
L 374.015825 202.902261 
L 372.384395 208.411826 
L 370.752965 202.902261 
L 369.121535 197.392696 
L 367.490105 213.921391 
L 365.858675 208.411826 
L 364.227245 202.902261 
L 362.595815 191.88313 
L 360.964386 202.902261 
L 359.332956 208.411826 
L 357.701526 197.392696 
L 356.070096 191.88313 
L 354.438666 175.354435 
L 352.807236 180.864 
L 351.175806 197.392696 
L 349.544376 202.902261 
L 347.912947 208.411826 
L 346.281517 213.921391 
L 344.650087 202.902261 
L 343.018657 208.411826 
L 341.387227 202.902261 
L 339.755797 213.921391 
L 338.124367 208.411826 
L 336.492937 202.902261 
L 334.861508 197.392696 
L 333.230078 191.88313 
L 331.598648 186.373565 
L 329.967218 180.864 
L 328.335788 186.373565 
L 326.704358 191.88313 
L 325.072928 202.902261 
L 323.441498 191.88313 
L 321.810069 180.864 
L 320.178639 186.373565 
L 318.547209 191.88313 
L 316.915779 180.864 
L 315.284349 175.354435 
L 313.652919 180.864 
L 312.021489 186.373565 
L 310.390059 197.392696 
L 308.75863 186.373565 
L 307.1272 191.88313 
L 305.49577 197.392696 
L 303.86434 180.864 
L 302.23291 186.373565 
L 300.60148 180.864 
L 298.97005 186.373565 
L 297.33862 191.88313 
L 295.70719 180.864 
L 294.075761 186.373565 
L 292.444331 197.392696 
L 290.812901 191.88313 
L 289.181471 76.182261 
L 287.550041 59.653565 
L 285.918611 59.653565 
L 284.287181 59.653565 
L 282.655751 59.653565 
L 281.024322 59.653565 
L 279.392892 59.653565 
L 277.761462 59.653565 
L 276.130032 59.653565 
L 274.498602 59.653565 
L 272.867172 59.653565 
L 271.235742 59.653565 
L 269.604312 59.653565 
L 267.972883 59.653565 
L 266.341453 59.653565 
L 264.710023 59.653565 
L 263.078593 59.653565 
L 261.447163 59.653565 
L 259.815733 59.653565 
L 258.184303 59.653565 
L 256.552873 59.653565 
L 254.921444 59.653565 
L 253.290014 59.653565 
L 251.658584 59.653565 
L 250.027154 59.653565 
L 248.395724 59.653565 
L 246.764294 59.653565 
L 245.132864 59.653565 
L 243.501434 59.653565 
L 241.870005 59.653565 
L 240.238575 59.653565 
L 238.607145 59.653565 
L 236.975715 59.653565 
L 235.344285 59.653565 
L 233.712855 59.653565 
L 232.081425 59.653565 
L 230.449995 59.653565 
L 228.818566 59.653565 
L 227.187136 59.653565 
L 225.555706 59.653565 
L 223.924276 59.653565 
L 222.292846 59.653565 
L 220.661416 59.653565 
L 219.029986 59.653565 
L 217.398556 59.653565 
L 215.767127 59.653565 
L 214.135697 59.653565 
L 212.504267 59.653565 
L 210.872837 59.653565 
L 209.241407 59.653565 
L 207.609977 59.653565 
L 205.978547 59.653565 
L 204.347117 59.653565 
L 202.715688 59.653565 
L 201.084258 59.653565 
L 199.452828 59.653565 
L 197.821398 59.653565 
L 196.189968 59.653565 
L 194.558538 59.653565 
L 192.927108 59.653565 
L 191.295678 59.653565 
L 189.664249 59.653565 
L 188.032819 65.16313 
L 186.401389 54.144 
L 184.769959 65.16313 
L 183.138529 59.653565 
L 181.507099 65.16313 
L 179.875669 65.16313 
L 178.244239 59.653565 
L 176.61281 59.653565 
L 174.98138 59.653565 
L 173.34995 65.16313 
L 171.71852 59.653565 
L 170.08709 54.144 
L 168.45566 65.16313 
L 166.82423 59.653565 
L 165.1928 59.653565 
L 163.56137 59.653565 
L 161.929941 59.653565 
L 160.298511 65.16313 
L 158.667081 65.16313 
L 157.035651 65.16313 
L 155.404221 65.16313 
L 153.772791 59.653565 
L 152.141361 59.653565 
L 150.509931 59.653565 
L 148.878502 59.653565 
L 147.247072 59.653565 
L 145.615642 59.653565 
L 143.984212 59.653565 
L 142.352782 59.653565 
L 140.721352 59.653565 
L 139.089922 59.653565 
L 137.458492 59.653565 
L 135.827063 59.653565 
L 134.195633 59.653565 
L 132.564203 59.653565 
L 130.932773 59.653565 
L 129.301343 59.653565 
L 127.669913 59.653565 
L 126.038483 59.653565 
L 124.407053 59.653565 
L 122.775624 59.653565 
L 121.144194 59.653565 
L 119.512764 59.653565 
L 117.881334 59.653565 
L 116.249904 59.653565 
L 114.618474 54.144 
L 112.987044 65.16313 
L 111.355614 59.653565 
L 109.724185 59.653565 
L 108.092755 54.144 
L 106.461325 59.653565 
L 104.829895 54.144 
L 103.198465 65.16313 
L 101.567035 54.144 
L 99.935605 54.144 
L 98.304175 59.653565 
L 96.672746 59.653565 
L 95.041316 59.653565 
L 93.409886 59.653565 
L 91.778456 59.653565 
L 90.147026 59.653565 
L 88.515596 54.144 
L 86.884166 59.653565 
L 85.252736 54.144 
L 83.621307 59.653565 
L 81.989877 54.144 
L 80.358447 54.144 
L 78.727017 54.144 
L 77.095587 59.653565 
L 75.464157 54.144 
L 73.832727 59.653565 
z
" style="fill:#8c564b;"/>
   </g>
   <g id="PolyCollection_7">
    <path clip-path="url(#p377a48143a)" d="M 73.832727 59.653565 
L 73.832727 59.653565 
L 75.464157 54.144 
L 77.095587 59.653565 
L 78.727017 54.144 
L 80.358447 54.144 
L 81.989877 54.144 
L 83.621307 59.653565 
L 85.252736 54.144 
L 86.884166 59.653565 
L 88.515596 54.144 
L 90.147026 59.653565 
L 91.778456 59.653565 
L 93.409886 59.653565 
L 95.041316 59.653565 
L 96.672746 59.653565 
L 98.304175 59.653565 
L 99.935605 54.144 
L 101.567035 54.144 
L 103.198465 65.16313 
L 104.829895 54.144 
L 106.461325 59.653565 
L 108.092755 54.144 
L 109.724185 59.653565 
L 111.355614 59.653565 
L 112.987044 65.16313 
L 114.618474 54.144 
L 116.249904 59.653565 
L 117.881334 59.653565 
L 119.512764 59.653565 
L 121.144194 59.653565 
L 122.775624 59.653565 
L 124.407053 59.653565 
L 126.038483 59.653565 
L 127.669913 59.653565 
L 129.301343 59.653565 
L 130.932773 59.653565 
L 132.564203 59.653565 
L 134.195633 59.653565 
L 135.827063 59.653565 
L 137.458492 59.653565 
L 139.089922 59.653565 
L 140.721352 59.653565 
L 142.352782 59.653565 
L 143.984212 59.653565 
L 145.615642 59.653565 
L 147.247072 59.653565 
L 148.878502 59.653565 
L 150.509931 59.653565 
L 152.141361 59.653565 
L 153.772791 59.653565 
L 155.404221 65.16313 
L 157.035651 65.16313 
L 158.667081 65.16313 
L 160.298511 65.16313 
L 161.929941 59.653565 
L 163.56137 59.653565 
L 165.1928 59.653565 
L 166.82423 59.653565 
L 168.45566 65.16313 
L 170.08709 54.144 
L 171.71852 59.653565 
L 173.34995 65.16313 
L 174.98138 59.653565 
L 176.61281 59.653565 
L 178.244239 59.653565 
L 179.875669 65.16313 
L 181.507099 65.16313 
L 183.138529 59.653565 
L 184.769959 65.16313 
L 186.401389 54.144 
L 188.032819 65.16313 
L 189.664249 59.653565 
L 191.295678 59.653565 
L 192.927108 59.653565 
L 194.558538 59.653565 
L 196.189968 59.653565 
L 197.821398 59.653565 
L 199.452828 59.653565 
L 201.084258 59.653565 
L 202.715688 59.653565 
L 204.347117 59.653565 
L 205.978547 59.653565 
L 207.609977 59.653565 
L 209.241407 59.653565 
L 210.872837 59.653565 
L 212.504267 59.653565 
L 214.135697 59.653565 
L 215.767127 59.653565 
L 217.398556 59.653565 
L 219.029986 59.653565 
L 220.661416 59.653565 
L 222.292846 59.653565 
L 223.924276 59.653565 
L 225.555706 59.653565 
L 227.187136 59.653565 
L 228.818566 59.653565 
L 230.449995 59.653565 
L 232.081425 59.653565 
L 233.712855 59.653565 
L 235.344285 59.653565 
L 236.975715 59.653565 
L 238.607145 59.653565 
L 240.238575 59.653565 
L 241.870005 59.653565 
L 243.501434 59.653565 
L 245.132864 59.653565 
L 246.764294 59.653565 
L 248.395724 59.653565 
L 250.027154 59.653565 
L 251.658584 59.653565 
L 253.290014 59.653565 
L 254.921444 59.653565 
L 256.552873 59.653565 
L 258.184303 59.653565 
L 259.815733 59.653565 
L 261.447163 59.653565 
L 263.078593 59.653565 
L 264.710023 59.653565 
L 266.341453 59.653565 
L 267.972883 59.653565 
L 269.604312 59.653565 
L 271.235742 59.653565 
L 272.867172 59.653565 
L 274.498602 59.653565 
L 276.130032 59.653565 
L 277.761462 59.653565 
L 279.392892 59.653565 
L 281.024322 59.653565 
L 282.655751 59.653565 
L 284.287181 59.653565 
L 285.918611 59.653565 
L 287.550041 59.653565 
L 289.181471 76.182261 
L 290.812901 191.88313 
L 292.444331 197.392696 
L 294.075761 186.373565 
L 295.70719 180.864 
L 297.33862 191.88313 
L 298.97005 186.373565 
L 300.60148 180.864 
L 302.23291 186.373565 
L 303.86434 180.864 
L 305.49577 197.392696 
L 307.1272 191.88313 
L 308.75863 186.373565 
L 310.390059 197.392696 
L 312.021489 186.373565 
L 313.652919 180.864 
L 315.284349 175.354435 
L 316.915779 180.864 
L 318.547209 191.88313 
L 320.178639 186.373565 
L 321.810069 180.864 
L 323.441498 191.88313 
L 325.072928 202.902261 
L 326.704358 191.88313 
L 328.335788 186.373565 
L 329.967218 180.864 
L 331.598648 186.373565 
L 333.230078 191.88313 
L 334.861508 197.392696 
L 336.492937 202.902261 
L 338.124367 208.411826 
L 339.755797 213.921391 
L 341.387227 202.902261 
L 343.018657 208.411826 
L 344.650087 202.902261 
L 346.281517 213.921391 
L 347.912947 208.411826 
L 349.544376 202.902261 
L 351.175806 197.392696 
L 352.807236 180.864 
L 354.438666 175.354435 
L 356.070096 191.88313 
L 357.701526 197.392696 
L 359.332956 208.411826 
L 360.964386 202.902261 
L 362.595815 191.88313 
L 364.227245 202.902261 
L 365.858675 208.411826 
L 367.490105 213.921391 
L 369.121535 197.392696 
L 370.752965 202.902261 
L 372.384395 208.411826 
L 374.015825 202.902261 
L 375.647254 208.411826 
L 377.278684 213.921391 
L 378.910114 202.902261 
L 380.541544 208.411826 
L 382.172974 202.902261 
L 383.804404 191.88313 
L 385.435834 186.373565 
L 387.067264 191.88313 
L 388.698693 175.354435 
L 390.330123 191.88313 
L 391.961553 180.864 
L 393.592983 191.88313 
L 395.224413 202.902261 
L 396.855843 197.392696 
L 398.487273 202.902261 
L 398.487273 59.653565 
L 398.487273 59.653565 
L 396.855843 59.653565 
L 395.224413 59.653565 
L 393.592983 59.653565 
L 391.961553 59.653565 
L 390.330123 59.653565 
L 388.698693 59.653565 
L 387.067264 59.653565 
L 385.435834 59.653565 
L 383.804404 59.653565 
L 382.172974 59.653565 
L 380.541544 59.653565 
L 378.910114 59.653565 
L 377.278684 59.653565 
L 375.647254 59.653565 
L 374.015825 59.653565 
L 372.384395 59.653565 
L 370.752965 59.653565 
L 369.121535 59.653565 
L 367.490105 59.653565 
L 365.858675 59.653565 
L 364.227245 59.653565 
L 362.595815 59.653565 
L 360.964386 59.653565 
L 359.332956 59.653565 
L 357.701526 59.653565 
L 356.070096 59.653565 
L 354.438666 59.653565 
L 352.807236 59.653565 
L 351.175806 59.653565 
L 349.544376 59.653565 
L 347.912947 59.653565 
L 346.281517 59.653565 
L 344.650087 59.653565 
L 343.018657 59.653565 
L 341.387227 59.653565 
L 339.755797 59.653565 
L 338.124367 59.653565 
L 336.492937 59.653565 
L 334.861508 59.653565 
L 333.230078 59.653565 
L 331.598648 59.653565 
L 329.967218 59.653565 
L 328.335788 59.653565 
L 326.704358 59.653565 
L 325.072928 59.653565 
L 323.441498 59.653565 
L 321.810069 59.653565 
L 320.178639 59.653565 
L 318.547209 59.653565 
L 316.915779 59.653565 
L 315.284349 59.653565 
L 313.652919 59.653565 
L 312.021489 59.653565 
L 310.390059 59.653565 
L 308.75863 59.653565 
L 307.1272 59.653565 
L 305.49577 59.653565 
L 303.86434 59.653565 
L 302.23291 59.653565 
L 300.60148 59.653565 
L 298.97005 59.653565 
L 297.33862 59.653565 
L 295.70719 59.653565 
L 294.075761 59.653565 
L 292.444331 59.653565 
L 290.812901 54.144 
L 289.181471 59.653565 
L 287.550041 59.653565 
L 285.918611 59.653565 
L 284.287181 59.653565 
L 282.655751 59.653565 
L 281.024322 59.653565 
L 279.392892 59.653565 
L 277.761462 59.653565 
L 276.130032 59.653565 
L 274.498602 59.653565 
L 272.867172 59.653565 
L 271.235742 59.653565 
L 269.604312 59.653565 
L 267.972883 59.653565 
L 266.341453 59.653565 
L 264.710023 59.653565 
L 263.078593 59.653565 
L 261.447163 59.653565 
L 259.815733 59.653565 
L 258.184303 59.653565 
L 256.552873 59.653565 
L 254.921444 59.653565 
L 253.290014 59.653565 
L 251.658584 59.653565 
L 250.027154 59.653565 
L 248.395724 59.653565 
L 246.764294 59.653565 
L 245.132864 59.653565 
L 243.501434 59.653565 
L 241.870005 59.653565 
L 240.238575 59.653565 
L 238.607145 59.653565 
L 236.975715 59.653565 
L 235.344285 59.653565 
L 233.712855 59.653565 
L 232.081425 59.653565 
L 230.449995 59.653565 
L 228.818566 59.653565 
L 227.187136 59.653565 
L 225.555706 59.653565 
L 223.924276 59.653565 
L 222.292846 59.653565 
L 220.661416 59.653565 
L 219.029986 59.653565 
L 217.398556 59.653565 
L 215.767127 59.653565 
L 214.135697 59.653565 
L 212.504267 59.653565 
L 210.872837 59.653565 
L 209.241407 59.653565 
L 207.609977 59.653565 
L 205.978547 59.653565 
L 204.347117 59.653565 
L 202.715688 59.653565 
L 201.084258 59.653565 
L 199.452828 59.653565 
L 197.821398 59.653565 
L 196.189968 59.653565 
L 194.558538 59.653565 
L 192.927108 59.653565 
L 191.295678 59.653565 
L 189.664249 59.653565 
L 188.032819 65.16313 
L 186.401389 54.144 
L 184.769959 65.16313 
L 183.138529 59.653565 
L 181.507099 65.16313 
L 179.875669 65.16313 
L 178.244239 59.653565 
L 176.61281 59.653565 
L 174.98138 59.653565 
L 173.34995 65.16313 
L 171.71852 59.653565 
L 170.08709 54.144 
L 168.45566 65.16313 
L 166.82423 59.653565 
L 165.1928 59.653565 
L 163.56137 59.653565 
L 161.929941 59.653565 
L 160.298511 65.16313 
L 158.667081 65.16313 
L 157.035651 65.16313 
L 155.404221 65.16313 
L 153.772791 59.653565 
L 152.141361 59.653565 
L 150.509931 59.653565 
L 148.878502 59.653565 
L 147.247072 59.653565 
L 145.615642 59.653565 
L 143.984212 59.653565 
L 142.352782 59.653565 
L 140.721352 59.653565 
L 139.089922 59.653565 
L 137.458492 59.653565 
L 135.827063 59.653565 
L 134.195633 59.653565 
L 132.564203 59.653565 
L 130.932773 59.653565 
L 129.301343 59.653565 
L 127.669913 59.653565 
L 126.038483 59.653565 
L 124.407053 59.653565 
L 122.775624 59.653565 
L 121.144194 59.653565 
L 119.512764 59.653565 
L 117.881334 59.653565 
L 116.249904 59.653565 
L 114.618474 54.144 
L 112.987044 65.16313 
L 111.355614 59.653565 
L 109.724185 59.653565 
L 108.092755 54.144 
L 106.461325 59.653565 
L 104.829895 54.144 
L 103.198465 65.16313 
L 101.567035 54.144 
L 99.935605 54.144 
L 98.304175 59.653565 
L 96.672746 59.653565 
L 95.041316 59.653565 
L 93.409886 59.653565 
L 91.778456 59.653565 
L 90.147026 59.653565 
L 88.515596 54.144 
L 86.884166 59.653565 
L 85.252736 54.144 
L 83.621307 59.653565 
L 81.989877 54.144 
L 80.358447 54.144 
L 78.727017 54.144 
L 77.095587 59.653565 
L 75.464157 54.144 
L 73.832727 59.653565 
z
" style="fill:#e377c2;"/>
   </g>
   <g id="matplotlib.axis_1">
    <g id="xtick_1">
     <g id="line2d_1">
      <defs>
       <path d="M 0 0 
L 0 3.5 
" id="m555aec6e2c" style="stroke:#000000;stroke-width:0.8;"/>
      </defs>
      <g>
       <use style="stroke:#000000;stroke-width:0.8;" x="73.832727" xlink:href="#m555aec6e2c" y="307.584"/>
      </g>
     </g>
     <g id="text_1">
      <!-- 0 -->
      <defs>
       <path d="M 31.78125 66.40625 
Q 24.171875 66.40625 20.328125 58.90625 
Q 16.5 51.421875 16.5 36.375 
Q 16.5 21.390625 20.328125 13.890625 
Q 24.171875 6.390625 31.78125 6.390625 
Q 39.453125 6.390625 43.28125 13.890625 
Q 47.125 21.390625 47.125 36.375 
Q 47.125 51.421875 43.28125 58.90625 
Q 39.453125 66.40625 31.78125 66.40625 
z
M 31.78125 74.21875 
Q 44.046875 74.21875 50.515625 64.515625 
Q 56.984375 54.828125 56.984375 36.375 
Q 56.984375 17.96875 50.515625 8.265625 
Q 44.046875 -1.421875 31.78125 -1.421875 
Q 19.53125 -1.421875 13.0625 8.265625 
Q 6.59375 17.96875 6.59375 36.375 
Q 6.59375 54.828125 13.0625 64.515625 
Q 19.53125 74.21875 31.78125 74.21875 
z
" id="DejaVuSans-30"/>
      </defs>
      <g transform="translate(70.651477 322.182437)scale(0.1 -0.1)">
       <use xlink:href="#DejaVuSans-30"/>
      </g>
     </g>
    </g>
    <g id="xtick_2">
     <g id="line2d_2">
      <g>
       <use style="stroke:#000000;stroke-width:0.8;" x="114.618474" xlink:href="#m555aec6e2c" y="307.584"/>
      </g>
     </g>
     <g id="text_2">
      <!-- 25 -->
      <defs>
       <path d="M 19.1875 8.296875 
L 53.609375 8.296875 
L 53.609375 0 
L 7.328125 0 
L 7.328125 8.296875 
Q 12.9375 14.109375 22.625 23.890625 
Q 32.328125 33.6875 34.8125 36.53125 
Q 39.546875 41.84375 41.421875 45.53125 
Q 43.3125 49.21875 43.3125 52.78125 
Q 43.3125 58.59375 39.234375 62.25 
Q 35.15625 65.921875 28.609375 65.921875 
Q 23.96875 65.921875 18.8125 64.3125 
Q 13.671875 62.703125 7.8125 59.421875 
L 7.8125 69.390625 
Q 13.765625 71.78125 18.9375 73 
Q 24.125 74.21875 28.421875 74.21875 
Q 39.75 74.21875 46.484375 68.546875 
Q 53.21875 62.890625 53.21875 53.421875 
Q 53.21875 48.921875 51.53125 44.890625 
Q 49.859375 40.875 45.40625 35.40625 
Q 44.1875 33.984375 37.640625 27.21875 
Q 31.109375 20.453125 19.1875 8.296875 
z
" id="DejaVuSans-32"/>
       <path d="M 10.796875 72.90625 
L 49.515625 72.90625 
L 49.515625 64.59375 
L 19.828125 64.59375 
L 19.828125 46.734375 
Q 21.96875 47.46875 24.109375 47.828125 
Q 26.265625 48.1875 28.421875 48.1875 
Q 40.625 48.1875 47.75 41.5 
Q 54.890625 34.8125 54.890625 23.390625 
Q 54.890625 11.625 47.5625 5.09375 
Q 40.234375 -1.421875 26.90625 -1.421875 
Q 22.3125 -1.421875 17.546875 -0.640625 
Q 12.796875 0.140625 7.71875 1.703125 
L 7.71875 11.625 
Q 12.109375 9.234375 16.796875 8.0625 
Q 21.484375 6.890625 26.703125 6.890625 
Q 35.15625 6.890625 40.078125 11.328125 
Q 45.015625 15.765625 45.015625 23.390625 
Q 45.015625 31 40.078125 35.4375 
Q 35.15625 39.890625 26.703125 39.890625 
Q 22.75 39.890625 18.8125 39.015625 
Q 14.890625 38.140625 10.796875 36.28125 
z
" id="DejaVuSans-35"/>
      </defs>
      <g transform="translate(108.255974 322.182437)scale(0.1 -0.1)">
       <use xlink:href="#DejaVuSans-32"/>
       <use x="63.623047" xlink:href="#DejaVuSans-35"/>
      </g>
     </g>
    </g>
    <g id="xtick_3">
     <g id="line2d_3">
      <g>
       <use style="stroke:#000000;stroke-width:0.8;" x="155.404221" xlink:href="#m555aec6e2c" y="307.584"/>
      </g>
     </g>
     <g id="text_3">
      <!-- 50 -->
      <g transform="translate(149.041721 322.182437)scale(0.1 -0.1)">
       <use xlink:href="#DejaVuSans-35"/>
       <use x="63.623047" xlink:href="#DejaVuSans-30"/>
      </g>
     </g>
    </g>
    <g id="xtick_4">
     <g id="line2d_4">
      <g>
       <use style="stroke:#000000;stroke-width:0.8;" x="196.189968" xlink:href="#m555aec6e2c" y="307.584"/>
      </g>
     </g>
     <g id="text_4">
      <!-- 75 -->
      <defs>
       <path d="M 8.203125 72.90625 
L 55.078125 72.90625 
L 55.078125 68.703125 
L 28.609375 0 
L 18.3125 0 
L 43.21875 64.59375 
L 8.203125 64.59375 
z
" id="DejaVuSans-37"/>
      </defs>
      <g transform="translate(189.827468 322.182437)scale(0.1 -0.1)">
       <use xlink:href="#DejaVuSans-37"/>
       <use x="63.623047" xlink:href="#DejaVuSans-35"/>
      </g>
     </g>
    </g>
    <g id="xtick_5">
     <g id="line2d_5">
      <g>
       <use style="stroke:#000000;stroke-width:0.8;" x="236.975715" xlink:href="#m555aec6e2c" y="307.584"/>
      </g>
     </g>
     <g id="text_5">
      <!-- 100 -->
      <defs>
       <path d="M 12.40625 8.296875 
L 28.515625 8.296875 
L 28.515625 63.921875 
L 10.984375 60.40625 
L 10.984375 69.390625 
L 28.421875 72.90625 
L 38.28125 72.90625 
L 38.28125 8.296875 
L 54.390625 8.296875 
L 54.390625 0 
L 12.40625 0 
z
" id="DejaVuSans-31"/>
      </defs>
      <g transform="translate(227.431965 322.182437)scale(0.1 -0.1)">
       <use xlink:href="#DejaVuSans-31"/>
       <use x="63.623047" xlink:href="#DejaVuSans-30"/>
       <use x="127.246094" xlink:href="#DejaVuSans-30"/>
      </g>
     </g>
    </g>
    <g id="xtick_6">
     <g id="line2d_6">
      <g>
       <use style="stroke:#000000;stroke-width:0.8;" x="277.761462" xlink:href="#m555aec6e2c" y="307.584"/>
      </g>
     </g>
     <g id="text_6">
      <!-- 125 -->
      <g transform="translate(268.217712 322.182437)scale(0.1 -0.1)">
       <use xlink:href="#DejaVuSans-31"/>
       <use x="63.623047" xlink:href="#DejaVuSans-32"/>
       <use x="127.246094" xlink:href="#DejaVuSans-35"/>
      </g>
     </g>
    </g>
    <g id="xtick_7">
     <g id="line2d_7">
      <g>
       <use style="stroke:#000000;stroke-width:0.8;" x="318.547209" xlink:href="#m555aec6e2c" y="307.584"/>
      </g>
     </g>
     <g id="text_7">
      <!-- 150 -->
      <g transform="translate(309.003459 322.182437)scale(0.1 -0.1)">
       <use xlink:href="#DejaVuSans-31"/>
       <use x="63.623047" xlink:href="#DejaVuSans-35"/>
       <use x="127.246094" xlink:href="#DejaVuSans-30"/>
      </g>
     </g>
    </g>
    <g id="xtick_8">
     <g id="line2d_8">
      <g>
       <use style="stroke:#000000;stroke-width:0.8;" x="359.332956" xlink:href="#m555aec6e2c" y="307.584"/>
      </g>
     </g>
     <g id="text_8">
      <!-- 175 -->
      <g transform="translate(349.789206 322.182437)scale(0.1 -0.1)">
       <use xlink:href="#DejaVuSans-31"/>
       <use x="63.623047" xlink:href="#DejaVuSans-37"/>
       <use x="127.246094" xlink:href="#DejaVuSans-35"/>
      </g>
     </g>
    </g>
    <g id="xtick_9">
     <g id="line2d_9">
      <g>
       <use style="stroke:#000000;stroke-width:0.8;" x="400.118703" xlink:href="#m555aec6e2c" y="307.584"/>
      </g>
     </g>
     <g id="text_9">
      <!-- 200 -->
      <g transform="translate(390.574953 322.182437)scale(0.1 -0.1)">
       <use xlink:href="#DejaVuSans-32"/>
       <use x="63.623047" xlink:href="#DejaVuSans-30"/>
       <use x="127.246094" xlink:href="#DejaVuSans-30"/>
      </g>
     </g>
    </g>
    <g id="text_10">
     <!-- Generations -->
     <defs>
      <path d="M 59.515625 10.40625 
L 59.515625 29.984375 
L 43.40625 29.984375 
L 43.40625 38.09375 
L 69.28125 38.09375 
L 69.28125 6.78125 
Q 63.578125 2.734375 56.6875 0.65625 
Q 49.8125 -1.421875 42 -1.421875 
Q 24.90625 -1.421875 15.25 8.5625 
Q 5.609375 18.5625 5.609375 36.375 
Q 5.609375 54.25 15.25 64.234375 
Q 24.90625 74.21875 42 74.21875 
Q 49.125 74.21875 55.546875 72.453125 
Q 61.96875 70.703125 67.390625 67.28125 
L 67.390625 56.78125 
Q 61.921875 61.421875 55.765625 63.765625 
Q 49.609375 66.109375 42.828125 66.109375 
Q 29.4375 66.109375 22.71875 58.640625 
Q 16.015625 51.171875 16.015625 36.375 
Q 16.015625 21.625 22.71875 14.15625 
Q 29.4375 6.6875 42.828125 6.6875 
Q 48.046875 6.6875 52.140625 7.59375 
Q 56.25 8.5 59.515625 10.40625 
z
" id="DejaVuSans-47"/>
      <path d="M 56.203125 29.59375 
L 56.203125 25.203125 
L 14.890625 25.203125 
Q 15.484375 15.921875 20.484375 11.0625 
Q 25.484375 6.203125 34.421875 6.203125 
Q 39.59375 6.203125 44.453125 7.46875 
Q 49.3125 8.734375 54.109375 11.28125 
L 54.109375 2.78125 
Q 49.265625 0.734375 44.1875 -0.34375 
Q 39.109375 -1.421875 33.890625 -1.421875 
Q 20.796875 -1.421875 13.15625 6.1875 
Q 5.515625 13.8125 5.515625 26.8125 
Q 5.515625 40.234375 12.765625 48.109375 
Q 20.015625 56 32.328125 56 
Q 43.359375 56 49.78125 48.890625 
Q 56.203125 41.796875 56.203125 29.59375 
z
M 47.21875 32.234375 
Q 47.125 39.59375 43.09375 43.984375 
Q 39.0625 48.390625 32.421875 48.390625 
Q 24.90625 48.390625 20.390625 44.140625 
Q 15.875 39.890625 15.1875 32.171875 
z
" id="DejaVuSans-65"/>
      <path d="M 54.890625 33.015625 
L 54.890625 0 
L 45.90625 0 
L 45.90625 32.71875 
Q 45.90625 40.484375 42.875 44.328125 
Q 39.84375 48.1875 33.796875 48.1875 
Q 26.515625 48.1875 22.3125 43.546875 
Q 18.109375 38.921875 18.109375 30.90625 
L 18.109375 0 
L 9.078125 0 
L 9.078125 54.6875 
L 18.109375 54.6875 
L 18.109375 46.1875 
Q 21.34375 51.125 25.703125 53.5625 
Q 30.078125 56 35.796875 56 
Q 45.21875 56 50.046875 50.171875 
Q 54.890625 44.34375 54.890625 33.015625 
z
" id="DejaVuSans-6e"/>
      <path d="M 41.109375 46.296875 
Q 39.59375 47.171875 37.8125 47.578125 
Q 36.03125 48 33.890625 48 
Q 26.265625 48 22.1875 43.046875 
Q 18.109375 38.09375 18.109375 28.8125 
L 18.109375 0 
L 9.078125 0 
L 9.078125 54.6875 
L 18.109375 54.6875 
L 18.109375 46.1875 
Q 20.953125 51.171875 25.484375 53.578125 
Q 30.03125 56 36.53125 56 
Q 37.453125 56 38.578125 55.875 
Q 39.703125 55.765625 41.0625 55.515625 
z
" id="DejaVuSans-72"/>
      <path d="M 34.28125 27.484375 
Q 23.390625 27.484375 19.1875 25 
Q 14.984375 22.515625 14.984375 16.5 
Q 14.984375 11.71875 18.140625 8.90625 
Q 21.296875 6.109375 26.703125 6.109375 
Q 34.1875 6.109375 38.703125 11.40625 
Q 43.21875 16.703125 43.21875 25.484375 
L 43.21875 27.484375 
z
M 52.203125 31.203125 
L 52.203125 0 
L 43.21875 0 
L 43.21875 8.296875 
Q 40.140625 3.328125 35.546875 0.953125 
Q 30.953125 -1.421875 24.3125 -1.421875 
Q 15.921875 -1.421875 10.953125 3.296875 
Q 6 8.015625 6 15.921875 
Q 6 25.140625 12.171875 29.828125 
Q 18.359375 34.515625 30.609375 34.515625 
L 43.21875 34.515625 
L 43.21875 35.40625 
Q 43.21875 41.609375 39.140625 45 
Q 35.0625 48.390625 27.6875 48.390625 
Q 23 48.390625 18.546875 47.265625 
Q 14.109375 46.140625 10.015625 43.890625 
L 10.015625 52.203125 
Q 14.9375 54.109375 19.578125 55.046875 
Q 24.21875 56 28.609375 56 
Q 40.484375 56 46.34375 49.84375 
Q 52.203125 43.703125 52.203125 31.203125 
z
" id="DejaVuSans-61"/>
      <path d="M 18.3125 70.21875 
L 18.3125 54.6875 
L 36.8125 54.6875 
L 36.8125 47.703125 
L 18.3125 47.703125 
L 18.3125 18.015625 
Q 18.3125 11.328125 20.140625 9.421875 
Q 21.96875 7.515625 27.59375 7.515625 
L 36.8125 7.515625 
L 36.8125 0 
L 27.59375 0 
Q 17.1875 0 13.234375 3.875 
Q 9.28125 7.765625 9.28125 18.015625 
L 9.28125 47.703125 
L 2.6875 47.703125 
L 2.6875 54.6875 
L 9.28125 54.6875 
L 9.28125 70.21875 
z
" id="DejaVuSans-74"/>
      <path d="M 9.421875 54.6875 
L 18.40625 54.6875 
L 18.40625 0 
L 9.421875 0 
z
M 9.421875 75.984375 
L 18.40625 75.984375 
L 18.40625 64.59375 
L 9.421875 64.59375 
z
" id="DejaVuSans-69"/>
      <path d="M 30.609375 48.390625 
Q 23.390625 48.390625 19.1875 42.75 
Q 14.984375 37.109375 14.984375 27.296875 
Q 14.984375 17.484375 19.15625 11.84375 
Q 23.34375 6.203125 30.609375 6.203125 
Q 37.796875 6.203125 41.984375 11.859375 
Q 46.1875 17.53125 46.1875 27.296875 
Q 46.1875 37.015625 41.984375 42.703125 
Q 37.796875 48.390625 30.609375 48.390625 
z
M 30.609375 56 
Q 42.328125 56 49.015625 48.375 
Q 55.71875 40.765625 55.71875 27.296875 
Q 55.71875 13.875 49.015625 6.21875 
Q 42.328125 -1.421875 30.609375 -1.421875 
Q 18.84375 -1.421875 12.171875 6.21875 
Q 5.515625 13.875 5.515625 27.296875 
Q 5.515625 40.765625 12.171875 48.375 
Q 18.84375 56 30.609375 56 
z
" id="DejaVuSans-6f"/>
      <path d="M 44.28125 53.078125 
L 44.28125 44.578125 
Q 40.484375 46.53125 36.375 47.5 
Q 32.28125 48.484375 27.875 48.484375 
Q 21.1875 48.484375 17.84375 46.4375 
Q 14.5 44.390625 14.5 40.28125 
Q 14.5 37.15625 16.890625 35.375 
Q 19.28125 33.59375 26.515625 31.984375 
L 29.59375 31.296875 
Q 39.15625 29.25 43.1875 25.515625 
Q 47.21875 21.78125 47.21875 15.09375 
Q 47.21875 7.46875 41.1875 3.015625 
Q 35.15625 -1.421875 24.609375 -1.421875 
Q 20.21875 -1.421875 15.453125 -0.5625 
Q 10.6875 0.296875 5.421875 2 
L 5.421875 11.28125 
Q 10.40625 8.6875 15.234375 7.390625 
Q 20.0625 6.109375 24.8125 6.109375 
Q 31.15625 6.109375 34.5625 8.28125 
Q 37.984375 10.453125 37.984375 14.40625 
Q 37.984375 18.0625 35.515625 20.015625 
Q 33.0625 21.96875 24.703125 23.78125 
L 21.578125 24.515625 
Q 13.234375 26.265625 9.515625 29.90625 
Q 5.8125 33.546875 5.8125 39.890625 
Q 5.8125 47.609375 11.28125 51.796875 
Q 16.75 56 26.8125 56 
Q 31.78125 56 36.171875 55.265625 
Q 40.578125 54.546875 44.28125 53.078125 
z
" id="DejaVuSans-73"/>
     </defs>
     <g transform="translate(205.662344 335.860562)scale(0.1 -0.1)">
      <use xlink:href="#DejaVuSans-47"/>
      <use x="77.490234" xlink:href="#DejaVuSans-65"/>
      <use x="139.013672" xlink:href="#DejaVuSans-6e"/>
      <use x="202.392578" xlink:href="#DejaVuSans-65"/>
      <use x="263.916016" xlink:href="#DejaVuSans-72"/>
      <use x="305.029297" xlink:href="#DejaVuSans-61"/>
      <use x="366.308594" xlink:href="#DejaVuSans-74"/>
      <use x="405.517578" xlink:href="#DejaVuSans-69"/>
      <use x="433.300781" xlink:href="#DejaVuSans-6f"/>
      <use x="494.482422" xlink:href="#DejaVuSans-6e"/>
      <use x="557.861328" xlink:href="#DejaVuSans-73"/>
     </g>
    </g>
   </g>
   <g id="matplotlib.axis_2">
    <g id="ytick_1">
     <g id="line2d_10">
      <defs>
       <path d="M 0 0 
L -3.5 0 
" id="m9161bb3803" style="stroke:#000000;stroke-width:0.8;"/>
      </defs>
      <g>
       <use style="stroke:#000000;stroke-width:0.8;" x="57.6" xlink:href="#m9161bb3803" y="307.584"/>
      </g>
     </g>
     <g id="text_11">
      <!-- 0 -->
      <g transform="translate(44.2375 311.383219)scale(0.1 -0.1)">
       <use xlink:href="#DejaVuSans-30"/>
      </g>
     </g>
    </g>
    <g id="ytick_2">
     <g id="line2d_11">
      <g>
       <use style="stroke:#000000;stroke-width:0.8;" x="57.6" xlink:href="#m9161bb3803" y="252.488348"/>
      </g>
     </g>
     <g id="text_12">
      <!-- 10 -->
      <g transform="translate(37.875 256.287567)scale(0.1 -0.1)">
       <use xlink:href="#DejaVuSans-31"/>
       <use x="63.623047" xlink:href="#DejaVuSans-30"/>
      </g>
     </g>
    </g>
    <g id="ytick_3">
     <g id="line2d_12">
      <g>
       <use style="stroke:#000000;stroke-width:0.8;" x="57.6" xlink:href="#m9161bb3803" y="197.392696"/>
      </g>
     </g>
     <g id="text_13">
      <!-- 20 -->
      <g transform="translate(37.875 201.191914)scale(0.1 -0.1)">
       <use xlink:href="#DejaVuSans-32"/>
       <use x="63.623047" xlink:href="#DejaVuSans-30"/>
      </g>
     </g>
    </g>
    <g id="ytick_4">
     <g id="line2d_13">
      <g>
       <use style="stroke:#000000;stroke-width:0.8;" x="57.6" xlink:href="#m9161bb3803" y="142.297043"/>
      </g>
     </g>
     <g id="text_14">
      <!-- 30 -->
      <defs>
       <path d="M 40.578125 39.3125 
Q 47.65625 37.796875 51.625 33 
Q 55.609375 28.21875 55.609375 21.1875 
Q 55.609375 10.40625 48.1875 4.484375 
Q 40.765625 -1.421875 27.09375 -1.421875 
Q 22.515625 -1.421875 17.65625 -0.515625 
Q 12.796875 0.390625 7.625 2.203125 
L 7.625 11.71875 
Q 11.71875 9.328125 16.59375 8.109375 
Q 21.484375 6.890625 26.8125 6.890625 
Q 36.078125 6.890625 40.9375 10.546875 
Q 45.796875 14.203125 45.796875 21.1875 
Q 45.796875 27.640625 41.28125 31.265625 
Q 36.765625 34.90625 28.71875 34.90625 
L 20.21875 34.90625 
L 20.21875 43.015625 
L 29.109375 43.015625 
Q 36.375 43.015625 40.234375 45.921875 
Q 44.09375 48.828125 44.09375 54.296875 
Q 44.09375 59.90625 40.109375 62.90625 
Q 36.140625 65.921875 28.71875 65.921875 
Q 24.65625 65.921875 20.015625 65.03125 
Q 15.375 64.15625 9.8125 62.3125 
L 9.8125 71.09375 
Q 15.4375 72.65625 20.34375 73.4375 
Q 25.25 74.21875 29.59375 74.21875 
Q 40.828125 74.21875 47.359375 69.109375 
Q 53.90625 64.015625 53.90625 55.328125 
Q 53.90625 49.265625 50.4375 45.09375 
Q 46.96875 40.921875 40.578125 39.3125 
z
" id="DejaVuSans-33"/>
      </defs>
      <g transform="translate(37.875 146.096262)scale(0.1 -0.1)">
       <use xlink:href="#DejaVuSans-33"/>
       <use x="63.623047" xlink:href="#DejaVuSans-30"/>
      </g>
     </g>
    </g>
    <g id="ytick_5">
     <g id="line2d_14">
      <g>
       <use style="stroke:#000000;stroke-width:0.8;" x="57.6" xlink:href="#m9161bb3803" y="87.201391"/>
      </g>
     </g>
     <g id="text_15">
      <!-- 40 -->
      <defs>
       <path d="M 37.796875 64.3125 
L 12.890625 25.390625 
L 37.796875 25.390625 
z
M 35.203125 72.90625 
L 47.609375 72.90625 
L 47.609375 25.390625 
L 58.015625 25.390625 
L 58.015625 17.1875 
L 47.609375 17.1875 
L 47.609375 0 
L 37.796875 0 
L 37.796875 17.1875 
L 4.890625 17.1875 
L 4.890625 26.703125 
z
" id="DejaVuSans-34"/>
      </defs>
      <g transform="translate(37.875 91.00061)scale(0.1 -0.1)">
       <use xlink:href="#DejaVuSans-34"/>
       <use x="63.623047" xlink:href="#DejaVuSans-30"/>
      </g>
     </g>
    </g>
    <g id="text_16">
     <!-- Size per Species -->
     <defs>
      <path d="M 53.515625 70.515625 
L 53.515625 60.890625 
Q 47.90625 63.578125 42.921875 64.890625 
Q 37.9375 66.21875 33.296875 66.21875 
Q 25.25 66.21875 20.875 63.09375 
Q 16.5 59.96875 16.5 54.203125 
Q 16.5 49.359375 19.40625 46.890625 
Q 22.3125 44.4375 30.421875 42.921875 
L 36.375 41.703125 
Q 47.40625 39.59375 52.65625 34.296875 
Q 57.90625 29 57.90625 20.125 
Q 57.90625 9.515625 50.796875 4.046875 
Q 43.703125 -1.421875 29.984375 -1.421875 
Q 24.8125 -1.421875 18.96875 -0.25 
Q 13.140625 0.921875 6.890625 3.21875 
L 6.890625 13.375 
Q 12.890625 10.015625 18.65625 8.296875 
Q 24.421875 6.59375 29.984375 6.59375 
Q 38.421875 6.59375 43.015625 9.90625 
Q 47.609375 13.234375 47.609375 19.390625 
Q 47.609375 24.75 44.3125 27.78125 
Q 41.015625 30.8125 33.5 32.328125 
L 27.484375 33.5 
Q 16.453125 35.6875 11.515625 40.375 
Q 6.59375 45.0625 6.59375 53.421875 
Q 6.59375 63.09375 13.40625 68.65625 
Q 20.21875 74.21875 32.171875 74.21875 
Q 37.3125 74.21875 42.625 73.28125 
Q 47.953125 72.359375 53.515625 70.515625 
z
" id="DejaVuSans-53"/>
      <path d="M 5.515625 54.6875 
L 48.1875 54.6875 
L 48.1875 46.484375 
L 14.40625 7.171875 
L 48.1875 7.171875 
L 48.1875 0 
L 4.296875 0 
L 4.296875 8.203125 
L 38.09375 47.515625 
L 5.515625 47.515625 
z
" id="DejaVuSans-7a"/>
      <path id="DejaVuSans-20"/>
      <path d="M 18.109375 8.203125 
L 18.109375 -20.796875 
L 9.078125 -20.796875 
L 9.078125 54.6875 
L 18.109375 54.6875 
L 18.109375 46.390625 
Q 20.953125 51.265625 25.265625 53.625 
Q 29.59375 56 35.59375 56 
Q 45.5625 56 51.78125 48.09375 
Q 58.015625 40.1875 58.015625 27.296875 
Q 58.015625 14.40625 51.78125 6.484375 
Q 45.5625 -1.421875 35.59375 -1.421875 
Q 29.59375 -1.421875 25.265625 0.953125 
Q 20.953125 3.328125 18.109375 8.203125 
z
M 48.6875 27.296875 
Q 48.6875 37.203125 44.609375 42.84375 
Q 40.53125 48.484375 33.40625 48.484375 
Q 26.265625 48.484375 22.1875 42.84375 
Q 18.109375 37.203125 18.109375 27.296875 
Q 18.109375 17.390625 22.1875 11.75 
Q 26.265625 6.109375 33.40625 6.109375 
Q 40.53125 6.109375 44.609375 11.75 
Q 48.6875 17.390625 48.6875 27.296875 
z
" id="DejaVuSans-70"/>
      <path d="M 48.78125 52.59375 
L 48.78125 44.1875 
Q 44.96875 46.296875 41.140625 47.34375 
Q 37.3125 48.390625 33.40625 48.390625 
Q 24.65625 48.390625 19.8125 42.84375 
Q 14.984375 37.3125 14.984375 27.296875 
Q 14.984375 17.28125 19.8125 11.734375 
Q 24.65625 6.203125 33.40625 6.203125 
Q 37.3125 6.203125 41.140625 7.25 
Q 44.96875 8.296875 48.78125 10.40625 
L 48.78125 2.09375 
Q 45.015625 0.34375 40.984375 -0.53125 
Q 36.96875 -1.421875 32.421875 -1.421875 
Q 20.0625 -1.421875 12.78125 6.34375 
Q 5.515625 14.109375 5.515625 27.296875 
Q 5.515625 40.671875 12.859375 48.328125 
Q 20.21875 56 33.015625 56 
Q 37.15625 56 41.109375 55.140625 
Q 45.0625 54.296875 48.78125 52.59375 
z
" id="DejaVuSans-63"/>
     </defs>
     <g transform="translate(31.795312 215.520969)rotate(-90)scale(0.1 -0.1)">
      <use xlink:href="#DejaVuSans-53"/>
      <use x="63.476562" xlink:href="#DejaVuSans-69"/>
      <use x="91.259766" xlink:href="#DejaVuSans-7a"/>
      <use x="143.75" xlink:href="#DejaVuSans-65"/>
      <use x="205.273438" xlink:href="#DejaVuSans-20"/>
      <use x="237.060547" xlink:href="#DejaVuSans-70"/>
      <use x="300.537109" xlink:href="#DejaVuSans-65"/>
      <use x="362.060547" xlink:href="#DejaVuSans-72"/>
      <use x="403.173828" xlink:href="#DejaVuSans-20"/>
      <use x="434.960938" xlink:href="#DejaVuSans-53"/>
      <use x="498.4375" xlink:href="#DejaVuSans-70"/>
      <use x="561.914062" xlink:href="#DejaVuSans-65"/>
      <use x="623.4375" xlink:href="#DejaVuSans-63"/>
      <use x="678.417969" xlink:href="#DejaVuSans-69"/>
      <use x="706.201172" xlink:href="#DejaVuSans-65"/>
      <use x="767.724609" xlink:href="#DejaVuSans-73"/>
     </g>
    </g>
   </g>
   <g id="patch_3">
    <path d="M 57.6 307.584 
L 57.6 41.472 
" style="fill:none;stroke:#000000;stroke-linecap:square;stroke-linejoin:miter;stroke-width:0.8;"/>
   </g>
   <g id="patch_4">
    <path d="M 414.72 307.584 
L 414.72 41.472 
" style="fill:none;stroke:#000000;stroke-linecap:square;stroke-linejoin:miter;stroke-width:0.8;"/>
   </g>
   <g id="patch_5">
    <path d="M 57.6 307.584 
L 414.72 307.584 
" style="fill:none;stroke:#000000;stroke-linecap:square;stroke-linejoin:miter;stroke-width:0.8;"/>
   </g>
   <g id="patch_6">
    <path d="M 57.6 41.472 
L 414.72 41.472 
" style="fill:none;stroke:#000000;stroke-linecap:square;stroke-linejoin:miter;stroke-width:0.8;"/>
   </g>
   <g id="text_17">
    <!-- Speciation -->
    <g transform="translate(204.714375 35.472)scale(0.12 -0.12)">
     <use xlink:href="#DejaVuSans-53"/>
     <use x="63.476562" xlink:href="#DejaVuSans-70"/>
     <use x="126.953125" xlink:href="#DejaVuSans-65"/>
     <use x="188.476562" xlink:href="#DejaVuSans-63"/>
     <use x="243.457031" xlink:href="#DejaVuSans-69"/>
     <use x="271.240234" xlink:href="#DejaVuSans-61"/>
     <use x="332.519531" xlink:href="#DejaVuSans-74"/>
     <use x="371.728516" xlink:href="#DejaVuSans-69"/>
     <use x="399.511719" xlink:href="#DejaVuSans-6f"/>
     <use x="460.693359" xlink:href="#DejaVuSans-6e"/>
    </g>
   </g>
  </g>
 </g>
 <defs>
  <clipPath id="p377a48143a">
   <rect height="266.112" width="357.12" x="57.6" y="41.472"/>
  </clipPath>
 </defs>
</svg>
