<?xml version="1.0" encoding="UTF-8" standalone="no"?>
<!DOCTYPE svg PUBLIC "-//W3C//DTD SVG 1.1//EN"
 "http://www.w3.org/Graphics/SVG/1.1/DTD/svg11.dtd">
<!-- Generated by graphviz version 2.38.0 (20140413.2041)
 -->
<!-- Title: %3 Pages: 1 -->
<svg width="1205pt" height="661pt"
 viewBox="0.00 0.00 1204.86 661.25" xmlns="http://www.w3.org/2000/svg" xmlns:xlink="http://www.w3.org/1999/xlink">
<g id="graph0" class="graph" transform="scale(1 1) rotate(0) translate(4 657.252)">
<title>%3</title>
<polygon fill="white" stroke="none" points="-4,4 -4,-657.252 1200.86,-657.252 1200.86,4 -4,4"/>
<!-- direc_dist -->
<g id="node1" class="node"><title>direc_dist</title>
<polygon fill="lightgray" stroke="black" points="269.855,-653.252 217.855,-653.252 217.855,-635.252 269.855,-635.252 269.855,-653.252"/>
<text text-anchor="middle" x="243.855" y="-642.052" font-family="Times New Roman,serif" font-size="9.00">direc_dist</text>
</g>
<!-- 2451 -->
<g id="node10" class="node"><title>2451</title>
<ellipse fill="white" stroke="black" cx="123.855" cy="-574.503" rx="25" ry="25"/>
<text text-anchor="middle" x="123.855" y="-572.303" font-family="Times New Roman,serif" font-size="9.00">2451</text>
</g>
<!-- direc_dist&#45;&gt;2451 -->
<g id="edge63" class="edge"><title>direc_dist&#45;&gt;2451</title>
<path fill="none" stroke="green" stroke-width="0.222754" d="M225.755,-635.107C207.845,-626.816 179.855,-613.227 156.855,-599.252 155.181,-598.235 153.483,-597.159 151.784,-596.049"/>
<polygon fill="green" stroke="green" stroke-width="0.222754" points="153.642,-593.08 143.409,-590.333 149.695,-598.861 153.642,-593.08"/>
</g>
<!-- 2333 -->
<g id="node12" class="node"><title>2333</title>
<ellipse fill="white" stroke="black" cx="243.855" cy="-574.503" rx="25" ry="25"/>
<text text-anchor="middle" x="243.855" y="-572.303" font-family="Times New Roman,serif" font-size="9.00">2333</text>
</g>
<!-- direc_dist&#45;&gt;2333 -->
<g id="edge48" class="edge"><title>direc_dist&#45;&gt;2333</title>
<path fill="none" stroke="red" stroke-width="0.29282" d="M243.855,-635.214C243.855,-628.779 243.855,-619.281 243.855,-609.745"/>
<polygon fill="red" stroke="red" stroke-width="0.29282" points="247.356,-609.524 243.855,-599.524 240.356,-609.524 247.356,-609.524"/>
</g>
<!-- 689 -->
<g id="node17" class="node"><title>689</title>
<ellipse fill="white" stroke="black" cx="310.855" cy="-489.006" rx="21.4286" ry="21.4286"/>
<text text-anchor="middle" x="310.855" y="-486.806" font-family="Times New Roman,serif" font-size="9.00">689</text>
</g>
<!-- direc_dist&#45;&gt;689 -->
<g id="edge13" class="edge"><title>direc_dist&#45;&gt;689</title>
<path fill="none" stroke="red" stroke-width="0.499974" d="M270.104,-639.87C294.141,-635.228 328.4,-624.37 344.855,-599.252 362.036,-573.027 345.107,-537.612 329.598,-514.308"/>
<polygon fill="red" stroke="red" stroke-width="0.499974" points="332.397,-512.203 323.797,-506.014 326.66,-516.215 332.397,-512.203"/>
</g>
<!-- 2244 -->
<g id="node19" class="node"><title>2244</title>
<ellipse fill="white" stroke="black" cx="310.855" cy="-574.503" rx="25" ry="25"/>
<text text-anchor="middle" x="310.855" y="-572.303" font-family="Times New Roman,serif" font-size="9.00">2244</text>
</g>
<!-- direc_dist&#45;&gt;2244 -->
<g id="edge40" class="edge"><title>direc_dist&#45;&gt;2244</title>
<path fill="none" stroke="green" stroke-width="0.248062" d="M251.804,-635.214C260.359,-626.564 274.385,-612.381 286.622,-600.008"/>
<polygon fill="green" stroke="green" stroke-width="0.248062" points="289.401,-602.174 293.944,-592.603 284.424,-597.252 289.401,-602.174"/>
</g>
<!-- 81 -->
<g id="node23" class="node"><title>81</title>
<ellipse fill="white" stroke="black" cx="710.855" cy="-232.513" rx="18.2703" ry="18.2703"/>
<text text-anchor="middle" x="710.855" y="-230.313" font-family="Times New Roman,serif" font-size="9.00">81</text>
</g>
<!-- direc_dist&#45;&gt;81 -->
<g id="edge6" class="edge"><title>direc_dist&#45;&gt;81</title>
<path fill="none" stroke="green" stroke-width="0.108811" d="M269.946,-643.655C356.42,-644.552 632.351,-643.787 706.855,-599.252 799.857,-543.66 841.405,-482.714 810.855,-378.759 795.914,-327.917 755.46,-279.425 730.825,-253.35"/>
<polygon fill="green" stroke="green" stroke-width="0.108811" points="733.196,-250.766 723.734,-245.999 728.158,-255.626 733.196,-250.766"/>
</g>
<!-- 350 -->
<g id="node25" class="node"><title>350</title>
<ellipse fill="white" stroke="black" cx="215.855" cy="-232.513" rx="21.4286" ry="21.4286"/>
<text text-anchor="middle" x="215.855" y="-230.313" font-family="Times New Roman,serif" font-size="9.00">350</text>
</g>
<!-- direc_dist&#45;&gt;350 -->
<g id="edge8" class="edge"><title>direc_dist&#45;&gt;350</title>
<path fill="none" stroke="green" stroke-width="0.47511" stroke-dasharray="1,5" d="M217.539,-641.655C164.954,-637.905 49.6332,-626.689 22.8554,-599.252 -11.5663,-563.982 3.85542,-539.288 3.85542,-490.006 3.85542,-490.006 3.85542,-490.006 3.85542,-402.508 3.85542,-310.595 127.209,-260.573 185.729,-242.014"/>
<polygon fill="green" stroke="green" stroke-width="0.47511" points="186.994,-245.287 195.528,-239.009 184.941,-238.594 186.994,-245.287"/>
</g>
<!-- 2402 -->
<g id="node27" class="node"><title>2402</title>
<ellipse fill="white" stroke="black" cx="56.8554" cy="-574.503" rx="25" ry="25"/>
<text text-anchor="middle" x="56.8554" y="-572.303" font-family="Times New Roman,serif" font-size="9.00">2402</text>
</g>
<!-- direc_dist&#45;&gt;2402 -->
<g id="edge56" class="edge"><title>direc_dist&#45;&gt;2402</title>
<path fill="none" stroke="green" stroke-width="0.128975" d="M217.797,-638.668C186.35,-632.499 132.398,-619.857 89.8554,-599.252 88.0449,-598.375 86.2286,-597.399 84.43,-596.357"/>
<polygon fill="green" stroke="green" stroke-width="0.128975" points="86.0018,-593.207 75.6963,-590.747 82.2187,-599.096 86.0018,-593.207"/>
</g>
<!-- vx -->
<g id="node2" class="node"><title>vx</title>
<polygon fill="lightgray" stroke="black" points="698.355,-583.503 673.355,-583.503 673.355,-565.503 698.355,-565.503 698.355,-583.503"/>
<text text-anchor="middle" x="685.855" y="-572.303" font-family="Times New Roman,serif" font-size="9.00">vx</text>
</g>
<!-- horizontal -->
<g id="node7" class="node"><title>horizontal</title>
<ellipse fill="lightblue" stroke="black" cx="397.855" cy="-134.288" rx="37.4533" ry="37.4533"/>
<text text-anchor="middle" x="397.855" y="-132.088" font-family="Times New Roman,serif" font-size="9.00">horizontal</text>
</g>
<!-- vx&#45;&gt;horizontal -->
<g id="edge3" class="edge"><title>vx&#45;&gt;horizontal</title>
<path fill="none" stroke="green" stroke-width="0.669843" d="M673.076,-573C612.803,-569.888 359.855,-548.264 359.855,-404.508 359.855,-404.508 359.855,-404.508 359.855,-317.011 359.855,-269.43 372.491,-216.297 383.19,-179.837"/>
<polygon fill="green" stroke="green" stroke-width="0.669843" points="386.616,-180.598 386.144,-170.014 379.912,-178.582 386.616,-180.598"/>
</g>
<!-- 646 -->
<g id="node8" class="node"><title>646</title>
<ellipse fill="white" stroke="black" cx="725.855" cy="-318.011" rx="21.4286" ry="21.4286"/>
<text text-anchor="middle" x="725.855" y="-315.811" font-family="Times New Roman,serif" font-size="9.00">646</text>
</g>
<!-- vx&#45;&gt;646 -->
<g id="edge11" class="edge"><title>vx&#45;&gt;646</title>
<path fill="none" stroke="red" stroke-width="0.346663" d="M687.141,-565.324C692.34,-532.245 711.968,-407.368 721.113,-349.186"/>
<polygon fill="red" stroke="red" stroke-width="0.346663" points="724.597,-349.558 722.692,-339.136 717.682,-348.471 724.597,-349.558"/>
</g>
<!-- 1965 -->
<g id="node15" class="node"><title>1965</title>
<ellipse fill="white" stroke="black" cx="776.855" cy="-403.508" rx="25" ry="25"/>
<text text-anchor="middle" x="776.855" y="-401.308" font-family="Times New Roman,serif" font-size="9.00">1965</text>
</g>
<!-- vx&#45;&gt;1965 -->
<g id="edge52" class="edge"><title>vx&#45;&gt;1965</title>
<path fill="none" stroke="red" stroke-width="0.656049" d="M694.723,-565.396C706.09,-554.586 725.769,-534.405 737.855,-513.754 751.882,-489.79 762.112,-459.948 768.567,-437.512"/>
<polygon fill="red" stroke="red" stroke-width="0.656049" points="771.969,-438.345 771.267,-427.773 765.223,-436.474 771.969,-438.345"/>
</g>
<!-- vx&#45;&gt;689 -->
<g id="edge67" class="edge"><title>vx&#45;&gt;689</title>
<path fill="none" stroke="green" stroke-width="0.481363" d="M673.296,-573.178C627.616,-571.61 466.663,-562.717 345.855,-513.754 342.385,-512.348 338.908,-510.559 335.565,-508.596"/>
<polygon fill="green" stroke="green" stroke-width="0.481363" points="337.423,-505.63 327.125,-503.137 333.621,-511.507 337.423,-505.63"/>
</g>
<!-- 442 -->
<g id="node18" class="node"><title>442</title>
<ellipse fill="white" stroke="black" cx="804.855" cy="-30.4056" rx="21.4286" ry="21.4286"/>
<text text-anchor="middle" x="804.855" y="-28.2056" font-family="Times New Roman,serif" font-size="9.00">442</text>
</g>
<!-- vx&#45;&gt;442 -->
<g id="edge17" class="edge"><title>vx&#45;&gt;442</title>
<path fill="none" stroke="green" stroke-width="0.328491" stroke-dasharray="1,5" d="M698.683,-569.577C751.439,-552.685 952.83,-480.716 1036.86,-342.759 1093.99,-248.959 1089.91,-175.075 1012.86,-96.8112 965.034,-48.2395 881.58,-35.6375 836.279,-32.435"/>
<polygon fill="green" stroke="green" stroke-width="0.328491" points="836.347,-28.933 826.157,-31.8323 835.931,-35.9206 836.347,-28.933"/>
</g>
<!-- 2299 -->
<g id="node31" class="node"><title>2299</title>
<ellipse fill="white" stroke="black" cx="661.855" cy="-318.011" rx="25" ry="25"/>
<text text-anchor="middle" x="661.855" y="-315.811" font-family="Times New Roman,serif" font-size="9.00">2299</text>
</g>
<!-- vx&#45;&gt;2299 -->
<g id="edge44" class="edge"><title>vx&#45;&gt;2299</title>
<path fill="none" stroke="red" stroke-width="0.270443" d="M685.084,-565.324C682.026,-532.899 670.65,-412.268 665.034,-352.712"/>
<polygon fill="red" stroke="red" stroke-width="0.270443" points="668.511,-352.305 664.087,-342.678 661.542,-352.962 668.511,-352.305"/>
</g>
<!-- vy -->
<g id="node3" class="node"><title>vy</title>
<polygon fill="lightgray" stroke="black" points="1133.86,-583.503 1107.86,-583.503 1107.86,-565.503 1133.86,-565.503 1133.86,-583.503"/>
<text text-anchor="middle" x="1120.86" y="-572.303" font-family="Times New Roman,serif" font-size="9.00">vy</text>
</g>
<!-- vertical -->
<g id="node6" class="node"><title>vertical</title>
<ellipse fill="lightblue" stroke="black" cx="321.855" cy="-30.4056" rx="30.3115" ry="30.3115"/>
<text text-anchor="middle" x="321.855" y="-28.2056" font-family="Times New Roman,serif" font-size="9.00">vertical</text>
</g>
<!-- vy&#45;&gt;vertical -->
<g id="edge10" class="edge"><title>vy&#45;&gt;vertical</title>
<path fill="none" stroke="green" stroke-width="0.662421" d="M1124.1,-565.212C1133.28,-540.922 1158.86,-467.659 1158.86,-404.508 1158.86,-404.508 1158.86,-404.508 1158.86,-317.011 1158.86,-187.749 1083.52,-156.481 968.855,-96.8112 915.103,-68.8397 496.485,-41.7846 362.769,-33.7806"/>
<polygon fill="green" stroke="green" stroke-width="0.662421" points="362.735,-30.2725 352.545,-33.1726 362.32,-37.2602 362.735,-30.2725"/>
</g>
<!-- 2443 -->
<g id="node9" class="node"><title>2443</title>
<ellipse fill="white" stroke="black" cx="991.855" cy="-232.513" rx="25" ry="25"/>
<text text-anchor="middle" x="991.855" y="-230.313" font-family="Times New Roman,serif" font-size="9.00">2443</text>
</g>
<!-- vy&#45;&gt;2443 -->
<g id="edge60" class="edge"><title>vy&#45;&gt;2443</title>
<path fill="none" stroke="green" stroke-width="0.128507" d="M1117.79,-565.434C1102.31,-524.629 1032.27,-340.017 1003.87,-265.174"/>
<polygon fill="green" stroke="green" stroke-width="0.128507" points="1007.12,-263.888 1000.3,-255.78 1000.58,-266.371 1007.12,-263.888"/>
</g>
<!-- 942 -->
<g id="node16" class="node"><title>942</title>
<ellipse fill="white" stroke="black" cx="938.855" cy="-134.288" rx="21.4286" ry="21.4286"/>
<text text-anchor="middle" x="938.855" y="-132.088" font-family="Times New Roman,serif" font-size="9.00">942</text>
</g>
<!-- vy&#45;&gt;942 -->
<g id="edge22" class="edge"><title>vy&#45;&gt;942</title>
<path fill="none" stroke="red" stroke-width="0.109164" stroke-dasharray="1,5" d="M1120.58,-565.303C1118.85,-523.682 1106.61,-332.888 1025.86,-207.765 1010.51,-183.987 984.913,-164.034 965.446,-151.122"/>
<polygon fill="red" stroke="red" stroke-width="0.109164" points="967.298,-148.152 956.992,-145.696 963.518,-154.043 967.298,-148.152"/>
</g>
<!-- vy&#45;&gt;689 -->
<g id="edge23" class="edge"><title>vy&#45;&gt;689</title>
<path fill="none" stroke="red" stroke-width="0.265888" d="M1107.65,-572.282C1042.95,-566.284 753.027,-539.202 515.855,-513.754 454.049,-507.123 381.861,-498.572 341.75,-493.749"/>
<polygon fill="red" stroke="red" stroke-width="0.265888" points="342.142,-490.271 331.795,-492.55 341.305,-497.221 342.142,-490.271"/>
</g>
<!-- vy&#45;&gt;442 -->
<g id="edge18" class="edge"><title>vy&#45;&gt;442</title>
<path fill="none" stroke="red" stroke-width="0.573078" d="M1130.54,-565.25C1142.4,-554.591 1162.22,-534.883 1172.86,-513.754 1195.2,-469.348 1196.86,-454.22 1196.86,-404.508 1196.86,-404.508 1196.86,-404.508 1196.86,-231.513 1196.86,-69.9973 929.594,-38.7792 836.429,-32.8036"/>
<polygon fill="red" stroke="red" stroke-width="0.573078" points="836.397,-29.2958 826.209,-32.206 835.988,-36.2839 836.397,-29.2958"/>
</g>
<!-- cp2x -->
<g id="node4" class="node"><title>cp2x</title>
<polygon fill="lightgray" stroke="black" points="558.855,-498.006 524.855,-498.006 524.855,-480.006 558.855,-480.006 558.855,-498.006"/>
<text text-anchor="middle" x="541.855" y="-486.806" font-family="Times New Roman,serif" font-size="9.00">cp2x</text>
</g>
<!-- cp2x&#45;&gt;horizontal -->
<g id="edge2" class="edge"><title>cp2x&#45;&gt;horizontal</title>
<path fill="none" stroke="red" stroke-width="0.572716" d="M540.175,-480.002C534.374,-453.023 513.936,-363.197 484.855,-293.262 467.459,-251.424 441.929,-206.406 423.021,-175.173"/>
<polygon fill="red" stroke="red" stroke-width="0.572716" points="425.828,-173.054 417.629,-166.343 419.853,-176.702 425.828,-173.054"/>
</g>
<!-- cp2x&#45;&gt;1965 -->
<g id="edge36" class="edge"><title>cp2x&#45;&gt;1965</title>
<path fill="none" stroke="red" stroke-width="0.794251" d="M559.136,-481.866C598.189,-467.99 693.778,-434.026 744.314,-416.071"/>
<polygon fill="red" stroke="red" stroke-width="0.794251" points="745.539,-419.35 753.79,-412.704 743.195,-412.754 745.539,-419.35"/>
</g>
<!-- cp2x&#45;&gt;442 -->
<g id="edge19" class="edge"><title>cp2x&#45;&gt;442</title>
<path fill="none" stroke="green" stroke-width="0.432797" stroke-dasharray="1,5" d="M559.033,-481.948C600.696,-466.279 707.257,-420.14 755.855,-342.759 788.114,-291.397 763.27,-267.097 775.855,-207.765 779.301,-191.52 782.512,-188.03 785.855,-171.765 793.583,-134.175 798.95,-90.2534 801.962,-61.69"/>
<polygon fill="green" stroke="green" stroke-width="0.432797" points="805.465,-61.8445 803.002,-51.54 798.501,-61.1314 805.465,-61.8445"/>
</g>
<!-- 1750 -->
<g id="node24" class="node"><title>1750</title>
<ellipse fill="white" stroke="black" cx="412.855" cy="-403.508" rx="25" ry="25"/>
<text text-anchor="middle" x="412.855" y="-401.308" font-family="Times New Roman,serif" font-size="9.00">1750</text>
</g>
<!-- cp2x&#45;&gt;1750 -->
<g id="edge33" class="edge"><title>cp2x&#45;&gt;1750</title>
<path fill="none" stroke="green" stroke-width="0.480372" d="M529.486,-480C509.456,-467.035 469.393,-441.103 441.86,-423.282"/>
<polygon fill="green" stroke="green" stroke-width="0.480372" points="443.7,-420.303 433.403,-417.808 439.896,-426.18 443.7,-420.303"/>
</g>
<!-- 865 -->
<g id="node26" class="node"><title>865</title>
<ellipse fill="white" stroke="black" cx="289.855" cy="-403.508" rx="21.4286" ry="21.4286"/>
<text text-anchor="middle" x="289.855" y="-401.308" font-family="Times New Roman,serif" font-size="9.00">865</text>
</g>
<!-- cp2x&#45;&gt;865 -->
<g id="edge27" class="edge"><title>cp2x&#45;&gt;865</title>
<path fill="none" stroke="green" stroke-width="0.181303" d="M524.534,-482.267C482.105,-468.208 372.579,-431.918 319.527,-414.34"/>
<polygon fill="green" stroke="green" stroke-width="0.181303" points="320.3,-410.909 309.707,-411.086 318.098,-417.553 320.3,-410.909"/>
</g>
<!-- cp2y -->
<g id="node5" class="node"><title>cp2y</title>
<polygon fill="lightgray" stroke="black" points="201.355,-583.503 166.355,-583.503 166.355,-565.503 201.355,-565.503 201.355,-583.503"/>
<text text-anchor="middle" x="183.855" y="-572.303" font-family="Times New Roman,serif" font-size="9.00">cp2y</text>
</g>
<!-- cp2y&#45;&gt;vertical -->
<g id="edge1" class="edge"><title>cp2y&#45;&gt;vertical</title>
<path fill="none" stroke="red" stroke-width="0.644212" d="M175.066,-565.446C158.053,-549.831 122.088,-516.711 119.855,-513.754 86.9788,-470.211 63.8554,-459.069 63.8554,-404.508 63.8554,-404.508 63.8554,-404.508 63.8554,-231.513 63.8554,-122.153 210.383,-63.9753 282.587,-41.9461"/>
<polygon fill="red" stroke="red" stroke-width="0.644212" points="283.668,-45.2762 292.26,-39.076 281.677,-38.5655 283.668,-45.2762"/>
</g>
<!-- cp2y&#45;&gt;689 -->
<g id="edge25" class="edge"><title>cp2y&#45;&gt;689</title>
<path fill="none" stroke="green" stroke-width="0.112421" d="M192.138,-565.12C197.066,-560.347 203.566,-554.41 209.855,-549.754 233.428,-532.306 262.427,-515.588 283.295,-504.296"/>
<polygon fill="green" stroke="green" stroke-width="0.112421" points="285.09,-507.305 292.262,-499.507 281.793,-501.131 285.09,-507.305"/>
</g>
<!-- cp2y&#45;&gt;350 -->
<g id="edge51" class="edge"><title>cp2y&#45;&gt;350</title>
<path fill="none" stroke="red" stroke-width="0.26303" stroke-dasharray="1,5" d="M175.648,-565.196C162.599,-551.761 138.15,-525.578 133.855,-513.754 116.223,-465.208 112.058,-368.756 149.855,-293.262 158.68,-275.636 175.092,-260.744 189.341,-250.235"/>
<polygon fill="red" stroke="red" stroke-width="0.26303" points="191.667,-252.88 197.847,-244.274 187.649,-247.147 191.667,-252.88"/>
</g>
<!-- cp2y&#45;&gt;865 -->
<g id="edge29" class="edge"><title>cp2y&#45;&gt;865</title>
<path fill="none" stroke="green" stroke-width="0.245623" d="M188.968,-565.352C204.091,-541.242 249.076,-469.522 273.552,-430.5"/>
<polygon fill="green" stroke="green" stroke-width="0.245623" points="276.669,-432.118 279.017,-421.787 270.739,-428.399 276.669,-432.118"/>
</g>
<!-- 2421 -->
<g id="node30" class="node"><title>2421</title>
<ellipse fill="white" stroke="black" cx="167.855" cy="-489.006" rx="25" ry="25"/>
<text text-anchor="middle" x="167.855" y="-486.806" font-family="Times New Roman,serif" font-size="9.00">2421</text>
</g>
<!-- cp2y&#45;&gt;2421 -->
<g id="edge57" class="edge"><title>cp2y&#45;&gt;2421</title>
<path fill="none" stroke="green" stroke-width="0.43571" d="M182.321,-565.497C180.478,-555.879 177.268,-539.126 174.339,-523.841"/>
<polygon fill="green" stroke="green" stroke-width="0.43571" points="177.696,-522.762 172.377,-513.6 170.821,-524.08 177.696,-522.762"/>
</g>
<!-- 646&#45;&gt;vertical -->
<g id="edge12" class="edge"><title>646&#45;&gt;vertical</title>
<path fill="none" stroke="red" stroke-width="0.131253" stroke-dasharray="1,5" d="M713.22,-300.51C681.625,-260.284 594.946,-156.125 500.855,-96.8112 456.852,-69.0715 399.384,-50.7352 361.587,-40.7146"/>
<polygon fill="red" stroke="red" stroke-width="0.131253" points="362.032,-37.2151 351.475,-38.108 360.285,-43.9935 362.032,-37.2151"/>
</g>
<!-- 646&#45;&gt;81 -->
<g id="edge24" class="edge"><title>646&#45;&gt;81</title>
<path fill="none" stroke="green" stroke-width="0.383634" d="M722.224,-296.798C720.286,-286.008 717.873,-272.575 715.769,-260.864"/>
<polygon fill="green" stroke="green" stroke-width="0.383634" points="719.159,-259.943 713.946,-250.719 712.27,-261.18 719.159,-259.943"/>
</g>
<!-- 2443&#45;&gt;942 -->
<g id="edge61" class="edge"><title>2443&#45;&gt;942</title>
<path fill="none" stroke="red" stroke-width="0.128312" d="M980.093,-210.158C972.314,-196.035 962.052,-177.403 953.711,-162.259"/>
<polygon fill="red" stroke="red" stroke-width="0.128312" points="956.695,-160.422 948.805,-153.352 950.564,-163.8 956.695,-160.422"/>
</g>
<!-- 1308 -->
<g id="node11" class="node"><title>1308</title>
<ellipse fill="white" stroke="black" cx="268.855" cy="-318.011" rx="25" ry="25"/>
<text text-anchor="middle" x="268.855" y="-315.811" font-family="Times New Roman,serif" font-size="9.00">1308</text>
</g>
<!-- 1308&#45;&gt;350 -->
<g id="edge66" class="edge"><title>1308&#45;&gt;350</title>
<path fill="none" stroke="red" stroke-width="0.299116" d="M256.026,-296.798C248.897,-285.568 239.951,-271.474 232.312,-259.439"/>
<polygon fill="red" stroke="red" stroke-width="0.299116" points="235.091,-257.286 226.777,-250.719 229.181,-261.038 235.091,-257.286"/>
</g>
<!-- 2467 -->
<g id="node13" class="node"><title>2467</title>
<ellipse fill="white" stroke="black" cx="450.855" cy="-318.011" rx="25" ry="25"/>
<text text-anchor="middle" x="450.855" y="-315.811" font-family="Times New Roman,serif" font-size="9.00">2467</text>
</g>
<!-- 2347 -->
<g id="node14" class="node"><title>2347</title>
<ellipse fill="white" stroke="black" cx="809.855" cy="-232.513" rx="25" ry="25"/>
<text text-anchor="middle" x="809.855" y="-230.313" font-family="Times New Roman,serif" font-size="9.00">2347</text>
</g>
<!-- 2347&#45;&gt;942 -->
<g id="edge50" class="edge"><title>2347&#45;&gt;942</title>
<path fill="none" stroke="red" stroke-width="0.369466" stroke-dasharray="1,5" d="M829.448,-216.899C852.019,-200.062 889.157,-172.359 913.809,-153.971"/>
<polygon fill="red" stroke="red" stroke-width="0.369466" points="916.041,-156.672 921.964,-147.888 911.856,-151.061 916.041,-156.672"/>
</g>
<!-- 1965&#45;&gt;646 -->
<g id="edge47" class="edge"><title>1965&#45;&gt;646</title>
<path fill="none" stroke="red" stroke-width="0.673431" d="M764.249,-381.868C757.479,-370.785 749.064,-357.008 741.839,-345.18"/>
<polygon fill="red" stroke="red" stroke-width="0.673431" points="744.793,-343.3 736.593,-336.591 738.819,-346.949 744.793,-343.3"/>
</g>
<!-- 1965&#45;&gt;942 -->
<g id="edge39" class="edge"><title>1965&#45;&gt;942</title>
<path fill="none" stroke="green" stroke-width="0.179527" stroke-dasharray="1,5" d="M801.129,-397.607C829.429,-390.564 875.432,-374.74 899.855,-342.759 939.825,-290.422 942.9,-209.343 941.18,-165.654"/>
<polygon fill="green" stroke="green" stroke-width="0.179527" points="944.675,-165.458 940.675,-155.647 937.684,-165.811 944.675,-165.458"/>
</g>
<!-- 1965&#45;&gt;442 -->
<g id="edge37" class="edge"><title>1965&#45;&gt;442</title>
<path fill="none" stroke="green" stroke-width="0.19545" d="M801.002,-397.853C855.01,-385.918 984.096,-348.502 1025.86,-257.262 1057.35,-188.449 1024.85,-147.72 968.855,-96.8112 930.563,-61.997 871.447,-44.6551 835.629,-36.8817"/>
<polygon fill="green" stroke="green" stroke-width="0.19545" points="836.246,-33.4353 825.746,-34.8518 834.837,-40.2921 836.246,-33.4353"/>
</g>
<!-- 1480 -->
<g id="node20" class="node"><title>1480</title>
<ellipse fill="white" stroke="black" cx="865.855" cy="-318.011" rx="25" ry="25"/>
<text text-anchor="middle" x="865.855" y="-315.811" font-family="Times New Roman,serif" font-size="9.00">1480</text>
</g>
<!-- 1965&#45;&gt;1480 -->
<g id="edge42" class="edge"><title>1965&#45;&gt;1480</title>
<path fill="none" stroke="red" stroke-width="0.111903" stroke-dasharray="1,5" d="M794.439,-386.012C807.726,-373.546 826.141,-356.27 840.943,-342.383"/>
<polygon fill="red" stroke="red" stroke-width="0.111903" points="843.41,-344.867 848.308,-335.473 838.621,-339.762 843.41,-344.867"/>
</g>
<!-- 1965&#45;&gt;350 -->
<g id="edge64" class="edge"><title>1965&#45;&gt;350</title>
<path fill="none" stroke="green" stroke-width="0.206696" d="M752.366,-398.283C711.412,-390.664 627.007,-372.585 560.855,-342.759 524.108,-326.191 522.016,-308.882 484.855,-293.262 402.921,-258.821 298.235,-242.901 246.972,-236.759"/>
<polygon fill="green" stroke="green" stroke-width="0.206696" points="247.207,-233.263 236.872,-235.594 246.405,-240.217 247.207,-233.263"/>
</g>
<!-- 689&#45;&gt;350 -->
<g id="edge14" class="edge"><title>689&#45;&gt;350</title>
<path fill="none" stroke="green" stroke-width="0.46348" stroke-dasharray="1,5" d="M296.193,-473.148C273.199,-448.568 229.933,-396.766 216.855,-342.759 210.526,-316.62 210.901,-285.921 212.496,-263.733"/>
<polygon fill="green" stroke="green" stroke-width="0.46348" points="215.999,-263.841 213.353,-253.582 209.024,-263.252 215.999,-263.841"/>
</g>
<!-- 689&#45;&gt;865 -->
<g id="edge20" class="edge"><title>689&#45;&gt;865</title>
<path fill="none" stroke="green" stroke-width="0.302971" stroke-dasharray="1,5" d="M305.879,-468.218C303.316,-458.027 300.139,-445.396 297.292,-434.075"/>
<polygon fill="green" stroke="green" stroke-width="0.302971" points="300.63,-432.998 294.796,-424.154 293.841,-434.706 300.63,-432.998"/>
</g>
<!-- 2244&#45;&gt;689 -->
<g id="edge41" class="edge"><title>2244&#45;&gt;689</title>
<path fill="none" stroke="red" stroke-width="0.73538" d="M310.855,-549.352C310.855,-540.394 310.855,-530.112 310.855,-520.651"/>
<polygon fill="red" stroke="red" stroke-width="0.73538" points="314.356,-520.431 310.855,-510.431 307.356,-520.431 314.356,-520.431"/>
</g>
<!-- 1480&#45;&gt;2347 -->
<g id="edge49" class="edge"><title>1480&#45;&gt;2347</title>
<path fill="none" stroke="red" stroke-width="0.442517" stroke-dasharray="1,5" d="M852.299,-296.798C845.283,-286.337 836.601,-273.391 828.92,-261.94"/>
<polygon fill="red" stroke="red" stroke-width="0.442517" points="831.764,-259.895 823.287,-253.54 825.95,-263.794 831.764,-259.895"/>
</g>
<!-- 1480&#45;&gt;942 -->
<g id="edge35" class="edge"><title>1480&#45;&gt;942</title>
<path fill="none" stroke="red" stroke-width="0.387753" stroke-dasharray="1,5" d="M874.807,-294.728C888.066,-261.721 912.92,-199.85 927.461,-163.652"/>
<polygon fill="red" stroke="red" stroke-width="0.387753" points="930.791,-164.752 931.271,-154.168 924.296,-162.142 930.791,-164.752"/>
</g>
<!-- 1480&#45;&gt;442 -->
<g id="edge38" class="edge"><title>1480&#45;&gt;442</title>
<path fill="none" stroke="green" stroke-width="0.149064" stroke-dasharray="1,5" d="M861.263,-293.543C856.898,-271.402 850.093,-237.294 843.855,-207.765 832.96,-156.188 819.557,-96.2991 811.637,-61.2563"/>
<polygon fill="green" stroke="green" stroke-width="0.149064" points="814.986,-60.1959 809.364,-51.2153 808.158,-61.7413 814.986,-60.1959"/>
</g>
<!-- 1480&#45;&gt;81 -->
<g id="edge28" class="edge"><title>1480&#45;&gt;81</title>
<path fill="none" stroke="green" stroke-width="0.271707" stroke-dasharray="1,5" d="M844.303,-305.401C815.931,-290.117 766.137,-263.293 736.054,-247.088"/>
<polygon fill="green" stroke="green" stroke-width="0.271707" points="737.496,-243.889 727.032,-242.227 734.176,-250.051 737.496,-243.889"/>
</g>
<!-- 2376 -->
<g id="node21" class="node"><title>2376</title>
<ellipse fill="white" stroke="black" cx="751.855" cy="-134.288" rx="25" ry="25"/>
<text text-anchor="middle" x="751.855" y="-132.088" font-family="Times New Roman,serif" font-size="9.00">2376</text>
</g>
<!-- 2376&#45;&gt;442 -->
<g id="edge54" class="edge"><title>2376&#45;&gt;442</title>
<path fill="none" stroke="green" stroke-width="0.269134" d="M763.095,-111.681C771.122,-96.2515 781.982,-75.375 790.615,-58.7792"/>
<polygon fill="green" stroke="green" stroke-width="0.269134" points="793.893,-60.0627 795.403,-49.576 787.683,-56.8322 793.893,-60.0627"/>
</g>
<!-- 2256 -->
<g id="node22" class="node"><title>2256</title>
<ellipse fill="white" stroke="black" cx="594.855" cy="-403.508" rx="25" ry="25"/>
<text text-anchor="middle" x="594.855" y="-401.308" font-family="Times New Roman,serif" font-size="9.00">2256</text>
</g>
<!-- 1519 -->
<g id="node29" class="node"><title>1519</title>
<ellipse fill="white" stroke="black" cx="594.855" cy="-318.011" rx="25" ry="25"/>
<text text-anchor="middle" x="594.855" y="-315.811" font-family="Times New Roman,serif" font-size="9.00">1519</text>
</g>
<!-- 2256&#45;&gt;1519 -->
<g id="edge43" class="edge"><title>2256&#45;&gt;1519</title>
<path fill="none" stroke="red" stroke-width="0.25953" d="M594.855,-378.357C594.855,-370.413 594.855,-361.429 594.855,-352.898"/>
<polygon fill="red" stroke="red" stroke-width="0.25953" points="598.356,-352.819 594.855,-342.819 591.356,-352.819 598.356,-352.819"/>
</g>
<!-- 81&#45;&gt;horizontal -->
<g id="edge4" class="edge"><title>81&#45;&gt;horizontal</title>
<path fill="none" stroke="red" stroke-width="0.201138" d="M693.581,-226.203C646.37,-211.689 514.005,-170.996 443.462,-149.309"/>
<polygon fill="red" stroke="red" stroke-width="0.201138" points="444.108,-145.846 433.521,-146.252 442.051,-152.536 444.108,-145.846"/>
</g>
<!-- 81&#45;&gt;442 -->
<g id="edge7" class="edge"><title>81&#45;&gt;442</title>
<path fill="none" stroke="red" stroke-width="0.185451" stroke-dasharray="1,5" d="M707.327,-214.129C702.797,-187.219 697.724,-134.642 717.855,-96.8112 730.577,-72.9058 756.318,-55.2687 776.516,-44.3731"/>
<polygon fill="red" stroke="red" stroke-width="0.185451" points="778.319,-47.382 785.621,-39.7056 775.126,-41.1527 778.319,-47.382"/>
</g>
<!-- 81&#45;&gt;2376 -->
<g id="edge53" class="edge"><title>81&#45;&gt;2376</title>
<path fill="none" stroke="green" stroke-width="0.609562" d="M717.811,-215.19C723.411,-202.046 731.452,-183.173 738.314,-167.07"/>
<polygon fill="green" stroke="green" stroke-width="0.609562" points="741.701,-168.049 742.401,-157.477 735.261,-165.305 741.701,-168.049"/>
</g>
<!-- 1750&#45;&gt;vertical -->
<g id="edge32" class="edge"><title>1750&#45;&gt;vertical</title>
<path fill="none" stroke="green" stroke-width="0.111869" stroke-dasharray="1,5" d="M406.339,-379.347C394.759,-337.877 370.101,-248.136 351.855,-171.765 343.708,-137.66 335.453,-98.6389 329.67,-70.4114"/>
<polygon fill="green" stroke="green" stroke-width="0.111869" points="333.083,-69.629 327.657,-60.5293 326.224,-71.0268 333.083,-69.629"/>
</g>
<!-- 1750&#45;&gt;horizontal -->
<g id="edge46" class="edge"><title>1750&#45;&gt;horizontal</title>
<path fill="none" stroke="green" stroke-width="0.220649" d="M411.524,-378.794C409.054,-334.783 403.718,-239.73 400.492,-182.264"/>
<polygon fill="green" stroke="green" stroke-width="0.220649" points="403.971,-181.781 399.916,-171.993 396.982,-182.173 403.971,-181.781"/>
</g>
<!-- 1750&#45;&gt;1308 -->
<g id="edge34" class="edge"><title>1750&#45;&gt;1308</title>
<path fill="none" stroke="green" stroke-width="0.245703" stroke-dasharray="1,5" d="M391.432,-390.562C370.137,-378.631 336.592,-359.68 307.855,-342.759 304.826,-340.976 301.676,-339.098 298.538,-337.211"/>
<polygon fill="green" stroke="green" stroke-width="0.245703" points="300.204,-334.128 289.837,-331.943 296.579,-340.116 300.204,-334.128"/>
</g>
<!-- 1750&#45;&gt;2467 -->
<g id="edge65" class="edge"><title>1750&#45;&gt;2467</title>
<path fill="none" stroke="green" stroke-width="0.499667" d="M422.839,-380.57C427.072,-371.27 432.082,-360.262 436.686,-350.144"/>
<polygon fill="green" stroke="green" stroke-width="0.499667" points="439.981,-351.354 440.938,-340.802 433.61,-348.454 439.981,-351.354"/>
</g>
<!-- 350&#45;&gt;vertical -->
<g id="edge5" class="edge"><title>350&#45;&gt;vertical</title>
<path fill="none" stroke="red" stroke-width="0.541525" stroke-dasharray="1,5" d="M221.707,-211.962C230.211,-185.001 247.446,-135.367 269.855,-96.8112 277,-84.518 286.297,-72.0504 295.05,-61.3439"/>
<polygon fill="red" stroke="red" stroke-width="0.541525" points="297.855,-63.4456 301.593,-53.532 292.489,-58.9509 297.855,-63.4456"/>
</g>
<!-- 350&#45;&gt;horizontal -->
<g id="edge26" class="edge"><title>350&#45;&gt;horizontal</title>
<path fill="none" stroke="green" stroke-width="0.376229" stroke-dasharray="1,5" d="M234.308,-221.757C262.67,-206.762 317.712,-177.661 356.069,-157.381"/>
<polygon fill="green" stroke="green" stroke-width="0.376229" points="357.746,-160.453 364.95,-152.685 354.474,-154.265 357.746,-160.453"/>
</g>
<!-- 350&#45;&gt;442 -->
<g id="edge9" class="edge"><title>350&#45;&gt;442</title>
<path fill="none" stroke="red" stroke-width="0.442012" stroke-dasharray="1,5" d="M229.528,-215.672C257.813,-183.304 322.553,-111.402 351.855,-96.8112 426.53,-59.6276 683.44,-39.4406 773.422,-33.3828"/>
<polygon fill="red" stroke="red" stroke-width="0.442012" points="773.797,-36.8657 783.545,-32.7139 773.336,-29.8809 773.797,-36.8657"/>
</g>
<!-- 744 -->
<g id="node28" class="node"><title>744</title>
<ellipse fill="white" stroke="black" cx="196.855" cy="-134.288" rx="21.4286" ry="21.4286"/>
<text text-anchor="middle" x="196.855" y="-132.088" font-family="Times New Roman,serif" font-size="9.00">744</text>
</g>
<!-- 350&#45;&gt;744 -->
<g id="edge15" class="edge"><title>350&#45;&gt;744</title>
<path fill="none" stroke="red" stroke-width="0.223656" d="M211.919,-211.575C209.269,-198.157 205.728,-180.225 202.745,-165.118"/>
<polygon fill="red" stroke="red" stroke-width="0.223656" points="206.158,-164.333 200.787,-155.2 199.291,-165.689 206.158,-164.333"/>
</g>
<!-- 865&#45;&gt;1308 -->
<g id="edge59" class="edge"><title>865&#45;&gt;1308</title>
<path fill="none" stroke="green" stroke-width="0.150223" d="M284.879,-382.72C282.586,-373.606 279.803,-362.539 277.203,-352.203"/>
<polygon fill="green" stroke="green" stroke-width="0.150223" points="280.524,-351.055 274.69,-342.21 273.735,-352.762 280.524,-351.055"/>
</g>
<!-- 865&#45;&gt;350 -->
<g id="edge21" class="edge"><title>865&#45;&gt;350</title>
<path fill="none" stroke="red" stroke-width="0.664098" stroke-dasharray="1,5" d="M273.676,-389.571C261.024,-378.52 244.084,-361.474 234.855,-342.759 222.654,-318.016 218.16,-286.742 216.566,-264.001"/>
<polygon fill="red" stroke="red" stroke-width="0.664098" points="220.055,-263.691 216.009,-253.899 213.065,-264.077 220.055,-263.691"/>
</g>
<!-- 865&#45;&gt;2299 -->
<g id="edge62" class="edge"><title>865&#45;&gt;2299</title>
<path fill="none" stroke="green" stroke-width="0.144263" d="M310.196,-396.348C328.13,-391.092 355.041,-383.634 378.855,-378.759 488.833,-356.249 524.749,-384.753 628.855,-342.759 630.721,-342.007 632.58,-341.128 634.411,-340.159"/>
<polygon fill="green" stroke="green" stroke-width="0.144263" points="636.54,-342.96 643.233,-334.747 632.879,-336.993 636.54,-342.96"/>
</g>
<!-- 744&#45;&gt;vertical -->
<g id="edge16" class="edge"><title>744&#45;&gt;vertical</title>
<path fill="none" stroke="green" stroke-width="0.187756" stroke-dasharray="1,5" d="M210.588,-117.781C216.822,-111.062 224.448,-103.272 231.855,-96.8112 249.581,-81.3506 270.808,-65.7993 288.194,-53.7418"/>
<polygon fill="green" stroke="green" stroke-width="0.187756" points="290.629,-56.3159 296.896,-47.7739 286.67,-50.5429 290.629,-56.3159"/>
</g>
<!-- 1519&#45;&gt;vertical -->
<g id="edge31" class="edge"><title>1519&#45;&gt;vertical</title>
<path fill="none" stroke="red" stroke-width="0.177056" stroke-dasharray="1,5" d="M589.702,-293.48C583.923,-270.382 573.04,-234.783 555.855,-207.765 518.252,-148.642 500.207,-138.454 443.855,-96.8112 417.291,-77.1808 384.085,-59.7762 359.026,-47.8657"/>
<polygon fill="red" stroke="red" stroke-width="0.177056" points="360.393,-44.6411 349.852,-43.5767 357.428,-50.9824 360.393,-44.6411"/>
</g>
<!-- 1519&#45;&gt;81 -->
<g id="edge30" class="edge"><title>1519&#45;&gt;81</title>
<path fill="none" stroke="green" stroke-width="0.571963" stroke-dasharray="1,5" d="M614.533,-302.847C634.872,-288.207 666.59,-265.376 688.02,-249.95"/>
<polygon fill="green" stroke="green" stroke-width="0.571963" points="690.164,-252.719 696.236,-244.037 686.075,-247.038 690.164,-252.719"/>
</g>
<!-- 2421&#45;&gt;350 -->
<g id="edge58" class="edge"><title>2421&#45;&gt;350</title>
<path fill="none" stroke="red" stroke-width="0.56888" d="M162.043,-464.897C153.782,-427.464 141.929,-351.855 163.855,-293.262 169.556,-278.027 181.091,-264.115 191.851,-253.555"/>
<polygon fill="red" stroke="red" stroke-width="0.56888" points="194.513,-255.86 199.455,-246.488 189.748,-250.732 194.513,-255.86"/>
</g>
<!-- 2299&#45;&gt;2347 -->
<g id="edge55" class="edge"><title>2299&#45;&gt;2347</title>
<path fill="none" stroke="red" stroke-width="0.520113" stroke-dasharray="1,5" d="M681.71,-302.515C686.283,-299.352 691.18,-296.105 695.855,-293.262 723.042,-276.735 755.252,-260.109 778.487,-248.607"/>
<polygon fill="red" stroke="red" stroke-width="0.520113" points="780.111,-251.709 787.544,-244.158 777.025,-245.426 780.111,-251.709"/>
</g>
<!-- 2299&#45;&gt;442 -->
<g id="edge45" class="edge"><title>2299&#45;&gt;442</title>
<path fill="none" stroke="red" stroke-width="0.113326" d="M659.943,-293.183C657.701,-250.121 658.598,-158.126 699.855,-96.8112 717.98,-69.875 751.314,-51.9438 775.573,-41.7753"/>
<polygon fill="red" stroke="red" stroke-width="0.113326" points="777.026,-44.964 785.02,-38.0111 774.435,-38.4612 777.026,-44.964"/>
</g>
</g>
</svg>
