<?xml version="1.0" encoding="utf-8" standalone="no"?>
<!DOCTYPE svg PUBLIC "-//W3C//DTD SVG 1.1//EN"
  "http://www.w3.org/Graphics/SVG/1.1/DTD/svg11.dtd">
<!-- Created with matplotlib (http://matplotlib.org/) -->
<svg height="345.6pt" version="1.1" viewBox="0 0 460.8 345.6" width="460.8pt" xmlns="http://www.w3.org/2000/svg" xmlns:xlink="http://www.w3.org/1999/xlink">
 <defs>
  <style type="text/css">
*{stroke-linecap:butt;stroke-linejoin:round;}
  </style>
 </defs>
 <g id="figure_1">
  <g id="patch_1">
   <path d="M 0 345.6 
L 460.8 345.6 
L 460.8 0 
L 0 0 
z
" style="fill:#ffffff;"/>
  </g>
  <g id="axes_1">
   <g id="patch_2">
    <path d="M 57.6 307.584 
L 414.72 307.584 
L 414.72 41.472 
L 57.6 41.472 
z
" style="fill:#ffffff;"/>
   </g>
   <g id="matplotlib.axis_1">
    <g id="xtick_1">
     <g id="line2d_1">
      <path clip-path="url(#p77966d9874)" d="M 73.832727 307.584 
L 73.832727 41.472 
" style="fill:none;stroke:#b0b0b0;stroke-linecap:square;stroke-width:0.8;"/>
     </g>
     <g id="line2d_2">
      <defs>
       <path d="M 0 0 
L 0 3.5 
" id="m5829881d9a" style="stroke:#000000;stroke-width:0.8;"/>
      </defs>
      <g>
       <use style="stroke:#000000;stroke-width:0.8;" x="73.832727" xlink:href="#m5829881d9a" y="307.584"/>
      </g>
     </g>
     <g id="text_1">
      <!-- 0 -->
      <defs>
       <path d="M 31.78125 66.40625 
Q 24.171875 66.40625 20.328125 58.90625 
Q 16.5 51.421875 16.5 36.375 
Q 16.5 21.390625 20.328125 13.890625 
Q 24.171875 6.390625 31.78125 6.390625 
Q 39.453125 6.390625 43.28125 13.890625 
Q 47.125 21.390625 47.125 36.375 
Q 47.125 51.421875 43.28125 58.90625 
Q 39.453125 66.40625 31.78125 66.40625 
z
M 31.78125 74.21875 
Q 44.046875 74.21875 50.515625 64.515625 
Q 56.984375 54.828125 56.984375 36.375 
Q 56.984375 17.96875 50.515625 8.265625 
Q 44.046875 -1.421875 31.78125 -1.421875 
Q 19.53125 -1.421875 13.0625 8.265625 
Q 6.59375 17.96875 6.59375 36.375 
Q 6.59375 54.828125 13.0625 64.515625 
Q 19.53125 74.21875 31.78125 74.21875 
z
" id="DejaVuSans-30"/>
      </defs>
      <g transform="translate(70.651477 322.182437)scale(0.1 -0.1)">
       <use xlink:href="#DejaVuSans-30"/>
      </g>
     </g>
    </g>
    <g id="xtick_2">
     <g id="line2d_3">
      <path clip-path="url(#p77966d9874)" d="M 114.618474 307.584 
L 114.618474 41.472 
" style="fill:none;stroke:#b0b0b0;stroke-linecap:square;stroke-width:0.8;"/>
     </g>
     <g id="line2d_4">
      <g>
       <use style="stroke:#000000;stroke-width:0.8;" x="114.618474" xlink:href="#m5829881d9a" y="307.584"/>
      </g>
     </g>
     <g id="text_2">
      <!-- 25 -->
      <defs>
       <path d="M 19.1875 8.296875 
L 53.609375 8.296875 
L 53.609375 0 
L 7.328125 0 
L 7.328125 8.296875 
Q 12.9375 14.109375 22.625 23.890625 
Q 32.328125 33.6875 34.8125 36.53125 
Q 39.546875 41.84375 41.421875 45.53125 
Q 43.3125 49.21875 43.3125 52.78125 
Q 43.3125 58.59375 39.234375 62.25 
Q 35.15625 65.921875 28.609375 65.921875 
Q 23.96875 65.921875 18.8125 64.3125 
Q 13.671875 62.703125 7.8125 59.421875 
L 7.8125 69.390625 
Q 13.765625 71.78125 18.9375 73 
Q 24.125 74.21875 28.421875 74.21875 
Q 39.75 74.21875 46.484375 68.546875 
Q 53.21875 62.890625 53.21875 53.421875 
Q 53.21875 48.921875 51.53125 44.890625 
Q 49.859375 40.875 45.40625 35.40625 
Q 44.1875 33.984375 37.640625 27.21875 
Q 31.109375 20.453125 19.1875 8.296875 
z
" id="DejaVuSans-32"/>
       <path d="M 10.796875 72.90625 
L 49.515625 72.90625 
L 49.515625 64.59375 
L 19.828125 64.59375 
L 19.828125 46.734375 
Q 21.96875 47.46875 24.109375 47.828125 
Q 26.265625 48.1875 28.421875 48.1875 
Q 40.625 48.1875 47.75 41.5 
Q 54.890625 34.8125 54.890625 23.390625 
Q 54.890625 11.625 47.5625 5.09375 
Q 40.234375 -1.421875 26.90625 -1.421875 
Q 22.3125 -1.421875 17.546875 -0.640625 
Q 12.796875 0.140625 7.71875 1.703125 
L 7.71875 11.625 
Q 12.109375 9.234375 16.796875 8.0625 
Q 21.484375 6.890625 26.703125 6.890625 
Q 35.15625 6.890625 40.078125 11.328125 
Q 45.015625 15.765625 45.015625 23.390625 
Q 45.015625 31 40.078125 35.4375 
Q 35.15625 39.890625 26.703125 39.890625 
Q 22.75 39.890625 18.8125 39.015625 
Q 14.890625 38.140625 10.796875 36.28125 
z
" id="DejaVuSans-35"/>
      </defs>
      <g transform="translate(108.255974 322.182437)scale(0.1 -0.1)">
       <use xlink:href="#DejaVuSans-32"/>
       <use x="63.623047" xlink:href="#DejaVuSans-35"/>
      </g>
     </g>
    </g>
    <g id="xtick_3">
     <g id="line2d_5">
      <path clip-path="url(#p77966d9874)" d="M 155.404221 307.584 
L 155.404221 41.472 
" style="fill:none;stroke:#b0b0b0;stroke-linecap:square;stroke-width:0.8;"/>
     </g>
     <g id="line2d_6">
      <g>
       <use style="stroke:#000000;stroke-width:0.8;" x="155.404221" xlink:href="#m5829881d9a" y="307.584"/>
      </g>
     </g>
     <g id="text_3">
      <!-- 50 -->
      <g transform="translate(149.041721 322.182437)scale(0.1 -0.1)">
       <use xlink:href="#DejaVuSans-35"/>
       <use x="63.623047" xlink:href="#DejaVuSans-30"/>
      </g>
     </g>
    </g>
    <g id="xtick_4">
     <g id="line2d_7">
      <path clip-path="url(#p77966d9874)" d="M 196.189968 307.584 
L 196.189968 41.472 
" style="fill:none;stroke:#b0b0b0;stroke-linecap:square;stroke-width:0.8;"/>
     </g>
     <g id="line2d_8">
      <g>
       <use style="stroke:#000000;stroke-width:0.8;" x="196.189968" xlink:href="#m5829881d9a" y="307.584"/>
      </g>
     </g>
     <g id="text_4">
      <!-- 75 -->
      <defs>
       <path d="M 8.203125 72.90625 
L 55.078125 72.90625 
L 55.078125 68.703125 
L 28.609375 0 
L 18.3125 0 
L 43.21875 64.59375 
L 8.203125 64.59375 
z
" id="DejaVuSans-37"/>
      </defs>
      <g transform="translate(189.827468 322.182437)scale(0.1 -0.1)">
       <use xlink:href="#DejaVuSans-37"/>
       <use x="63.623047" xlink:href="#DejaVuSans-35"/>
      </g>
     </g>
    </g>
    <g id="xtick_5">
     <g id="line2d_9">
      <path clip-path="url(#p77966d9874)" d="M 236.975715 307.584 
L 236.975715 41.472 
" style="fill:none;stroke:#b0b0b0;stroke-linecap:square;stroke-width:0.8;"/>
     </g>
     <g id="line2d_10">
      <g>
       <use style="stroke:#000000;stroke-width:0.8;" x="236.975715" xlink:href="#m5829881d9a" y="307.584"/>
      </g>
     </g>
     <g id="text_5">
      <!-- 100 -->
      <defs>
       <path d="M 12.40625 8.296875 
L 28.515625 8.296875 
L 28.515625 63.921875 
L 10.984375 60.40625 
L 10.984375 69.390625 
L 28.421875 72.90625 
L 38.28125 72.90625 
L 38.28125 8.296875 
L 54.390625 8.296875 
L 54.390625 0 
L 12.40625 0 
z
" id="DejaVuSans-31"/>
      </defs>
      <g transform="translate(227.431965 322.182437)scale(0.1 -0.1)">
       <use xlink:href="#DejaVuSans-31"/>
       <use x="63.623047" xlink:href="#DejaVuSans-30"/>
       <use x="127.246094" xlink:href="#DejaVuSans-30"/>
      </g>
     </g>
    </g>
    <g id="xtick_6">
     <g id="line2d_11">
      <path clip-path="url(#p77966d9874)" d="M 277.761462 307.584 
L 277.761462 41.472 
" style="fill:none;stroke:#b0b0b0;stroke-linecap:square;stroke-width:0.8;"/>
     </g>
     <g id="line2d_12">
      <g>
       <use style="stroke:#000000;stroke-width:0.8;" x="277.761462" xlink:href="#m5829881d9a" y="307.584"/>
      </g>
     </g>
     <g id="text_6">
      <!-- 125 -->
      <g transform="translate(268.217712 322.182437)scale(0.1 -0.1)">
       <use xlink:href="#DejaVuSans-31"/>
       <use x="63.623047" xlink:href="#DejaVuSans-32"/>
       <use x="127.246094" xlink:href="#DejaVuSans-35"/>
      </g>
     </g>
    </g>
    <g id="xtick_7">
     <g id="line2d_13">
      <path clip-path="url(#p77966d9874)" d="M 318.547209 307.584 
L 318.547209 41.472 
" style="fill:none;stroke:#b0b0b0;stroke-linecap:square;stroke-width:0.8;"/>
     </g>
     <g id="line2d_14">
      <g>
       <use style="stroke:#000000;stroke-width:0.8;" x="318.547209" xlink:href="#m5829881d9a" y="307.584"/>
      </g>
     </g>
     <g id="text_7">
      <!-- 150 -->
      <g transform="translate(309.003459 322.182437)scale(0.1 -0.1)">
       <use xlink:href="#DejaVuSans-31"/>
       <use x="63.623047" xlink:href="#DejaVuSans-35"/>
       <use x="127.246094" xlink:href="#DejaVuSans-30"/>
      </g>
     </g>
    </g>
    <g id="xtick_8">
     <g id="line2d_15">
      <path clip-path="url(#p77966d9874)" d="M 359.332956 307.584 
L 359.332956 41.472 
" style="fill:none;stroke:#b0b0b0;stroke-linecap:square;stroke-width:0.8;"/>
     </g>
     <g id="line2d_16">
      <g>
       <use style="stroke:#000000;stroke-width:0.8;" x="359.332956" xlink:href="#m5829881d9a" y="307.584"/>
      </g>
     </g>
     <g id="text_8">
      <!-- 175 -->
      <g transform="translate(349.789206 322.182437)scale(0.1 -0.1)">
       <use xlink:href="#DejaVuSans-31"/>
       <use x="63.623047" xlink:href="#DejaVuSans-37"/>
       <use x="127.246094" xlink:href="#DejaVuSans-35"/>
      </g>
     </g>
    </g>
    <g id="xtick_9">
     <g id="line2d_17">
      <path clip-path="url(#p77966d9874)" d="M 400.118703 307.584 
L 400.118703 41.472 
" style="fill:none;stroke:#b0b0b0;stroke-linecap:square;stroke-width:0.8;"/>
     </g>
     <g id="line2d_18">
      <g>
       <use style="stroke:#000000;stroke-width:0.8;" x="400.118703" xlink:href="#m5829881d9a" y="307.584"/>
      </g>
     </g>
     <g id="text_9">
      <!-- 200 -->
      <g transform="translate(390.574953 322.182437)scale(0.1 -0.1)">
       <use xlink:href="#DejaVuSans-32"/>
       <use x="63.623047" xlink:href="#DejaVuSans-30"/>
       <use x="127.246094" xlink:href="#DejaVuSans-30"/>
      </g>
     </g>
    </g>
    <g id="text_10">
     <!-- Generations -->
     <defs>
      <path d="M 59.515625 10.40625 
L 59.515625 29.984375 
L 43.40625 29.984375 
L 43.40625 38.09375 
L 69.28125 38.09375 
L 69.28125 6.78125 
Q 63.578125 2.734375 56.6875 0.65625 
Q 49.8125 -1.421875 42 -1.421875 
Q 24.90625 -1.421875 15.25 8.5625 
Q 5.609375 18.5625 5.609375 36.375 
Q 5.609375 54.25 15.25 64.234375 
Q 24.90625 74.21875 42 74.21875 
Q 49.125 74.21875 55.546875 72.453125 
Q 61.96875 70.703125 67.390625 67.28125 
L 67.390625 56.78125 
Q 61.921875 61.421875 55.765625 63.765625 
Q 49.609375 66.109375 42.828125 66.109375 
Q 29.4375 66.109375 22.71875 58.640625 
Q 16.015625 51.171875 16.015625 36.375 
Q 16.015625 21.625 22.71875 14.15625 
Q 29.4375 6.6875 42.828125 6.6875 
Q 48.046875 6.6875 52.140625 7.59375 
Q 56.25 8.5 59.515625 10.40625 
z
" id="DejaVuSans-47"/>
      <path d="M 56.203125 29.59375 
L 56.203125 25.203125 
L 14.890625 25.203125 
Q 15.484375 15.921875 20.484375 11.0625 
Q 25.484375 6.203125 34.421875 6.203125 
Q 39.59375 6.203125 44.453125 7.46875 
Q 49.3125 8.734375 54.109375 11.28125 
L 54.109375 2.78125 
Q 49.265625 0.734375 44.1875 -0.34375 
Q 39.109375 -1.421875 33.890625 -1.421875 
Q 20.796875 -1.421875 13.15625 6.1875 
Q 5.515625 13.8125 5.515625 26.8125 
Q 5.515625 40.234375 12.765625 48.109375 
Q 20.015625 56 32.328125 56 
Q 43.359375 56 49.78125 48.890625 
Q 56.203125 41.796875 56.203125 29.59375 
z
M 47.21875 32.234375 
Q 47.125 39.59375 43.09375 43.984375 
Q 39.0625 48.390625 32.421875 48.390625 
Q 24.90625 48.390625 20.390625 44.140625 
Q 15.875 39.890625 15.1875 32.171875 
z
" id="DejaVuSans-65"/>
      <path d="M 54.890625 33.015625 
L 54.890625 0 
L 45.90625 0 
L 45.90625 32.71875 
Q 45.90625 40.484375 42.875 44.328125 
Q 39.84375 48.1875 33.796875 48.1875 
Q 26.515625 48.1875 22.3125 43.546875 
Q 18.109375 38.921875 18.109375 30.90625 
L 18.109375 0 
L 9.078125 0 
L 9.078125 54.6875 
L 18.109375 54.6875 
L 18.109375 46.1875 
Q 21.34375 51.125 25.703125 53.5625 
Q 30.078125 56 35.796875 56 
Q 45.21875 56 50.046875 50.171875 
Q 54.890625 44.34375 54.890625 33.015625 
z
" id="DejaVuSans-6e"/>
      <path d="M 41.109375 46.296875 
Q 39.59375 47.171875 37.8125 47.578125 
Q 36.03125 48 33.890625 48 
Q 26.265625 48 22.1875 43.046875 
Q 18.109375 38.09375 18.109375 28.8125 
L 18.109375 0 
L 9.078125 0 
L 9.078125 54.6875 
L 18.109375 54.6875 
L 18.109375 46.1875 
Q 20.953125 51.171875 25.484375 53.578125 
Q 30.03125 56 36.53125 56 
Q 37.453125 56 38.578125 55.875 
Q 39.703125 55.765625 41.0625 55.515625 
z
" id="DejaVuSans-72"/>
      <path d="M 34.28125 27.484375 
Q 23.390625 27.484375 19.1875 25 
Q 14.984375 22.515625 14.984375 16.5 
Q 14.984375 11.71875 18.140625 8.90625 
Q 21.296875 6.109375 26.703125 6.109375 
Q 34.1875 6.109375 38.703125 11.40625 
Q 43.21875 16.703125 43.21875 25.484375 
L 43.21875 27.484375 
z
M 52.203125 31.203125 
L 52.203125 0 
L 43.21875 0 
L 43.21875 8.296875 
Q 40.140625 3.328125 35.546875 0.953125 
Q 30.953125 -1.421875 24.3125 -1.421875 
Q 15.921875 -1.421875 10.953125 3.296875 
Q 6 8.015625 6 15.921875 
Q 6 25.140625 12.171875 29.828125 
Q 18.359375 34.515625 30.609375 34.515625 
L 43.21875 34.515625 
L 43.21875 35.40625 
Q 43.21875 41.609375 39.140625 45 
Q 35.0625 48.390625 27.6875 48.390625 
Q 23 48.390625 18.546875 47.265625 
Q 14.109375 46.140625 10.015625 43.890625 
L 10.015625 52.203125 
Q 14.9375 54.109375 19.578125 55.046875 
Q 24.21875 56 28.609375 56 
Q 40.484375 56 46.34375 49.84375 
Q 52.203125 43.703125 52.203125 31.203125 
z
" id="DejaVuSans-61"/>
      <path d="M 18.3125 70.21875 
L 18.3125 54.6875 
L 36.8125 54.6875 
L 36.8125 47.703125 
L 18.3125 47.703125 
L 18.3125 18.015625 
Q 18.3125 11.328125 20.140625 9.421875 
Q 21.96875 7.515625 27.59375 7.515625 
L 36.8125 7.515625 
L 36.8125 0 
L 27.59375 0 
Q 17.1875 0 13.234375 3.875 
Q 9.28125 7.765625 9.28125 18.015625 
L 9.28125 47.703125 
L 2.6875 47.703125 
L 2.6875 54.6875 
L 9.28125 54.6875 
L 9.28125 70.21875 
z
" id="DejaVuSans-74"/>
      <path d="M 9.421875 54.6875 
L 18.40625 54.6875 
L 18.40625 0 
L 9.421875 0 
z
M 9.421875 75.984375 
L 18.40625 75.984375 
L 18.40625 64.59375 
L 9.421875 64.59375 
z
" id="DejaVuSans-69"/>
      <path d="M 30.609375 48.390625 
Q 23.390625 48.390625 19.1875 42.75 
Q 14.984375 37.109375 14.984375 27.296875 
Q 14.984375 17.484375 19.15625 11.84375 
Q 23.34375 6.203125 30.609375 6.203125 
Q 37.796875 6.203125 41.984375 11.859375 
Q 46.1875 17.53125 46.1875 27.296875 
Q 46.1875 37.015625 41.984375 42.703125 
Q 37.796875 48.390625 30.609375 48.390625 
z
M 30.609375 56 
Q 42.328125 56 49.015625 48.375 
Q 55.71875 40.765625 55.71875 27.296875 
Q 55.71875 13.875 49.015625 6.21875 
Q 42.328125 -1.421875 30.609375 -1.421875 
Q 18.84375 -1.421875 12.171875 6.21875 
Q 5.515625 13.875 5.515625 27.296875 
Q 5.515625 40.765625 12.171875 48.375 
Q 18.84375 56 30.609375 56 
z
" id="DejaVuSans-6f"/>
      <path d="M 44.28125 53.078125 
L 44.28125 44.578125 
Q 40.484375 46.53125 36.375 47.5 
Q 32.28125 48.484375 27.875 48.484375 
Q 21.1875 48.484375 17.84375 46.4375 
Q 14.5 44.390625 14.5 40.28125 
Q 14.5 37.15625 16.890625 35.375 
Q 19.28125 33.59375 26.515625 31.984375 
L 29.59375 31.296875 
Q 39.15625 29.25 43.1875 25.515625 
Q 47.21875 21.78125 47.21875 15.09375 
Q 47.21875 7.46875 41.1875 3.015625 
Q 35.15625 -1.421875 24.609375 -1.421875 
Q 20.21875 -1.421875 15.453125 -0.5625 
Q 10.6875 0.296875 5.421875 2 
L 5.421875 11.28125 
Q 10.40625 8.6875 15.234375 7.390625 
Q 20.0625 6.109375 24.8125 6.109375 
Q 31.15625 6.109375 34.5625 8.28125 
Q 37.984375 10.453125 37.984375 14.40625 
Q 37.984375 18.0625 35.515625 20.015625 
Q 33.0625 21.96875 24.703125 23.78125 
L 21.578125 24.515625 
Q 13.234375 26.265625 9.515625 29.90625 
Q 5.8125 33.546875 5.8125 39.890625 
Q 5.8125 47.609375 11.28125 51.796875 
Q 16.75 56 26.8125 56 
Q 31.78125 56 36.171875 55.265625 
Q 40.578125 54.546875 44.28125 53.078125 
z
" id="DejaVuSans-73"/>
     </defs>
     <g transform="translate(205.662344 335.860562)scale(0.1 -0.1)">
      <use xlink:href="#DejaVuSans-47"/>
      <use x="77.490234" xlink:href="#DejaVuSans-65"/>
      <use x="139.013672" xlink:href="#DejaVuSans-6e"/>
      <use x="202.392578" xlink:href="#DejaVuSans-65"/>
      <use x="263.916016" xlink:href="#DejaVuSans-72"/>
      <use x="305.029297" xlink:href="#DejaVuSans-61"/>
      <use x="366.308594" xlink:href="#DejaVuSans-74"/>
      <use x="405.517578" xlink:href="#DejaVuSans-69"/>
      <use x="433.300781" xlink:href="#DejaVuSans-6f"/>
      <use x="494.482422" xlink:href="#DejaVuSans-6e"/>
      <use x="557.861328" xlink:href="#DejaVuSans-73"/>
     </g>
    </g>
   </g>
   <g id="matplotlib.axis_2">
    <g id="ytick_1">
     <g id="line2d_19">
      <path clip-path="url(#p77966d9874)" d="M 57.6 287.906727 
L 414.72 287.906727 
" style="fill:none;stroke:#b0b0b0;stroke-linecap:square;stroke-width:0.8;"/>
     </g>
     <g id="line2d_20">
      <defs>
       <path d="M 0 0 
L -3.5 0 
" id="m57b3dc1528" style="stroke:#000000;stroke-width:0.8;"/>
      </defs>
      <g>
       <use style="stroke:#000000;stroke-width:0.8;" x="57.6" xlink:href="#m57b3dc1528" y="287.906727"/>
      </g>
     </g>
     <g id="text_11">
      <!-- 0 -->
      <g transform="translate(44.2375 291.705945)scale(0.1 -0.1)">
       <use xlink:href="#DejaVuSans-30"/>
      </g>
     </g>
    </g>
    <g id="ytick_2">
     <g id="line2d_21">
      <path clip-path="url(#p77966d9874)" d="M 57.6 241.594725 
L 414.72 241.594725 
" style="fill:none;stroke:#b0b0b0;stroke-linecap:square;stroke-width:0.8;"/>
     </g>
     <g id="line2d_22">
      <g>
       <use style="stroke:#000000;stroke-width:0.8;" x="57.6" xlink:href="#m57b3dc1528" y="241.594725"/>
      </g>
     </g>
     <g id="text_12">
      <!-- 50 -->
      <g transform="translate(37.875 245.393944)scale(0.1 -0.1)">
       <use xlink:href="#DejaVuSans-35"/>
       <use x="63.623047" xlink:href="#DejaVuSans-30"/>
      </g>
     </g>
    </g>
    <g id="ytick_3">
     <g id="line2d_23">
      <path clip-path="url(#p77966d9874)" d="M 57.6 195.282724 
L 414.72 195.282724 
" style="fill:none;stroke:#b0b0b0;stroke-linecap:square;stroke-width:0.8;"/>
     </g>
     <g id="line2d_24">
      <g>
       <use style="stroke:#000000;stroke-width:0.8;" x="57.6" xlink:href="#m57b3dc1528" y="195.282724"/>
      </g>
     </g>
     <g id="text_13">
      <!-- 100 -->
      <g transform="translate(31.5125 199.081943)scale(0.1 -0.1)">
       <use xlink:href="#DejaVuSans-31"/>
       <use x="63.623047" xlink:href="#DejaVuSans-30"/>
       <use x="127.246094" xlink:href="#DejaVuSans-30"/>
      </g>
     </g>
    </g>
    <g id="ytick_4">
     <g id="line2d_25">
      <path clip-path="url(#p77966d9874)" d="M 57.6 148.970723 
L 414.72 148.970723 
" style="fill:none;stroke:#b0b0b0;stroke-linecap:square;stroke-width:0.8;"/>
     </g>
     <g id="line2d_26">
      <g>
       <use style="stroke:#000000;stroke-width:0.8;" x="57.6" xlink:href="#m57b3dc1528" y="148.970723"/>
      </g>
     </g>
     <g id="text_14">
      <!-- 150 -->
      <g transform="translate(31.5125 152.769941)scale(0.1 -0.1)">
       <use xlink:href="#DejaVuSans-31"/>
       <use x="63.623047" xlink:href="#DejaVuSans-35"/>
       <use x="127.246094" xlink:href="#DejaVuSans-30"/>
      </g>
     </g>
    </g>
    <g id="ytick_5">
     <g id="line2d_27">
      <path clip-path="url(#p77966d9874)" d="M 57.6 102.658721 
L 414.72 102.658721 
" style="fill:none;stroke:#b0b0b0;stroke-linecap:square;stroke-width:0.8;"/>
     </g>
     <g id="line2d_28">
      <g>
       <use style="stroke:#000000;stroke-width:0.8;" x="57.6" xlink:href="#m57b3dc1528" y="102.658721"/>
      </g>
     </g>
     <g id="text_15">
      <!-- 200 -->
      <g transform="translate(31.5125 106.45794)scale(0.1 -0.1)">
       <use xlink:href="#DejaVuSans-32"/>
       <use x="63.623047" xlink:href="#DejaVuSans-30"/>
       <use x="127.246094" xlink:href="#DejaVuSans-30"/>
      </g>
     </g>
    </g>
    <g id="ytick_6">
     <g id="line2d_29">
      <path clip-path="url(#p77966d9874)" d="M 57.6 56.34672 
L 414.72 56.34672 
" style="fill:none;stroke:#b0b0b0;stroke-linecap:square;stroke-width:0.8;"/>
     </g>
     <g id="line2d_30">
      <g>
       <use style="stroke:#000000;stroke-width:0.8;" x="57.6" xlink:href="#m57b3dc1528" y="56.34672"/>
      </g>
     </g>
     <g id="text_16">
      <!-- 250 -->
      <g transform="translate(31.5125 60.145939)scale(0.1 -0.1)">
       <use xlink:href="#DejaVuSans-32"/>
       <use x="63.623047" xlink:href="#DejaVuSans-35"/>
       <use x="127.246094" xlink:href="#DejaVuSans-30"/>
      </g>
     </g>
    </g>
    <g id="text_17">
     <!-- Fitness -->
     <defs>
      <path d="M 9.8125 72.90625 
L 51.703125 72.90625 
L 51.703125 64.59375 
L 19.671875 64.59375 
L 19.671875 43.109375 
L 48.578125 43.109375 
L 48.578125 34.8125 
L 19.671875 34.8125 
L 19.671875 0 
L 9.8125 0 
z
" id="DejaVuSans-46"/>
     </defs>
     <g transform="translate(25.432812 192.202219)rotate(-90)scale(0.1 -0.1)">
      <use xlink:href="#DejaVuSans-46"/>
      <use x="57.410156" xlink:href="#DejaVuSans-69"/>
      <use x="85.193359" xlink:href="#DejaVuSans-74"/>
      <use x="124.402344" xlink:href="#DejaVuSans-6e"/>
      <use x="187.78125" xlink:href="#DejaVuSans-65"/>
      <use x="249.304688" xlink:href="#DejaVuSans-73"/>
      <use x="301.404297" xlink:href="#DejaVuSans-73"/>
     </g>
    </g>
   </g>
   <g id="line2d_31">
    <path clip-path="url(#p77966d9874)" d="M 73.832727 281.628878 
L 75.464157 278.582577 
L 77.095587 274.651203 
L 80.358447 275.104031 
L 85.252736 274.335297 
L 86.884166 275.536276 
L 88.515596 268.74385 
L 90.147026 265.171744 
L 91.778456 260.407689 
L 93.409886 254.541503 
L 98.304175 245.731931 
L 99.935605 232.732292 
L 101.567035 237.026678 
L 103.198465 237.668273 
L 104.829895 211.239314 
L 106.461325 198.473106 
L 108.092755 216.153999 
L 109.724185 205.759528 
L 111.355614 202.980808 
L 112.987044 205.368449 
L 114.618474 217.01849 
L 116.249904 216.42158 
L 117.881334 217.512485 
L 119.512764 215.418377 
L 121.144194 197.711531 
L 122.775624 197.980901 
L 124.407053 195.879634 
L 126.038483 196.58788 
L 127.669913 190.756778 
L 129.301343 186.967147 
L 130.932773 170.727072 
L 132.564203 191.093593 
L 134.195633 207.879588 
L 137.458492 194.861706 
L 139.089922 184.641255 
L 140.721352 207.786964 
L 142.352782 192.020748 
L 143.984212 185.388796 
L 145.615642 195.956353 
L 148.878502 209.052826 
L 150.509931 179.474894 
L 152.141361 182.253614 
L 153.772791 188.263883 
L 155.404221 210.925889 
L 157.035651 179.57781 
L 158.667081 160.126769 
L 160.298511 180.689298 
L 161.929941 189.10779 
L 163.56137 163.028988 
L 165.1928 188.078635 
L 166.82423 199.666927 
L 168.45566 153.293176 
L 170.08709 160.39435 
L 171.71852 177.107836 
L 173.34995 191.083769 
L 174.98138 170.068412 
L 176.61281 167.248526 
L 178.244239 169.883164 
L 179.875669 184.908836 
L 181.507099 185.546912 
L 183.138529 186.576068 
L 184.769959 183.28277 
L 186.401389 161.58817 
L 188.032819 166.013539 
L 189.664249 161.361756 
L 191.295678 172.888298 
L 192.927108 173.629291 
L 194.558538 183.509184 
L 196.189968 170.994652 
L 197.821398 187.975719 
L 199.452828 166.095872 
L 201.084258 168.339431 
L 202.715688 180.359968 
L 204.347117 154.528163 
L 205.978547 180.668715 
L 207.609977 194.274152 
L 209.241407 176.161013 
L 210.872837 162.370328 
L 212.504267 195.467972 
L 214.135697 172.620718 
L 215.767127 174.082119 
L 217.398556 185.238165 
L 219.029986 153.869503 
L 220.661416 208.702913 
L 222.292846 177.293084 
L 223.924276 162.205664 
L 225.555706 165.004967 
L 227.187136 168.1336 
L 228.818566 166.28112 
L 230.449995 168.1336 
L 232.081425 166.404618 
L 233.712855 168.236515 
L 235.344285 181.347957 
L 236.975715 175.070108 
L 238.607145 181.821369 
L 240.238575 153.828337 
L 243.501434 164.840302 
L 245.132864 171.488647 
L 246.764294 181.306791 
L 248.395724 188.654962 
L 250.027154 138.493919 
L 251.658584 195.612054 
L 253.290014 160.291434 
L 254.921444 143.619114 
L 256.552873 161.094175 
L 258.184303 176.634425 
L 259.815733 187.131812 
L 261.447163 154.692828 
L 264.710023 188.099218 
L 266.341453 176.552092 
L 267.972883 175.831683 
L 269.604312 173.197045 
L 271.235742 184.744171 
L 272.867172 193.821323 
L 274.498602 191.495431 
L 276.130032 180.257052 
L 277.761462 177.99291 
L 279.392892 152.408102 
L 281.024322 187.666973 
L 282.655751 175.296523 
L 284.287181 173.649874 
L 285.918611 192.54517 
L 287.550041 177.06667 
L 289.181471 170.171328 
L 290.812901 191.721846 
L 292.444331 162.84374 
L 294.075761 157.080469 
L 295.70719 168.648177 
L 297.33862 183.6121 
L 298.97005 174.843694 
L 300.60148 189.066624 
L 302.23291 173.217628 
L 303.86434 167.968935 
L 305.49577 184.867669 
L 307.1272 189.066624 
L 308.75863 162.432078 
L 310.390059 173.855705 
L 312.021489 157.965543 
L 313.652919 155.866065 
L 315.284349 202.075151 
L 316.915779 209.587987 
L 318.547209 202.857309 
L 320.178639 180.751047 
L 321.810069 186.143822 
L 323.441498 172.414887 
L 325.072928 169.080423 
L 326.704358 164.03756 
L 328.335788 146.150836 
L 329.967218 202.527979 
L 331.598648 183.673849 
L 333.230078 161.752835 
L 334.861508 175.090691 
L 336.492937 151.543612 
L 338.124367 191.886511 
L 339.755797 169.121589 
L 341.387227 186.534902 
L 343.018657 139.193745 
L 344.650087 160.085603 
L 346.281517 157.533297 
L 347.912947 164.716803 
L 349.544376 160.99126 
L 351.175806 154.157667 
L 352.807236 169.183338 
L 354.438666 141.47847 
L 356.070096 150.47329 
L 357.701526 133.47164 
L 359.332956 159.797439 
L 360.964386 139.234911 
L 362.595815 139.214328 
L 364.227245 171.138734 
L 365.858675 144.339523 
L 367.490105 144.710019 
L 369.121535 150.555622 
L 370.752965 171.468064 
L 372.384395 150.205709 
L 374.015825 179.083815 
L 375.647254 156.071896 
L 377.278684 153.190261 
L 378.910114 159.221112 
L 380.541544 138.617418 
L 382.172974 166.816281 
L 383.804404 178.404572 
L 385.435834 125.958804 
L 387.067264 146.397834 
L 388.698693 141.046225 
L 390.330123 166.980945 
L 391.961553 159.179946 
L 393.592983 149.176554 
L 395.224413 152.490435 
L 396.855843 168.977507 
L 398.487273 159.612191 
L 398.487273 159.612191 
" style="fill:none;stroke:#0000ff;stroke-linecap:square;stroke-width:1.5;"/>
   </g>
   <g id="line2d_32">
    <path clip-path="url(#p77966d9874)" d="M 73.832727 288.039782 
L 75.464157 285.191198 
L 77.095587 283.227077 
L 78.727017 283.436975 
L 80.358447 284.580671 
L 83.621307 283.204677 
L 85.252736 282.606811 
L 86.884166 284.751536 
L 88.515596 281.948425 
L 90.147026 285.788227 
L 91.778456 285.400402 
L 93.409886 279.644327 
L 95.041316 279.896111 
L 96.672746 281.848216 
L 98.304175 282.414674 
L 99.935605 276.93998 
L 101.567035 286.954443 
L 103.198465 291.548334 
L 104.829895 268.342683 
L 106.461325 260.544107 
L 108.092755 282.398288 
L 109.724185 274.548626 
L 111.355614 275.716131 
L 112.987044 274.1377 
L 114.618474 289.695018 
L 116.249904 291.433753 
L 117.881334 290.007121 
L 119.512764 288.863412 
L 121.144194 270.421547 
L 122.775624 268.728176 
L 124.407053 271.410747 
L 126.038483 272.565312 
L 127.669913 270.850427 
L 129.301343 265.141046 
L 130.932773 252.218327 
L 134.195633 289.520617 
L 135.827063 282.175327 
L 137.458492 266.426848 
L 139.089922 254.228296 
L 140.721352 285.827465 
L 142.352782 271.065053 
L 143.984212 263.528242 
L 145.615642 278.486358 
L 147.247072 279.165815 
L 148.878502 286.790947 
L 150.509931 263.339812 
L 152.141361 261.167573 
L 153.772791 263.343683 
L 155.404221 282.919953 
L 157.035651 249.267332 
L 158.667081 234.984171 
L 160.298511 263.520951 
L 161.929941 277.368308 
L 163.56137 247.015641 
L 165.1928 271.26828 
L 166.82423 280.060293 
L 168.45566 227.623321 
L 170.08709 239.35893 
L 173.34995 272.790204 
L 174.98138 246.722916 
L 176.61281 244.943423 
L 178.244239 252.00734 
L 179.875669 267.046965 
L 181.507099 263.833435 
L 183.138529 266.598632 
L 184.769959 264.438865 
L 186.401389 240.078665 
L 188.032819 241.319986 
L 189.664249 236.631964 
L 191.295678 261.029562 
L 192.927108 258.593164 
L 194.558538 273.643253 
L 196.189968 254.559754 
L 197.821398 275.393942 
L 199.452828 249.945153 
L 201.084258 257.384203 
L 202.715688 270.339412 
L 204.347117 238.409356 
L 205.978547 270.211615 
L 207.609977 274.486947 
L 210.872837 251.067311 
L 212.504267 283.159333 
L 214.135697 256.543857 
L 215.767127 263.385454 
L 217.398556 267.818513 
L 219.029986 236.92101 
L 220.661416 295.488 
L 222.292846 266.649192 
L 223.924276 250.930374 
L 225.555706 247.311717 
L 227.187136 250.974152 
L 228.818566 245.549524 
L 230.449995 243.743844 
L 232.081425 251.845995 
L 233.712855 258.709638 
L 235.344285 262.749639 
L 236.975715 261.10918 
L 238.607145 271.644814 
L 240.238575 234.21785 
L 241.870005 239.585851 
L 243.501434 239.60434 
L 245.132864 259.637596 
L 246.764294 265.95741 
L 248.395724 274.580433 
L 250.027154 219.487493 
L 251.658584 278.91375 
L 253.290014 244.663238 
L 254.921444 228.124357 
L 256.552873 246.287409 
L 258.184303 261.191251 
L 259.815733 263.875976 
L 261.447163 226.851434 
L 263.078593 254.81493 
L 264.710023 270.96907 
L 266.341453 264.925917 
L 267.972883 257.536578 
L 271.235742 266.69982 
L 272.867172 278.340237 
L 274.498602 273.271422 
L 276.130032 259.328249 
L 277.761462 264.387932 
L 279.392892 233.069759 
L 281.024322 269.947096 
L 282.655751 258.218888 
L 284.287181 252.445789 
L 285.918611 268.780209 
L 287.550041 259.139876 
L 289.181471 256.243837 
L 290.812901 274.262243 
L 292.444331 241.643365 
L 294.075761 240.367746 
L 295.70719 249.84589 
L 297.33862 268.527517 
L 298.97005 252.463959 
L 300.60148 270.028839 
L 302.23291 253.090408 
L 303.86434 257.038497 
L 305.49577 264.003762 
L 307.1272 274.921658 
L 308.75863 243.954905 
L 310.390059 253.910473 
L 312.021489 245.078869 
L 313.652919 233.241593 
L 315.284349 276.043019 
L 316.915779 288.914749 
L 318.547209 281.834271 
L 320.178639 261.24121 
L 321.810069 273.10469 
L 325.072928 240.045327 
L 326.704358 241.581647 
L 328.335788 217.51206 
L 329.967218 285.132179 
L 331.598648 260.686584 
L 333.230078 232.853809 
L 334.861508 256.073385 
L 336.492937 220.310275 
L 338.124367 282.146424 
L 339.755797 254.160122 
L 341.387227 275.571909 
L 343.018657 219.702317 
L 344.650087 242.720888 
L 346.281517 242.904105 
L 347.912947 246.903753 
L 349.544376 234.481916 
L 351.175806 218.390749 
L 352.807236 251.329519 
L 354.438666 212.98298 
L 356.070096 235.856632 
L 357.701526 202.165215 
L 359.332956 244.099603 
L 360.964386 215.876912 
L 362.595815 217.270617 
L 364.227245 252.74753 
L 365.858675 214.509702 
L 367.490105 227.050714 
L 369.121535 233.298031 
L 370.752965 255.658164 
L 372.384395 226.447511 
L 374.015825 261.149964 
L 375.647254 238.514081 
L 377.278684 235.328379 
L 378.910114 243.858798 
L 380.541544 215.386839 
L 382.172974 256.301358 
L 383.804404 260.389202 
L 385.435834 198.039074 
L 387.067264 226.546922 
L 388.698693 212.532264 
L 390.330123 248.522937 
L 391.961553 242.263553 
L 393.592983 229.349663 
L 395.224413 223.813082 
L 396.855843 250.08342 
L 398.487273 236.466333 
L 398.487273 236.466333 
" style="fill:none;stroke:#008000;stroke-dasharray:9.6,2.4,1.5,2.4;stroke-dashoffset:0;stroke-width:1.5;"/>
   </g>
   <g id="line2d_33">
    <path clip-path="url(#p77966d9874)" d="M 73.832727 275.217973 
L 75.464157 271.973956 
L 77.095587 266.075329 
L 78.727017 266.318259 
L 80.358447 265.627391 
L 83.621307 266.221227 
L 85.252736 266.063782 
L 86.884166 266.321017 
L 90.147026 244.555261 
L 91.778456 235.414977 
L 95.041316 223.258958 
L 96.672746 215.024326 
L 98.304175 209.049187 
L 99.935605 188.524605 
L 101.567035 187.098912 
L 103.198465 183.788212 
L 104.829895 154.135944 
L 106.461325 136.402106 
L 108.092755 149.909711 
L 109.724185 136.97043 
L 111.355614 130.245485 
L 112.987044 136.599198 
L 114.618474 144.341962 
L 116.249904 141.409406 
L 117.881334 145.017848 
L 119.512764 141.973341 
L 121.144194 125.001515 
L 122.775624 127.233627 
L 124.407053 120.348521 
L 126.038483 120.610449 
L 127.669913 110.663129 
L 129.301343 108.793247 
L 130.932773 89.235816 
L 132.564203 111.471597 
L 134.195633 126.23856 
L 135.827063 120.310427 
L 137.458492 123.296563 
L 139.089922 115.054214 
L 140.721352 129.746464 
L 142.352782 112.976444 
L 143.984212 107.249351 
L 145.615642 113.426348 
L 147.247072 125.478481 
L 148.878502 131.314705 
L 150.509931 95.609976 
L 152.141361 103.339655 
L 153.772791 113.184083 
L 155.404221 138.931825 
L 157.035651 109.888287 
L 158.667081 85.269368 
L 160.298511 97.857644 
L 161.929941 100.847273 
L 163.56137 79.042335 
L 165.1928 104.88899 
L 166.82423 119.273561 
L 168.45566 78.963031 
L 170.08709 81.429769 
L 171.71852 97.961835 
L 173.34995 109.377335 
L 174.98138 93.413909 
L 176.61281 89.553629 
L 178.244239 87.758989 
L 179.875669 102.770707 
L 181.507099 107.26039 
L 183.138529 106.553504 
L 184.769959 102.126674 
L 186.401389 83.097675 
L 188.032819 90.707092 
L 189.664249 86.091548 
L 191.295678 84.747035 
L 192.927108 88.665417 
L 194.558538 93.375115 
L 196.189968 87.429551 
L 197.821398 100.557497 
L 199.452828 82.24659 
L 201.084258 79.294658 
L 202.715688 90.380524 
L 204.347117 70.64697 
L 205.978547 91.125815 
L 207.609977 114.061356 
L 209.241407 89.24805 
L 210.872837 73.673346 
L 212.504267 107.776611 
L 214.135697 88.697579 
L 215.767127 84.778784 
L 217.398556 102.657818 
L 219.029986 70.817997 
L 220.661416 121.917826 
L 222.292846 87.936977 
L 223.924276 73.480953 
L 225.555706 82.698217 
L 227.187136 85.293047 
L 228.818566 87.012716 
L 230.449995 92.523355 
L 232.081425 80.963242 
L 233.712855 77.763392 
L 235.344285 99.946276 
L 236.975715 89.031037 
L 238.607145 91.997924 
L 240.238575 73.438824 
L 241.870005 78.938706 
L 243.501434 90.076263 
L 245.132864 83.339698 
L 246.764294 96.656172 
L 248.395724 102.729491 
L 250.027154 57.500345 
L 251.658584 112.310357 
L 253.290014 75.91963 
L 254.921444 59.113871 
L 259.815733 110.387647 
L 261.447163 82.534221 
L 263.078593 87.215541 
L 264.710023 105.229366 
L 266.341453 88.178268 
L 267.972883 94.126789 
L 269.604312 84.106865 
L 271.235742 102.788521 
L 272.867172 109.30241 
L 274.498602 109.719441 
L 276.130032 101.185856 
L 277.761462 91.597889 
L 279.392892 71.746446 
L 281.024322 105.386849 
L 282.655751 92.374157 
L 284.287181 94.853958 
L 285.918611 116.310131 
L 287.550041 94.993464 
L 289.181471 84.098819 
L 290.812901 109.181448 
L 292.444331 84.044115 
L 294.075761 73.793192 
L 295.70719 87.450465 
L 297.33862 98.696683 
L 298.97005 97.223429 
L 300.60148 108.10441 
L 303.86434 78.899372 
L 305.49577 105.731577 
L 307.1272 103.211591 
L 308.75863 80.90925 
L 310.390059 93.800937 
L 312.021489 70.852216 
L 313.652919 78.490537 
L 315.284349 128.107282 
L 316.915779 130.261224 
L 318.547209 123.880347 
L 320.178639 100.260884 
L 321.810069 99.182955 
L 323.441498 88.779334 
L 325.072928 98.115519 
L 328.335788 74.789613 
L 329.967218 119.92378 
L 331.598648 106.661114 
L 333.230078 90.651861 
L 334.861508 94.107998 
L 336.492937 82.776948 
L 338.124367 101.626597 
L 339.755797 84.083057 
L 341.387227 97.497894 
L 343.018657 58.685172 
L 344.650087 77.450318 
L 346.281517 72.16249 
L 347.912947 82.529853 
L 349.544376 87.500604 
L 351.175806 89.924585 
L 352.807236 87.037158 
L 354.438666 69.973961 
L 356.070096 65.089948 
L 357.701526 64.778065 
L 359.332956 75.495276 
L 360.964386 62.59291 
L 362.595815 61.158039 
L 364.227245 89.529938 
L 365.858675 74.169343 
L 367.490105 62.369324 
L 369.121535 67.813213 
L 370.752965 87.277964 
L 372.384395 73.963908 
L 374.015825 97.017666 
L 375.647254 73.629712 
L 377.278684 71.052142 
L 378.910114 74.583427 
L 380.541544 61.847996 
L 382.172974 77.331203 
L 383.804404 96.419943 
L 385.435834 53.878533 
L 387.067264 66.248746 
L 388.698693 69.560186 
L 390.330123 85.438954 
L 391.961553 76.096339 
L 393.592983 69.003445 
L 395.224413 81.167788 
L 396.855843 87.871595 
L 398.487273 82.75805 
L 398.487273 82.75805 
" style="fill:none;stroke:#008000;stroke-dasharray:9.6,2.4,1.5,2.4;stroke-dashoffset:0;stroke-width:1.5;"/>
   </g>
   <g id="line2d_34">
    <path clip-path="url(#p77966d9874)" d="M 73.832727 264.750726 
L 75.464157 265.676966 
L 77.095587 253.635846 
L 78.727017 244.373445 
L 80.358447 245.299685 
L 81.989877 253.635846 
L 86.884166 253.635846 
L 88.515596 213.807525 
L 90.147026 213.807525 
L 91.778456 201.766404 
L 93.409886 206.397604 
L 95.041316 201.766404 
L 96.672746 185.094084 
L 98.304175 172.126723 
L 99.935605 103.584961 
L 101.567035 85.986401 
L 103.198465 58.1992 
L 104.829895 73.945281 
L 106.461325 73.019041 
L 108.092755 66.53536 
L 109.724185 57.27296 
L 111.355614 63.75664 
L 112.987044 75.797761 
L 114.618474 68.38784 
L 116.249904 70.24032 
L 117.881334 59.12544 
L 119.512764 60.05168 
L 121.144194 69.31408 
L 122.775624 76.724001 
L 124.407053 68.38784 
L 126.038483 55.42048 
L 127.669913 63.75664 
L 129.301343 63.75664 
L 130.932773 67.4616 
L 132.564203 61.90416 
L 134.195633 60.97792 
L 135.827063 54.49424 
L 137.458492 67.4616 
L 140.721352 74.871521 
L 142.352782 62.8304 
L 143.984212 62.8304 
L 145.615642 69.31408 
L 147.247072 60.05168 
L 148.878502 69.31408 
L 150.509931 62.8304 
L 152.141361 60.05168 
L 153.772791 59.12544 
L 155.404221 80.428961 
L 157.035651 73.019041 
L 158.667081 60.05168 
L 160.298511 63.75664 
L 161.929941 58.1992 
L 163.56137 56.34672 
L 165.1928 60.97792 
L 166.82423 55.42048 
L 168.45566 55.42048 
L 170.08709 60.05168 
L 171.71852 67.4616 
L 173.34995 60.97792 
L 174.98138 67.4616 
L 176.61281 64.68288 
L 178.244239 59.12544 
L 179.875669 70.24032 
L 181.507099 70.24032 
L 183.138529 65.60912 
L 184.769959 63.75664 
L 186.401389 60.97792 
L 188.032819 65.60912 
L 189.664249 72.092801 
L 191.295678 64.68288 
L 192.927108 67.4616 
L 194.558538 64.68288 
L 196.189968 62.8304 
L 197.821398 65.60912 
L 199.452828 63.75664 
L 201.084258 62.8304 
L 202.715688 63.75664 
L 204.347117 61.90416 
L 205.978547 56.34672 
L 207.609977 64.68288 
L 209.241407 63.75664 
L 210.872837 55.42048 
L 212.504267 63.75664 
L 214.135697 66.53536 
L 215.767127 63.75664 
L 217.398556 64.68288 
L 219.029986 60.97792 
L 220.661416 60.97792 
L 222.292846 58.1992 
L 223.924276 63.75664 
L 225.555706 61.90416 
L 227.187136 63.75664 
L 228.818566 73.019041 
L 230.449995 65.60912 
L 232.081425 60.05168 
L 233.712855 62.8304 
L 235.344285 64.68288 
L 236.975715 60.05168 
L 238.607145 64.68288 
L 240.238575 62.8304 
L 241.870005 63.75664 
L 245.132864 63.75664 
L 246.764294 60.97792 
L 248.395724 60.97792 
L 250.027154 58.1992 
L 251.658584 62.8304 
L 253.290014 58.1992 
L 254.921444 58.1992 
L 256.552873 56.34672 
L 258.184303 60.97792 
L 259.815733 63.75664 
L 261.447163 59.12544 
L 263.078593 63.75664 
L 264.710023 60.97792 
L 266.341453 61.90416 
L 267.972883 64.68288 
L 269.604312 63.75664 
L 271.235742 63.75664 
L 272.867172 62.8304 
L 274.498602 64.68288 
L 276.130032 70.24032 
L 277.761462 68.38784 
L 279.392892 55.42048 
L 281.024322 59.12544 
L 282.655751 56.34672 
L 284.287181 60.97792 
L 285.918611 61.90416 
L 287.550041 64.68288 
L 289.181471 60.05168 
L 290.812901 60.05168 
L 292.444331 55.42048 
L 294.075761 55.42048 
L 295.70719 62.8304 
L 298.97005 64.68288 
L 300.60148 64.68288 
L 302.23291 67.4616 
L 303.86434 58.1992 
L 305.49577 61.90416 
L 307.1272 63.75664 
L 308.75863 63.75664 
L 310.390059 60.97792 
L 312.021489 60.97792 
L 313.652919 63.75664 
L 315.284349 60.97792 
L 316.915779 64.68288 
L 318.547209 63.75664 
L 320.178639 60.05168 
L 323.441498 63.75664 
L 325.072928 68.38784 
L 326.704358 60.97792 
L 328.335788 60.05168 
L 329.967218 67.4616 
L 331.598648 62.8304 
L 334.861508 59.12544 
L 336.492937 63.75664 
L 338.124367 59.12544 
L 339.755797 62.8304 
L 341.387227 63.75664 
L 343.018657 62.8304 
L 344.650087 62.8304 
L 346.281517 55.42048 
L 347.912947 57.27296 
L 349.544376 70.24032 
L 351.175806 73.019041 
L 352.807236 63.75664 
L 354.438666 60.97792 
L 356.070096 63.75664 
L 357.701526 60.97792 
L 359.332956 63.75664 
L 360.964386 55.42048 
L 362.595815 55.42048 
L 364.227245 73.945281 
L 365.858675 62.8304 
L 369.121535 59.12544 
L 370.752965 73.019041 
L 372.384395 62.8304 
L 375.647254 60.97792 
L 377.278684 66.53536 
L 378.910114 63.75664 
L 380.541544 63.75664 
L 382.172974 64.68288 
L 383.804404 68.38784 
L 385.435834 60.97792 
L 387.067264 58.1992 
L 388.698693 60.97792 
L 390.330123 56.34672 
L 391.961553 57.27296 
L 393.592983 56.34672 
L 395.224413 59.12544 
L 396.855843 53.568 
L 398.487273 60.05168 
L 398.487273 60.05168 
" style="fill:none;stroke:#ff0000;stroke-linecap:square;stroke-width:1.5;"/>
   </g>
   <g id="patch_3">
    <path d="M 57.6 307.584 
L 57.6 41.472 
" style="fill:none;stroke:#000000;stroke-linecap:square;stroke-linejoin:miter;stroke-width:0.8;"/>
   </g>
   <g id="patch_4">
    <path d="M 414.72 307.584 
L 414.72 41.472 
" style="fill:none;stroke:#000000;stroke-linecap:square;stroke-linejoin:miter;stroke-width:0.8;"/>
   </g>
   <g id="patch_5">
    <path d="M 57.6 307.584 
L 414.72 307.584 
" style="fill:none;stroke:#000000;stroke-linecap:square;stroke-linejoin:miter;stroke-width:0.8;"/>
   </g>
   <g id="patch_6">
    <path d="M 57.6 41.472 
L 414.72 41.472 
" style="fill:none;stroke:#000000;stroke-linecap:square;stroke-linejoin:miter;stroke-width:0.8;"/>
   </g>
   <g id="text_18">
    <!-- Population's average and best fitness -->
    <defs>
     <path d="M 19.671875 64.796875 
L 19.671875 37.40625 
L 32.078125 37.40625 
Q 38.96875 37.40625 42.71875 40.96875 
Q 46.484375 44.53125 46.484375 51.125 
Q 46.484375 57.671875 42.71875 61.234375 
Q 38.96875 64.796875 32.078125 64.796875 
z
M 9.8125 72.90625 
L 32.078125 72.90625 
Q 44.34375 72.90625 50.609375 67.359375 
Q 56.890625 61.8125 56.890625 51.125 
Q 56.890625 40.328125 50.609375 34.8125 
Q 44.34375 29.296875 32.078125 29.296875 
L 19.671875 29.296875 
L 19.671875 0 
L 9.8125 0 
z
" id="DejaVuSans-50"/>
     <path d="M 18.109375 8.203125 
L 18.109375 -20.796875 
L 9.078125 -20.796875 
L 9.078125 54.6875 
L 18.109375 54.6875 
L 18.109375 46.390625 
Q 20.953125 51.265625 25.265625 53.625 
Q 29.59375 56 35.59375 56 
Q 45.5625 56 51.78125 48.09375 
Q 58.015625 40.1875 58.015625 27.296875 
Q 58.015625 14.40625 51.78125 6.484375 
Q 45.5625 -1.421875 35.59375 -1.421875 
Q 29.59375 -1.421875 25.265625 0.953125 
Q 20.953125 3.328125 18.109375 8.203125 
z
M 48.6875 27.296875 
Q 48.6875 37.203125 44.609375 42.84375 
Q 40.53125 48.484375 33.40625 48.484375 
Q 26.265625 48.484375 22.1875 42.84375 
Q 18.109375 37.203125 18.109375 27.296875 
Q 18.109375 17.390625 22.1875 11.75 
Q 26.265625 6.109375 33.40625 6.109375 
Q 40.53125 6.109375 44.609375 11.75 
Q 48.6875 17.390625 48.6875 27.296875 
z
" id="DejaVuSans-70"/>
     <path d="M 8.5 21.578125 
L 8.5 54.6875 
L 17.484375 54.6875 
L 17.484375 21.921875 
Q 17.484375 14.15625 20.5 10.265625 
Q 23.53125 6.390625 29.59375 6.390625 
Q 36.859375 6.390625 41.078125 11.03125 
Q 45.3125 15.671875 45.3125 23.6875 
L 45.3125 54.6875 
L 54.296875 54.6875 
L 54.296875 0 
L 45.3125 0 
L 45.3125 8.40625 
Q 42.046875 3.421875 37.71875 1 
Q 33.40625 -1.421875 27.6875 -1.421875 
Q 18.265625 -1.421875 13.375 4.4375 
Q 8.5 10.296875 8.5 21.578125 
z
M 31.109375 56 
z
" id="DejaVuSans-75"/>
     <path d="M 9.421875 75.984375 
L 18.40625 75.984375 
L 18.40625 0 
L 9.421875 0 
z
" id="DejaVuSans-6c"/>
     <path d="M 17.921875 72.90625 
L 17.921875 45.796875 
L 9.625 45.796875 
L 9.625 72.90625 
z
" id="DejaVuSans-27"/>
     <path id="DejaVuSans-20"/>
     <path d="M 2.984375 54.6875 
L 12.5 54.6875 
L 29.59375 8.796875 
L 46.6875 54.6875 
L 56.203125 54.6875 
L 35.6875 0 
L 23.484375 0 
z
" id="DejaVuSans-76"/>
     <path d="M 45.40625 27.984375 
Q 45.40625 37.75 41.375 43.109375 
Q 37.359375 48.484375 30.078125 48.484375 
Q 22.859375 48.484375 18.828125 43.109375 
Q 14.796875 37.75 14.796875 27.984375 
Q 14.796875 18.265625 18.828125 12.890625 
Q 22.859375 7.515625 30.078125 7.515625 
Q 37.359375 7.515625 41.375 12.890625 
Q 45.40625 18.265625 45.40625 27.984375 
z
M 54.390625 6.78125 
Q 54.390625 -7.171875 48.1875 -13.984375 
Q 42 -20.796875 29.203125 -20.796875 
Q 24.46875 -20.796875 20.265625 -20.09375 
Q 16.0625 -19.390625 12.109375 -17.921875 
L 12.109375 -9.1875 
Q 16.0625 -11.328125 19.921875 -12.34375 
Q 23.78125 -13.375 27.78125 -13.375 
Q 36.625 -13.375 41.015625 -8.765625 
Q 45.40625 -4.15625 45.40625 5.171875 
L 45.40625 9.625 
Q 42.625 4.78125 38.28125 2.390625 
Q 33.9375 0 27.875 0 
Q 17.828125 0 11.671875 7.65625 
Q 5.515625 15.328125 5.515625 27.984375 
Q 5.515625 40.671875 11.671875 48.328125 
Q 17.828125 56 27.875 56 
Q 33.9375 56 38.28125 53.609375 
Q 42.625 51.21875 45.40625 46.390625 
L 45.40625 54.6875 
L 54.390625 54.6875 
z
" id="DejaVuSans-67"/>
     <path d="M 45.40625 46.390625 
L 45.40625 75.984375 
L 54.390625 75.984375 
L 54.390625 0 
L 45.40625 0 
L 45.40625 8.203125 
Q 42.578125 3.328125 38.25 0.953125 
Q 33.9375 -1.421875 27.875 -1.421875 
Q 17.96875 -1.421875 11.734375 6.484375 
Q 5.515625 14.40625 5.515625 27.296875 
Q 5.515625 40.1875 11.734375 48.09375 
Q 17.96875 56 27.875 56 
Q 33.9375 56 38.25 53.625 
Q 42.578125 51.265625 45.40625 46.390625 
z
M 14.796875 27.296875 
Q 14.796875 17.390625 18.875 11.75 
Q 22.953125 6.109375 30.078125 6.109375 
Q 37.203125 6.109375 41.296875 11.75 
Q 45.40625 17.390625 45.40625 27.296875 
Q 45.40625 37.203125 41.296875 42.84375 
Q 37.203125 48.484375 30.078125 48.484375 
Q 22.953125 48.484375 18.875 42.84375 
Q 14.796875 37.203125 14.796875 27.296875 
z
" id="DejaVuSans-64"/>
     <path d="M 48.6875 27.296875 
Q 48.6875 37.203125 44.609375 42.84375 
Q 40.53125 48.484375 33.40625 48.484375 
Q 26.265625 48.484375 22.1875 42.84375 
Q 18.109375 37.203125 18.109375 27.296875 
Q 18.109375 17.390625 22.1875 11.75 
Q 26.265625 6.109375 33.40625 6.109375 
Q 40.53125 6.109375 44.609375 11.75 
Q 48.6875 17.390625 48.6875 27.296875 
z
M 18.109375 46.390625 
Q 20.953125 51.265625 25.265625 53.625 
Q 29.59375 56 35.59375 56 
Q 45.5625 56 51.78125 48.09375 
Q 58.015625 40.1875 58.015625 27.296875 
Q 58.015625 14.40625 51.78125 6.484375 
Q 45.5625 -1.421875 35.59375 -1.421875 
Q 29.59375 -1.421875 25.265625 0.953125 
Q 20.953125 3.328125 18.109375 8.203125 
L 18.109375 0 
L 9.078125 0 
L 9.078125 75.984375 
L 18.109375 75.984375 
z
" id="DejaVuSans-62"/>
     <path d="M 37.109375 75.984375 
L 37.109375 68.5 
L 28.515625 68.5 
Q 23.6875 68.5 21.796875 66.546875 
Q 19.921875 64.59375 19.921875 59.515625 
L 19.921875 54.6875 
L 34.71875 54.6875 
L 34.71875 47.703125 
L 19.921875 47.703125 
L 19.921875 0 
L 10.890625 0 
L 10.890625 47.703125 
L 2.296875 47.703125 
L 2.296875 54.6875 
L 10.890625 54.6875 
L 10.890625 58.5 
Q 10.890625 67.625 15.140625 71.796875 
Q 19.390625 75.984375 28.609375 75.984375 
z
" id="DejaVuSans-66"/>
    </defs>
    <g transform="translate(123.315 35.472)scale(0.12 -0.12)">
     <use xlink:href="#DejaVuSans-50"/>
     <use x="60.255859" xlink:href="#DejaVuSans-6f"/>
     <use x="121.4375" xlink:href="#DejaVuSans-70"/>
     <use x="184.914062" xlink:href="#DejaVuSans-75"/>
     <use x="248.292969" xlink:href="#DejaVuSans-6c"/>
     <use x="276.076172" xlink:href="#DejaVuSans-61"/>
     <use x="337.355469" xlink:href="#DejaVuSans-74"/>
     <use x="376.564453" xlink:href="#DejaVuSans-69"/>
     <use x="404.347656" xlink:href="#DejaVuSans-6f"/>
     <use x="465.529297" xlink:href="#DejaVuSans-6e"/>
     <use x="528.908203" xlink:href="#DejaVuSans-27"/>
     <use x="556.398438" xlink:href="#DejaVuSans-73"/>
     <use x="608.498047" xlink:href="#DejaVuSans-20"/>
     <use x="640.285156" xlink:href="#DejaVuSans-61"/>
     <use x="701.564453" xlink:href="#DejaVuSans-76"/>
     <use x="760.744141" xlink:href="#DejaVuSans-65"/>
     <use x="822.267578" xlink:href="#DejaVuSans-72"/>
     <use x="863.380859" xlink:href="#DejaVuSans-61"/>
     <use x="924.660156" xlink:href="#DejaVuSans-67"/>
     <use x="988.136719" xlink:href="#DejaVuSans-65"/>
     <use x="1049.660156" xlink:href="#DejaVuSans-20"/>
     <use x="1081.447266" xlink:href="#DejaVuSans-61"/>
     <use x="1142.726562" xlink:href="#DejaVuSans-6e"/>
     <use x="1206.105469" xlink:href="#DejaVuSans-64"/>
     <use x="1269.582031" xlink:href="#DejaVuSans-20"/>
     <use x="1301.369141" xlink:href="#DejaVuSans-62"/>
     <use x="1364.845703" xlink:href="#DejaVuSans-65"/>
     <use x="1426.369141" xlink:href="#DejaVuSans-73"/>
     <use x="1478.46875" xlink:href="#DejaVuSans-74"/>
     <use x="1517.677734" xlink:href="#DejaVuSans-20"/>
     <use x="1549.464844" xlink:href="#DejaVuSans-66"/>
     <use x="1584.669922" xlink:href="#DejaVuSans-69"/>
     <use x="1612.453125" xlink:href="#DejaVuSans-74"/>
     <use x="1651.662109" xlink:href="#DejaVuSans-6e"/>
     <use x="1715.041016" xlink:href="#DejaVuSans-65"/>
     <use x="1776.564453" xlink:href="#DejaVuSans-73"/>
     <use x="1828.664062" xlink:href="#DejaVuSans-73"/>
    </g>
   </g>
   <g id="legend_1">
    <g id="patch_7">
     <path d="M 334.779375 302.584 
L 407.72 302.584 
Q 409.72 302.584 409.72 300.584 
L 409.72 242.8715 
Q 409.72 240.8715 407.72 240.8715 
L 334.779375 240.8715 
Q 332.779375 240.8715 332.779375 242.8715 
L 332.779375 300.584 
Q 332.779375 302.584 334.779375 302.584 
z
" style="fill:#ffffff;opacity:0.8;stroke:#cccccc;stroke-linejoin:miter;"/>
    </g>
    <g id="line2d_35">
     <path d="M 336.779375 248.969937 
L 356.779375 248.969937 
" style="fill:none;stroke:#0000ff;stroke-linecap:square;stroke-width:1.5;"/>
    </g>
    <g id="line2d_36"/>
    <g id="text_19">
     <!-- average -->
     <g transform="translate(364.779375 252.469937)scale(0.1 -0.1)">
      <use xlink:href="#DejaVuSans-61"/>
      <use x="61.279297" xlink:href="#DejaVuSans-76"/>
      <use x="120.458984" xlink:href="#DejaVuSans-65"/>
      <use x="181.982422" xlink:href="#DejaVuSans-72"/>
      <use x="223.095703" xlink:href="#DejaVuSans-61"/>
      <use x="284.375" xlink:href="#DejaVuSans-67"/>
      <use x="347.851562" xlink:href="#DejaVuSans-65"/>
     </g>
    </g>
    <g id="line2d_37">
     <path d="M 336.779375 263.648062 
L 356.779375 263.648062 
" style="fill:none;stroke:#008000;stroke-dasharray:9.6,2.4,1.5,2.4;stroke-dashoffset:0;stroke-width:1.5;"/>
    </g>
    <g id="line2d_38"/>
    <g id="text_20">
     <!-- -1 sd -->
     <defs>
      <path d="M 4.890625 31.390625 
L 31.203125 31.390625 
L 31.203125 23.390625 
L 4.890625 23.390625 
z
" id="DejaVuSans-2d"/>
     </defs>
     <g transform="translate(364.779375 267.148062)scale(0.1 -0.1)">
      <use xlink:href="#DejaVuSans-2d"/>
      <use x="36.083984" xlink:href="#DejaVuSans-31"/>
      <use x="99.707031" xlink:href="#DejaVuSans-20"/>
      <use x="131.494141" xlink:href="#DejaVuSans-73"/>
      <use x="183.59375" xlink:href="#DejaVuSans-64"/>
     </g>
    </g>
    <g id="line2d_39">
     <path d="M 336.779375 278.326187 
L 356.779375 278.326187 
" style="fill:none;stroke:#008000;stroke-dasharray:9.6,2.4,1.5,2.4;stroke-dashoffset:0;stroke-width:1.5;"/>
    </g>
    <g id="line2d_40"/>
    <g id="text_21">
     <!-- +1 sd -->
     <defs>
      <path d="M 46 62.703125 
L 46 35.5 
L 73.1875 35.5 
L 73.1875 27.203125 
L 46 27.203125 
L 46 0 
L 37.796875 0 
L 37.796875 27.203125 
L 10.59375 27.203125 
L 10.59375 35.5 
L 37.796875 35.5 
L 37.796875 62.703125 
z
" id="DejaVuSans-2b"/>
     </defs>
     <g transform="translate(364.779375 281.826187)scale(0.1 -0.1)">
      <use xlink:href="#DejaVuSans-2b"/>
      <use x="83.789062" xlink:href="#DejaVuSans-31"/>
      <use x="147.412109" xlink:href="#DejaVuSans-20"/>
      <use x="179.199219" xlink:href="#DejaVuSans-73"/>
      <use x="231.298828" xlink:href="#DejaVuSans-64"/>
     </g>
    </g>
    <g id="line2d_41">
     <path d="M 336.779375 293.004312 
L 356.779375 293.004312 
" style="fill:none;stroke:#ff0000;stroke-linecap:square;stroke-width:1.5;"/>
    </g>
    <g id="line2d_42"/>
    <g id="text_22">
     <!-- best -->
     <g transform="translate(364.779375 296.504312)scale(0.1 -0.1)">
      <use xlink:href="#DejaVuSans-62"/>
      <use x="63.476562" xlink:href="#DejaVuSans-65"/>
      <use x="125" xlink:href="#DejaVuSans-73"/>
      <use x="177.099609" xlink:href="#DejaVuSans-74"/>
     </g>
    </g>
   </g>
  </g>
 </g>
 <defs>
  <clipPath id="p77966d9874">
   <rect height="266.112" width="357.12" x="57.6" y="41.472"/>
  </clipPath>
 </defs>
</svg>
