<?xml version="1.0" encoding="UTF-8" standalone="no"?>
<!DOCTYPE svg PUBLIC "-//W3C//DTD SVG 1.1//EN"
 "http://www.w3.org/Graphics/SVG/1.1/DTD/svg11.dtd">
<!-- Generated by graphviz version 2.38.0 (20140413.2041)
 -->
<!-- Title: %3 Pages: 1 -->
<svg width="813pt" height="522pt"
 viewBox="0.00 0.00 812.55 521.75" xmlns="http://www.w3.org/2000/svg" xmlns:xlink="http://www.w3.org/1999/xlink">
<g id="graph0" class="graph" transform="scale(1 1) rotate(0) translate(4 517.754)">
<title>%3</title>
<polygon fill="white" stroke="none" points="-4,4 -4,-517.754 808.555,-517.754 808.555,4 -4,4"/>
<!-- direc_dist -->
<g id="node1" class="node"><title>direc_dist</title>
<polygon fill="lightgray" stroke="black" points="115.749,-412.508 63.7487,-412.508 63.7487,-394.508 115.749,-394.508 115.749,-412.508"/>
<text text-anchor="middle" x="89.7487" y="-401.308" font-family="Times New Roman,serif" font-size="9.00">direc_dist</text>
</g>
<!-- 1288 -->
<g id="node9" class="node"><title>1288</title>
<ellipse fill="white" stroke="black" cx="134.749" cy="-110.246" rx="25" ry="25"/>
<text text-anchor="middle" x="134.749" y="-108.046" font-family="Times New Roman,serif" font-size="9.00">1288</text>
</g>
<!-- direc_dist&#45;&gt;1288 -->
<g id="edge8" class="edge"><title>direc_dist&#45;&gt;1288</title>
<path fill="none" stroke="green" stroke-width="0.303395" stroke-dasharray="1,5" d="M90.9993,-394.414C96.5506,-358.483 119.146,-212.234 129.509,-145.157"/>
<polygon fill="green" stroke="green" stroke-width="0.303395" points="132.995,-145.518 131.063,-135.101 126.077,-144.449 132.995,-145.518"/>
</g>
<!-- 2490 -->
<g id="node17" class="node"><title>2490</title>
<ellipse fill="white" stroke="black" cx="62.7487" cy="-305.283" rx="25" ry="25"/>
<text text-anchor="middle" x="62.7487" y="-303.083" font-family="Times New Roman,serif" font-size="9.00">2490</text>
</g>
<!-- direc_dist&#45;&gt;2490 -->
<g id="edge30" class="edge"><title>direc_dist&#45;&gt;2490</title>
<path fill="none" stroke="green" stroke-width="0.493789" d="M87.4467,-394.304C84.0368,-382.151 77.4523,-358.685 71.9392,-339.037"/>
<polygon fill="green" stroke="green" stroke-width="0.493789" points="75.2478,-337.872 69.1763,-329.19 68.508,-339.764 75.2478,-337.872"/>
</g>
<!-- vx -->
<g id="node2" class="node"><title>vx</title>
<polygon fill="lightgray" stroke="black" points="663.249,-498.006 638.249,-498.006 638.249,-480.006 663.249,-480.006 663.249,-498.006"/>
<text text-anchor="middle" x="650.749" y="-486.806" font-family="Times New Roman,serif" font-size="9.00">vx</text>
</g>
<!-- horizontal -->
<g id="node7" class="node"><title>horizontal</title>
<ellipse fill="lightblue" stroke="black" cx="459.749" cy="-305.283" rx="37.4533" ry="37.4533"/>
<text text-anchor="middle" x="459.749" y="-303.083" font-family="Times New Roman,serif" font-size="9.00">horizontal</text>
</g>
<!-- vx&#45;&gt;horizontal -->
<g id="edge2" class="edge"><title>vx&#45;&gt;horizontal</title>
<path fill="none" stroke="green" stroke-width="1.45999" d="M638.014,-485.96C610.863,-480.965 546.752,-465.698 509.749,-428.257 489.227,-407.492 476.742,-377.134 469.38,-351.9"/>
<polygon fill="green" stroke="green" stroke-width="1.45999" points="472.729,-350.877 466.712,-342.156 465.977,-352.726 472.729,-350.877"/>
</g>
<!-- 301 -->
<g id="node15" class="node"><title>301</title>
<ellipse fill="white" stroke="black" cx="703.749" cy="-305.283" rx="21.4286" ry="21.4286"/>
<text text-anchor="middle" x="703.749" y="-303.083" font-family="Times New Roman,serif" font-size="9.00">301</text>
</g>
<!-- vx&#45;&gt;301 -->
<g id="edge5" class="edge"><title>vx&#45;&gt;301</title>
<path fill="none" stroke="green" stroke-width="0.271404" stroke-dasharray="1,5" d="M651.417,-479.881C653.087,-461.503 658.172,-415.48 669.749,-378.759 674.659,-363.187 682.223,-346.643 688.971,-333.299"/>
<polygon fill="green" stroke="green" stroke-width="0.271404" points="692.189,-334.696 693.691,-324.208 685.977,-331.471 692.189,-334.696"/>
</g>
<!-- 1511 -->
<g id="node23" class="node"><title>1511</title>
<ellipse fill="white" stroke="black" cx="703.749" cy="-403.508" rx="25" ry="25"/>
<text text-anchor="middle" x="703.749" y="-401.308" font-family="Times New Roman,serif" font-size="9.00">1511</text>
</g>
<!-- vx&#45;&gt;1511 -->
<g id="edge9" class="edge"><title>vx&#45;&gt;1511</title>
<path fill="none" stroke="red" stroke-width="0.26614" d="M655.831,-480C662.564,-469.392 674.807,-450.104 685.232,-433.68"/>
<polygon fill="red" stroke="red" stroke-width="0.26614" points="688.386,-435.242 690.79,-424.924 682.476,-431.491 688.386,-435.242"/>
</g>
<!-- vy -->
<g id="node3" class="node"><title>vy</title>
<polygon fill="lightgray" stroke="black" points="779.749,-314.283 753.749,-314.283 753.749,-296.283 779.749,-296.283 779.749,-314.283"/>
<text text-anchor="middle" x="766.749" y="-303.083" font-family="Times New Roman,serif" font-size="9.00">vy</text>
</g>
<!-- vertical -->
<g id="node6" class="node"><title>vertical</title>
<ellipse fill="lightblue" stroke="black" cx="696.749" cy="-201.401" rx="30.3115" ry="30.3115"/>
<text text-anchor="middle" x="696.749" y="-199.201" font-family="Times New Roman,serif" font-size="9.00">vertical</text>
</g>
<!-- vy&#45;&gt;vertical -->
<g id="edge4" class="edge"><title>vy&#45;&gt;vertical</title>
<path fill="none" stroke="green" stroke-width="1.15804" d="M761.02,-295.945C752.009,-282.83 734.039,-256.675 719.386,-235.348"/>
<polygon fill="green" stroke="green" stroke-width="1.15804" points="722.098,-233.115 713.55,-226.854 716.328,-237.079 722.098,-233.115"/>
</g>
<!-- 708 -->
<g id="node19" class="node"><title>708</title>
<ellipse fill="white" stroke="black" cx="766.749" cy="-201.401" rx="21.4286" ry="21.4286"/>
<text text-anchor="middle" x="766.749" y="-199.201" font-family="Times New Roman,serif" font-size="9.00">708</text>
</g>
<!-- vy&#45;&gt;708 -->
<g id="edge11" class="edge"><title>vy&#45;&gt;708</title>
<path fill="none" stroke="red" stroke-width="0.26482" stroke-dasharray="1,5" d="M766.749,-295.945C766.749,-282.304 766.749,-254.558 766.749,-232.809"/>
<polygon fill="red" stroke="red" stroke-width="0.26482" points="770.249,-232.702 766.749,-222.702 763.249,-232.703 770.249,-232.702"/>
</g>
<!-- 988 -->
<g id="node21" class="node"><title>988</title>
<ellipse fill="white" stroke="black" cx="585.749" cy="-24.7487" rx="21.4286" ry="21.4286"/>
<text text-anchor="middle" x="585.749" y="-22.5487" font-family="Times New Roman,serif" font-size="9.00">988</text>
</g>
<!-- vy&#45;&gt;988 -->
<g id="edge33" class="edge"><title>vy&#45;&gt;988</title>
<path fill="none" stroke="green" stroke-width="0.247914" d="M772.136,-296.279C785.879,-274.779 819.594,-214.455 796.749,-170.995 758.112,-97.4933 663.588,-53.9433 615.256,-35.7547"/>
<polygon fill="green" stroke="green" stroke-width="0.247914" points="616.274,-32.4005 605.681,-32.2567 613.873,-38.9755 616.274,-32.4005"/>
</g>
<!-- cp2x -->
<g id="node4" class="node"><title>cp2x</title>
<polygon fill="lightgray" stroke="black" points="276.749,-412.508 242.749,-412.508 242.749,-394.508 276.749,-394.508 276.749,-412.508"/>
<text text-anchor="middle" x="259.749" y="-401.308" font-family="Times New Roman,serif" font-size="9.00">cp2x</text>
</g>
<!-- cp2x&#45;&gt;horizontal -->
<g id="edge1" class="edge"><title>cp2x&#45;&gt;horizontal</title>
<path fill="none" stroke="red" stroke-width="1.15758" d="M277.14,-397.636C306.493,-389.011 367.217,-369.419 413.749,-342.759 416.944,-340.929 420.153,-338.889 423.308,-336.735"/>
<polygon fill="red" stroke="red" stroke-width="1.15758" points="425.429,-339.521 431.491,-330.831 421.333,-333.844 425.429,-339.521"/>
</g>
<!-- cp2x&#45;&gt;1288 -->
<g id="edge19" class="edge"><title>cp2x&#45;&gt;1288</title>
<path fill="none" stroke="green" stroke-width="0.727337" d="M254.893,-394.216C240.798,-369.908 199.198,-296.457 172.749,-231.806 160.897,-202.837 150.456,-168.726 143.533,-144.194"/>
<polygon fill="green" stroke="green" stroke-width="0.727337" points="146.836,-143.009 140.787,-134.31 140.091,-144.882 146.836,-143.009"/>
</g>
<!-- 1044 -->
<g id="node11" class="node"><title>1044</title>
<ellipse fill="white" stroke="black" cx="362.749" cy="-24.7487" rx="25" ry="25"/>
<text text-anchor="middle" x="362.749" y="-22.5487" font-family="Times New Roman,serif" font-size="9.00">1044</text>
</g>
<!-- cp2x&#45;&gt;1044 -->
<g id="edge7" class="edge"><title>cp2x&#45;&gt;1044</title>
<path fill="none" stroke="red" stroke-width="0.305713" d="M259.825,-394.303C260.31,-363.958 263.867,-255.473 289.749,-170.995 302.803,-128.384 327.528,-83.077 344.559,-54.6125"/>
<polygon fill="red" stroke="red" stroke-width="0.305713" points="347.598,-56.3522 349.794,-45.9874 341.614,-52.7203 347.598,-56.3522"/>
</g>
<!-- cp2y -->
<g id="node5" class="node"><title>cp2y</title>
<polygon fill="lightgray" stroke="black" points="664.249,-314.283 629.249,-314.283 629.249,-296.283 664.249,-296.283 664.249,-314.283"/>
<text text-anchor="middle" x="646.749" y="-303.083" font-family="Times New Roman,serif" font-size="9.00">cp2y</text>
</g>
<!-- cp2y&#45;&gt;vertical -->
<g id="edge3" class="edge"><title>cp2y&#45;&gt;vertical</title>
<path fill="none" stroke="red" stroke-width="1.26944" d="M650.84,-295.945C656.989,-283.417 668.977,-258.99 679.161,-238.239"/>
<polygon fill="red" stroke="red" stroke-width="1.26944" points="682.422,-239.538 683.685,-229.019 676.138,-236.454 682.422,-239.538"/>
</g>
<!-- 2364 -->
<g id="node18" class="node"><title>2364</title>
<ellipse fill="white" stroke="black" cx="547.749" cy="-201.401" rx="25" ry="25"/>
<text text-anchor="middle" x="547.749" y="-199.201" font-family="Times New Roman,serif" font-size="9.00">2364</text>
</g>
<!-- cp2y&#45;&gt;2364 -->
<g id="edge32" class="edge"><title>cp2y&#45;&gt;2364</title>
<path fill="none" stroke="green" stroke-width="0.507837" d="M638.647,-295.945C624.209,-281.087 593.508,-249.492 571.79,-227.142"/>
<polygon fill="green" stroke="green" stroke-width="0.507837" points="574.285,-224.687 564.806,-219.955 569.265,-229.566 574.285,-224.687"/>
</g>
<!-- horizontal&#45;&gt;2364 -->
<g id="edge25" class="edge"><title>horizontal&#45;&gt;2364</title>
<path fill="none" stroke="red" stroke-width="0.25414" stroke-dasharray="1,5" d="M483.795,-276.443C496.762,-261.43 512.663,-243.021 525.365,-228.315"/>
<polygon fill="red" stroke="red" stroke-width="0.25414" points="528.166,-230.427 532.054,-220.571 522.869,-225.851 528.166,-230.427"/>
</g>
<!-- 1896 -->
<g id="node24" class="node"><title>1896</title>
<ellipse fill="white" stroke="black" cx="396.749" cy="-201.401" rx="25" ry="25"/>
<text text-anchor="middle" x="396.749" y="-199.201" font-family="Times New Roman,serif" font-size="9.00">1896</text>
</g>
<!-- horizontal&#45;&gt;1896 -->
<g id="edge12" class="edge"><title>horizontal&#45;&gt;1896</title>
<path fill="none" stroke="green" stroke-width="0.274885" stroke-dasharray="1,5" d="M440.333,-272.883C432.166,-259.677 422.723,-244.405 414.718,-231.461"/>
<polygon fill="green" stroke="green" stroke-width="0.274885" points="417.677,-229.59 409.44,-222.925 411.723,-233.271 417.677,-229.59"/>
</g>
<!-- 2178 -->
<g id="node8" class="node"><title>2178</title>
<ellipse fill="white" stroke="black" cx="705.749" cy="-489.006" rx="25" ry="25"/>
<text text-anchor="middle" x="705.749" y="-486.806" font-family="Times New Roman,serif" font-size="9.00">2178</text>
</g>
<!-- 914 -->
<g id="node10" class="node"><title>914</title>
<ellipse fill="white" stroke="black" cx="319.749" cy="-201.401" rx="21.4286" ry="21.4286"/>
<text text-anchor="middle" x="319.749" y="-199.201" font-family="Times New Roman,serif" font-size="9.00">914</text>
</g>
<!-- 914&#45;&gt;1288 -->
<g id="edge22" class="edge"><title>914&#45;&gt;1288</title>
<path fill="none" stroke="red" stroke-width="0.26161" d="M300.992,-191.361C269.236,-176.057 204.573,-144.896 165.919,-126.268"/>
<polygon fill="red" stroke="red" stroke-width="0.26161" points="167.216,-123.007 156.688,-121.819 164.177,-129.313 167.216,-123.007"/>
</g>
<!-- 1942 -->
<g id="node12" class="node"><title>1942</title>
<ellipse fill="white" stroke="black" cx="772.749" cy="-489.006" rx="25" ry="25"/>
<text text-anchor="middle" x="772.749" y="-486.806" font-family="Times New Roman,serif" font-size="9.00">1942</text>
</g>
<!-- 2198 -->
<g id="node13" class="node"><title>2198</title>
<ellipse fill="white" stroke="black" cx="507.749" cy="-24.7487" rx="25" ry="25"/>
<text text-anchor="middle" x="507.749" y="-22.5487" font-family="Times New Roman,serif" font-size="9.00">2198</text>
</g>
<!-- 1450 -->
<g id="node14" class="node"><title>1450</title>
<ellipse fill="white" stroke="black" cx="543.749" cy="-403.508" rx="25" ry="25"/>
<text text-anchor="middle" x="543.749" y="-401.308" font-family="Times New Roman,serif" font-size="9.00">1450</text>
</g>
<!-- 1450&#45;&gt;2198 -->
<g id="edge20" class="edge"><title>1450&#45;&gt;2198</title>
<path fill="none" stroke="green" stroke-width="0.572867" stroke-dasharray="1,5" d="M538.543,-379.188C531.491,-346.457 519.163,-284.941 513.749,-231.806 507.605,-171.504 506.964,-100.802 507.234,-59.8546"/>
<polygon fill="green" stroke="green" stroke-width="0.572867" points="510.736,-59.6494 507.325,-49.6186 503.736,-59.5871 510.736,-59.6494"/>
</g>
<!-- 2094 -->
<g id="node16" class="node"><title>2094</title>
<ellipse fill="white" stroke="black" cx="379.749" cy="-305.283" rx="25" ry="25"/>
<text text-anchor="middle" x="379.749" y="-303.083" font-family="Times New Roman,serif" font-size="9.00">2094</text>
</g>
<!-- 1450&#45;&gt;2094 -->
<g id="edge13" class="edge"><title>1450&#45;&gt;2094</title>
<path fill="none" stroke="green" stroke-width="0.189467" stroke-dasharray="1,5" d="M520.216,-394.845C492.99,-385.293 447.574,-367.198 413.749,-342.759 409.558,-339.732 405.472,-336.132 401.671,-332.391"/>
<polygon fill="green" stroke="green" stroke-width="0.189467" points="404.19,-329.961 394.757,-325.138 399.123,-334.791 404.19,-329.961"/>
</g>
<!-- 1450&#45;&gt;2364 -->
<g id="edge23" class="edge"><title>1450&#45;&gt;2364</title>
<path fill="none" stroke="green" stroke-width="0.414328" d="M544.231,-378.371C544.939,-342.969 546.261,-276.805 547.068,-236.467"/>
<polygon fill="green" stroke="green" stroke-width="0.414328" points="550.57,-236.38 547.271,-226.312 543.572,-236.24 550.57,-236.38"/>
</g>
<!-- 2127 -->
<g id="node20" class="node"><title>2127</title>
<ellipse fill="white" stroke="black" cx="585.749" cy="-110.246" rx="25" ry="25"/>
<text text-anchor="middle" x="585.749" y="-108.046" font-family="Times New Roman,serif" font-size="9.00">2127</text>
</g>
<!-- 1450&#45;&gt;2127 -->
<g id="edge17" class="edge"><title>1450&#45;&gt;2127</title>
<path fill="none" stroke="green" stroke-width="0.159079" d="M550.258,-379.615C553.314,-368.528 556.9,-354.996 559.749,-342.759 571.146,-293.796 576.007,-281.75 581.749,-231.806 585.082,-202.809 585.972,-169.651 586.09,-145.458"/>
<polygon fill="green" stroke="green" stroke-width="0.159079" points="589.59,-145.351 586.097,-135.349 582.59,-145.346 589.59,-145.351"/>
</g>
<!-- 301&#45;&gt;914 -->
<g id="edge16" class="edge"><title>301&#45;&gt;914</title>
<path fill="none" stroke="green" stroke-width="1.04034" d="M693.149,-286.809C687.917,-279.725 680.957,-272.195 672.749,-267.806 550.431,-202.407 492.673,-280.37 362.749,-231.806 356.146,-229.338 349.578,-225.647 343.636,-221.707"/>
<polygon fill="green" stroke="green" stroke-width="1.04034" points="345.621,-218.824 335.446,-215.869 341.558,-224.524 345.621,-218.824"/>
</g>
<!-- 301&#45;&gt;708 -->
<g id="edge6" class="edge"><title>301&#45;&gt;708</title>
<path fill="none" stroke="green" stroke-width="0.127968" stroke-dasharray="1,5" d="M714.722,-286.536C724.569,-270.612 739.156,-247.023 750.38,-228.871"/>
<polygon fill="green" stroke="green" stroke-width="0.127968" points="753.618,-230.29 755.901,-219.944 747.665,-226.608 753.618,-230.29"/>
</g>
<!-- 301&#45;&gt;988 -->
<g id="edge15" class="edge"><title>301&#45;&gt;988</title>
<path fill="none" stroke="green" stroke-width="0.168815" d="M691.201,-287.841C680.918,-273.669 666.656,-252.31 657.749,-231.806 630.98,-170.186 645.026,-147.745 619.749,-85.4975 615.073,-73.9833 608.576,-61.9511 602.513,-51.727"/>
<polygon fill="green" stroke="green" stroke-width="0.168815" points="605.33,-49.6238 597.132,-42.9127 599.355,-53.2715 605.33,-49.6238"/>
</g>
<!-- 2094&#45;&gt;914 -->
<g id="edge39" class="edge"><title>2094&#45;&gt;914</title>
<path fill="none" stroke="red" stroke-width="0.178178" d="M367.607,-283.665C358.304,-267.868 345.398,-245.954 335.333,-228.862"/>
<polygon fill="red" stroke="red" stroke-width="0.178178" points="338.164,-226.774 330.074,-219.933 332.132,-230.326 338.164,-226.774"/>
</g>
<!-- 2094&#45;&gt;988 -->
<g id="edge14" class="edge"><title>2094&#45;&gt;988</title>
<path fill="none" stroke="red" stroke-width="0.280753" stroke-dasharray="1,5" d="M394.234,-284.697C430.832,-235.212 526.97,-105.224 567.409,-50.5457"/>
<polygon fill="red" stroke="red" stroke-width="0.280753" points="570.271,-52.5619 573.404,-42.4407 564.643,-48.3995 570.271,-52.5619"/>
</g>
<!-- 2094&#45;&gt;1896 -->
<g id="edge29" class="edge"><title>2094&#45;&gt;1896</title>
<path fill="none" stroke="red" stroke-width="0.108798" d="M383.692,-280.653C385.902,-267.408 388.695,-250.667 391.131,-236.071"/>
<polygon fill="red" stroke="red" stroke-width="0.108798" points="394.634,-236.342 392.827,-225.902 387.729,-235.19 394.634,-236.342"/>
</g>
<!-- 2490&#45;&gt;1288 -->
<g id="edge31" class="edge"><title>2490&#45;&gt;1288</title>
<path fill="none" stroke="green" stroke-width="0.66414" d="M67.9992,-280.632C74.3884,-253.56 86.2682,-208.165 101.749,-170.995 106.03,-160.716 111.615,-149.932 116.969,-140.4"/>
<polygon fill="green" stroke="green" stroke-width="0.66414" points="120.021,-142.113 121.982,-131.701 113.956,-138.618 120.021,-142.113"/>
</g>
<!-- 2546 -->
<g id="node25" class="node"><title>2546</title>
<ellipse fill="white" stroke="black" cx="24.7487" cy="-201.401" rx="25" ry="25"/>
<text text-anchor="middle" x="24.7487" y="-199.201" font-family="Times New Roman,serif" font-size="9.00">2546</text>
</g>
<!-- 2490&#45;&gt;2546 -->
<g id="edge34" class="edge"><title>2490&#45;&gt;2546</title>
<path fill="none" stroke="green" stroke-width="0.485504" stroke-dasharray="1,5" d="M54.4095,-281.924C49.248,-268.086 42.5346,-250.086 36.8005,-234.713"/>
<polygon fill="green" stroke="green" stroke-width="0.485504" points="39.9739,-233.205 33.1999,-225.059 33.4152,-235.652 39.9739,-233.205"/>
</g>
<!-- 2364&#45;&gt;2127 -->
<g id="edge24" class="edge"><title>2364&#45;&gt;2127</title>
<path fill="none" stroke="red" stroke-width="0.554093" d="M557.142,-178.362C561.709,-167.647 567.282,-154.573 572.291,-142.82"/>
<polygon fill="red" stroke="red" stroke-width="0.554093" points="575.631,-143.911 576.332,-133.34 569.191,-141.167 575.631,-143.911"/>
</g>
<!-- 2127&#45;&gt;2198 -->
<g id="edge36" class="edge"><title>2127&#45;&gt;2198</title>
<path fill="none" stroke="green" stroke-width="0.325124" d="M569.207,-91.5385C558.142,-79.6935 543.418,-63.9317 531.156,-50.8054"/>
<polygon fill="green" stroke="green" stroke-width="0.325124" points="533.651,-48.3492 524.267,-43.4309 528.535,-53.1277 533.651,-48.3492"/>
</g>
<!-- 2127&#45;&gt;988 -->
<g id="edge18" class="edge"><title>2127&#45;&gt;988</title>
<path fill="none" stroke="red" stroke-width="0.170045" stroke-dasharray="1,5" d="M585.749,-85.0953C585.749,-76.1368 585.749,-65.855 585.749,-56.3937"/>
<polygon fill="red" stroke="red" stroke-width="0.170045" points="589.249,-56.1745 585.749,-46.1745 582.249,-56.1746 589.249,-56.1745"/>
</g>
<!-- 2402 -->
<g id="node22" class="node"><title>2402</title>
<ellipse fill="white" stroke="black" cx="206.749" cy="-201.401" rx="25" ry="25"/>
<text text-anchor="middle" x="206.749" y="-199.201" font-family="Times New Roman,serif" font-size="9.00">2402</text>
</g>
<!-- 2402&#45;&gt;1288 -->
<g id="edge26" class="edge"><title>2402&#45;&gt;1288</title>
<path fill="none" stroke="green" stroke-width="0.373103" d="M191.479,-181.493C181.265,-168.846 167.674,-152.016 156.355,-138"/>
<polygon fill="green" stroke="green" stroke-width="0.373103" points="159.002,-135.707 149.996,-130.126 153.556,-140.105 159.002,-135.707"/>
</g>
<!-- 1511&#45;&gt;301 -->
<g id="edge10" class="edge"><title>1511&#45;&gt;301</title>
<path fill="none" stroke="red" stroke-width="0.981039" stroke-dasharray="1,5" d="M703.749,-378.722C703.749,-366.075 703.749,-350.384 703.749,-336.842"/>
<polygon fill="red" stroke="red" stroke-width="0.981039" points="707.249,-336.543 703.749,-326.543 700.249,-336.543 707.249,-336.543"/>
</g>
<!-- 1896&#45;&gt;1044 -->
<g id="edge21" class="edge"><title>1896&#45;&gt;1044</title>
<path fill="none" stroke="green" stroke-width="0.463359" d="M391.101,-177.157C388.152,-164.69 384.579,-149.042 381.749,-134.995 376.651,-109.695 371.682,-80.9332 368.105,-59.2739"/>
<polygon fill="green" stroke="green" stroke-width="0.463359" points="371.535,-58.5615 366.466,-49.2579 364.627,-59.6919 371.535,-58.5615"/>
</g>
<!-- 2425 -->
<g id="node27" class="node"><title>2425</title>
<ellipse fill="white" stroke="black" cx="415.749" cy="-110.246" rx="25" ry="25"/>
<text text-anchor="middle" x="415.749" y="-108.046" font-family="Times New Roman,serif" font-size="9.00">2425</text>
</g>
<!-- 1896&#45;&gt;2425 -->
<g id="edge27" class="edge"><title>1896&#45;&gt;2425</title>
<path fill="none" stroke="green" stroke-width="0.346935" d="M401.741,-176.976C403.857,-167.046 406.362,-155.292 408.664,-144.489"/>
<polygon fill="green" stroke="green" stroke-width="0.346935" points="412.129,-145.024 410.79,-134.514 405.283,-143.565 412.129,-145.024"/>
</g>
<!-- 2546&#45;&gt;1288 -->
<g id="edge35" class="edge"><title>2546&#45;&gt;1288</title>
<path fill="none" stroke="green" stroke-width="0.334804" d="M43.9093,-184.871C61.6542,-170.489 88.2149,-148.962 108.038,-132.895"/>
<polygon fill="green" stroke="green" stroke-width="0.334804" points="110.243,-135.613 115.808,-126.598 105.835,-130.175 110.243,-135.613"/>
</g>
<!-- 2551 -->
<g id="node26" class="node"><title>2551</title>
<ellipse fill="white" stroke="black" cx="312.749" cy="-305.283" rx="25" ry="25"/>
<text text-anchor="middle" x="312.749" y="-303.083" font-family="Times New Roman,serif" font-size="9.00">2551</text>
</g>
<!-- 2551&#45;&gt;914 -->
<g id="edge37" class="edge"><title>2551&#45;&gt;914</title>
<path fill="none" stroke="green" stroke-width="0.331667" d="M314.39,-280.396C315.368,-266.155 316.62,-247.941 317.667,-232.696"/>
<polygon fill="green" stroke="green" stroke-width="0.331667" points="321.16,-232.918 318.354,-222.702 314.177,-232.438 321.16,-232.918"/>
</g>
<!-- 2425&#45;&gt;1044 -->
<g id="edge28" class="edge"><title>2425&#45;&gt;1044</title>
<path fill="none" stroke="green" stroke-width="0.174097" d="M402.919,-89.0338C396.392,-78.7512 388.342,-66.0685 381.166,-54.7634"/>
<polygon fill="green" stroke="green" stroke-width="0.174097" points="383.958,-52.6315 375.644,-46.0644 378.048,-56.3829 383.958,-52.6315"/>
</g>
<!-- 2425&#45;&gt;988 -->
<g id="edge38" class="edge"><title>2425&#45;&gt;988</title>
<path fill="none" stroke="green" stroke-width="0.275756" d="M438.225,-99.018C463.561,-87.3889 505.897,-67.6575 541.749,-49.4975 547.206,-46.7333 552.992,-43.6914 558.514,-40.7342"/>
<polygon fill="green" stroke="green" stroke-width="0.275756" points="560.319,-43.7368 567.45,-35.9011 556.989,-37.5796 560.319,-43.7368"/>
</g>
</g>
</svg>
