<?xml version="1.0" encoding="utf-8" standalone="no"?>
<!DOCTYPE svg PUBLIC "-//W3C//DTD SVG 1.1//EN"
  "http://www.w3.org/Graphics/SVG/1.1/DTD/svg11.dtd">
<!-- Created with matplotlib (http://matplotlib.org/) -->
<svg height="345.6pt" version="1.1" viewBox="0 0 460.8 345.6" width="460.8pt" xmlns="http://www.w3.org/2000/svg" xmlns:xlink="http://www.w3.org/1999/xlink">
 <defs>
  <style type="text/css">
*{stroke-linecap:butt;stroke-linejoin:round;}
  </style>
 </defs>
 <g id="figure_1">
  <g id="patch_1">
   <path d="M 0 345.6 
L 460.8 345.6 
L 460.8 0 
L 0 0 
z
" style="fill:#ffffff;"/>
  </g>
  <g id="axes_1">
   <g id="patch_2">
    <path d="M 57.6 307.584 
L 414.72 307.584 
L 414.72 41.472 
L 57.6 41.472 
z
" style="fill:#ffffff;"/>
   </g>
   <g id="matplotlib.axis_1">
    <g id="xtick_1">
     <g id="line2d_1">
      <path clip-path="url(#p0ebb2cb92c)" d="M 73.832727 307.584 
L 73.832727 41.472 
" style="fill:none;stroke:#b0b0b0;stroke-linecap:square;stroke-width:0.8;"/>
     </g>
     <g id="line2d_2">
      <defs>
       <path d="M 0 0 
L 0 3.5 
" id="m2972e7934b" style="stroke:#000000;stroke-width:0.8;"/>
      </defs>
      <g>
       <use style="stroke:#000000;stroke-width:0.8;" x="73.832727" xlink:href="#m2972e7934b" y="307.584"/>
      </g>
     </g>
     <g id="text_1">
      <!-- 0 -->
      <defs>
       <path d="M 31.78125 66.40625 
Q 24.171875 66.40625 20.328125 58.90625 
Q 16.5 51.421875 16.5 36.375 
Q 16.5 21.390625 20.328125 13.890625 
Q 24.171875 6.390625 31.78125 6.390625 
Q 39.453125 6.390625 43.28125 13.890625 
Q 47.125 21.390625 47.125 36.375 
Q 47.125 51.421875 43.28125 58.90625 
Q 39.453125 66.40625 31.78125 66.40625 
z
M 31.78125 74.21875 
Q 44.046875 74.21875 50.515625 64.515625 
Q 56.984375 54.828125 56.984375 36.375 
Q 56.984375 17.96875 50.515625 8.265625 
Q 44.046875 -1.421875 31.78125 -1.421875 
Q 19.53125 -1.421875 13.0625 8.265625 
Q 6.59375 17.96875 6.59375 36.375 
Q 6.59375 54.828125 13.0625 64.515625 
Q 19.53125 74.21875 31.78125 74.21875 
z
" id="DejaVuSans-30"/>
      </defs>
      <g transform="translate(70.651477 322.182437)scale(0.1 -0.1)">
       <use xlink:href="#DejaVuSans-30"/>
      </g>
     </g>
    </g>
    <g id="xtick_2">
     <g id="line2d_3">
      <path clip-path="url(#p0ebb2cb92c)" d="M 114.618474 307.584 
L 114.618474 41.472 
" style="fill:none;stroke:#b0b0b0;stroke-linecap:square;stroke-width:0.8;"/>
     </g>
     <g id="line2d_4">
      <g>
       <use style="stroke:#000000;stroke-width:0.8;" x="114.618474" xlink:href="#m2972e7934b" y="307.584"/>
      </g>
     </g>
     <g id="text_2">
      <!-- 25 -->
      <defs>
       <path d="M 19.1875 8.296875 
L 53.609375 8.296875 
L 53.609375 0 
L 7.328125 0 
L 7.328125 8.296875 
Q 12.9375 14.109375 22.625 23.890625 
Q 32.328125 33.6875 34.8125 36.53125 
Q 39.546875 41.84375 41.421875 45.53125 
Q 43.3125 49.21875 43.3125 52.78125 
Q 43.3125 58.59375 39.234375 62.25 
Q 35.15625 65.921875 28.609375 65.921875 
Q 23.96875 65.921875 18.8125 64.3125 
Q 13.671875 62.703125 7.8125 59.421875 
L 7.8125 69.390625 
Q 13.765625 71.78125 18.9375 73 
Q 24.125 74.21875 28.421875 74.21875 
Q 39.75 74.21875 46.484375 68.546875 
Q 53.21875 62.890625 53.21875 53.421875 
Q 53.21875 48.921875 51.53125 44.890625 
Q 49.859375 40.875 45.40625 35.40625 
Q 44.1875 33.984375 37.640625 27.21875 
Q 31.109375 20.453125 19.1875 8.296875 
z
" id="DejaVuSans-32"/>
       <path d="M 10.796875 72.90625 
L 49.515625 72.90625 
L 49.515625 64.59375 
L 19.828125 64.59375 
L 19.828125 46.734375 
Q 21.96875 47.46875 24.109375 47.828125 
Q 26.265625 48.1875 28.421875 48.1875 
Q 40.625 48.1875 47.75 41.5 
Q 54.890625 34.8125 54.890625 23.390625 
Q 54.890625 11.625 47.5625 5.09375 
Q 40.234375 -1.421875 26.90625 -1.421875 
Q 22.3125 -1.421875 17.546875 -0.640625 
Q 12.796875 0.140625 7.71875 1.703125 
L 7.71875 11.625 
Q 12.109375 9.234375 16.796875 8.0625 
Q 21.484375 6.890625 26.703125 6.890625 
Q 35.15625 6.890625 40.078125 11.328125 
Q 45.015625 15.765625 45.015625 23.390625 
Q 45.015625 31 40.078125 35.4375 
Q 35.15625 39.890625 26.703125 39.890625 
Q 22.75 39.890625 18.8125 39.015625 
Q 14.890625 38.140625 10.796875 36.28125 
z
" id="DejaVuSans-35"/>
      </defs>
      <g transform="translate(108.255974 322.182437)scale(0.1 -0.1)">
       <use xlink:href="#DejaVuSans-32"/>
       <use x="63.623047" xlink:href="#DejaVuSans-35"/>
      </g>
     </g>
    </g>
    <g id="xtick_3">
     <g id="line2d_5">
      <path clip-path="url(#p0ebb2cb92c)" d="M 155.404221 307.584 
L 155.404221 41.472 
" style="fill:none;stroke:#b0b0b0;stroke-linecap:square;stroke-width:0.8;"/>
     </g>
     <g id="line2d_6">
      <g>
       <use style="stroke:#000000;stroke-width:0.8;" x="155.404221" xlink:href="#m2972e7934b" y="307.584"/>
      </g>
     </g>
     <g id="text_3">
      <!-- 50 -->
      <g transform="translate(149.041721 322.182437)scale(0.1 -0.1)">
       <use xlink:href="#DejaVuSans-35"/>
       <use x="63.623047" xlink:href="#DejaVuSans-30"/>
      </g>
     </g>
    </g>
    <g id="xtick_4">
     <g id="line2d_7">
      <path clip-path="url(#p0ebb2cb92c)" d="M 196.189968 307.584 
L 196.189968 41.472 
" style="fill:none;stroke:#b0b0b0;stroke-linecap:square;stroke-width:0.8;"/>
     </g>
     <g id="line2d_8">
      <g>
       <use style="stroke:#000000;stroke-width:0.8;" x="196.189968" xlink:href="#m2972e7934b" y="307.584"/>
      </g>
     </g>
     <g id="text_4">
      <!-- 75 -->
      <defs>
       <path d="M 8.203125 72.90625 
L 55.078125 72.90625 
L 55.078125 68.703125 
L 28.609375 0 
L 18.3125 0 
L 43.21875 64.59375 
L 8.203125 64.59375 
z
" id="DejaVuSans-37"/>
      </defs>
      <g transform="translate(189.827468 322.182437)scale(0.1 -0.1)">
       <use xlink:href="#DejaVuSans-37"/>
       <use x="63.623047" xlink:href="#DejaVuSans-35"/>
      </g>
     </g>
    </g>
    <g id="xtick_5">
     <g id="line2d_9">
      <path clip-path="url(#p0ebb2cb92c)" d="M 236.975715 307.584 
L 236.975715 41.472 
" style="fill:none;stroke:#b0b0b0;stroke-linecap:square;stroke-width:0.8;"/>
     </g>
     <g id="line2d_10">
      <g>
       <use style="stroke:#000000;stroke-width:0.8;" x="236.975715" xlink:href="#m2972e7934b" y="307.584"/>
      </g>
     </g>
     <g id="text_5">
      <!-- 100 -->
      <defs>
       <path d="M 12.40625 8.296875 
L 28.515625 8.296875 
L 28.515625 63.921875 
L 10.984375 60.40625 
L 10.984375 69.390625 
L 28.421875 72.90625 
L 38.28125 72.90625 
L 38.28125 8.296875 
L 54.390625 8.296875 
L 54.390625 0 
L 12.40625 0 
z
" id="DejaVuSans-31"/>
      </defs>
      <g transform="translate(227.431965 322.182437)scale(0.1 -0.1)">
       <use xlink:href="#DejaVuSans-31"/>
       <use x="63.623047" xlink:href="#DejaVuSans-30"/>
       <use x="127.246094" xlink:href="#DejaVuSans-30"/>
      </g>
     </g>
    </g>
    <g id="xtick_6">
     <g id="line2d_11">
      <path clip-path="url(#p0ebb2cb92c)" d="M 277.761462 307.584 
L 277.761462 41.472 
" style="fill:none;stroke:#b0b0b0;stroke-linecap:square;stroke-width:0.8;"/>
     </g>
     <g id="line2d_12">
      <g>
       <use style="stroke:#000000;stroke-width:0.8;" x="277.761462" xlink:href="#m2972e7934b" y="307.584"/>
      </g>
     </g>
     <g id="text_6">
      <!-- 125 -->
      <g transform="translate(268.217712 322.182437)scale(0.1 -0.1)">
       <use xlink:href="#DejaVuSans-31"/>
       <use x="63.623047" xlink:href="#DejaVuSans-32"/>
       <use x="127.246094" xlink:href="#DejaVuSans-35"/>
      </g>
     </g>
    </g>
    <g id="xtick_7">
     <g id="line2d_13">
      <path clip-path="url(#p0ebb2cb92c)" d="M 318.547209 307.584 
L 318.547209 41.472 
" style="fill:none;stroke:#b0b0b0;stroke-linecap:square;stroke-width:0.8;"/>
     </g>
     <g id="line2d_14">
      <g>
       <use style="stroke:#000000;stroke-width:0.8;" x="318.547209" xlink:href="#m2972e7934b" y="307.584"/>
      </g>
     </g>
     <g id="text_7">
      <!-- 150 -->
      <g transform="translate(309.003459 322.182437)scale(0.1 -0.1)">
       <use xlink:href="#DejaVuSans-31"/>
       <use x="63.623047" xlink:href="#DejaVuSans-35"/>
       <use x="127.246094" xlink:href="#DejaVuSans-30"/>
      </g>
     </g>
    </g>
    <g id="xtick_8">
     <g id="line2d_15">
      <path clip-path="url(#p0ebb2cb92c)" d="M 359.332956 307.584 
L 359.332956 41.472 
" style="fill:none;stroke:#b0b0b0;stroke-linecap:square;stroke-width:0.8;"/>
     </g>
     <g id="line2d_16">
      <g>
       <use style="stroke:#000000;stroke-width:0.8;" x="359.332956" xlink:href="#m2972e7934b" y="307.584"/>
      </g>
     </g>
     <g id="text_8">
      <!-- 175 -->
      <g transform="translate(349.789206 322.182437)scale(0.1 -0.1)">
       <use xlink:href="#DejaVuSans-31"/>
       <use x="63.623047" xlink:href="#DejaVuSans-37"/>
       <use x="127.246094" xlink:href="#DejaVuSans-35"/>
      </g>
     </g>
    </g>
    <g id="xtick_9">
     <g id="line2d_17">
      <path clip-path="url(#p0ebb2cb92c)" d="M 400.118703 307.584 
L 400.118703 41.472 
" style="fill:none;stroke:#b0b0b0;stroke-linecap:square;stroke-width:0.8;"/>
     </g>
     <g id="line2d_18">
      <g>
       <use style="stroke:#000000;stroke-width:0.8;" x="400.118703" xlink:href="#m2972e7934b" y="307.584"/>
      </g>
     </g>
     <g id="text_9">
      <!-- 200 -->
      <g transform="translate(390.574953 322.182437)scale(0.1 -0.1)">
       <use xlink:href="#DejaVuSans-32"/>
       <use x="63.623047" xlink:href="#DejaVuSans-30"/>
       <use x="127.246094" xlink:href="#DejaVuSans-30"/>
      </g>
     </g>
    </g>
    <g id="text_10">
     <!-- Generations -->
     <defs>
      <path d="M 59.515625 10.40625 
L 59.515625 29.984375 
L 43.40625 29.984375 
L 43.40625 38.09375 
L 69.28125 38.09375 
L 69.28125 6.78125 
Q 63.578125 2.734375 56.6875 0.65625 
Q 49.8125 -1.421875 42 -1.421875 
Q 24.90625 -1.421875 15.25 8.5625 
Q 5.609375 18.5625 5.609375 36.375 
Q 5.609375 54.25 15.25 64.234375 
Q 24.90625 74.21875 42 74.21875 
Q 49.125 74.21875 55.546875 72.453125 
Q 61.96875 70.703125 67.390625 67.28125 
L 67.390625 56.78125 
Q 61.921875 61.421875 55.765625 63.765625 
Q 49.609375 66.109375 42.828125 66.109375 
Q 29.4375 66.109375 22.71875 58.640625 
Q 16.015625 51.171875 16.015625 36.375 
Q 16.015625 21.625 22.71875 14.15625 
Q 29.4375 6.6875 42.828125 6.6875 
Q 48.046875 6.6875 52.140625 7.59375 
Q 56.25 8.5 59.515625 10.40625 
z
" id="DejaVuSans-47"/>
      <path d="M 56.203125 29.59375 
L 56.203125 25.203125 
L 14.890625 25.203125 
Q 15.484375 15.921875 20.484375 11.0625 
Q 25.484375 6.203125 34.421875 6.203125 
Q 39.59375 6.203125 44.453125 7.46875 
Q 49.3125 8.734375 54.109375 11.28125 
L 54.109375 2.78125 
Q 49.265625 0.734375 44.1875 -0.34375 
Q 39.109375 -1.421875 33.890625 -1.421875 
Q 20.796875 -1.421875 13.15625 6.1875 
Q 5.515625 13.8125 5.515625 26.8125 
Q 5.515625 40.234375 12.765625 48.109375 
Q 20.015625 56 32.328125 56 
Q 43.359375 56 49.78125 48.890625 
Q 56.203125 41.796875 56.203125 29.59375 
z
M 47.21875 32.234375 
Q 47.125 39.59375 43.09375 43.984375 
Q 39.0625 48.390625 32.421875 48.390625 
Q 24.90625 48.390625 20.390625 44.140625 
Q 15.875 39.890625 15.1875 32.171875 
z
" id="DejaVuSans-65"/>
      <path d="M 54.890625 33.015625 
L 54.890625 0 
L 45.90625 0 
L 45.90625 32.71875 
Q 45.90625 40.484375 42.875 44.328125 
Q 39.84375 48.1875 33.796875 48.1875 
Q 26.515625 48.1875 22.3125 43.546875 
Q 18.109375 38.921875 18.109375 30.90625 
L 18.109375 0 
L 9.078125 0 
L 9.078125 54.6875 
L 18.109375 54.6875 
L 18.109375 46.1875 
Q 21.34375 51.125 25.703125 53.5625 
Q 30.078125 56 35.796875 56 
Q 45.21875 56 50.046875 50.171875 
Q 54.890625 44.34375 54.890625 33.015625 
z
" id="DejaVuSans-6e"/>
      <path d="M 41.109375 46.296875 
Q 39.59375 47.171875 37.8125 47.578125 
Q 36.03125 48 33.890625 48 
Q 26.265625 48 22.1875 43.046875 
Q 18.109375 38.09375 18.109375 28.8125 
L 18.109375 0 
L 9.078125 0 
L 9.078125 54.6875 
L 18.109375 54.6875 
L 18.109375 46.1875 
Q 20.953125 51.171875 25.484375 53.578125 
Q 30.03125 56 36.53125 56 
Q 37.453125 56 38.578125 55.875 
Q 39.703125 55.765625 41.0625 55.515625 
z
" id="DejaVuSans-72"/>
      <path d="M 34.28125 27.484375 
Q 23.390625 27.484375 19.1875 25 
Q 14.984375 22.515625 14.984375 16.5 
Q 14.984375 11.71875 18.140625 8.90625 
Q 21.296875 6.109375 26.703125 6.109375 
Q 34.1875 6.109375 38.703125 11.40625 
Q 43.21875 16.703125 43.21875 25.484375 
L 43.21875 27.484375 
z
M 52.203125 31.203125 
L 52.203125 0 
L 43.21875 0 
L 43.21875 8.296875 
Q 40.140625 3.328125 35.546875 0.953125 
Q 30.953125 -1.421875 24.3125 -1.421875 
Q 15.921875 -1.421875 10.953125 3.296875 
Q 6 8.015625 6 15.921875 
Q 6 25.140625 12.171875 29.828125 
Q 18.359375 34.515625 30.609375 34.515625 
L 43.21875 34.515625 
L 43.21875 35.40625 
Q 43.21875 41.609375 39.140625 45 
Q 35.0625 48.390625 27.6875 48.390625 
Q 23 48.390625 18.546875 47.265625 
Q 14.109375 46.140625 10.015625 43.890625 
L 10.015625 52.203125 
Q 14.9375 54.109375 19.578125 55.046875 
Q 24.21875 56 28.609375 56 
Q 40.484375 56 46.34375 49.84375 
Q 52.203125 43.703125 52.203125 31.203125 
z
" id="DejaVuSans-61"/>
      <path d="M 18.3125 70.21875 
L 18.3125 54.6875 
L 36.8125 54.6875 
L 36.8125 47.703125 
L 18.3125 47.703125 
L 18.3125 18.015625 
Q 18.3125 11.328125 20.140625 9.421875 
Q 21.96875 7.515625 27.59375 7.515625 
L 36.8125 7.515625 
L 36.8125 0 
L 27.59375 0 
Q 17.1875 0 13.234375 3.875 
Q 9.28125 7.765625 9.28125 18.015625 
L 9.28125 47.703125 
L 2.6875 47.703125 
L 2.6875 54.6875 
L 9.28125 54.6875 
L 9.28125 70.21875 
z
" id="DejaVuSans-74"/>
      <path d="M 9.421875 54.6875 
L 18.40625 54.6875 
L 18.40625 0 
L 9.421875 0 
z
M 9.421875 75.984375 
L 18.40625 75.984375 
L 18.40625 64.59375 
L 9.421875 64.59375 
z
" id="DejaVuSans-69"/>
      <path d="M 30.609375 48.390625 
Q 23.390625 48.390625 19.1875 42.75 
Q 14.984375 37.109375 14.984375 27.296875 
Q 14.984375 17.484375 19.15625 11.84375 
Q 23.34375 6.203125 30.609375 6.203125 
Q 37.796875 6.203125 41.984375 11.859375 
Q 46.1875 17.53125 46.1875 27.296875 
Q 46.1875 37.015625 41.984375 42.703125 
Q 37.796875 48.390625 30.609375 48.390625 
z
M 30.609375 56 
Q 42.328125 56 49.015625 48.375 
Q 55.71875 40.765625 55.71875 27.296875 
Q 55.71875 13.875 49.015625 6.21875 
Q 42.328125 -1.421875 30.609375 -1.421875 
Q 18.84375 -1.421875 12.171875 6.21875 
Q 5.515625 13.875 5.515625 27.296875 
Q 5.515625 40.765625 12.171875 48.375 
Q 18.84375 56 30.609375 56 
z
" id="DejaVuSans-6f"/>
      <path d="M 44.28125 53.078125 
L 44.28125 44.578125 
Q 40.484375 46.53125 36.375 47.5 
Q 32.28125 48.484375 27.875 48.484375 
Q 21.1875 48.484375 17.84375 46.4375 
Q 14.5 44.390625 14.5 40.28125 
Q 14.5 37.15625 16.890625 35.375 
Q 19.28125 33.59375 26.515625 31.984375 
L 29.59375 31.296875 
Q 39.15625 29.25 43.1875 25.515625 
Q 47.21875 21.78125 47.21875 15.09375 
Q 47.21875 7.46875 41.1875 3.015625 
Q 35.15625 -1.421875 24.609375 -1.421875 
Q 20.21875 -1.421875 15.453125 -0.5625 
Q 10.6875 0.296875 5.421875 2 
L 5.421875 11.28125 
Q 10.40625 8.6875 15.234375 7.390625 
Q 20.0625 6.109375 24.8125 6.109375 
Q 31.15625 6.109375 34.5625 8.28125 
Q 37.984375 10.453125 37.984375 14.40625 
Q 37.984375 18.0625 35.515625 20.015625 
Q 33.0625 21.96875 24.703125 23.78125 
L 21.578125 24.515625 
Q 13.234375 26.265625 9.515625 29.90625 
Q 5.8125 33.546875 5.8125 39.890625 
Q 5.8125 47.609375 11.28125 51.796875 
Q 16.75 56 26.8125 56 
Q 31.78125 56 36.171875 55.265625 
Q 40.578125 54.546875 44.28125 53.078125 
z
" id="DejaVuSans-73"/>
     </defs>
     <g transform="translate(205.662344 335.860562)scale(0.1 -0.1)">
      <use xlink:href="#DejaVuSans-47"/>
      <use x="77.490234" xlink:href="#DejaVuSans-65"/>
      <use x="139.013672" xlink:href="#DejaVuSans-6e"/>
      <use x="202.392578" xlink:href="#DejaVuSans-65"/>
      <use x="263.916016" xlink:href="#DejaVuSans-72"/>
      <use x="305.029297" xlink:href="#DejaVuSans-61"/>
      <use x="366.308594" xlink:href="#DejaVuSans-74"/>
      <use x="405.517578" xlink:href="#DejaVuSans-69"/>
      <use x="433.300781" xlink:href="#DejaVuSans-6f"/>
      <use x="494.482422" xlink:href="#DejaVuSans-6e"/>
      <use x="557.861328" xlink:href="#DejaVuSans-73"/>
     </g>
    </g>
   </g>
   <g id="matplotlib.axis_2">
    <g id="ytick_1">
     <g id="line2d_19">
      <path clip-path="url(#p0ebb2cb92c)" d="M 57.6 272.683109 
L 414.72 272.683109 
" style="fill:none;stroke:#b0b0b0;stroke-linecap:square;stroke-width:0.8;"/>
     </g>
     <g id="line2d_20">
      <defs>
       <path d="M 0 0 
L -3.5 0 
" id="m5ce392456e" style="stroke:#000000;stroke-width:0.8;"/>
      </defs>
      <g>
       <use style="stroke:#000000;stroke-width:0.8;" x="57.6" xlink:href="#m5ce392456e" y="272.683109"/>
      </g>
     </g>
     <g id="text_11">
      <!-- 0 -->
      <g transform="translate(44.2375 276.482328)scale(0.1 -0.1)">
       <use xlink:href="#DejaVuSans-30"/>
      </g>
     </g>
    </g>
    <g id="ytick_2">
     <g id="line2d_21">
      <path clip-path="url(#p0ebb2cb92c)" d="M 57.6 233.946062 
L 414.72 233.946062 
" style="fill:none;stroke:#b0b0b0;stroke-linecap:square;stroke-width:0.8;"/>
     </g>
     <g id="line2d_22">
      <g>
       <use style="stroke:#000000;stroke-width:0.8;" x="57.6" xlink:href="#m5ce392456e" y="233.946062"/>
      </g>
     </g>
     <g id="text_12">
      <!-- 50 -->
      <g transform="translate(37.875 237.74528)scale(0.1 -0.1)">
       <use xlink:href="#DejaVuSans-35"/>
       <use x="63.623047" xlink:href="#DejaVuSans-30"/>
      </g>
     </g>
    </g>
    <g id="ytick_3">
     <g id="line2d_23">
      <path clip-path="url(#p0ebb2cb92c)" d="M 57.6 195.209014 
L 414.72 195.209014 
" style="fill:none;stroke:#b0b0b0;stroke-linecap:square;stroke-width:0.8;"/>
     </g>
     <g id="line2d_24">
      <g>
       <use style="stroke:#000000;stroke-width:0.8;" x="57.6" xlink:href="#m5ce392456e" y="195.209014"/>
      </g>
     </g>
     <g id="text_13">
      <!-- 100 -->
      <g transform="translate(31.5125 199.008233)scale(0.1 -0.1)">
       <use xlink:href="#DejaVuSans-31"/>
       <use x="63.623047" xlink:href="#DejaVuSans-30"/>
       <use x="127.246094" xlink:href="#DejaVuSans-30"/>
      </g>
     </g>
    </g>
    <g id="ytick_4">
     <g id="line2d_25">
      <path clip-path="url(#p0ebb2cb92c)" d="M 57.6 156.471967 
L 414.72 156.471967 
" style="fill:none;stroke:#b0b0b0;stroke-linecap:square;stroke-width:0.8;"/>
     </g>
     <g id="line2d_26">
      <g>
       <use style="stroke:#000000;stroke-width:0.8;" x="57.6" xlink:href="#m5ce392456e" y="156.471967"/>
      </g>
     </g>
     <g id="text_14">
      <!-- 150 -->
      <g transform="translate(31.5125 160.271186)scale(0.1 -0.1)">
       <use xlink:href="#DejaVuSans-31"/>
       <use x="63.623047" xlink:href="#DejaVuSans-35"/>
       <use x="127.246094" xlink:href="#DejaVuSans-30"/>
      </g>
     </g>
    </g>
    <g id="ytick_5">
     <g id="line2d_27">
      <path clip-path="url(#p0ebb2cb92c)" d="M 57.6 117.73492 
L 414.72 117.73492 
" style="fill:none;stroke:#b0b0b0;stroke-linecap:square;stroke-width:0.8;"/>
     </g>
     <g id="line2d_28">
      <g>
       <use style="stroke:#000000;stroke-width:0.8;" x="57.6" xlink:href="#m5ce392456e" y="117.73492"/>
      </g>
     </g>
     <g id="text_15">
      <!-- 200 -->
      <g transform="translate(31.5125 121.534139)scale(0.1 -0.1)">
       <use xlink:href="#DejaVuSans-32"/>
       <use x="63.623047" xlink:href="#DejaVuSans-30"/>
       <use x="127.246094" xlink:href="#DejaVuSans-30"/>
      </g>
     </g>
    </g>
    <g id="ytick_6">
     <g id="line2d_29">
      <path clip-path="url(#p0ebb2cb92c)" d="M 57.6 78.997872 
L 414.72 78.997872 
" style="fill:none;stroke:#b0b0b0;stroke-linecap:square;stroke-width:0.8;"/>
     </g>
     <g id="line2d_30">
      <g>
       <use style="stroke:#000000;stroke-width:0.8;" x="57.6" xlink:href="#m5ce392456e" y="78.997872"/>
      </g>
     </g>
     <g id="text_16">
      <!-- 250 -->
      <g transform="translate(31.5125 82.797091)scale(0.1 -0.1)">
       <use xlink:href="#DejaVuSans-32"/>
       <use x="63.623047" xlink:href="#DejaVuSans-35"/>
       <use x="127.246094" xlink:href="#DejaVuSans-30"/>
      </g>
     </g>
    </g>
    <g id="text_17">
     <!-- Fitness -->
     <defs>
      <path d="M 9.8125 72.90625 
L 51.703125 72.90625 
L 51.703125 64.59375 
L 19.671875 64.59375 
L 19.671875 43.109375 
L 48.578125 43.109375 
L 48.578125 34.8125 
L 19.671875 34.8125 
L 19.671875 0 
L 9.8125 0 
z
" id="DejaVuSans-46"/>
     </defs>
     <g transform="translate(25.432812 192.202219)rotate(-90)scale(0.1 -0.1)">
      <use xlink:href="#DejaVuSans-46"/>
      <use x="57.410156" xlink:href="#DejaVuSans-69"/>
      <use x="85.193359" xlink:href="#DejaVuSans-74"/>
      <use x="124.402344" xlink:href="#DejaVuSans-6e"/>
      <use x="187.78125" xlink:href="#DejaVuSans-65"/>
      <use x="249.304688" xlink:href="#DejaVuSans-73"/>
      <use x="301.404297" xlink:href="#DejaVuSans-73"/>
     </g>
    </g>
   </g>
   <g id="line2d_31">
    <path clip-path="url(#p0ebb2cb92c)" d="M 73.832727 209.176904 
L 75.464157 206.641789 
L 77.095587 202.661574 
L 78.727017 204.75992 
L 80.358447 210.762781 
L 81.989877 200.865356 
L 83.621307 206.704881 
L 85.252736 204.625251 
L 86.884166 196.63665 
L 88.515596 191.902016 
L 90.147026 208.708898 
L 93.409886 218.325175 
L 95.041316 217.991466 
L 96.672746 201.954539 
L 98.304175 225.346974 
L 99.935605 219.23237 
L 101.567035 216.344319 
L 103.198465 226.780956 
L 104.829895 220.257285 
L 106.461325 220.306307 
L 108.092755 209.820156 
L 109.724185 212.552615 
L 111.355614 204.727319 
L 112.987044 186.639739 
L 114.618474 201.899536 
L 116.249904 201.426123 
L 117.881334 199.95063 
L 119.512764 210.154901 
L 121.144194 217.309138 
L 122.775624 209.445408 
L 124.407053 210.295999 
L 126.038483 204.086774 
L 127.669913 208.256107 
L 129.301343 217.103374 
L 130.932773 203.892959 
L 132.564203 211.358843 
L 134.195633 211.638785 
L 135.827063 213.899815 
L 137.458492 219.428622 
L 139.089922 198.931237 
L 140.721352 201.188175 
L 142.352782 190.937703 
L 143.984212 189.786585 
L 145.615642 214.653485 
L 147.247072 202.743182 
L 148.878502 200.163946 
L 150.509931 183.162303 
L 152.141361 203.442905 
L 153.772791 206.440982 
L 157.035651 198.497487 
L 158.667081 207.420295 
L 160.298511 212.654392 
L 161.929941 209.114783 
L 163.56137 200.594367 
L 165.1928 195.891268 
L 166.82423 216.337169 
L 168.45566 209.429037 
L 170.08709 206.887423 
L 171.71852 205.483479 
L 173.34995 206.910229 
L 174.98138 207.064746 
L 176.61281 208.3267 
L 178.244239 209.190817 
L 179.875669 189.53239 
L 181.507099 202.150239 
L 183.138529 193.013522 
L 184.769959 199.13905 
L 186.401389 220.938694 
L 188.032819 197.917415 
L 189.664249 215.677023 
L 192.927108 199.650293 
L 196.189968 204.836169 
L 197.821398 221.707697 
L 199.452828 210.846269 
L 201.084258 215.58573 
L 202.715688 221.644462 
L 204.347117 198.06246 
L 205.978547 210.139775 
L 207.609977 210.763341 
L 209.241407 207.351955 
L 210.872837 209.961858 
L 212.504267 202.872905 
L 214.135697 184.042942 
L 215.767127 189.464493 
L 217.398556 183.689764 
L 219.029986 180.453785 
L 220.661416 210.457369 
L 222.292846 198.727628 
L 223.924276 207.692178 
L 225.555706 223.108771 
L 227.187136 211.632404 
L 228.818566 215.961419 
L 230.449995 219.931804 
L 232.081425 227.679268 
L 233.712855 226.286035 
L 235.344285 229.117974 
L 238.607145 214.514441 
L 240.238575 212.251536 
L 241.870005 198.358834 
L 243.501434 199.030561 
L 245.132864 189.736054 
L 246.764294 205.237237 
L 248.395724 198.699905 
L 250.027154 183.111747 
L 251.658584 188.730577 
L 253.290014 186.936322 
L 254.921444 203.648248 
L 256.552873 203.41311 
L 258.184303 229.172619 
L 259.815733 223.472362 
L 261.447163 224.352322 
L 263.078593 229.046783 
L 264.710023 230.283772 
L 266.341453 216.569697 
L 267.972883 209.432711 
L 269.604312 201.122551 
L 271.235742 194.257579 
L 272.867172 212.726762 
L 274.498602 201.75899 
L 276.130032 181.713436 
L 277.761462 204.855528 
L 279.392892 186.860435 
L 281.024322 185.151392 
L 282.655751 197.512357 
L 284.287181 200.92205 
L 285.918611 215.547124 
L 287.550041 216.479593 
L 289.181471 208.981589 
L 290.812901 197.084915 
L 292.444331 182.181084 
L 294.075761 196.724683 
L 295.70719 190.900345 
L 297.33862 193.560592 
L 298.97005 196.439271 
L 300.60148 205.059102 
L 302.23291 201.436563 
L 303.86434 193.324333 
L 305.49577 202.230329 
L 307.1272 209.503444 
L 308.75863 206.422899 
L 310.390059 209.129659 
L 312.021489 196.487667 
L 313.652919 209.741617 
L 315.284349 184.943707 
L 316.915779 178.564933 
L 318.547209 193.934238 
L 320.178639 215.485506 
L 321.810069 186.426641 
L 323.441498 200.843065 
L 325.072928 191.956669 
L 326.704358 219.258831 
L 328.335788 210.593727 
L 329.967218 209.666749 
L 331.598648 217.068228 
L 333.230078 200.599023 
L 334.861508 205.902213 
L 336.492937 195.029925 
L 338.124367 209.788514 
L 339.755797 187.824734 
L 341.387227 189.377256 
L 343.018657 192.196497 
L 344.650087 192.372931 
L 346.281517 208.621123 
L 347.912947 200.534871 
L 349.544376 214.875921 
L 351.175806 211.583851 
L 352.807236 211.902503 
L 354.438666 206.530812 
L 356.070096 192.728034 
L 357.701526 205.840117 
L 359.332956 192.203044 
L 360.964386 192.568312 
L 362.595815 190.822963 
L 364.227245 224.250677 
L 365.858675 212.952255 
L 367.490105 213.710183 
L 369.121535 217.816422 
L 370.752965 206.059759 
L 372.384395 203.938288 
L 374.015825 186.93394 
L 375.647254 204.968272 
L 377.278684 204.883683 
L 378.910114 192.37233 
L 380.541544 202.136367 
L 382.172974 206.379474 
L 383.804404 199.153256 
L 385.435834 189.179096 
L 387.067264 212.407643 
L 388.698693 208.112831 
L 390.330123 209.211783 
L 391.961553 213.237133 
L 393.592983 213.777333 
L 395.224413 196.06541 
L 396.855843 189.176828 
L 398.487273 203.745096 
L 398.487273 203.745096 
" style="fill:none;stroke:#0000ff;stroke-linecap:square;stroke-width:1.5;"/>
   </g>
   <g id="line2d_32">
    <path clip-path="url(#p0ebb2cb92c)" d="M 73.832727 273.371079 
L 75.464157 264.74983 
L 78.727017 268.333546 
L 80.358447 272.256817 
L 81.989877 261.172634 
L 83.621307 270.02479 
L 85.252736 265.474281 
L 86.884166 268.139539 
L 88.515596 267.85269 
L 90.147026 275.237418 
L 91.778456 276.573414 
L 93.409886 283.089906 
L 95.041316 272.750054 
L 96.672746 266.999482 
L 98.304175 279.298984 
L 99.935605 273.741055 
L 101.567035 270.189811 
L 103.198465 275.862313 
L 104.829895 279.14258 
L 106.461325 283.789812 
L 108.092755 269.375236 
L 109.724185 276.933886 
L 111.355614 268.698924 
L 112.987044 253.402536 
L 114.618474 273.579542 
L 116.249904 265.073396 
L 117.881334 270.761826 
L 119.512764 282.593604 
L 121.144194 289.456179 
L 122.775624 278.208877 
L 124.407053 271.971822 
L 126.038483 268.9394 
L 127.669913 279.193495 
L 129.301343 279.65062 
L 130.932773 271.021339 
L 132.564203 278.093347 
L 134.195633 278.956438 
L 135.827063 271.017387 
L 137.458492 280.357814 
L 139.089922 264.95648 
L 140.721352 273.406571 
L 142.352782 263.828875 
L 143.984212 267.904846 
L 145.615642 284.777485 
L 147.247072 274.725091 
L 148.878502 273.585957 
L 150.509931 257.218992 
L 152.141361 277.429928 
L 153.772791 272.527722 
L 155.404221 276.766754 
L 157.035651 271.796025 
L 158.667081 280.44634 
L 160.298511 280.206142 
L 161.929941 275.702681 
L 163.56137 264.177347 
L 165.1928 269.521086 
L 166.82423 284.627508 
L 168.45566 273.673077 
L 170.08709 274.015837 
L 171.71852 275.560572 
L 173.34995 273.464754 
L 174.98138 276.381571 
L 176.61281 283.532452 
L 178.244239 275.800862 
L 179.875669 258.119815 
L 181.507099 275.335716 
L 183.138529 268.136796 
L 184.769959 271.729173 
L 186.401389 284.866114 
L 188.032819 264.87543 
L 189.664249 280.188257 
L 191.295678 275.688212 
L 192.927108 273.025829 
L 194.558538 275.189024 
L 197.821398 285.525741 
L 199.452828 275.011315 
L 201.084258 279.840135 
L 202.715688 282.953443 
L 204.347117 267.533601 
L 205.978547 282.208546 
L 207.609977 276.399528 
L 209.241407 268.917759 
L 210.872837 274.114916 
L 212.504267 273.318061 
L 214.135697 257.956137 
L 215.767127 262.216714 
L 217.398556 262.295128 
L 219.029986 258.351029 
L 220.661416 284.223288 
L 222.292846 274.594753 
L 223.924276 278.375266 
L 225.555706 291.099159 
L 227.187136 278.243613 
L 228.818566 281.685083 
L 230.449995 273.924221 
L 232.081425 279.233237 
L 233.712855 278.809131 
L 235.344285 286.867641 
L 236.975715 278.176501 
L 238.607145 278.374579 
L 240.238575 282.936906 
L 241.870005 273.200501 
L 243.501434 274.603942 
L 245.132864 268.735399 
L 246.764294 280.59035 
L 248.395724 275.739815 
L 250.027154 261.128967 
L 251.658584 262.666962 
L 253.290014 265.042981 
L 254.921444 273.467245 
L 256.552873 277.781511 
L 258.184303 295.488 
L 259.815733 278.600284 
L 261.447163 278.081749 
L 263.078593 281.715297 
L 264.710023 281.400994 
L 266.341453 280.776287 
L 267.972883 279.744766 
L 271.235742 268.647803 
L 272.867172 280.98397 
L 274.498602 273.933698 
L 276.130032 258.396409 
L 277.761462 275.309907 
L 279.392892 263.093791 
L 281.024322 259.124334 
L 282.655751 270.477899 
L 284.287181 273.849696 
L 285.918611 281.046935 
L 287.550041 284.796396 
L 289.181471 281.22552 
L 290.812901 269.349251 
L 292.444331 254.219744 
L 294.075761 268.330938 
L 295.70719 268.064092 
L 297.33862 271.305673 
L 298.97005 269.584424 
L 300.60148 280.793584 
L 302.23291 272.324888 
L 303.86434 269.687817 
L 305.49577 269.335563 
L 307.1272 274.06228 
L 310.390059 276.566646 
L 312.021489 265.750982 
L 313.652919 281.771834 
L 315.284349 255.96737 
L 316.915779 252.583542 
L 318.547209 265.806103 
L 320.178639 290.630492 
L 321.810069 266.039292 
L 323.441498 278.806521 
L 325.072928 267.226066 
L 326.704358 282.72922 
L 328.335788 282.122095 
L 329.967218 272.24522 
L 331.598648 284.650574 
L 333.230078 273.356134 
L 334.861508 282.040406 
L 336.492937 268.2304 
L 338.124367 284.842163 
L 339.755797 266.291713 
L 341.387227 267.798187 
L 343.018657 262.202372 
L 344.650087 273.747234 
L 346.281517 279.1561 
L 347.912947 273.801764 
L 349.544376 278.591682 
L 351.175806 284.494291 
L 352.807236 277.956197 
L 354.438666 279.878423 
L 356.070096 264.396383 
L 357.701526 277.69728 
L 359.332956 273.309708 
L 360.964386 266.088388 
L 362.595815 261.034514 
L 364.227245 285.350336 
L 365.858675 275.718148 
L 367.490105 280.198362 
L 369.121535 276.062256 
L 370.752965 263.227038 
L 372.384395 264.312717 
L 374.015825 257.537176 
L 375.647254 280.791231 
L 377.278684 275.128715 
L 378.910114 264.508061 
L 380.541544 276.766087 
L 382.172974 276.802858 
L 383.804404 272.171625 
L 385.435834 258.081261 
L 387.067264 277.469584 
L 388.698693 278.576018 
L 390.330123 273.274195 
L 391.961553 281.311823 
L 393.592983 280.482828 
L 395.224413 260.608512 
L 396.855843 259.497524 
L 398.487273 273.861151 
L 398.487273 273.861151 
" style="fill:none;stroke:#008000;stroke-dasharray:9.6,2.4,1.5,2.4;stroke-dashoffset:0;stroke-width:1.5;"/>
   </g>
   <g id="line2d_33">
    <path clip-path="url(#p0ebb2cb92c)" d="M 73.832727 144.982728 
L 75.464157 148.533749 
L 77.095587 138.78622 
L 78.727017 141.186294 
L 80.358447 149.268745 
L 81.989877 140.558078 
L 83.621307 143.384972 
L 85.252736 143.776221 
L 86.884166 125.13376 
L 88.515596 115.951343 
L 90.147026 142.180379 
L 91.778456 150.631895 
L 93.409886 153.560443 
L 95.041316 163.232879 
L 96.672746 136.909596 
L 98.304175 171.394963 
L 99.935605 164.723684 
L 101.567035 162.498827 
L 103.198465 177.6996 
L 104.829895 161.37199 
L 106.461325 156.822801 
L 108.092755 150.265076 
L 109.724185 148.171345 
L 111.355614 140.755714 
L 112.987044 119.876942 
L 114.618474 130.219529 
L 116.249904 137.778849 
L 117.881334 129.139434 
L 119.512764 137.716198 
L 121.144194 145.162097 
L 122.775624 140.681938 
L 124.407053 148.620177 
L 126.038483 139.234147 
L 127.669913 137.318718 
L 129.301343 154.556128 
L 130.932773 136.76458 
L 132.564203 144.62434 
L 134.195633 144.321133 
L 135.827063 156.782243 
L 137.458492 158.49943 
L 139.089922 132.905995 
L 140.721352 128.969778 
L 142.352782 118.046532 
L 143.984212 111.668325 
L 145.615642 144.529486 
L 147.247072 130.761274 
L 148.878502 126.741935 
L 150.509931 109.105614 
L 152.141361 129.455881 
L 153.772791 140.354241 
L 155.404221 127.949583 
L 157.035651 125.198949 
L 158.667081 134.39425 
L 160.298511 145.102642 
L 161.929941 142.526884 
L 163.56137 137.011387 
L 165.1928 122.26145 
L 166.82423 148.04683 
L 168.45566 145.184997 
L 170.08709 139.75901 
L 171.71852 135.406386 
L 173.34995 140.355705 
L 174.98138 137.74792 
L 176.61281 133.120948 
L 178.244239 142.580772 
L 179.875669 120.944964 
L 181.507099 128.964763 
L 183.138529 117.890248 
L 184.769959 126.548927 
L 186.401389 157.011273 
L 188.032819 130.959399 
L 189.664249 151.165788 
L 191.295678 139.285283 
L 192.927108 126.274757 
L 194.558538 129.204909 
L 196.189968 129.293644 
L 197.821398 157.889654 
L 199.452828 146.681222 
L 201.084258 151.331325 
L 202.715688 160.335482 
L 204.347117 128.591319 
L 205.978547 138.071004 
L 207.609977 145.127153 
L 209.241407 145.786152 
L 210.872837 145.808801 
L 212.504267 132.42775 
L 214.135697 110.129747 
L 215.767127 116.712273 
L 217.398556 105.084399 
L 219.029986 102.55654 
L 220.661416 136.691451 
L 222.292846 122.860502 
L 223.924276 137.00909 
L 225.555706 155.118383 
L 227.187136 145.021194 
L 228.818566 150.237756 
L 230.449995 165.939387 
L 232.081425 176.125299 
L 235.344285 171.368307 
L 236.975715 165.948674 
L 238.607145 150.654304 
L 240.238575 141.566166 
L 241.870005 123.517168 
L 243.501434 123.45718 
L 245.132864 110.73671 
L 246.764294 129.884123 
L 248.395724 121.659995 
L 250.027154 105.094528 
L 251.658584 114.794192 
L 253.290014 108.829663 
L 254.921444 133.829251 
L 256.552873 129.04471 
L 258.184303 162.857238 
L 259.815733 168.34444 
L 261.447163 170.622894 
L 263.078593 176.378268 
L 264.710023 179.166551 
L 266.341453 152.363107 
L 267.972883 139.120657 
L 269.604312 128.183778 
L 271.235742 119.867355 
L 272.867172 144.469554 
L 274.498602 129.584283 
L 276.130032 105.030464 
L 277.761462 134.401149 
L 279.392892 110.627079 
L 281.024322 111.178449 
L 282.655751 124.546814 
L 284.287181 127.994405 
L 285.918611 150.047314 
L 287.550041 148.16279 
L 290.812901 124.820578 
L 292.444331 110.142424 
L 294.075761 125.118427 
L 295.70719 113.736597 
L 297.33862 115.815511 
L 298.97005 123.294118 
L 300.60148 129.32462 
L 302.23291 130.548238 
L 303.86434 116.960848 
L 305.49577 135.125096 
L 307.1272 144.944607 
L 308.75863 137.51296 
L 310.390059 141.692672 
L 312.021489 127.224352 
L 313.652919 137.7114 
L 315.284349 113.920043 
L 316.915779 104.546324 
L 320.178639 140.340519 
L 321.810069 106.81399 
L 323.441498 122.87961 
L 325.072928 116.687272 
L 326.704358 155.788441 
L 328.335788 139.065358 
L 329.967218 147.088278 
L 331.598648 149.485881 
L 333.230078 127.841911 
L 334.861508 129.764019 
L 336.492937 121.82945 
L 338.124367 134.734866 
L 339.755797 109.357756 
L 341.387227 110.956326 
L 343.018657 122.190623 
L 344.650087 110.998628 
L 346.281517 138.086146 
L 347.912947 127.267977 
L 349.544376 151.16016 
L 351.175806 138.67341 
L 352.807236 145.848809 
L 356.070096 121.059685 
L 357.701526 133.982955 
L 359.332956 111.09638 
L 360.964386 119.048236 
L 362.595815 120.611413 
L 364.227245 163.151019 
L 365.858675 150.186363 
L 367.490105 147.222003 
L 369.121535 159.570589 
L 370.752965 148.89248 
L 372.384395 143.56386 
L 374.015825 116.330703 
L 375.647254 129.145314 
L 377.278684 134.638651 
L 378.910114 120.236598 
L 380.541544 127.506647 
L 382.172974 135.956089 
L 383.804404 126.134888 
L 385.435834 120.276931 
L 387.067264 147.345701 
L 388.698693 137.649644 
L 390.330123 145.14937 
L 391.961553 145.162444 
L 393.592983 147.071838 
L 395.224413 131.522309 
L 396.855843 118.856132 
L 398.487273 133.62904 
L 398.487273 133.62904 
" style="fill:none;stroke:#008000;stroke-dasharray:9.6,2.4,1.5,2.4;stroke-dashoffset:0;stroke-width:1.5;"/>
   </g>
   <g id="line2d_34">
    <path clip-path="url(#p0ebb2cb92c)" d="M 73.832727 74.682093 
L 75.464157 77.153214 
L 77.095587 81.820532 
L 78.727017 93.856928 
L 80.358447 86.447202 
L 81.989877 70.182256 
L 83.621307 83.504401 
L 85.252736 75.139202 
L 86.884166 57.954591 
L 88.515596 61.982961 
L 90.147026 66.347016 
L 91.778456 77.756319 
L 93.409886 80.491061 
L 95.041316 72.253264 
L 96.672746 65.399891 
L 98.304175 71.836274 
L 99.935605 74.415701 
L 101.567035 81.02892 
L 103.198465 74.211927 
L 104.829895 69.366735 
L 106.461325 63.757304 
L 108.092755 71.692535 
L 109.724185 58.034432 
L 111.355614 65.922605 
L 112.987044 68.844027 
L 114.618474 64.053032 
L 116.249904 98.467666 
L 117.881334 70.851392 
L 119.512764 76.387478 
L 121.144194 61.134622 
L 122.775624 68.608313 
L 124.407053 64.985925 
L 126.038483 81.454128 
L 127.669913 62.094649 
L 129.301343 84.411221 
L 130.932773 64.712558 
L 132.564203 59.438391 
L 134.195633 63.067863 
L 135.827063 82.529632 
L 137.458492 71.976053 
L 139.089922 63.125409 
L 140.721352 57.044086 
L 142.352782 61.902222 
L 143.984212 53.568 
L 145.615642 62.056615 
L 147.247072 58.863829 
L 148.878502 60.12382 
L 150.509931 63.173031 
L 152.141361 66.840859 
L 153.772791 63.445468 
L 155.404221 61.960971 
L 157.035651 66.979484 
L 158.667081 63.409988 
L 160.298511 71.214055 
L 161.929941 60.898043 
L 163.56137 58.465128 
L 165.1928 62.914659 
L 166.82423 58.566278 
L 168.45566 67.233994 
L 170.08709 61.78911 
L 171.71852 64.813215 
L 173.34995 74.446194 
L 174.98138 74.315747 
L 176.61281 65.896526 
L 178.244239 66.041536 
L 179.875669 61.910356 
L 181.507099 69.676492 
L 183.138529 64.293895 
L 184.769959 57.636197 
L 186.401389 68.341957 
L 188.032819 61.679252 
L 189.664249 63.705327 
L 191.295678 60.176071 
L 192.927108 72.118999 
L 194.558538 66.489077 
L 196.189968 70.769771 
L 197.821398 69.174736 
L 199.452828 59.60895 
L 201.084258 64.749684 
L 202.715688 70.918868 
L 204.347117 69.591171 
L 205.978547 65.194561 
L 207.609977 65.225852 
L 209.241407 69.310168 
L 210.872837 74.767186 
L 212.504267 63.815056 
L 214.135697 75.889264 
L 215.767127 75.754277 
L 217.398556 66.995194 
L 219.029986 68.149775 
L 220.661416 66.684806 
L 222.292846 67.569925 
L 223.924276 67.943773 
L 225.555706 62.639389 
L 227.187136 68.126917 
L 228.818566 67.847206 
L 230.449995 75.724725 
L 232.081425 117.73492 
L 233.712855 68.21002 
L 235.344285 67.102035 
L 236.975715 76.764715 
L 238.607145 56.272811 
L 240.238575 63.889563 
L 241.870005 63.68718 
L 243.501434 56.564894 
L 245.132864 67.569281 
L 246.764294 69.326939 
L 248.395724 65.430828 
L 250.027154 67.361822 
L 251.658584 63.286228 
L 253.290014 63.388146 
L 254.921444 59.253314 
L 256.552873 68.083396 
L 258.184303 66.62206 
L 259.815733 66.982418 
L 261.447163 70.838506 
L 263.078593 69.249445 
L 264.710023 69.038963 
L 266.341453 66.125238 
L 267.972883 66.80638 
L 269.604312 65.212405 
L 271.235742 66.123733 
L 272.867172 61.531715 
L 274.498602 61.042529 
L 276.130032 55.911745 
L 277.761462 57.205775 
L 281.024322 66.473837 
L 282.655751 59.077185 
L 284.287181 66.552125 
L 287.550041 71.173578 
L 289.181471 65.193883 
L 290.812901 66.367091 
L 292.444331 65.645531 
L 294.075761 64.269977 
L 295.70719 60.050135 
L 297.33862 64.082842 
L 298.97005 57.512557 
L 300.60148 66.285438 
L 302.23291 70.760186 
L 303.86434 63.59328 
L 305.49577 70.937996 
L 307.1272 62.835334 
L 308.75863 69.829136 
L 310.390059 64.243322 
L 312.021489 75.065376 
L 313.652919 64.526097 
L 315.284349 61.750034 
L 318.547209 72.080181 
L 320.178639 65.052033 
L 323.441498 67.892158 
L 325.072928 61.130558 
L 326.704358 72.721487 
L 328.335788 72.888316 
L 329.967218 74.595247 
L 331.598648 71.148744 
L 333.230078 70.263919 
L 334.861508 64.225167 
L 336.492937 66.749248 
L 338.124367 68.911947 
L 339.755797 69.188494 
L 341.387227 64.558445 
L 343.018657 65.871938 
L 344.650087 62.647991 
L 346.281517 70.194473 
L 347.912947 66.035603 
L 349.544376 65.650964 
L 351.175806 68.039557 
L 352.807236 68.107126 
L 354.438666 65.74221 
L 356.070096 67.910903 
L 357.701526 69.445841 
L 359.332956 67.485252 
L 360.964386 62.904363 
L 362.595815 67.415225 
L 364.227245 66.326788 
L 365.858675 61.048249 
L 367.490105 59.327118 
L 369.121535 70.527769 
L 370.752965 64.043644 
L 372.384395 72.048259 
L 374.015825 63.245312 
L 375.647254 63.467425 
L 377.278684 66.370415 
L 378.910114 63.578417 
L 380.541544 64.507414 
L 382.172974 64.148995 
L 383.804404 61.97547 
L 385.435834 66.615333 
L 387.067264 64.901612 
L 388.698693 69.772607 
L 390.330123 63.369897 
L 391.961553 68.770247 
L 393.592983 66.668924 
L 395.224413 68.211472 
L 396.855843 63.201182 
L 398.487273 68.154935 
L 398.487273 68.154935 
" style="fill:none;stroke:#ff0000;stroke-linecap:square;stroke-width:1.5;"/>
   </g>
   <g id="patch_3">
    <path d="M 57.6 307.584 
L 57.6 41.472 
" style="fill:none;stroke:#000000;stroke-linecap:square;stroke-linejoin:miter;stroke-width:0.8;"/>
   </g>
   <g id="patch_4">
    <path d="M 414.72 307.584 
L 414.72 41.472 
" style="fill:none;stroke:#000000;stroke-linecap:square;stroke-linejoin:miter;stroke-width:0.8;"/>
   </g>
   <g id="patch_5">
    <path d="M 57.6 307.584 
L 414.72 307.584 
" style="fill:none;stroke:#000000;stroke-linecap:square;stroke-linejoin:miter;stroke-width:0.8;"/>
   </g>
   <g id="patch_6">
    <path d="M 57.6 41.472 
L 414.72 41.472 
" style="fill:none;stroke:#000000;stroke-linecap:square;stroke-linejoin:miter;stroke-width:0.8;"/>
   </g>
   <g id="text_18">
    <!-- Population's average and best fitness -->
    <defs>
     <path d="M 19.671875 64.796875 
L 19.671875 37.40625 
L 32.078125 37.40625 
Q 38.96875 37.40625 42.71875 40.96875 
Q 46.484375 44.53125 46.484375 51.125 
Q 46.484375 57.671875 42.71875 61.234375 
Q 38.96875 64.796875 32.078125 64.796875 
z
M 9.8125 72.90625 
L 32.078125 72.90625 
Q 44.34375 72.90625 50.609375 67.359375 
Q 56.890625 61.8125 56.890625 51.125 
Q 56.890625 40.328125 50.609375 34.8125 
Q 44.34375 29.296875 32.078125 29.296875 
L 19.671875 29.296875 
L 19.671875 0 
L 9.8125 0 
z
" id="DejaVuSans-50"/>
     <path d="M 18.109375 8.203125 
L 18.109375 -20.796875 
L 9.078125 -20.796875 
L 9.078125 54.6875 
L 18.109375 54.6875 
L 18.109375 46.390625 
Q 20.953125 51.265625 25.265625 53.625 
Q 29.59375 56 35.59375 56 
Q 45.5625 56 51.78125 48.09375 
Q 58.015625 40.1875 58.015625 27.296875 
Q 58.015625 14.40625 51.78125 6.484375 
Q 45.5625 -1.421875 35.59375 -1.421875 
Q 29.59375 -1.421875 25.265625 0.953125 
Q 20.953125 3.328125 18.109375 8.203125 
z
M 48.6875 27.296875 
Q 48.6875 37.203125 44.609375 42.84375 
Q 40.53125 48.484375 33.40625 48.484375 
Q 26.265625 48.484375 22.1875 42.84375 
Q 18.109375 37.203125 18.109375 27.296875 
Q 18.109375 17.390625 22.1875 11.75 
Q 26.265625 6.109375 33.40625 6.109375 
Q 40.53125 6.109375 44.609375 11.75 
Q 48.6875 17.390625 48.6875 27.296875 
z
" id="DejaVuSans-70"/>
     <path d="M 8.5 21.578125 
L 8.5 54.6875 
L 17.484375 54.6875 
L 17.484375 21.921875 
Q 17.484375 14.15625 20.5 10.265625 
Q 23.53125 6.390625 29.59375 6.390625 
Q 36.859375 6.390625 41.078125 11.03125 
Q 45.3125 15.671875 45.3125 23.6875 
L 45.3125 54.6875 
L 54.296875 54.6875 
L 54.296875 0 
L 45.3125 0 
L 45.3125 8.40625 
Q 42.046875 3.421875 37.71875 1 
Q 33.40625 -1.421875 27.6875 -1.421875 
Q 18.265625 -1.421875 13.375 4.4375 
Q 8.5 10.296875 8.5 21.578125 
z
M 31.109375 56 
z
" id="DejaVuSans-75"/>
     <path d="M 9.421875 75.984375 
L 18.40625 75.984375 
L 18.40625 0 
L 9.421875 0 
z
" id="DejaVuSans-6c"/>
     <path d="M 17.921875 72.90625 
L 17.921875 45.796875 
L 9.625 45.796875 
L 9.625 72.90625 
z
" id="DejaVuSans-27"/>
     <path id="DejaVuSans-20"/>
     <path d="M 2.984375 54.6875 
L 12.5 54.6875 
L 29.59375 8.796875 
L 46.6875 54.6875 
L 56.203125 54.6875 
L 35.6875 0 
L 23.484375 0 
z
" id="DejaVuSans-76"/>
     <path d="M 45.40625 27.984375 
Q 45.40625 37.75 41.375 43.109375 
Q 37.359375 48.484375 30.078125 48.484375 
Q 22.859375 48.484375 18.828125 43.109375 
Q 14.796875 37.75 14.796875 27.984375 
Q 14.796875 18.265625 18.828125 12.890625 
Q 22.859375 7.515625 30.078125 7.515625 
Q 37.359375 7.515625 41.375 12.890625 
Q 45.40625 18.265625 45.40625 27.984375 
z
M 54.390625 6.78125 
Q 54.390625 -7.171875 48.1875 -13.984375 
Q 42 -20.796875 29.203125 -20.796875 
Q 24.46875 -20.796875 20.265625 -20.09375 
Q 16.0625 -19.390625 12.109375 -17.921875 
L 12.109375 -9.1875 
Q 16.0625 -11.328125 19.921875 -12.34375 
Q 23.78125 -13.375 27.78125 -13.375 
Q 36.625 -13.375 41.015625 -8.765625 
Q 45.40625 -4.15625 45.40625 5.171875 
L 45.40625 9.625 
Q 42.625 4.78125 38.28125 2.390625 
Q 33.9375 0 27.875 0 
Q 17.828125 0 11.671875 7.65625 
Q 5.515625 15.328125 5.515625 27.984375 
Q 5.515625 40.671875 11.671875 48.328125 
Q 17.828125 56 27.875 56 
Q 33.9375 56 38.28125 53.609375 
Q 42.625 51.21875 45.40625 46.390625 
L 45.40625 54.6875 
L 54.390625 54.6875 
z
" id="DejaVuSans-67"/>
     <path d="M 45.40625 46.390625 
L 45.40625 75.984375 
L 54.390625 75.984375 
L 54.390625 0 
L 45.40625 0 
L 45.40625 8.203125 
Q 42.578125 3.328125 38.25 0.953125 
Q 33.9375 -1.421875 27.875 -1.421875 
Q 17.96875 -1.421875 11.734375 6.484375 
Q 5.515625 14.40625 5.515625 27.296875 
Q 5.515625 40.1875 11.734375 48.09375 
Q 17.96875 56 27.875 56 
Q 33.9375 56 38.25 53.625 
Q 42.578125 51.265625 45.40625 46.390625 
z
M 14.796875 27.296875 
Q 14.796875 17.390625 18.875 11.75 
Q 22.953125 6.109375 30.078125 6.109375 
Q 37.203125 6.109375 41.296875 11.75 
Q 45.40625 17.390625 45.40625 27.296875 
Q 45.40625 37.203125 41.296875 42.84375 
Q 37.203125 48.484375 30.078125 48.484375 
Q 22.953125 48.484375 18.875 42.84375 
Q 14.796875 37.203125 14.796875 27.296875 
z
" id="DejaVuSans-64"/>
     <path d="M 48.6875 27.296875 
Q 48.6875 37.203125 44.609375 42.84375 
Q 40.53125 48.484375 33.40625 48.484375 
Q 26.265625 48.484375 22.1875 42.84375 
Q 18.109375 37.203125 18.109375 27.296875 
Q 18.109375 17.390625 22.1875 11.75 
Q 26.265625 6.109375 33.40625 6.109375 
Q 40.53125 6.109375 44.609375 11.75 
Q 48.6875 17.390625 48.6875 27.296875 
z
M 18.109375 46.390625 
Q 20.953125 51.265625 25.265625 53.625 
Q 29.59375 56 35.59375 56 
Q 45.5625 56 51.78125 48.09375 
Q 58.015625 40.1875 58.015625 27.296875 
Q 58.015625 14.40625 51.78125 6.484375 
Q 45.5625 -1.421875 35.59375 -1.421875 
Q 29.59375 -1.421875 25.265625 0.953125 
Q 20.953125 3.328125 18.109375 8.203125 
L 18.109375 0 
L 9.078125 0 
L 9.078125 75.984375 
L 18.109375 75.984375 
z
" id="DejaVuSans-62"/>
     <path d="M 37.109375 75.984375 
L 37.109375 68.5 
L 28.515625 68.5 
Q 23.6875 68.5 21.796875 66.546875 
Q 19.921875 64.59375 19.921875 59.515625 
L 19.921875 54.6875 
L 34.71875 54.6875 
L 34.71875 47.703125 
L 19.921875 47.703125 
L 19.921875 0 
L 10.890625 0 
L 10.890625 47.703125 
L 2.296875 47.703125 
L 2.296875 54.6875 
L 10.890625 54.6875 
L 10.890625 58.5 
Q 10.890625 67.625 15.140625 71.796875 
Q 19.390625 75.984375 28.609375 75.984375 
z
" id="DejaVuSans-66"/>
    </defs>
    <g transform="translate(123.315 35.472)scale(0.12 -0.12)">
     <use xlink:href="#DejaVuSans-50"/>
     <use x="60.255859" xlink:href="#DejaVuSans-6f"/>
     <use x="121.4375" xlink:href="#DejaVuSans-70"/>
     <use x="184.914062" xlink:href="#DejaVuSans-75"/>
     <use x="248.292969" xlink:href="#DejaVuSans-6c"/>
     <use x="276.076172" xlink:href="#DejaVuSans-61"/>
     <use x="337.355469" xlink:href="#DejaVuSans-74"/>
     <use x="376.564453" xlink:href="#DejaVuSans-69"/>
     <use x="404.347656" xlink:href="#DejaVuSans-6f"/>
     <use x="465.529297" xlink:href="#DejaVuSans-6e"/>
     <use x="528.908203" xlink:href="#DejaVuSans-27"/>
     <use x="556.398438" xlink:href="#DejaVuSans-73"/>
     <use x="608.498047" xlink:href="#DejaVuSans-20"/>
     <use x="640.285156" xlink:href="#DejaVuSans-61"/>
     <use x="701.564453" xlink:href="#DejaVuSans-76"/>
     <use x="760.744141" xlink:href="#DejaVuSans-65"/>
     <use x="822.267578" xlink:href="#DejaVuSans-72"/>
     <use x="863.380859" xlink:href="#DejaVuSans-61"/>
     <use x="924.660156" xlink:href="#DejaVuSans-67"/>
     <use x="988.136719" xlink:href="#DejaVuSans-65"/>
     <use x="1049.660156" xlink:href="#DejaVuSans-20"/>
     <use x="1081.447266" xlink:href="#DejaVuSans-61"/>
     <use x="1142.726562" xlink:href="#DejaVuSans-6e"/>
     <use x="1206.105469" xlink:href="#DejaVuSans-64"/>
     <use x="1269.582031" xlink:href="#DejaVuSans-20"/>
     <use x="1301.369141" xlink:href="#DejaVuSans-62"/>
     <use x="1364.845703" xlink:href="#DejaVuSans-65"/>
     <use x="1426.369141" xlink:href="#DejaVuSans-73"/>
     <use x="1478.46875" xlink:href="#DejaVuSans-74"/>
     <use x="1517.677734" xlink:href="#DejaVuSans-20"/>
     <use x="1549.464844" xlink:href="#DejaVuSans-66"/>
     <use x="1584.669922" xlink:href="#DejaVuSans-69"/>
     <use x="1612.453125" xlink:href="#DejaVuSans-74"/>
     <use x="1651.662109" xlink:href="#DejaVuSans-6e"/>
     <use x="1715.041016" xlink:href="#DejaVuSans-65"/>
     <use x="1776.564453" xlink:href="#DejaVuSans-73"/>
     <use x="1828.664062" xlink:href="#DejaVuSans-73"/>
    </g>
   </g>
   <g id="legend_1">
    <g id="patch_7">
     <path d="M 334.779375 205.38425 
L 407.72 205.38425 
Q 409.72 205.38425 409.72 203.38425 
L 409.72 145.67175 
Q 409.72 143.67175 407.72 143.67175 
L 334.779375 143.67175 
Q 332.779375 143.67175 332.779375 145.67175 
L 332.779375 203.38425 
Q 332.779375 205.38425 334.779375 205.38425 
z
" style="fill:#ffffff;opacity:0.8;stroke:#cccccc;stroke-linejoin:miter;"/>
    </g>
    <g id="line2d_35">
     <path d="M 336.779375 151.770188 
L 356.779375 151.770188 
" style="fill:none;stroke:#0000ff;stroke-linecap:square;stroke-width:1.5;"/>
    </g>
    <g id="line2d_36"/>
    <g id="text_19">
     <!-- average -->
     <g transform="translate(364.779375 155.270188)scale(0.1 -0.1)">
      <use xlink:href="#DejaVuSans-61"/>
      <use x="61.279297" xlink:href="#DejaVuSans-76"/>
      <use x="120.458984" xlink:href="#DejaVuSans-65"/>
      <use x="181.982422" xlink:href="#DejaVuSans-72"/>
      <use x="223.095703" xlink:href="#DejaVuSans-61"/>
      <use x="284.375" xlink:href="#DejaVuSans-67"/>
      <use x="347.851562" xlink:href="#DejaVuSans-65"/>
     </g>
    </g>
    <g id="line2d_37">
     <path d="M 336.779375 166.448313 
L 356.779375 166.448313 
" style="fill:none;stroke:#008000;stroke-dasharray:9.6,2.4,1.5,2.4;stroke-dashoffset:0;stroke-width:1.5;"/>
    </g>
    <g id="line2d_38"/>
    <g id="text_20">
     <!-- -1 sd -->
     <defs>
      <path d="M 4.890625 31.390625 
L 31.203125 31.390625 
L 31.203125 23.390625 
L 4.890625 23.390625 
z
" id="DejaVuSans-2d"/>
     </defs>
     <g transform="translate(364.779375 169.948313)scale(0.1 -0.1)">
      <use xlink:href="#DejaVuSans-2d"/>
      <use x="36.083984" xlink:href="#DejaVuSans-31"/>
      <use x="99.707031" xlink:href="#DejaVuSans-20"/>
      <use x="131.494141" xlink:href="#DejaVuSans-73"/>
      <use x="183.59375" xlink:href="#DejaVuSans-64"/>
     </g>
    </g>
    <g id="line2d_39">
     <path d="M 336.779375 181.126438 
L 356.779375 181.126438 
" style="fill:none;stroke:#008000;stroke-dasharray:9.6,2.4,1.5,2.4;stroke-dashoffset:0;stroke-width:1.5;"/>
    </g>
    <g id="line2d_40"/>
    <g id="text_21">
     <!-- +1 sd -->
     <defs>
      <path d="M 46 62.703125 
L 46 35.5 
L 73.1875 35.5 
L 73.1875 27.203125 
L 46 27.203125 
L 46 0 
L 37.796875 0 
L 37.796875 27.203125 
L 10.59375 27.203125 
L 10.59375 35.5 
L 37.796875 35.5 
L 37.796875 62.703125 
z
" id="DejaVuSans-2b"/>
     </defs>
     <g transform="translate(364.779375 184.626438)scale(0.1 -0.1)">
      <use xlink:href="#DejaVuSans-2b"/>
      <use x="83.789062" xlink:href="#DejaVuSans-31"/>
      <use x="147.412109" xlink:href="#DejaVuSans-20"/>
      <use x="179.199219" xlink:href="#DejaVuSans-73"/>
      <use x="231.298828" xlink:href="#DejaVuSans-64"/>
     </g>
    </g>
    <g id="line2d_41">
     <path d="M 336.779375 195.804563 
L 356.779375 195.804563 
" style="fill:none;stroke:#ff0000;stroke-linecap:square;stroke-width:1.5;"/>
    </g>
    <g id="line2d_42"/>
    <g id="text_22">
     <!-- best -->
     <g transform="translate(364.779375 199.304563)scale(0.1 -0.1)">
      <use xlink:href="#DejaVuSans-62"/>
      <use x="63.476562" xlink:href="#DejaVuSans-65"/>
      <use x="125" xlink:href="#DejaVuSans-73"/>
      <use x="177.099609" xlink:href="#DejaVuSans-74"/>
     </g>
    </g>
   </g>
  </g>
 </g>
 <defs>
  <clipPath id="p0ebb2cb92c">
   <rect height="266.112" width="357.12" x="57.6" y="41.472"/>
  </clipPath>
 </defs>
</svg>
