<?xml version="1.0" encoding="utf-8" standalone="no"?>
<!DOCTYPE svg PUBLIC "-//W3C//DTD SVG 1.1//EN"
  "http://www.w3.org/Graphics/SVG/1.1/DTD/svg11.dtd">
<!-- Created with matplotlib (http://matplotlib.org/) -->
<svg height="345.6pt" version="1.1" viewBox="0 0 460.8 345.6" width="460.8pt" xmlns="http://www.w3.org/2000/svg" xmlns:xlink="http://www.w3.org/1999/xlink">
 <defs>
  <style type="text/css">
*{stroke-linecap:butt;stroke-linejoin:round;}
  </style>
 </defs>
 <g id="figure_1">
  <g id="patch_1">
   <path d="M 0 345.6 
L 460.8 345.6 
L 460.8 0 
L 0 0 
z
" style="fill:#ffffff;"/>
  </g>
  <g id="axes_1">
   <g id="patch_2">
    <path d="M 57.6 307.584 
L 414.72 307.584 
L 414.72 41.472 
L 57.6 41.472 
z
" style="fill:#ffffff;"/>
   </g>
   <g id="matplotlib.axis_1">
    <g id="xtick_1">
     <g id="line2d_1">
      <path clip-path="url(#peac8218ca8)" d="M 73.832727 307.584 
L 73.832727 41.472 
" style="fill:none;stroke:#b0b0b0;stroke-linecap:square;stroke-width:0.8;"/>
     </g>
     <g id="line2d_2">
      <defs>
       <path d="M 0 0 
L 0 3.5 
" id="m4227029d3d" style="stroke:#000000;stroke-width:0.8;"/>
      </defs>
      <g>
       <use style="stroke:#000000;stroke-width:0.8;" x="73.832727" xlink:href="#m4227029d3d" y="307.584"/>
      </g>
     </g>
     <g id="text_1">
      <!-- 0 -->
      <defs>
       <path d="M 31.78125 66.40625 
Q 24.171875 66.40625 20.328125 58.90625 
Q 16.5 51.421875 16.5 36.375 
Q 16.5 21.390625 20.328125 13.890625 
Q 24.171875 6.390625 31.78125 6.390625 
Q 39.453125 6.390625 43.28125 13.890625 
Q 47.125 21.390625 47.125 36.375 
Q 47.125 51.421875 43.28125 58.90625 
Q 39.453125 66.40625 31.78125 66.40625 
z
M 31.78125 74.21875 
Q 44.046875 74.21875 50.515625 64.515625 
Q 56.984375 54.828125 56.984375 36.375 
Q 56.984375 17.96875 50.515625 8.265625 
Q 44.046875 -1.421875 31.78125 -1.421875 
Q 19.53125 -1.421875 13.0625 8.265625 
Q 6.59375 17.96875 6.59375 36.375 
Q 6.59375 54.828125 13.0625 64.515625 
Q 19.53125 74.21875 31.78125 74.21875 
z
" id="DejaVuSans-30"/>
      </defs>
      <g transform="translate(70.651477 322.182437)scale(0.1 -0.1)">
       <use xlink:href="#DejaVuSans-30"/>
      </g>
     </g>
    </g>
    <g id="xtick_2">
     <g id="line2d_3">
      <path clip-path="url(#peac8218ca8)" d="M 116.833329 307.584 
L 116.833329 41.472 
" style="fill:none;stroke:#b0b0b0;stroke-linecap:square;stroke-width:0.8;"/>
     </g>
     <g id="line2d_4">
      <g>
       <use style="stroke:#000000;stroke-width:0.8;" x="116.833329" xlink:href="#m4227029d3d" y="307.584"/>
      </g>
     </g>
     <g id="text_2">
      <!-- 20 -->
      <defs>
       <path d="M 19.1875 8.296875 
L 53.609375 8.296875 
L 53.609375 0 
L 7.328125 0 
L 7.328125 8.296875 
Q 12.9375 14.109375 22.625 23.890625 
Q 32.328125 33.6875 34.8125 36.53125 
Q 39.546875 41.84375 41.421875 45.53125 
Q 43.3125 49.21875 43.3125 52.78125 
Q 43.3125 58.59375 39.234375 62.25 
Q 35.15625 65.921875 28.609375 65.921875 
Q 23.96875 65.921875 18.8125 64.3125 
Q 13.671875 62.703125 7.8125 59.421875 
L 7.8125 69.390625 
Q 13.765625 71.78125 18.9375 73 
Q 24.125 74.21875 28.421875 74.21875 
Q 39.75 74.21875 46.484375 68.546875 
Q 53.21875 62.890625 53.21875 53.421875 
Q 53.21875 48.921875 51.53125 44.890625 
Q 49.859375 40.875 45.40625 35.40625 
Q 44.1875 33.984375 37.640625 27.21875 
Q 31.109375 20.453125 19.1875 8.296875 
z
" id="DejaVuSans-32"/>
      </defs>
      <g transform="translate(110.470829 322.182437)scale(0.1 -0.1)">
       <use xlink:href="#DejaVuSans-32"/>
       <use x="63.623047" xlink:href="#DejaVuSans-30"/>
      </g>
     </g>
    </g>
    <g id="xtick_3">
     <g id="line2d_5">
      <path clip-path="url(#peac8218ca8)" d="M 159.833931 307.584 
L 159.833931 41.472 
" style="fill:none;stroke:#b0b0b0;stroke-linecap:square;stroke-width:0.8;"/>
     </g>
     <g id="line2d_6">
      <g>
       <use style="stroke:#000000;stroke-width:0.8;" x="159.833931" xlink:href="#m4227029d3d" y="307.584"/>
      </g>
     </g>
     <g id="text_3">
      <!-- 40 -->
      <defs>
       <path d="M 37.796875 64.3125 
L 12.890625 25.390625 
L 37.796875 25.390625 
z
M 35.203125 72.90625 
L 47.609375 72.90625 
L 47.609375 25.390625 
L 58.015625 25.390625 
L 58.015625 17.1875 
L 47.609375 17.1875 
L 47.609375 0 
L 37.796875 0 
L 37.796875 17.1875 
L 4.890625 17.1875 
L 4.890625 26.703125 
z
" id="DejaVuSans-34"/>
      </defs>
      <g transform="translate(153.471431 322.182437)scale(0.1 -0.1)">
       <use xlink:href="#DejaVuSans-34"/>
       <use x="63.623047" xlink:href="#DejaVuSans-30"/>
      </g>
     </g>
    </g>
    <g id="xtick_4">
     <g id="line2d_7">
      <path clip-path="url(#peac8218ca8)" d="M 202.834533 307.584 
L 202.834533 41.472 
" style="fill:none;stroke:#b0b0b0;stroke-linecap:square;stroke-width:0.8;"/>
     </g>
     <g id="line2d_8">
      <g>
       <use style="stroke:#000000;stroke-width:0.8;" x="202.834533" xlink:href="#m4227029d3d" y="307.584"/>
      </g>
     </g>
     <g id="text_4">
      <!-- 60 -->
      <defs>
       <path d="M 33.015625 40.375 
Q 26.375 40.375 22.484375 35.828125 
Q 18.609375 31.296875 18.609375 23.390625 
Q 18.609375 15.53125 22.484375 10.953125 
Q 26.375 6.390625 33.015625 6.390625 
Q 39.65625 6.390625 43.53125 10.953125 
Q 47.40625 15.53125 47.40625 23.390625 
Q 47.40625 31.296875 43.53125 35.828125 
Q 39.65625 40.375 33.015625 40.375 
z
M 52.59375 71.296875 
L 52.59375 62.3125 
Q 48.875 64.0625 45.09375 64.984375 
Q 41.3125 65.921875 37.59375 65.921875 
Q 27.828125 65.921875 22.671875 59.328125 
Q 17.53125 52.734375 16.796875 39.40625 
Q 19.671875 43.65625 24.015625 45.921875 
Q 28.375 48.1875 33.59375 48.1875 
Q 44.578125 48.1875 50.953125 41.515625 
Q 57.328125 34.859375 57.328125 23.390625 
Q 57.328125 12.15625 50.6875 5.359375 
Q 44.046875 -1.421875 33.015625 -1.421875 
Q 20.359375 -1.421875 13.671875 8.265625 
Q 6.984375 17.96875 6.984375 36.375 
Q 6.984375 53.65625 15.1875 63.9375 
Q 23.390625 74.21875 37.203125 74.21875 
Q 40.921875 74.21875 44.703125 73.484375 
Q 48.484375 72.75 52.59375 71.296875 
z
" id="DejaVuSans-36"/>
      </defs>
      <g transform="translate(196.472033 322.182437)scale(0.1 -0.1)">
       <use xlink:href="#DejaVuSans-36"/>
       <use x="63.623047" xlink:href="#DejaVuSans-30"/>
      </g>
     </g>
    </g>
    <g id="xtick_5">
     <g id="line2d_9">
      <path clip-path="url(#peac8218ca8)" d="M 245.835135 307.584 
L 245.835135 41.472 
" style="fill:none;stroke:#b0b0b0;stroke-linecap:square;stroke-width:0.8;"/>
     </g>
     <g id="line2d_10">
      <g>
       <use style="stroke:#000000;stroke-width:0.8;" x="245.835135" xlink:href="#m4227029d3d" y="307.584"/>
      </g>
     </g>
     <g id="text_5">
      <!-- 80 -->
      <defs>
       <path d="M 31.78125 34.625 
Q 24.75 34.625 20.71875 30.859375 
Q 16.703125 27.09375 16.703125 20.515625 
Q 16.703125 13.921875 20.71875 10.15625 
Q 24.75 6.390625 31.78125 6.390625 
Q 38.8125 6.390625 42.859375 10.171875 
Q 46.921875 13.96875 46.921875 20.515625 
Q 46.921875 27.09375 42.890625 30.859375 
Q 38.875 34.625 31.78125 34.625 
z
M 21.921875 38.8125 
Q 15.578125 40.375 12.03125 44.71875 
Q 8.5 49.078125 8.5 55.328125 
Q 8.5 64.0625 14.71875 69.140625 
Q 20.953125 74.21875 31.78125 74.21875 
Q 42.671875 74.21875 48.875 69.140625 
Q 55.078125 64.0625 55.078125 55.328125 
Q 55.078125 49.078125 51.53125 44.71875 
Q 48 40.375 41.703125 38.8125 
Q 48.828125 37.15625 52.796875 32.3125 
Q 56.78125 27.484375 56.78125 20.515625 
Q 56.78125 9.90625 50.3125 4.234375 
Q 43.84375 -1.421875 31.78125 -1.421875 
Q 19.734375 -1.421875 13.25 4.234375 
Q 6.78125 9.90625 6.78125 20.515625 
Q 6.78125 27.484375 10.78125 32.3125 
Q 14.796875 37.15625 21.921875 38.8125 
z
M 18.3125 54.390625 
Q 18.3125 48.734375 21.84375 45.5625 
Q 25.390625 42.390625 31.78125 42.390625 
Q 38.140625 42.390625 41.71875 45.5625 
Q 45.3125 48.734375 45.3125 54.390625 
Q 45.3125 60.0625 41.71875 63.234375 
Q 38.140625 66.40625 31.78125 66.40625 
Q 25.390625 66.40625 21.84375 63.234375 
Q 18.3125 60.0625 18.3125 54.390625 
z
" id="DejaVuSans-38"/>
      </defs>
      <g transform="translate(239.472635 322.182437)scale(0.1 -0.1)">
       <use xlink:href="#DejaVuSans-38"/>
       <use x="63.623047" xlink:href="#DejaVuSans-30"/>
      </g>
     </g>
    </g>
    <g id="xtick_6">
     <g id="line2d_11">
      <path clip-path="url(#peac8218ca8)" d="M 288.835738 307.584 
L 288.835738 41.472 
" style="fill:none;stroke:#b0b0b0;stroke-linecap:square;stroke-width:0.8;"/>
     </g>
     <g id="line2d_12">
      <g>
       <use style="stroke:#000000;stroke-width:0.8;" x="288.835738" xlink:href="#m4227029d3d" y="307.584"/>
      </g>
     </g>
     <g id="text_6">
      <!-- 100 -->
      <defs>
       <path d="M 12.40625 8.296875 
L 28.515625 8.296875 
L 28.515625 63.921875 
L 10.984375 60.40625 
L 10.984375 69.390625 
L 28.421875 72.90625 
L 38.28125 72.90625 
L 38.28125 8.296875 
L 54.390625 8.296875 
L 54.390625 0 
L 12.40625 0 
z
" id="DejaVuSans-31"/>
      </defs>
      <g transform="translate(279.291988 322.182437)scale(0.1 -0.1)">
       <use xlink:href="#DejaVuSans-31"/>
       <use x="63.623047" xlink:href="#DejaVuSans-30"/>
       <use x="127.246094" xlink:href="#DejaVuSans-30"/>
      </g>
     </g>
    </g>
    <g id="xtick_7">
     <g id="line2d_13">
      <path clip-path="url(#peac8218ca8)" d="M 331.83634 307.584 
L 331.83634 41.472 
" style="fill:none;stroke:#b0b0b0;stroke-linecap:square;stroke-width:0.8;"/>
     </g>
     <g id="line2d_14">
      <g>
       <use style="stroke:#000000;stroke-width:0.8;" x="331.83634" xlink:href="#m4227029d3d" y="307.584"/>
      </g>
     </g>
     <g id="text_7">
      <!-- 120 -->
      <g transform="translate(322.29259 322.182437)scale(0.1 -0.1)">
       <use xlink:href="#DejaVuSans-31"/>
       <use x="63.623047" xlink:href="#DejaVuSans-32"/>
       <use x="127.246094" xlink:href="#DejaVuSans-30"/>
      </g>
     </g>
    </g>
    <g id="xtick_8">
     <g id="line2d_15">
      <path clip-path="url(#peac8218ca8)" d="M 374.836942 307.584 
L 374.836942 41.472 
" style="fill:none;stroke:#b0b0b0;stroke-linecap:square;stroke-width:0.8;"/>
     </g>
     <g id="line2d_16">
      <g>
       <use style="stroke:#000000;stroke-width:0.8;" x="374.836942" xlink:href="#m4227029d3d" y="307.584"/>
      </g>
     </g>
     <g id="text_8">
      <!-- 140 -->
      <g transform="translate(365.293192 322.182437)scale(0.1 -0.1)">
       <use xlink:href="#DejaVuSans-31"/>
       <use x="63.623047" xlink:href="#DejaVuSans-34"/>
       <use x="127.246094" xlink:href="#DejaVuSans-30"/>
      </g>
     </g>
    </g>
    <g id="text_9">
     <!-- Generations -->
     <defs>
      <path d="M 59.515625 10.40625 
L 59.515625 29.984375 
L 43.40625 29.984375 
L 43.40625 38.09375 
L 69.28125 38.09375 
L 69.28125 6.78125 
Q 63.578125 2.734375 56.6875 0.65625 
Q 49.8125 -1.421875 42 -1.421875 
Q 24.90625 -1.421875 15.25 8.5625 
Q 5.609375 18.5625 5.609375 36.375 
Q 5.609375 54.25 15.25 64.234375 
Q 24.90625 74.21875 42 74.21875 
Q 49.125 74.21875 55.546875 72.453125 
Q 61.96875 70.703125 67.390625 67.28125 
L 67.390625 56.78125 
Q 61.921875 61.421875 55.765625 63.765625 
Q 49.609375 66.109375 42.828125 66.109375 
Q 29.4375 66.109375 22.71875 58.640625 
Q 16.015625 51.171875 16.015625 36.375 
Q 16.015625 21.625 22.71875 14.15625 
Q 29.4375 6.6875 42.828125 6.6875 
Q 48.046875 6.6875 52.140625 7.59375 
Q 56.25 8.5 59.515625 10.40625 
z
" id="DejaVuSans-47"/>
      <path d="M 56.203125 29.59375 
L 56.203125 25.203125 
L 14.890625 25.203125 
Q 15.484375 15.921875 20.484375 11.0625 
Q 25.484375 6.203125 34.421875 6.203125 
Q 39.59375 6.203125 44.453125 7.46875 
Q 49.3125 8.734375 54.109375 11.28125 
L 54.109375 2.78125 
Q 49.265625 0.734375 44.1875 -0.34375 
Q 39.109375 -1.421875 33.890625 -1.421875 
Q 20.796875 -1.421875 13.15625 6.1875 
Q 5.515625 13.8125 5.515625 26.8125 
Q 5.515625 40.234375 12.765625 48.109375 
Q 20.015625 56 32.328125 56 
Q 43.359375 56 49.78125 48.890625 
Q 56.203125 41.796875 56.203125 29.59375 
z
M 47.21875 32.234375 
Q 47.125 39.59375 43.09375 43.984375 
Q 39.0625 48.390625 32.421875 48.390625 
Q 24.90625 48.390625 20.390625 44.140625 
Q 15.875 39.890625 15.1875 32.171875 
z
" id="DejaVuSans-65"/>
      <path d="M 54.890625 33.015625 
L 54.890625 0 
L 45.90625 0 
L 45.90625 32.71875 
Q 45.90625 40.484375 42.875 44.328125 
Q 39.84375 48.1875 33.796875 48.1875 
Q 26.515625 48.1875 22.3125 43.546875 
Q 18.109375 38.921875 18.109375 30.90625 
L 18.109375 0 
L 9.078125 0 
L 9.078125 54.6875 
L 18.109375 54.6875 
L 18.109375 46.1875 
Q 21.34375 51.125 25.703125 53.5625 
Q 30.078125 56 35.796875 56 
Q 45.21875 56 50.046875 50.171875 
Q 54.890625 44.34375 54.890625 33.015625 
z
" id="DejaVuSans-6e"/>
      <path d="M 41.109375 46.296875 
Q 39.59375 47.171875 37.8125 47.578125 
Q 36.03125 48 33.890625 48 
Q 26.265625 48 22.1875 43.046875 
Q 18.109375 38.09375 18.109375 28.8125 
L 18.109375 0 
L 9.078125 0 
L 9.078125 54.6875 
L 18.109375 54.6875 
L 18.109375 46.1875 
Q 20.953125 51.171875 25.484375 53.578125 
Q 30.03125 56 36.53125 56 
Q 37.453125 56 38.578125 55.875 
Q 39.703125 55.765625 41.0625 55.515625 
z
" id="DejaVuSans-72"/>
      <path d="M 34.28125 27.484375 
Q 23.390625 27.484375 19.1875 25 
Q 14.984375 22.515625 14.984375 16.5 
Q 14.984375 11.71875 18.140625 8.90625 
Q 21.296875 6.109375 26.703125 6.109375 
Q 34.1875 6.109375 38.703125 11.40625 
Q 43.21875 16.703125 43.21875 25.484375 
L 43.21875 27.484375 
z
M 52.203125 31.203125 
L 52.203125 0 
L 43.21875 0 
L 43.21875 8.296875 
Q 40.140625 3.328125 35.546875 0.953125 
Q 30.953125 -1.421875 24.3125 -1.421875 
Q 15.921875 -1.421875 10.953125 3.296875 
Q 6 8.015625 6 15.921875 
Q 6 25.140625 12.171875 29.828125 
Q 18.359375 34.515625 30.609375 34.515625 
L 43.21875 34.515625 
L 43.21875 35.40625 
Q 43.21875 41.609375 39.140625 45 
Q 35.0625 48.390625 27.6875 48.390625 
Q 23 48.390625 18.546875 47.265625 
Q 14.109375 46.140625 10.015625 43.890625 
L 10.015625 52.203125 
Q 14.9375 54.109375 19.578125 55.046875 
Q 24.21875 56 28.609375 56 
Q 40.484375 56 46.34375 49.84375 
Q 52.203125 43.703125 52.203125 31.203125 
z
" id="DejaVuSans-61"/>
      <path d="M 18.3125 70.21875 
L 18.3125 54.6875 
L 36.8125 54.6875 
L 36.8125 47.703125 
L 18.3125 47.703125 
L 18.3125 18.015625 
Q 18.3125 11.328125 20.140625 9.421875 
Q 21.96875 7.515625 27.59375 7.515625 
L 36.8125 7.515625 
L 36.8125 0 
L 27.59375 0 
Q 17.1875 0 13.234375 3.875 
Q 9.28125 7.765625 9.28125 18.015625 
L 9.28125 47.703125 
L 2.6875 47.703125 
L 2.6875 54.6875 
L 9.28125 54.6875 
L 9.28125 70.21875 
z
" id="DejaVuSans-74"/>
      <path d="M 9.421875 54.6875 
L 18.40625 54.6875 
L 18.40625 0 
L 9.421875 0 
z
M 9.421875 75.984375 
L 18.40625 75.984375 
L 18.40625 64.59375 
L 9.421875 64.59375 
z
" id="DejaVuSans-69"/>
      <path d="M 30.609375 48.390625 
Q 23.390625 48.390625 19.1875 42.75 
Q 14.984375 37.109375 14.984375 27.296875 
Q 14.984375 17.484375 19.15625 11.84375 
Q 23.34375 6.203125 30.609375 6.203125 
Q 37.796875 6.203125 41.984375 11.859375 
Q 46.1875 17.53125 46.1875 27.296875 
Q 46.1875 37.015625 41.984375 42.703125 
Q 37.796875 48.390625 30.609375 48.390625 
z
M 30.609375 56 
Q 42.328125 56 49.015625 48.375 
Q 55.71875 40.765625 55.71875 27.296875 
Q 55.71875 13.875 49.015625 6.21875 
Q 42.328125 -1.421875 30.609375 -1.421875 
Q 18.84375 -1.421875 12.171875 6.21875 
Q 5.515625 13.875 5.515625 27.296875 
Q 5.515625 40.765625 12.171875 48.375 
Q 18.84375 56 30.609375 56 
z
" id="DejaVuSans-6f"/>
      <path d="M 44.28125 53.078125 
L 44.28125 44.578125 
Q 40.484375 46.53125 36.375 47.5 
Q 32.28125 48.484375 27.875 48.484375 
Q 21.1875 48.484375 17.84375 46.4375 
Q 14.5 44.390625 14.5 40.28125 
Q 14.5 37.15625 16.890625 35.375 
Q 19.28125 33.59375 26.515625 31.984375 
L 29.59375 31.296875 
Q 39.15625 29.25 43.1875 25.515625 
Q 47.21875 21.78125 47.21875 15.09375 
Q 47.21875 7.46875 41.1875 3.015625 
Q 35.15625 -1.421875 24.609375 -1.421875 
Q 20.21875 -1.421875 15.453125 -0.5625 
Q 10.6875 0.296875 5.421875 2 
L 5.421875 11.28125 
Q 10.40625 8.6875 15.234375 7.390625 
Q 20.0625 6.109375 24.8125 6.109375 
Q 31.15625 6.109375 34.5625 8.28125 
Q 37.984375 10.453125 37.984375 14.40625 
Q 37.984375 18.0625 35.515625 20.015625 
Q 33.0625 21.96875 24.703125 23.78125 
L 21.578125 24.515625 
Q 13.234375 26.265625 9.515625 29.90625 
Q 5.8125 33.546875 5.8125 39.890625 
Q 5.8125 47.609375 11.28125 51.796875 
Q 16.75 56 26.8125 56 
Q 31.78125 56 36.171875 55.265625 
Q 40.578125 54.546875 44.28125 53.078125 
z
" id="DejaVuSans-73"/>
     </defs>
     <g transform="translate(205.662344 335.860562)scale(0.1 -0.1)">
      <use xlink:href="#DejaVuSans-47"/>
      <use x="77.490234" xlink:href="#DejaVuSans-65"/>
      <use x="139.013672" xlink:href="#DejaVuSans-6e"/>
      <use x="202.392578" xlink:href="#DejaVuSans-65"/>
      <use x="263.916016" xlink:href="#DejaVuSans-72"/>
      <use x="305.029297" xlink:href="#DejaVuSans-61"/>
      <use x="366.308594" xlink:href="#DejaVuSans-74"/>
      <use x="405.517578" xlink:href="#DejaVuSans-69"/>
      <use x="433.300781" xlink:href="#DejaVuSans-6f"/>
      <use x="494.482422" xlink:href="#DejaVuSans-6e"/>
      <use x="557.861328" xlink:href="#DejaVuSans-73"/>
     </g>
    </g>
   </g>
   <g id="matplotlib.axis_2">
    <g id="ytick_1">
     <g id="line2d_17">
      <path clip-path="url(#peac8218ca8)" d="M 57.6 278.667249 
L 414.72 278.667249 
" style="fill:none;stroke:#b0b0b0;stroke-linecap:square;stroke-width:0.8;"/>
     </g>
     <g id="line2d_18">
      <defs>
       <path d="M 0 0 
L -3.5 0 
" id="md8cab10cb6" style="stroke:#000000;stroke-width:0.8;"/>
      </defs>
      <g>
       <use style="stroke:#000000;stroke-width:0.8;" x="57.6" xlink:href="#md8cab10cb6" y="278.667249"/>
      </g>
     </g>
     <g id="text_10">
      <!-- 0 -->
      <g transform="translate(44.2375 282.466468)scale(0.1 -0.1)">
       <use xlink:href="#DejaVuSans-30"/>
      </g>
     </g>
    </g>
    <g id="ytick_2">
     <g id="line2d_19">
      <path clip-path="url(#peac8218ca8)" d="M 57.6 237.330665 
L 414.72 237.330665 
" style="fill:none;stroke:#b0b0b0;stroke-linecap:square;stroke-width:0.8;"/>
     </g>
     <g id="line2d_20">
      <g>
       <use style="stroke:#000000;stroke-width:0.8;" x="57.6" xlink:href="#md8cab10cb6" y="237.330665"/>
      </g>
     </g>
     <g id="text_11">
      <!-- 50 -->
      <defs>
       <path d="M 10.796875 72.90625 
L 49.515625 72.90625 
L 49.515625 64.59375 
L 19.828125 64.59375 
L 19.828125 46.734375 
Q 21.96875 47.46875 24.109375 47.828125 
Q 26.265625 48.1875 28.421875 48.1875 
Q 40.625 48.1875 47.75 41.5 
Q 54.890625 34.8125 54.890625 23.390625 
Q 54.890625 11.625 47.5625 5.09375 
Q 40.234375 -1.421875 26.90625 -1.421875 
Q 22.3125 -1.421875 17.546875 -0.640625 
Q 12.796875 0.140625 7.71875 1.703125 
L 7.71875 11.625 
Q 12.109375 9.234375 16.796875 8.0625 
Q 21.484375 6.890625 26.703125 6.890625 
Q 35.15625 6.890625 40.078125 11.328125 
Q 45.015625 15.765625 45.015625 23.390625 
Q 45.015625 31 40.078125 35.4375 
Q 35.15625 39.890625 26.703125 39.890625 
Q 22.75 39.890625 18.8125 39.015625 
Q 14.890625 38.140625 10.796875 36.28125 
z
" id="DejaVuSans-35"/>
      </defs>
      <g transform="translate(37.875 241.129884)scale(0.1 -0.1)">
       <use xlink:href="#DejaVuSans-35"/>
       <use x="63.623047" xlink:href="#DejaVuSans-30"/>
      </g>
     </g>
    </g>
    <g id="ytick_3">
     <g id="line2d_21">
      <path clip-path="url(#peac8218ca8)" d="M 57.6 195.994082 
L 414.72 195.994082 
" style="fill:none;stroke:#b0b0b0;stroke-linecap:square;stroke-width:0.8;"/>
     </g>
     <g id="line2d_22">
      <g>
       <use style="stroke:#000000;stroke-width:0.8;" x="57.6" xlink:href="#md8cab10cb6" y="195.994082"/>
      </g>
     </g>
     <g id="text_12">
      <!-- 100 -->
      <g transform="translate(31.5125 199.7933)scale(0.1 -0.1)">
       <use xlink:href="#DejaVuSans-31"/>
       <use x="63.623047" xlink:href="#DejaVuSans-30"/>
       <use x="127.246094" xlink:href="#DejaVuSans-30"/>
      </g>
     </g>
    </g>
    <g id="ytick_4">
     <g id="line2d_23">
      <path clip-path="url(#peac8218ca8)" d="M 57.6 154.657498 
L 414.72 154.657498 
" style="fill:none;stroke:#b0b0b0;stroke-linecap:square;stroke-width:0.8;"/>
     </g>
     <g id="line2d_24">
      <g>
       <use style="stroke:#000000;stroke-width:0.8;" x="57.6" xlink:href="#md8cab10cb6" y="154.657498"/>
      </g>
     </g>
     <g id="text_13">
      <!-- 150 -->
      <g transform="translate(31.5125 158.456717)scale(0.1 -0.1)">
       <use xlink:href="#DejaVuSans-31"/>
       <use x="63.623047" xlink:href="#DejaVuSans-35"/>
       <use x="127.246094" xlink:href="#DejaVuSans-30"/>
      </g>
     </g>
    </g>
    <g id="ytick_5">
     <g id="line2d_25">
      <path clip-path="url(#peac8218ca8)" d="M 57.6 113.320915 
L 414.72 113.320915 
" style="fill:none;stroke:#b0b0b0;stroke-linecap:square;stroke-width:0.8;"/>
     </g>
     <g id="line2d_26">
      <g>
       <use style="stroke:#000000;stroke-width:0.8;" x="57.6" xlink:href="#md8cab10cb6" y="113.320915"/>
      </g>
     </g>
     <g id="text_14">
      <!-- 200 -->
      <g transform="translate(31.5125 117.120133)scale(0.1 -0.1)">
       <use xlink:href="#DejaVuSans-32"/>
       <use x="63.623047" xlink:href="#DejaVuSans-30"/>
       <use x="127.246094" xlink:href="#DejaVuSans-30"/>
      </g>
     </g>
    </g>
    <g id="ytick_6">
     <g id="line2d_27">
      <path clip-path="url(#peac8218ca8)" d="M 57.6 71.984331 
L 414.72 71.984331 
" style="fill:none;stroke:#b0b0b0;stroke-linecap:square;stroke-width:0.8;"/>
     </g>
     <g id="line2d_28">
      <g>
       <use style="stroke:#000000;stroke-width:0.8;" x="57.6" xlink:href="#md8cab10cb6" y="71.984331"/>
      </g>
     </g>
     <g id="text_15">
      <!-- 250 -->
      <g transform="translate(31.5125 75.78355)scale(0.1 -0.1)">
       <use xlink:href="#DejaVuSans-32"/>
       <use x="63.623047" xlink:href="#DejaVuSans-35"/>
       <use x="127.246094" xlink:href="#DejaVuSans-30"/>
      </g>
     </g>
    </g>
    <g id="text_16">
     <!-- Fitness -->
     <defs>
      <path d="M 9.8125 72.90625 
L 51.703125 72.90625 
L 51.703125 64.59375 
L 19.671875 64.59375 
L 19.671875 43.109375 
L 48.578125 43.109375 
L 48.578125 34.8125 
L 19.671875 34.8125 
L 19.671875 0 
L 9.8125 0 
z
" id="DejaVuSans-46"/>
     </defs>
     <g transform="translate(25.432812 192.202219)rotate(-90)scale(0.1 -0.1)">
      <use xlink:href="#DejaVuSans-46"/>
      <use x="57.410156" xlink:href="#DejaVuSans-69"/>
      <use x="85.193359" xlink:href="#DejaVuSans-74"/>
      <use x="124.402344" xlink:href="#DejaVuSans-6e"/>
      <use x="187.78125" xlink:href="#DejaVuSans-65"/>
      <use x="249.304688" xlink:href="#DejaVuSans-73"/>
      <use x="301.404297" xlink:href="#DejaVuSans-73"/>
     </g>
    </g>
   </g>
   <g id="line2d_29">
    <path clip-path="url(#peac8218ca8)" d="M 73.832727 271.888049 
L 75.982757 266.22953 
L 78.132787 260.993563 
L 80.282818 260.956819 
L 82.432848 253.442747 
L 84.582878 257.886221 
L 86.732908 249.318275 
L 88.882938 254.122504 
L 91.032968 251.836048 
L 93.182998 256.051545 
L 95.333028 256.965542 
L 97.483058 250.043961 
L 99.633089 249.106999 
L 101.783119 245.855187 
L 103.933149 244.519636 
L 106.083179 246.057277 
L 108.233209 243.521967 
L 110.383239 246.755406 
L 112.533269 252.946708 
L 114.683299 243.319877 
L 116.833329 244.076044 
L 118.983359 246.240996 
L 121.13339 241.163694 
L 123.28342 238.965757 
L 125.43345 245.065199 
L 127.58348 236.320215 
L 129.73351 231.359825 
L 131.88354 230.808671 
L 134.03357 237.47764 
L 136.1836 243.632198 
L 138.33363 243.568732 
L 140.48366 234.230421 
L 142.633691 238.543205 
L 144.783721 230.257517 
L 146.933751 239.039244 
L 149.083781 234.262572 
L 151.233811 239.703026 
L 153.383841 237.992051 
L 155.533871 234.580884 
L 159.833931 230.645323 
L 161.983961 225.042825 
L 164.133992 248.92328 
L 166.284022 236.026266 
L 168.434052 230.569837 
L 170.584082 235.015817 
L 172.734112 225.058293 
L 174.884142 234.887214 
L 177.034172 231.690518 
L 179.184202 233.913508 
L 181.334232 240.435502 
L 183.484262 233.435841 
L 185.634293 235.475112 
L 187.784323 237.808332 
L 189.934353 233.693046 
L 192.084383 230.000311 
L 194.234413 223.753894 
L 196.384443 228.714284 
L 198.534473 232.278416 
L 200.684503 237.863448 
L 202.834533 237.698102 
L 204.984564 233.376731 
L 207.134594 235.583255 
L 209.284624 224.745972 
L 211.434654 228.695912 
L 213.584684 225.664563 
L 215.734714 234.097226 
L 217.884744 230.147286 
L 220.034774 224.305048 
L 222.184804 223.51506 
L 224.334834 241.096887 
L 226.484865 237.918563 
L 228.634895 233.141891 
L 230.784925 236.503934 
L 232.934955 245.046828 
L 235.084985 229.210323 
L 237.235015 222.792278 
L 239.385045 228.111289 
L 241.535075 238.564477 
L 243.685105 229.044977 
L 245.835135 228.618175 
L 247.985166 222.723857 
L 250.135196 226.117388 
L 252.285226 237.298873 
L 254.435256 236.298062 
L 256.585286 239.259706 
L 258.735316 240.792974 
L 260.885346 225.526958 
L 263.035376 231.208431 
L 265.185406 242.219942 
L 267.335436 238.523287 
L 269.485467 240.104809 
L 271.635497 232.218058 
L 273.785527 229.581877 
L 275.935557 225.426216 
L 278.085587 220.147165 
L 280.235617 228.476915 
L 282.385647 235.785286 
L 284.535677 240.0246 
L 286.685707 230.390359 
L 288.835738 233.113782 
L 290.985768 234.469845 
L 293.135798 230.510244 
L 295.285828 230.882158 
L 297.435858 232.755847 
L 299.585888 230.073798 
L 301.735918 216.418947 
L 303.885948 219.610535 
L 306.035978 217.075215 
L 308.186008 218.787763 
L 310.336039 221.16874 
L 312.486069 222.874217 
L 314.636099 225.011316 
L 316.786129 230.177781 
L 318.936159 233.362353 
L 321.086189 228.126386 
L 323.236219 226.491294 
L 325.386249 232.95358 
L 327.536279 234.231251 
L 331.83634 210.030027 
L 333.98637 211.003475 
L 336.1364 206.835255 
L 338.28643 200.850179 
L 340.43646 213.768242 
L 342.58649 194.020444 
L 344.73652 221.606116 
L 346.88655 209.121886 
L 349.03658 212.663435 
L 351.18661 208.322271 
L 353.336641 207.789857 
L 355.486671 225.556812 
L 357.636701 205.459383 
L 359.786731 210.441929 
L 361.936761 206.663633 
L 364.086791 225.597421 
L 366.236821 222.30448 
L 368.386851 215.513891 
L 370.536881 215.911231 
L 372.686911 215.702764 
L 374.836942 212.916672 
L 376.986972 223.955782 
L 379.137002 222.872047 
L 381.287032 225.568245 
L 383.437062 232.474458 
L 385.587092 212.475284 
L 387.737122 206.421365 
L 389.887152 205.071584 
L 392.037182 198.824178 
L 394.187213 214.041653 
L 396.337243 218.196176 
L 398.487273 208.914634 
L 398.487273 208.914634 
" style="fill:none;stroke:#0000ff;stroke-linecap:square;stroke-width:1.5;"/>
   </g>
   <g id="line2d_30">
    <path clip-path="url(#peac8218ca8)" d="M 73.832727 280.724758 
L 75.982757 281.023644 
L 78.132787 279.898473 
L 80.282818 279.665642 
L 82.432848 274.762967 
L 84.582878 280.269542 
L 86.732908 271.27624 
L 88.882938 278.051636 
L 91.032968 274.239391 
L 93.182998 276.739416 
L 95.333028 282.081248 
L 97.483058 276.692885 
L 99.633089 276.435677 
L 101.783119 276.348438 
L 103.933149 275.906988 
L 106.083179 280.168598 
L 108.233209 281.932577 
L 110.383239 281.379313 
L 112.533269 281.337434 
L 114.683299 273.727501 
L 116.833329 276.692651 
L 118.983359 279.329496 
L 121.13339 277.460412 
L 123.28342 268.592802 
L 125.43345 277.503416 
L 127.58348 271.352959 
L 129.73351 272.991104 
L 131.88354 274.429411 
L 134.03357 281.114069 
L 136.1836 287.286027 
L 138.33363 277.78468 
L 140.48366 270.714547 
L 142.633691 281.801492 
L 144.783721 273.569474 
L 146.933751 272.264487 
L 149.083781 270.148027 
L 151.233811 275.800646 
L 153.383841 273.91726 
L 155.533871 275.068743 
L 157.683901 271.283355 
L 159.833931 279.518723 
L 161.983961 273.110396 
L 164.133992 295.488 
L 166.284022 279.634214 
L 168.434052 271.952064 
L 170.584082 273.101586 
L 172.734112 258.971071 
L 174.884142 267.510229 
L 177.034172 269.937734 
L 179.184202 276.794457 
L 181.334232 277.022426 
L 183.484262 272.253168 
L 185.634293 276.442298 
L 187.784323 276.873283 
L 189.934353 272.55135 
L 192.084383 270.241984 
L 194.234413 261.996423 
L 196.384443 271.805782 
L 198.534473 275.107132 
L 200.684503 279.49154 
L 204.984564 275.988701 
L 207.134594 277.829463 
L 209.284624 268.172917 
L 211.434654 270.699723 
L 213.584684 269.372612 
L 215.734714 277.078376 
L 217.884744 272.300629 
L 220.034774 261.053106 
L 222.184804 263.098013 
L 224.334834 282.250655 
L 226.484865 278.870348 
L 228.634895 269.783674 
L 230.784925 271.465116 
L 232.934955 281.921902 
L 235.084985 269.389176 
L 237.235015 272.103348 
L 239.385045 275.376882 
L 241.535075 284.2187 
L 243.685105 272.848231 
L 245.835135 278.598841 
L 247.985166 266.919893 
L 250.135196 279.562084 
L 252.285226 287.124327 
L 254.435256 283.068907 
L 256.585286 288.492639 
L 258.735316 286.833821 
L 260.885346 274.977691 
L 263.035376 280.080983 
L 265.185406 287.579522 
L 267.335436 284.431842 
L 269.485467 287.40149 
L 271.635497 285.599615 
L 273.785527 280.435706 
L 275.935557 285.714286 
L 278.085587 273.425259 
L 280.235617 285.796961 
L 282.385647 290.247399 
L 284.535677 292.604877 
L 286.685707 279.574471 
L 288.835738 283.980336 
L 290.985768 291.62436 
L 293.135798 284.802878 
L 295.285828 277.221302 
L 297.435858 286.470953 
L 299.585888 274.016361 
L 301.735918 269.920569 
L 303.885948 275.993306 
L 306.035978 265.803924 
L 308.186008 266.678741 
L 310.336039 276.048804 
L 312.486069 276.991251 
L 314.636099 283.164405 
L 316.786129 283.550557 
L 318.936159 284.796788 
L 321.086189 275.882766 
L 323.236219 271.458277 
L 325.386249 282.127579 
L 327.536279 290.406009 
L 329.686309 275.696496 
L 331.83634 273.289667 
L 333.98637 272.750486 
L 336.1364 271.9832 
L 338.28643 272.308155 
L 340.43646 280.479755 
L 342.58649 255.533286 
L 344.73652 291.133341 
L 346.88655 273.904581 
L 349.03658 266.86613 
L 353.336641 265.87984 
L 355.486671 286.525853 
L 357.636701 269.815726 
L 359.786731 275.878923 
L 361.936761 280.05084 
L 364.086791 287.02332 
L 366.236821 277.995395 
L 368.386851 271.154142 
L 370.536881 278.030501 
L 372.686911 283.157362 
L 374.836942 283.835676 
L 376.986972 288.195116 
L 379.137002 275.235961 
L 381.287032 283.577091 
L 383.437062 288.647471 
L 385.587092 270.768575 
L 387.737122 272.197555 
L 389.887152 268.869751 
L 392.037182 258.181609 
L 394.187213 277.671987 
L 396.337243 280.887942 
L 398.487273 269.406059 
L 398.487273 269.406059 
" style="fill:none;stroke:#008000;stroke-dasharray:9.6,2.4,1.5,2.4;stroke-dashoffset:0;stroke-width:1.5;"/>
   </g>
   <g id="line2d_31">
    <path clip-path="url(#peac8218ca8)" d="M 73.832727 263.05134 
L 75.982757 251.435416 
L 78.132787 242.088653 
L 80.282818 242.247996 
L 82.432848 232.122527 
L 84.582878 235.5029 
L 86.732908 227.360309 
L 88.882938 230.193372 
L 91.032968 229.432705 
L 93.182998 235.363674 
L 95.333028 231.849837 
L 97.483058 223.395037 
L 99.633089 221.77832 
L 101.783119 215.361937 
L 103.933149 213.132285 
L 106.083179 211.945957 
L 108.233209 205.111357 
L 110.383239 212.1315 
L 112.533269 224.555982 
L 114.683299 212.912253 
L 116.833329 211.459437 
L 118.983359 213.152495 
L 121.13339 204.866976 
L 123.28342 209.338712 
L 125.43345 212.626983 
L 129.73351 189.728547 
L 131.88354 187.187931 
L 134.03357 193.841211 
L 136.1836 199.978369 
L 138.33363 209.352783 
L 140.48366 197.746296 
L 142.633691 195.284919 
L 144.783721 186.945559 
L 146.933751 205.814001 
L 149.083781 198.377117 
L 151.233811 203.605406 
L 153.383841 202.066841 
L 155.533871 194.093025 
L 157.683901 193.934863 
L 159.833931 181.771922 
L 161.983961 176.975255 
L 164.133992 202.358561 
L 166.284022 192.418319 
L 168.434052 189.187611 
L 170.584082 196.930047 
L 172.734112 191.145515 
L 174.884142 202.264198 
L 177.034172 193.443303 
L 179.184202 191.032558 
L 181.334232 203.848578 
L 183.484262 194.618513 
L 185.634293 194.507925 
L 187.784323 198.743382 
L 189.934353 194.834742 
L 192.084383 189.758638 
L 194.234413 185.511365 
L 196.384443 185.622786 
L 198.534473 189.4497 
L 200.684503 196.235356 
L 202.834533 197.674438 
L 204.984564 190.764761 
L 207.134594 193.337048 
L 209.284624 181.319027 
L 211.434654 186.692101 
L 213.584684 181.956513 
L 215.734714 191.116075 
L 217.884744 187.993942 
L 220.034774 187.556991 
L 222.184804 183.932108 
L 224.334834 199.94312 
L 226.484865 196.966778 
L 228.634895 196.500109 
L 230.784925 201.542751 
L 232.934955 208.171753 
L 235.084985 189.03147 
L 237.235015 173.481207 
L 239.385045 180.845696 
L 241.535075 192.910254 
L 243.685105 185.241723 
L 245.835135 178.637509 
L 247.985166 178.527821 
L 250.135196 172.672692 
L 252.285226 187.473419 
L 254.435256 189.527217 
L 256.585286 190.026772 
L 258.735316 194.752126 
L 260.885346 176.076224 
L 263.035376 182.335879 
L 265.185406 196.860361 
L 267.335436 192.614732 
L 269.485467 192.808128 
L 271.635497 178.8365 
L 273.785527 178.728047 
L 275.935557 165.138146 
L 278.085587 166.869072 
L 280.235617 171.156868 
L 282.385647 181.323172 
L 284.535677 187.444322 
L 286.685707 181.206246 
L 288.835738 182.247228 
L 290.985768 177.315329 
L 293.135798 176.217611 
L 295.285828 184.543014 
L 297.435858 179.04074 
L 299.585888 186.131236 
L 301.735918 162.917325 
L 303.885948 163.227763 
L 306.035978 168.346507 
L 308.186008 170.896784 
L 310.336039 166.288677 
L 312.486069 168.757183 
L 314.636099 166.858227 
L 316.786129 176.805006 
L 318.936159 181.927919 
L 321.086189 180.370006 
L 323.236219 181.524312 
L 325.386249 183.779582 
L 327.536279 178.056493 
L 329.686309 168.807351 
L 331.83634 146.770388 
L 333.98637 149.256464 
L 336.1364 141.687309 
L 338.28643 129.392203 
L 340.43646 147.05673 
L 342.58649 132.507602 
L 344.73652 152.07889 
L 346.88655 144.339192 
L 349.03658 158.460741 
L 351.18661 150.259105 
L 353.336641 149.699874 
L 355.486671 164.587771 
L 357.636701 141.103041 
L 359.786731 145.004934 
L 361.936761 133.276426 
L 364.086791 164.171522 
L 366.236821 166.613565 
L 368.386851 159.873641 
L 370.536881 153.791961 
L 372.686911 148.248166 
L 374.836942 141.997669 
L 376.986972 159.716447 
L 379.137002 170.508133 
L 381.287032 167.5594 
L 383.437062 176.301445 
L 385.587092 154.181993 
L 387.737122 140.645175 
L 389.887152 141.273416 
L 392.037182 139.466748 
L 394.187213 150.411319 
L 396.337243 155.50441 
L 398.487273 148.423209 
L 398.487273 148.423209 
" style="fill:none;stroke:#008000;stroke-dasharray:9.6,2.4,1.5,2.4;stroke-dashoffset:0;stroke-width:1.5;"/>
   </g>
   <g id="line2d_32">
    <path clip-path="url(#peac8218ca8)" d="M 73.832727 240.637592 
L 75.982757 197.647545 
L 78.132787 198.474277 
L 80.282818 201.781203 
L 82.432848 201.781203 
L 84.582878 200.12774 
L 86.732908 201.781203 
L 93.182998 201.781203 
L 95.333028 181.112912 
L 97.483058 187.726765 
L 99.633089 201.781203 
L 101.783119 153.830766 
L 103.933149 143.083255 
L 106.083179 143.909986 
L 108.233209 113.320915 
L 110.383239 143.909986 
L 112.533269 143.909986 
L 114.683299 154.657498 
L 116.833329 156.310961 
L 118.983359 156.310961 
L 121.13339 126.548621 
L 123.28342 133.989206 
L 125.43345 129.855548 
L 127.58348 123.241695 
L 129.73351 114.974378 
L 131.88354 129.855548 
L 134.03357 123.241695 
L 136.1836 132.335743 
L 138.33363 133.989206 
L 140.48366 133.989206 
L 142.633691 110.013988 
L 144.783721 114.974378 
L 146.933751 163.751546 
L 149.083781 163.751546 
L 151.233811 162.098083 
L 153.383841 158.791156 
L 155.533871 129.028816 
L 157.683901 121.588231 
L 159.833931 71.247511 
L 161.983961 82.035804 
L 164.133992 115.80111 
L 166.284022 117.454573 
L 168.434052 121.588231 
L 170.584082 140.60306 
L 172.734112 164.578278 
L 174.884142 168.711937 
L 177.034172 157.137693 
L 179.184202 121.588231 
L 183.484262 158.791156 
L 185.634293 162.098083 
L 187.784323 164.578278 
L 189.934353 140.60306 
L 192.084383 154.657498 
L 194.234413 140.60306 
L 196.384443 143.083255 
L 198.534473 125.72189 
L 200.684503 115.80111 
L 202.834533 158.791156 
L 207.134594 158.791156 
L 209.284624 140.60306 
L 211.434654 158.791156 
L 213.584684 158.791156 
L 215.734714 139.776328 
L 217.884744 140.60306 
L 220.034774 158.791156 
L 222.184804 158.791156 
L 224.334834 154.657498 
L 226.484865 158.791156 
L 228.634895 126.548621 
L 230.784925 158.791156 
L 235.084985 158.791156 
L 237.235015 82.449154 
L 239.385045 77.092077 
L 241.535075 80.382175 
L 243.685105 108.360524 
L 245.835135 80.060397 
L 247.985166 81.02368 
L 250.135196 76.653558 
L 252.285226 75.514061 
L 254.435256 80.908215 
L 256.585286 112.494183 
L 258.735316 82.283429 
L 260.885346 73.232686 
L 263.035376 80.879487 
L 265.185406 74.571337 
L 267.335436 76.875133 
L 269.485467 108.360524 
L 271.635497 79.828382 
L 273.785527 97.798294 
L 275.935557 73.280262 
L 278.085587 79.988268 
L 280.235617 68.876628 
L 282.385647 70.982325 
L 284.535677 65.523478 
L 286.685707 77.962224 
L 288.835738 74.853065 
L 290.985768 68.435079 
L 293.135798 57.622549 
L 295.285828 143.909986 
L 297.435858 73.627136 
L 299.585888 119.108036 
L 301.735918 84.178623 
L 303.885948 84.404373 
L 306.035978 88.08202 
L 308.186008 73.379439 
L 310.336039 80.488889 
L 312.486069 70.428516 
L 314.636099 69.870355 
L 316.786129 74.18337 
L 318.936159 110.840719 
L 321.086189 114.147646 
L 323.236219 120.7615 
L 325.386249 79.218233 
L 327.536279 81.25764 
L 329.686309 73.014381 
L 331.83634 71.035074 
L 333.98637 71.364347 
L 336.1364 70.091769 
L 338.28643 56.37612 
L 340.43646 53.568 
L 342.58649 85.209607 
L 344.73652 68.488032 
L 346.88655 66.314809 
L 351.18661 71.61949 
L 353.336641 90.220587 
L 355.486671 59.875351 
L 357.636701 63.578352 
L 359.786731 63.714556 
L 361.936761 66.079913 
L 364.086791 59.042171 
L 366.236821 78.844127 
L 368.386851 76.520382 
L 370.536881 77.416434 
L 372.686911 84.637046 
L 374.836942 70.09413 
L 376.986972 60.570377 
L 379.137002 107.533793 
L 381.287032 87.918414 
L 383.437062 85.730329 
L 385.587092 92.514483 
L 387.737122 76.446168 
L 389.887152 78.052744 
L 392.037182 94.46552 
L 394.187213 69.596654 
L 396.337243 63.520251 
L 398.487273 56.792023 
L 398.487273 56.792023 
" style="fill:none;stroke:#ff0000;stroke-linecap:square;stroke-width:1.5;"/>
   </g>
   <g id="patch_3">
    <path d="M 57.6 307.584 
L 57.6 41.472 
" style="fill:none;stroke:#000000;stroke-linecap:square;stroke-linejoin:miter;stroke-width:0.8;"/>
   </g>
   <g id="patch_4">
    <path d="M 414.72 307.584 
L 414.72 41.472 
" style="fill:none;stroke:#000000;stroke-linecap:square;stroke-linejoin:miter;stroke-width:0.8;"/>
   </g>
   <g id="patch_5">
    <path d="M 57.6 307.584 
L 414.72 307.584 
" style="fill:none;stroke:#000000;stroke-linecap:square;stroke-linejoin:miter;stroke-width:0.8;"/>
   </g>
   <g id="patch_6">
    <path d="M 57.6 41.472 
L 414.72 41.472 
" style="fill:none;stroke:#000000;stroke-linecap:square;stroke-linejoin:miter;stroke-width:0.8;"/>
   </g>
   <g id="text_17">
    <!-- Population's average and best fitness -->
    <defs>
     <path d="M 19.671875 64.796875 
L 19.671875 37.40625 
L 32.078125 37.40625 
Q 38.96875 37.40625 42.71875 40.96875 
Q 46.484375 44.53125 46.484375 51.125 
Q 46.484375 57.671875 42.71875 61.234375 
Q 38.96875 64.796875 32.078125 64.796875 
z
M 9.8125 72.90625 
L 32.078125 72.90625 
Q 44.34375 72.90625 50.609375 67.359375 
Q 56.890625 61.8125 56.890625 51.125 
Q 56.890625 40.328125 50.609375 34.8125 
Q 44.34375 29.296875 32.078125 29.296875 
L 19.671875 29.296875 
L 19.671875 0 
L 9.8125 0 
z
" id="DejaVuSans-50"/>
     <path d="M 18.109375 8.203125 
L 18.109375 -20.796875 
L 9.078125 -20.796875 
L 9.078125 54.6875 
L 18.109375 54.6875 
L 18.109375 46.390625 
Q 20.953125 51.265625 25.265625 53.625 
Q 29.59375 56 35.59375 56 
Q 45.5625 56 51.78125 48.09375 
Q 58.015625 40.1875 58.015625 27.296875 
Q 58.015625 14.40625 51.78125 6.484375 
Q 45.5625 -1.421875 35.59375 -1.421875 
Q 29.59375 -1.421875 25.265625 0.953125 
Q 20.953125 3.328125 18.109375 8.203125 
z
M 48.6875 27.296875 
Q 48.6875 37.203125 44.609375 42.84375 
Q 40.53125 48.484375 33.40625 48.484375 
Q 26.265625 48.484375 22.1875 42.84375 
Q 18.109375 37.203125 18.109375 27.296875 
Q 18.109375 17.390625 22.1875 11.75 
Q 26.265625 6.109375 33.40625 6.109375 
Q 40.53125 6.109375 44.609375 11.75 
Q 48.6875 17.390625 48.6875 27.296875 
z
" id="DejaVuSans-70"/>
     <path d="M 8.5 21.578125 
L 8.5 54.6875 
L 17.484375 54.6875 
L 17.484375 21.921875 
Q 17.484375 14.15625 20.5 10.265625 
Q 23.53125 6.390625 29.59375 6.390625 
Q 36.859375 6.390625 41.078125 11.03125 
Q 45.3125 15.671875 45.3125 23.6875 
L 45.3125 54.6875 
L 54.296875 54.6875 
L 54.296875 0 
L 45.3125 0 
L 45.3125 8.40625 
Q 42.046875 3.421875 37.71875 1 
Q 33.40625 -1.421875 27.6875 -1.421875 
Q 18.265625 -1.421875 13.375 4.4375 
Q 8.5 10.296875 8.5 21.578125 
z
M 31.109375 56 
z
" id="DejaVuSans-75"/>
     <path d="M 9.421875 75.984375 
L 18.40625 75.984375 
L 18.40625 0 
L 9.421875 0 
z
" id="DejaVuSans-6c"/>
     <path d="M 17.921875 72.90625 
L 17.921875 45.796875 
L 9.625 45.796875 
L 9.625 72.90625 
z
" id="DejaVuSans-27"/>
     <path id="DejaVuSans-20"/>
     <path d="M 2.984375 54.6875 
L 12.5 54.6875 
L 29.59375 8.796875 
L 46.6875 54.6875 
L 56.203125 54.6875 
L 35.6875 0 
L 23.484375 0 
z
" id="DejaVuSans-76"/>
     <path d="M 45.40625 27.984375 
Q 45.40625 37.75 41.375 43.109375 
Q 37.359375 48.484375 30.078125 48.484375 
Q 22.859375 48.484375 18.828125 43.109375 
Q 14.796875 37.75 14.796875 27.984375 
Q 14.796875 18.265625 18.828125 12.890625 
Q 22.859375 7.515625 30.078125 7.515625 
Q 37.359375 7.515625 41.375 12.890625 
Q 45.40625 18.265625 45.40625 27.984375 
z
M 54.390625 6.78125 
Q 54.390625 -7.171875 48.1875 -13.984375 
Q 42 -20.796875 29.203125 -20.796875 
Q 24.46875 -20.796875 20.265625 -20.09375 
Q 16.0625 -19.390625 12.109375 -17.921875 
L 12.109375 -9.1875 
Q 16.0625 -11.328125 19.921875 -12.34375 
Q 23.78125 -13.375 27.78125 -13.375 
Q 36.625 -13.375 41.015625 -8.765625 
Q 45.40625 -4.15625 45.40625 5.171875 
L 45.40625 9.625 
Q 42.625 4.78125 38.28125 2.390625 
Q 33.9375 0 27.875 0 
Q 17.828125 0 11.671875 7.65625 
Q 5.515625 15.328125 5.515625 27.984375 
Q 5.515625 40.671875 11.671875 48.328125 
Q 17.828125 56 27.875 56 
Q 33.9375 56 38.28125 53.609375 
Q 42.625 51.21875 45.40625 46.390625 
L 45.40625 54.6875 
L 54.390625 54.6875 
z
" id="DejaVuSans-67"/>
     <path d="M 45.40625 46.390625 
L 45.40625 75.984375 
L 54.390625 75.984375 
L 54.390625 0 
L 45.40625 0 
L 45.40625 8.203125 
Q 42.578125 3.328125 38.25 0.953125 
Q 33.9375 -1.421875 27.875 -1.421875 
Q 17.96875 -1.421875 11.734375 6.484375 
Q 5.515625 14.40625 5.515625 27.296875 
Q 5.515625 40.1875 11.734375 48.09375 
Q 17.96875 56 27.875 56 
Q 33.9375 56 38.25 53.625 
Q 42.578125 51.265625 45.40625 46.390625 
z
M 14.796875 27.296875 
Q 14.796875 17.390625 18.875 11.75 
Q 22.953125 6.109375 30.078125 6.109375 
Q 37.203125 6.109375 41.296875 11.75 
Q 45.40625 17.390625 45.40625 27.296875 
Q 45.40625 37.203125 41.296875 42.84375 
Q 37.203125 48.484375 30.078125 48.484375 
Q 22.953125 48.484375 18.875 42.84375 
Q 14.796875 37.203125 14.796875 27.296875 
z
" id="DejaVuSans-64"/>
     <path d="M 48.6875 27.296875 
Q 48.6875 37.203125 44.609375 42.84375 
Q 40.53125 48.484375 33.40625 48.484375 
Q 26.265625 48.484375 22.1875 42.84375 
Q 18.109375 37.203125 18.109375 27.296875 
Q 18.109375 17.390625 22.1875 11.75 
Q 26.265625 6.109375 33.40625 6.109375 
Q 40.53125 6.109375 44.609375 11.75 
Q 48.6875 17.390625 48.6875 27.296875 
z
M 18.109375 46.390625 
Q 20.953125 51.265625 25.265625 53.625 
Q 29.59375 56 35.59375 56 
Q 45.5625 56 51.78125 48.09375 
Q 58.015625 40.1875 58.015625 27.296875 
Q 58.015625 14.40625 51.78125 6.484375 
Q 45.5625 -1.421875 35.59375 -1.421875 
Q 29.59375 -1.421875 25.265625 0.953125 
Q 20.953125 3.328125 18.109375 8.203125 
L 18.109375 0 
L 9.078125 0 
L 9.078125 75.984375 
L 18.109375 75.984375 
z
" id="DejaVuSans-62"/>
     <path d="M 37.109375 75.984375 
L 37.109375 68.5 
L 28.515625 68.5 
Q 23.6875 68.5 21.796875 66.546875 
Q 19.921875 64.59375 19.921875 59.515625 
L 19.921875 54.6875 
L 34.71875 54.6875 
L 34.71875 47.703125 
L 19.921875 47.703125 
L 19.921875 0 
L 10.890625 0 
L 10.890625 47.703125 
L 2.296875 47.703125 
L 2.296875 54.6875 
L 10.890625 54.6875 
L 10.890625 58.5 
Q 10.890625 67.625 15.140625 71.796875 
Q 19.390625 75.984375 28.609375 75.984375 
z
" id="DejaVuSans-66"/>
    </defs>
    <g transform="translate(123.315 35.472)scale(0.12 -0.12)">
     <use xlink:href="#DejaVuSans-50"/>
     <use x="60.255859" xlink:href="#DejaVuSans-6f"/>
     <use x="121.4375" xlink:href="#DejaVuSans-70"/>
     <use x="184.914062" xlink:href="#DejaVuSans-75"/>
     <use x="248.292969" xlink:href="#DejaVuSans-6c"/>
     <use x="276.076172" xlink:href="#DejaVuSans-61"/>
     <use x="337.355469" xlink:href="#DejaVuSans-74"/>
     <use x="376.564453" xlink:href="#DejaVuSans-69"/>
     <use x="404.347656" xlink:href="#DejaVuSans-6f"/>
     <use x="465.529297" xlink:href="#DejaVuSans-6e"/>
     <use x="528.908203" xlink:href="#DejaVuSans-27"/>
     <use x="556.398438" xlink:href="#DejaVuSans-73"/>
     <use x="608.498047" xlink:href="#DejaVuSans-20"/>
     <use x="640.285156" xlink:href="#DejaVuSans-61"/>
     <use x="701.564453" xlink:href="#DejaVuSans-76"/>
     <use x="760.744141" xlink:href="#DejaVuSans-65"/>
     <use x="822.267578" xlink:href="#DejaVuSans-72"/>
     <use x="863.380859" xlink:href="#DejaVuSans-61"/>
     <use x="924.660156" xlink:href="#DejaVuSans-67"/>
     <use x="988.136719" xlink:href="#DejaVuSans-65"/>
     <use x="1049.660156" xlink:href="#DejaVuSans-20"/>
     <use x="1081.447266" xlink:href="#DejaVuSans-61"/>
     <use x="1142.726562" xlink:href="#DejaVuSans-6e"/>
     <use x="1206.105469" xlink:href="#DejaVuSans-64"/>
     <use x="1269.582031" xlink:href="#DejaVuSans-20"/>
     <use x="1301.369141" xlink:href="#DejaVuSans-62"/>
     <use x="1364.845703" xlink:href="#DejaVuSans-65"/>
     <use x="1426.369141" xlink:href="#DejaVuSans-73"/>
     <use x="1478.46875" xlink:href="#DejaVuSans-74"/>
     <use x="1517.677734" xlink:href="#DejaVuSans-20"/>
     <use x="1549.464844" xlink:href="#DejaVuSans-66"/>
     <use x="1584.669922" xlink:href="#DejaVuSans-69"/>
     <use x="1612.453125" xlink:href="#DejaVuSans-74"/>
     <use x="1651.662109" xlink:href="#DejaVuSans-6e"/>
     <use x="1715.041016" xlink:href="#DejaVuSans-65"/>
     <use x="1776.564453" xlink:href="#DejaVuSans-73"/>
     <use x="1828.664062" xlink:href="#DejaVuSans-73"/>
    </g>
   </g>
   <g id="legend_1">
    <g id="patch_7">
     <path d="M 64.6 108.1845 
L 137.540625 108.1845 
Q 139.540625 108.1845 139.540625 106.1845 
L 139.540625 48.472 
Q 139.540625 46.472 137.540625 46.472 
L 64.6 46.472 
Q 62.6 46.472 62.6 48.472 
L 62.6 106.1845 
Q 62.6 108.1845 64.6 108.1845 
z
" style="fill:#ffffff;opacity:0.8;stroke:#cccccc;stroke-linejoin:miter;"/>
    </g>
    <g id="line2d_33">
     <path d="M 66.6 54.570438 
L 86.6 54.570438 
" style="fill:none;stroke:#0000ff;stroke-linecap:square;stroke-width:1.5;"/>
    </g>
    <g id="line2d_34"/>
    <g id="text_18">
     <!-- average -->
     <g transform="translate(94.6 58.070438)scale(0.1 -0.1)">
      <use xlink:href="#DejaVuSans-61"/>
      <use x="61.279297" xlink:href="#DejaVuSans-76"/>
      <use x="120.458984" xlink:href="#DejaVuSans-65"/>
      <use x="181.982422" xlink:href="#DejaVuSans-72"/>
      <use x="223.095703" xlink:href="#DejaVuSans-61"/>
      <use x="284.375" xlink:href="#DejaVuSans-67"/>
      <use x="347.851562" xlink:href="#DejaVuSans-65"/>
     </g>
    </g>
    <g id="line2d_35">
     <path d="M 66.6 69.248563 
L 86.6 69.248563 
" style="fill:none;stroke:#008000;stroke-dasharray:9.6,2.4,1.5,2.4;stroke-dashoffset:0;stroke-width:1.5;"/>
    </g>
    <g id="line2d_36"/>
    <g id="text_19">
     <!-- -1 sd -->
     <defs>
      <path d="M 4.890625 31.390625 
L 31.203125 31.390625 
L 31.203125 23.390625 
L 4.890625 23.390625 
z
" id="DejaVuSans-2d"/>
     </defs>
     <g transform="translate(94.6 72.748563)scale(0.1 -0.1)">
      <use xlink:href="#DejaVuSans-2d"/>
      <use x="36.083984" xlink:href="#DejaVuSans-31"/>
      <use x="99.707031" xlink:href="#DejaVuSans-20"/>
      <use x="131.494141" xlink:href="#DejaVuSans-73"/>
      <use x="183.59375" xlink:href="#DejaVuSans-64"/>
     </g>
    </g>
    <g id="line2d_37">
     <path d="M 66.6 83.926688 
L 86.6 83.926688 
" style="fill:none;stroke:#008000;stroke-dasharray:9.6,2.4,1.5,2.4;stroke-dashoffset:0;stroke-width:1.5;"/>
    </g>
    <g id="line2d_38"/>
    <g id="text_20">
     <!-- +1 sd -->
     <defs>
      <path d="M 46 62.703125 
L 46 35.5 
L 73.1875 35.5 
L 73.1875 27.203125 
L 46 27.203125 
L 46 0 
L 37.796875 0 
L 37.796875 27.203125 
L 10.59375 27.203125 
L 10.59375 35.5 
L 37.796875 35.5 
L 37.796875 62.703125 
z
" id="DejaVuSans-2b"/>
     </defs>
     <g transform="translate(94.6 87.426688)scale(0.1 -0.1)">
      <use xlink:href="#DejaVuSans-2b"/>
      <use x="83.789062" xlink:href="#DejaVuSans-31"/>
      <use x="147.412109" xlink:href="#DejaVuSans-20"/>
      <use x="179.199219" xlink:href="#DejaVuSans-73"/>
      <use x="231.298828" xlink:href="#DejaVuSans-64"/>
     </g>
    </g>
    <g id="line2d_39">
     <path d="M 66.6 98.604813 
L 86.6 98.604813 
" style="fill:none;stroke:#ff0000;stroke-linecap:square;stroke-width:1.5;"/>
    </g>
    <g id="line2d_40"/>
    <g id="text_21">
     <!-- best -->
     <g transform="translate(94.6 102.104813)scale(0.1 -0.1)">
      <use xlink:href="#DejaVuSans-62"/>
      <use x="63.476562" xlink:href="#DejaVuSans-65"/>
      <use x="125" xlink:href="#DejaVuSans-73"/>
      <use x="177.099609" xlink:href="#DejaVuSans-74"/>
     </g>
    </g>
   </g>
  </g>
 </g>
 <defs>
  <clipPath id="peac8218ca8">
   <rect height="266.112" width="357.12" x="57.6" y="41.472"/>
  </clipPath>
 </defs>
</svg>
