<?xml version="1.0" encoding="utf-8" standalone="no"?>
<!DOCTYPE svg PUBLIC "-//W3C//DTD SVG 1.1//EN"
  "http://www.w3.org/Graphics/SVG/1.1/DTD/svg11.dtd">
<!-- Created with matplotlib (http://matplotlib.org/) -->
<svg height="345.6pt" version="1.1" viewBox="0 0 460.8 345.6" width="460.8pt" xmlns="http://www.w3.org/2000/svg" xmlns:xlink="http://www.w3.org/1999/xlink">
 <defs>
  <style type="text/css">
*{stroke-linecap:butt;stroke-linejoin:round;}
  </style>
 </defs>
 <g id="figure_1">
  <g id="patch_1">
   <path d="M 0 345.6 
L 460.8 345.6 
L 460.8 0 
L 0 0 
z
" style="fill:#ffffff;"/>
  </g>
  <g id="axes_1">
   <g id="patch_2">
    <path d="M 57.6 307.584 
L 414.72 307.584 
L 414.72 41.472 
L 57.6 41.472 
z
" style="fill:#ffffff;"/>
   </g>
   <g id="PolyCollection_1">
    <path clip-path="url(#pf0bcbb5d80)" d="M 73.832727 158.825739 
L 73.832727 307.584 
L 75.982757 307.584 
L 78.132787 307.584 
L 80.282818 307.584 
L 82.432848 307.584 
L 84.582878 307.584 
L 86.732908 307.584 
L 88.882938 307.584 
L 91.032968 307.584 
L 93.182998 307.584 
L 95.333028 307.584 
L 97.483058 307.584 
L 99.633089 307.584 
L 101.783119 307.584 
L 103.933149 307.584 
L 106.083179 307.584 
L 108.233209 307.584 
L 110.383239 307.584 
L 112.533269 307.584 
L 114.683299 307.584 
L 116.833329 307.584 
L 118.983359 307.584 
L 121.13339 307.584 
L 123.28342 307.584 
L 125.43345 307.584 
L 127.58348 307.584 
L 129.73351 307.584 
L 131.88354 307.584 
L 134.03357 307.584 
L 136.1836 307.584 
L 138.33363 307.584 
L 140.48366 307.584 
L 142.633691 307.584 
L 144.783721 307.584 
L 146.933751 307.584 
L 149.083781 307.584 
L 151.233811 307.584 
L 153.383841 307.584 
L 155.533871 307.584 
L 157.683901 307.584 
L 159.833931 307.584 
L 161.983961 307.584 
L 164.133992 307.584 
L 166.284022 307.584 
L 168.434052 307.584 
L 170.584082 307.584 
L 172.734112 307.584 
L 174.884142 307.584 
L 177.034172 307.584 
L 179.184202 307.584 
L 181.334232 307.584 
L 183.484262 307.584 
L 185.634293 307.584 
L 187.784323 307.584 
L 189.934353 307.584 
L 192.084383 307.584 
L 194.234413 307.584 
L 196.384443 307.584 
L 198.534473 307.584 
L 200.684503 307.584 
L 202.834533 307.584 
L 204.984564 307.584 
L 207.134594 307.584 
L 209.284624 307.584 
L 211.434654 307.584 
L 213.584684 307.584 
L 215.734714 307.584 
L 217.884744 307.584 
L 220.034774 307.584 
L 222.184804 307.584 
L 224.334834 307.584 
L 226.484865 307.584 
L 228.634895 307.584 
L 230.784925 307.584 
L 232.934955 307.584 
L 235.084985 307.584 
L 237.235015 307.584 
L 239.385045 307.584 
L 241.535075 307.584 
L 243.685105 307.584 
L 245.835135 307.584 
L 247.985166 307.584 
L 250.135196 307.584 
L 252.285226 307.584 
L 254.435256 307.584 
L 256.585286 307.584 
L 258.735316 307.584 
L 260.885346 307.584 
L 263.035376 307.584 
L 265.185406 307.584 
L 267.335436 307.584 
L 269.485467 307.584 
L 271.635497 307.584 
L 273.785527 307.584 
L 275.935557 307.584 
L 278.085587 307.584 
L 280.235617 307.584 
L 282.385647 307.584 
L 284.535677 307.584 
L 286.685707 307.584 
L 288.835738 307.584 
L 290.985768 307.584 
L 293.135798 307.584 
L 295.285828 307.584 
L 297.435858 307.584 
L 299.585888 307.584 
L 301.735918 307.584 
L 303.885948 307.584 
L 306.035978 307.584 
L 308.186008 307.584 
L 310.336039 307.584 
L 312.486069 307.584 
L 314.636099 307.584 
L 316.786129 307.584 
L 318.936159 307.584 
L 321.086189 307.584 
L 323.236219 307.584 
L 325.386249 307.584 
L 327.536279 307.584 
L 329.686309 307.584 
L 331.83634 307.584 
L 333.98637 307.584 
L 336.1364 307.584 
L 338.28643 307.584 
L 340.43646 307.584 
L 342.58649 307.584 
L 344.73652 307.584 
L 346.88655 307.584 
L 349.03658 307.584 
L 351.18661 307.584 
L 353.336641 307.584 
L 355.486671 307.584 
L 357.636701 307.584 
L 359.786731 307.584 
L 361.936761 307.584 
L 364.086791 307.584 
L 366.236821 307.584 
L 368.386851 307.584 
L 370.536881 307.584 
L 372.686911 307.584 
L 374.836942 307.584 
L 376.986972 307.584 
L 379.137002 307.584 
L 381.287032 307.584 
L 383.437062 307.584 
L 385.587092 307.584 
L 387.737122 307.584 
L 389.887152 307.584 
L 392.037182 307.584 
L 394.187213 307.584 
L 396.337243 307.584 
L 398.487273 307.584 
L 398.487273 307.584 
L 398.487273 307.584 
L 396.337243 307.584 
L 394.187213 307.584 
L 392.037182 307.584 
L 389.887152 307.584 
L 387.737122 307.584 
L 385.587092 307.584 
L 383.437062 307.584 
L 381.287032 307.584 
L 379.137002 307.584 
L 376.986972 307.584 
L 374.836942 307.584 
L 372.686911 307.584 
L 370.536881 307.584 
L 368.386851 307.584 
L 366.236821 307.584 
L 364.086791 307.584 
L 361.936761 307.584 
L 359.786731 307.584 
L 357.636701 307.584 
L 355.486671 307.584 
L 353.336641 307.584 
L 351.18661 307.584 
L 349.03658 307.584 
L 346.88655 307.584 
L 344.73652 307.584 
L 342.58649 307.584 
L 340.43646 307.584 
L 338.28643 307.584 
L 336.1364 307.584 
L 333.98637 307.584 
L 331.83634 307.584 
L 329.686309 307.584 
L 327.536279 307.584 
L 325.386249 307.584 
L 323.236219 307.584 
L 321.086189 307.584 
L 318.936159 307.584 
L 316.786129 307.584 
L 314.636099 307.584 
L 312.486069 307.584 
L 310.336039 307.584 
L 308.186008 307.584 
L 306.035978 307.584 
L 303.885948 307.584 
L 301.735918 307.584 
L 299.585888 307.584 
L 297.435858 307.584 
L 295.285828 307.584 
L 293.135798 307.584 
L 290.985768 307.584 
L 288.835738 307.584 
L 286.685707 307.584 
L 284.535677 307.584 
L 282.385647 307.584 
L 280.235617 307.584 
L 278.085587 307.584 
L 275.935557 307.584 
L 273.785527 307.584 
L 271.635497 307.584 
L 269.485467 307.584 
L 267.335436 307.584 
L 265.185406 307.584 
L 263.035376 307.584 
L 260.885346 307.584 
L 258.735316 307.584 
L 256.585286 307.584 
L 254.435256 307.584 
L 252.285226 307.584 
L 250.135196 307.584 
L 247.985166 307.584 
L 245.835135 307.584 
L 243.685105 307.584 
L 241.535075 307.584 
L 239.385045 307.584 
L 237.235015 307.584 
L 235.084985 307.584 
L 232.934955 307.584 
L 230.784925 307.584 
L 228.634895 307.584 
L 226.484865 307.584 
L 224.334834 307.584 
L 222.184804 307.584 
L 220.034774 307.584 
L 217.884744 307.584 
L 215.734714 307.584 
L 213.584684 307.584 
L 211.434654 307.584 
L 209.284624 307.584 
L 207.134594 307.584 
L 204.984564 307.584 
L 202.834533 307.584 
L 200.684503 307.584 
L 198.534473 307.584 
L 196.384443 307.584 
L 194.234413 307.584 
L 192.084383 307.584 
L 189.934353 307.584 
L 187.784323 307.584 
L 185.634293 307.584 
L 183.484262 307.584 
L 181.334232 307.584 
L 179.184202 307.584 
L 177.034172 307.584 
L 174.884142 307.584 
L 172.734112 307.584 
L 170.584082 307.584 
L 168.434052 307.584 
L 166.284022 307.584 
L 164.133992 307.584 
L 161.983961 241.469217 
L 159.833931 241.469217 
L 157.683901 246.978783 
L 155.533871 241.469217 
L 153.383841 252.488348 
L 151.233811 269.017043 
L 149.083781 257.997913 
L 146.933751 285.545739 
L 144.783721 241.469217 
L 142.633691 252.488348 
L 140.48366 280.036174 
L 138.33363 280.036174 
L 136.1836 269.017043 
L 134.03357 274.526609 
L 131.88354 263.507478 
L 129.73351 219.430957 
L 127.58348 252.488348 
L 125.43345 241.469217 
L 123.28342 230.450087 
L 121.13339 169.84487 
L 118.983359 169.84487 
L 116.833329 241.469217 
L 114.683299 202.902261 
L 112.533269 213.921391 
L 110.383239 213.921391 
L 108.233209 197.392696 
L 106.083179 219.430957 
L 103.933149 219.430957 
L 101.783119 153.316174 
L 99.633089 142.297043 
L 97.483058 164.335304 
L 95.333028 213.921391 
L 93.182998 230.450087 
L 91.032968 197.392696 
L 88.882938 197.392696 
L 86.732908 191.88313 
L 84.582878 191.88313 
L 82.432848 186.373565 
L 80.282818 257.997913 
L 78.132787 186.373565 
L 75.982757 180.864 
L 73.832727 158.825739 
z
" style="fill:#1f77b4;"/>
   </g>
   <g id="PolyCollection_2">
    <path clip-path="url(#pf0bcbb5d80)" d="M 73.832727 76.182261 
L 73.832727 158.825739 
L 75.982757 180.864 
L 78.132787 186.373565 
L 80.282818 257.997913 
L 82.432848 186.373565 
L 84.582878 191.88313 
L 86.732908 191.88313 
L 88.882938 197.392696 
L 91.032968 197.392696 
L 93.182998 230.450087 
L 95.333028 213.921391 
L 97.483058 164.335304 
L 99.633089 142.297043 
L 101.783119 153.316174 
L 103.933149 219.430957 
L 106.083179 219.430957 
L 108.233209 197.392696 
L 110.383239 213.921391 
L 112.533269 213.921391 
L 114.683299 202.902261 
L 116.833329 241.469217 
L 118.983359 169.84487 
L 121.13339 169.84487 
L 123.28342 230.450087 
L 125.43345 241.469217 
L 127.58348 252.488348 
L 129.73351 219.430957 
L 131.88354 263.507478 
L 134.03357 274.526609 
L 136.1836 269.017043 
L 138.33363 280.036174 
L 140.48366 280.036174 
L 142.633691 252.488348 
L 144.783721 241.469217 
L 146.933751 285.545739 
L 149.083781 257.997913 
L 151.233811 269.017043 
L 153.383841 252.488348 
L 155.533871 241.469217 
L 157.683901 246.978783 
L 159.833931 241.469217 
L 161.983961 241.469217 
L 164.133992 307.584 
L 166.284022 307.584 
L 168.434052 307.584 
L 170.584082 307.584 
L 172.734112 307.584 
L 174.884142 307.584 
L 177.034172 307.584 
L 179.184202 307.584 
L 181.334232 307.584 
L 183.484262 307.584 
L 185.634293 307.584 
L 187.784323 307.584 
L 189.934353 307.584 
L 192.084383 307.584 
L 194.234413 307.584 
L 196.384443 307.584 
L 198.534473 307.584 
L 200.684503 307.584 
L 202.834533 307.584 
L 204.984564 307.584 
L 207.134594 307.584 
L 209.284624 307.584 
L 211.434654 307.584 
L 213.584684 307.584 
L 215.734714 307.584 
L 217.884744 307.584 
L 220.034774 307.584 
L 222.184804 307.584 
L 224.334834 307.584 
L 226.484865 307.584 
L 228.634895 307.584 
L 230.784925 307.584 
L 232.934955 307.584 
L 235.084985 307.584 
L 237.235015 307.584 
L 239.385045 307.584 
L 241.535075 307.584 
L 243.685105 307.584 
L 245.835135 307.584 
L 247.985166 307.584 
L 250.135196 307.584 
L 252.285226 307.584 
L 254.435256 307.584 
L 256.585286 307.584 
L 258.735316 307.584 
L 260.885346 307.584 
L 263.035376 307.584 
L 265.185406 307.584 
L 267.335436 307.584 
L 269.485467 307.584 
L 271.635497 307.584 
L 273.785527 307.584 
L 275.935557 307.584 
L 278.085587 307.584 
L 280.235617 307.584 
L 282.385647 307.584 
L 284.535677 307.584 
L 286.685707 307.584 
L 288.835738 307.584 
L 290.985768 307.584 
L 293.135798 307.584 
L 295.285828 307.584 
L 297.435858 307.584 
L 299.585888 307.584 
L 301.735918 307.584 
L 303.885948 307.584 
L 306.035978 307.584 
L 308.186008 307.584 
L 310.336039 307.584 
L 312.486069 307.584 
L 314.636099 307.584 
L 316.786129 307.584 
L 318.936159 307.584 
L 321.086189 307.584 
L 323.236219 307.584 
L 325.386249 307.584 
L 327.536279 307.584 
L 329.686309 307.584 
L 331.83634 307.584 
L 333.98637 307.584 
L 336.1364 307.584 
L 338.28643 307.584 
L 340.43646 307.584 
L 342.58649 307.584 
L 344.73652 307.584 
L 346.88655 307.584 
L 349.03658 307.584 
L 351.18661 307.584 
L 353.336641 307.584 
L 355.486671 307.584 
L 357.636701 307.584 
L 359.786731 307.584 
L 361.936761 307.584 
L 364.086791 307.584 
L 366.236821 307.584 
L 368.386851 307.584 
L 370.536881 307.584 
L 372.686911 307.584 
L 374.836942 307.584 
L 376.986972 307.584 
L 379.137002 307.584 
L 381.287032 307.584 
L 383.437062 307.584 
L 385.587092 307.584 
L 387.737122 307.584 
L 389.887152 307.584 
L 392.037182 307.584 
L 394.187213 307.584 
L 396.337243 307.584 
L 398.487273 307.584 
L 398.487273 307.584 
L 398.487273 307.584 
L 396.337243 307.584 
L 394.187213 307.584 
L 392.037182 307.584 
L 389.887152 307.584 
L 387.737122 307.584 
L 385.587092 307.584 
L 383.437062 307.584 
L 381.287032 307.584 
L 379.137002 307.584 
L 376.986972 307.584 
L 374.836942 307.584 
L 372.686911 307.584 
L 370.536881 307.584 
L 368.386851 307.584 
L 366.236821 307.584 
L 364.086791 307.584 
L 361.936761 307.584 
L 359.786731 307.584 
L 357.636701 307.584 
L 355.486671 307.584 
L 353.336641 307.584 
L 351.18661 307.584 
L 349.03658 307.584 
L 346.88655 307.584 
L 344.73652 307.584 
L 342.58649 307.584 
L 340.43646 307.584 
L 338.28643 307.584 
L 336.1364 307.584 
L 333.98637 307.584 
L 331.83634 307.584 
L 329.686309 307.584 
L 327.536279 307.584 
L 325.386249 307.584 
L 323.236219 307.584 
L 321.086189 307.584 
L 318.936159 307.584 
L 316.786129 307.584 
L 314.636099 307.584 
L 312.486069 307.584 
L 310.336039 307.584 
L 308.186008 307.584 
L 306.035978 307.584 
L 303.885948 307.584 
L 301.735918 307.584 
L 299.585888 307.584 
L 297.435858 307.584 
L 295.285828 307.584 
L 293.135798 307.584 
L 290.985768 307.584 
L 288.835738 307.584 
L 286.685707 307.584 
L 284.535677 307.584 
L 282.385647 307.584 
L 280.235617 307.584 
L 278.085587 307.584 
L 275.935557 307.584 
L 273.785527 307.584 
L 271.635497 307.584 
L 269.485467 307.584 
L 267.335436 307.584 
L 265.185406 307.584 
L 263.035376 307.584 
L 260.885346 307.584 
L 258.735316 307.584 
L 256.585286 307.584 
L 254.435256 307.584 
L 252.285226 307.584 
L 250.135196 307.584 
L 247.985166 307.584 
L 245.835135 307.584 
L 243.685105 307.584 
L 241.535075 307.584 
L 239.385045 307.584 
L 237.235015 307.584 
L 235.084985 307.584 
L 232.934955 307.584 
L 230.784925 307.584 
L 228.634895 307.584 
L 226.484865 307.584 
L 224.334834 307.584 
L 222.184804 307.584 
L 220.034774 307.584 
L 217.884744 307.584 
L 215.734714 307.584 
L 213.584684 307.584 
L 211.434654 307.584 
L 209.284624 307.584 
L 207.134594 307.584 
L 204.984564 307.584 
L 202.834533 307.584 
L 200.684503 307.584 
L 198.534473 307.584 
L 196.384443 307.584 
L 194.234413 307.584 
L 192.084383 307.584 
L 189.934353 307.584 
L 187.784323 307.584 
L 185.634293 307.584 
L 183.484262 307.584 
L 181.334232 307.584 
L 179.184202 307.584 
L 177.034172 307.584 
L 174.884142 307.584 
L 172.734112 307.584 
L 170.584082 307.584 
L 168.434052 307.584 
L 166.284022 307.584 
L 164.133992 307.584 
L 161.983961 241.469217 
L 159.833931 241.469217 
L 157.683901 186.373565 
L 155.533871 186.373565 
L 153.383841 191.88313 
L 151.233811 213.921391 
L 149.083781 208.411826 
L 146.933751 241.469217 
L 144.783721 197.392696 
L 142.633691 197.392696 
L 140.48366 191.88313 
L 138.33363 230.450087 
L 136.1836 252.488348 
L 134.03357 213.921391 
L 131.88354 257.997913 
L 129.73351 197.392696 
L 127.58348 241.469217 
L 125.43345 175.354435 
L 123.28342 202.902261 
L 121.13339 153.316174 
L 118.983359 142.297043 
L 116.833329 142.297043 
L 114.683299 125.768348 
L 112.533269 142.297043 
L 110.383239 180.864 
L 108.233209 142.297043 
L 106.083179 153.316174 
L 103.933149 147.806609 
L 101.783119 109.239652 
L 99.633089 109.239652 
L 97.483058 92.710957 
L 95.333028 109.239652 
L 93.182998 92.710957 
L 91.032968 98.220522 
L 88.882938 103.730087 
L 86.732908 98.220522 
L 84.582878 103.730087 
L 82.432848 87.201391 
L 80.282818 92.710957 
L 78.132787 125.768348 
L 75.982757 109.239652 
L 73.832727 76.182261 
z
" style="fill:#ff7f0e;"/>
   </g>
   <g id="PolyCollection_3">
    <path clip-path="url(#pf0bcbb5d80)" d="M 73.832727 59.653565 
L 73.832727 76.182261 
L 75.982757 109.239652 
L 78.132787 125.768348 
L 80.282818 92.710957 
L 82.432848 87.201391 
L 84.582878 103.730087 
L 86.732908 98.220522 
L 88.882938 103.730087 
L 91.032968 98.220522 
L 93.182998 92.710957 
L 95.333028 109.239652 
L 97.483058 92.710957 
L 99.633089 109.239652 
L 101.783119 109.239652 
L 103.933149 147.806609 
L 106.083179 153.316174 
L 108.233209 142.297043 
L 110.383239 180.864 
L 112.533269 142.297043 
L 114.683299 125.768348 
L 116.833329 142.297043 
L 118.983359 142.297043 
L 121.13339 153.316174 
L 123.28342 202.902261 
L 125.43345 175.354435 
L 127.58348 241.469217 
L 129.73351 197.392696 
L 131.88354 257.997913 
L 134.03357 213.921391 
L 136.1836 252.488348 
L 138.33363 230.450087 
L 140.48366 191.88313 
L 142.633691 197.392696 
L 144.783721 197.392696 
L 146.933751 241.469217 
L 149.083781 208.411826 
L 151.233811 213.921391 
L 153.383841 191.88313 
L 155.533871 186.373565 
L 157.683901 186.373565 
L 159.833931 241.469217 
L 161.983961 241.469217 
L 164.133992 307.584 
L 166.284022 307.584 
L 168.434052 307.584 
L 170.584082 307.584 
L 172.734112 307.584 
L 174.884142 307.584 
L 177.034172 307.584 
L 179.184202 307.584 
L 181.334232 307.584 
L 183.484262 307.584 
L 185.634293 307.584 
L 187.784323 307.584 
L 189.934353 307.584 
L 192.084383 307.584 
L 194.234413 307.584 
L 196.384443 307.584 
L 198.534473 307.584 
L 200.684503 307.584 
L 202.834533 307.584 
L 204.984564 307.584 
L 207.134594 307.584 
L 209.284624 307.584 
L 211.434654 307.584 
L 213.584684 307.584 
L 215.734714 307.584 
L 217.884744 307.584 
L 220.034774 307.584 
L 222.184804 307.584 
L 224.334834 307.584 
L 226.484865 307.584 
L 228.634895 307.584 
L 230.784925 307.584 
L 232.934955 307.584 
L 235.084985 307.584 
L 237.235015 307.584 
L 239.385045 307.584 
L 241.535075 307.584 
L 243.685105 307.584 
L 245.835135 307.584 
L 247.985166 307.584 
L 250.135196 307.584 
L 252.285226 307.584 
L 254.435256 307.584 
L 256.585286 307.584 
L 258.735316 307.584 
L 260.885346 307.584 
L 263.035376 307.584 
L 265.185406 307.584 
L 267.335436 307.584 
L 269.485467 307.584 
L 271.635497 307.584 
L 273.785527 307.584 
L 275.935557 307.584 
L 278.085587 307.584 
L 280.235617 307.584 
L 282.385647 307.584 
L 284.535677 307.584 
L 286.685707 307.584 
L 288.835738 307.584 
L 290.985768 307.584 
L 293.135798 307.584 
L 295.285828 307.584 
L 297.435858 307.584 
L 299.585888 307.584 
L 301.735918 307.584 
L 303.885948 307.584 
L 306.035978 307.584 
L 308.186008 307.584 
L 310.336039 307.584 
L 312.486069 307.584 
L 314.636099 307.584 
L 316.786129 307.584 
L 318.936159 307.584 
L 321.086189 307.584 
L 323.236219 307.584 
L 325.386249 307.584 
L 327.536279 307.584 
L 329.686309 307.584 
L 331.83634 307.584 
L 333.98637 307.584 
L 336.1364 307.584 
L 338.28643 307.584 
L 340.43646 307.584 
L 342.58649 307.584 
L 344.73652 307.584 
L 346.88655 307.584 
L 349.03658 307.584 
L 351.18661 307.584 
L 353.336641 307.584 
L 355.486671 307.584 
L 357.636701 307.584 
L 359.786731 307.584 
L 361.936761 307.584 
L 364.086791 307.584 
L 366.236821 307.584 
L 368.386851 307.584 
L 370.536881 307.584 
L 372.686911 307.584 
L 374.836942 307.584 
L 376.986972 307.584 
L 379.137002 307.584 
L 381.287032 307.584 
L 383.437062 307.584 
L 385.587092 307.584 
L 387.737122 307.584 
L 389.887152 307.584 
L 392.037182 307.584 
L 394.187213 307.584 
L 396.337243 307.584 
L 398.487273 307.584 
L 398.487273 307.584 
L 398.487273 307.584 
L 396.337243 307.584 
L 394.187213 307.584 
L 392.037182 307.584 
L 389.887152 307.584 
L 387.737122 307.584 
L 385.587092 307.584 
L 383.437062 307.584 
L 381.287032 307.584 
L 379.137002 307.584 
L 376.986972 307.584 
L 374.836942 307.584 
L 372.686911 307.584 
L 370.536881 307.584 
L 368.386851 307.584 
L 366.236821 307.584 
L 364.086791 307.584 
L 361.936761 307.584 
L 359.786731 307.584 
L 357.636701 307.584 
L 355.486671 307.584 
L 353.336641 307.584 
L 351.18661 307.584 
L 349.03658 307.584 
L 346.88655 307.584 
L 344.73652 307.584 
L 342.58649 307.584 
L 340.43646 307.584 
L 338.28643 307.584 
L 336.1364 307.584 
L 333.98637 307.584 
L 331.83634 307.584 
L 329.686309 307.584 
L 327.536279 307.584 
L 325.386249 307.584 
L 323.236219 307.584 
L 321.086189 307.584 
L 318.936159 307.584 
L 316.786129 307.584 
L 314.636099 307.584 
L 312.486069 307.584 
L 310.336039 307.584 
L 308.186008 307.584 
L 306.035978 307.584 
L 303.885948 307.584 
L 301.735918 307.584 
L 299.585888 307.584 
L 297.435858 307.584 
L 295.285828 307.584 
L 293.135798 307.584 
L 290.985768 307.584 
L 288.835738 307.584 
L 286.685707 307.584 
L 284.535677 307.584 
L 282.385647 307.584 
L 280.235617 307.584 
L 278.085587 307.584 
L 275.935557 307.584 
L 273.785527 307.584 
L 271.635497 307.584 
L 269.485467 307.584 
L 267.335436 307.584 
L 265.185406 307.584 
L 263.035376 307.584 
L 260.885346 307.584 
L 258.735316 307.584 
L 256.585286 307.584 
L 254.435256 307.584 
L 252.285226 307.584 
L 250.135196 307.584 
L 247.985166 307.584 
L 245.835135 307.584 
L 243.685105 307.584 
L 241.535075 307.584 
L 239.385045 307.584 
L 237.235015 307.584 
L 235.084985 307.584 
L 232.934955 307.584 
L 230.784925 307.584 
L 228.634895 307.584 
L 226.484865 307.584 
L 224.334834 307.584 
L 222.184804 307.584 
L 220.034774 307.584 
L 217.884744 307.584 
L 215.734714 307.584 
L 213.584684 307.584 
L 211.434654 307.584 
L 209.284624 307.584 
L 207.134594 307.584 
L 204.984564 307.584 
L 202.834533 307.584 
L 200.684503 307.584 
L 198.534473 307.584 
L 196.384443 307.584 
L 194.234413 307.584 
L 192.084383 307.584 
L 189.934353 307.584 
L 187.784323 307.584 
L 185.634293 307.584 
L 183.484262 307.584 
L 181.334232 307.584 
L 179.184202 307.584 
L 177.034172 307.584 
L 174.884142 307.584 
L 172.734112 307.584 
L 170.584082 307.584 
L 168.434052 307.584 
L 166.284022 307.584 
L 164.133992 307.584 
L 161.983961 241.469217 
L 159.833931 241.469217 
L 157.683901 186.373565 
L 155.533871 186.373565 
L 153.383841 191.88313 
L 151.233811 213.921391 
L 149.083781 208.411826 
L 146.933751 186.373565 
L 144.783721 136.787478 
L 142.633691 131.277913 
L 140.48366 142.297043 
L 138.33363 153.316174 
L 136.1836 164.335304 
L 134.03357 70.672696 
L 131.88354 59.653565 
L 129.73351 59.653565 
L 127.58348 59.653565 
L 125.43345 59.653565 
L 123.28342 59.653565 
L 121.13339 65.16313 
L 118.983359 59.653565 
L 116.833329 65.16313 
L 114.683299 59.653565 
L 112.533269 59.653565 
L 110.383239 59.653565 
L 108.233209 59.653565 
L 106.083179 59.653565 
L 103.933149 54.144 
L 101.783119 59.653565 
L 99.633089 59.653565 
L 97.483058 59.653565 
L 95.333028 65.16313 
L 93.182998 59.653565 
L 91.032968 65.16313 
L 88.882938 59.653565 
L 86.732908 65.16313 
L 84.582878 65.16313 
L 82.432848 59.653565 
L 80.282818 59.653565 
L 78.132787 59.653565 
L 75.982757 59.653565 
L 73.832727 59.653565 
z
" style="fill:#2ca02c;"/>
   </g>
   <g id="PolyCollection_4">
    <path clip-path="url(#pf0bcbb5d80)" d="M 73.832727 59.653565 
L 73.832727 59.653565 
L 75.982757 59.653565 
L 78.132787 59.653565 
L 80.282818 59.653565 
L 82.432848 59.653565 
L 84.582878 65.16313 
L 86.732908 65.16313 
L 88.882938 59.653565 
L 91.032968 65.16313 
L 93.182998 59.653565 
L 95.333028 65.16313 
L 97.483058 59.653565 
L 99.633089 59.653565 
L 101.783119 59.653565 
L 103.933149 54.144 
L 106.083179 59.653565 
L 108.233209 59.653565 
L 110.383239 59.653565 
L 112.533269 59.653565 
L 114.683299 59.653565 
L 116.833329 65.16313 
L 118.983359 59.653565 
L 121.13339 65.16313 
L 123.28342 59.653565 
L 125.43345 59.653565 
L 127.58348 59.653565 
L 129.73351 59.653565 
L 131.88354 59.653565 
L 134.03357 70.672696 
L 136.1836 164.335304 
L 138.33363 153.316174 
L 140.48366 142.297043 
L 142.633691 131.277913 
L 144.783721 136.787478 
L 146.933751 186.373565 
L 149.083781 208.411826 
L 151.233811 213.921391 
L 153.383841 191.88313 
L 155.533871 186.373565 
L 157.683901 186.373565 
L 159.833931 241.469217 
L 161.983961 241.469217 
L 164.133992 307.584 
L 166.284022 307.584 
L 168.434052 307.584 
L 170.584082 307.584 
L 172.734112 307.584 
L 174.884142 307.584 
L 177.034172 307.584 
L 179.184202 307.584 
L 181.334232 307.584 
L 183.484262 307.584 
L 185.634293 307.584 
L 187.784323 307.584 
L 189.934353 307.584 
L 192.084383 307.584 
L 194.234413 307.584 
L 196.384443 307.584 
L 198.534473 307.584 
L 200.684503 307.584 
L 202.834533 307.584 
L 204.984564 307.584 
L 207.134594 307.584 
L 209.284624 307.584 
L 211.434654 307.584 
L 213.584684 307.584 
L 215.734714 307.584 
L 217.884744 307.584 
L 220.034774 307.584 
L 222.184804 307.584 
L 224.334834 307.584 
L 226.484865 307.584 
L 228.634895 307.584 
L 230.784925 307.584 
L 232.934955 307.584 
L 235.084985 307.584 
L 237.235015 307.584 
L 239.385045 307.584 
L 241.535075 307.584 
L 243.685105 307.584 
L 245.835135 307.584 
L 247.985166 307.584 
L 250.135196 307.584 
L 252.285226 307.584 
L 254.435256 307.584 
L 256.585286 307.584 
L 258.735316 307.584 
L 260.885346 307.584 
L 263.035376 307.584 
L 265.185406 307.584 
L 267.335436 307.584 
L 269.485467 307.584 
L 271.635497 307.584 
L 273.785527 307.584 
L 275.935557 307.584 
L 278.085587 307.584 
L 280.235617 307.584 
L 282.385647 307.584 
L 284.535677 307.584 
L 286.685707 307.584 
L 288.835738 307.584 
L 290.985768 307.584 
L 293.135798 307.584 
L 295.285828 307.584 
L 297.435858 307.584 
L 299.585888 307.584 
L 301.735918 307.584 
L 303.885948 307.584 
L 306.035978 307.584 
L 308.186008 307.584 
L 310.336039 307.584 
L 312.486069 307.584 
L 314.636099 307.584 
L 316.786129 307.584 
L 318.936159 307.584 
L 321.086189 307.584 
L 323.236219 307.584 
L 325.386249 307.584 
L 327.536279 307.584 
L 329.686309 307.584 
L 331.83634 307.584 
L 333.98637 307.584 
L 336.1364 307.584 
L 338.28643 307.584 
L 340.43646 307.584 
L 342.58649 307.584 
L 344.73652 307.584 
L 346.88655 307.584 
L 349.03658 307.584 
L 351.18661 307.584 
L 353.336641 307.584 
L 355.486671 307.584 
L 357.636701 307.584 
L 359.786731 307.584 
L 361.936761 307.584 
L 364.086791 307.584 
L 366.236821 307.584 
L 368.386851 307.584 
L 370.536881 307.584 
L 372.686911 307.584 
L 374.836942 307.584 
L 376.986972 307.584 
L 379.137002 307.584 
L 381.287032 307.584 
L 383.437062 307.584 
L 385.587092 307.584 
L 387.737122 307.584 
L 389.887152 307.584 
L 392.037182 307.584 
L 394.187213 307.584 
L 396.337243 307.584 
L 398.487273 307.584 
L 398.487273 197.392696 
L 398.487273 197.392696 
L 396.337243 202.902261 
L 394.187213 197.392696 
L 392.037182 202.902261 
L 389.887152 208.411826 
L 387.737122 213.921391 
L 385.587092 208.411826 
L 383.437062 202.902261 
L 381.287032 208.411826 
L 379.137002 224.940522 
L 376.986972 230.450087 
L 374.836942 213.921391 
L 372.686911 202.902261 
L 370.536881 197.392696 
L 368.386851 191.88313 
L 366.236821 202.902261 
L 364.086791 219.430957 
L 361.936761 191.88313 
L 359.786731 197.392696 
L 357.636701 191.88313 
L 355.486671 197.392696 
L 353.336641 186.373565 
L 351.18661 191.88313 
L 349.03658 186.373565 
L 346.88655 191.88313 
L 344.73652 197.392696 
L 342.58649 191.88313 
L 340.43646 213.921391 
L 338.28643 208.411826 
L 336.1364 219.430957 
L 333.98637 224.940522 
L 331.83634 208.411826 
L 329.686309 202.902261 
L 327.536279 197.392696 
L 325.386249 186.373565 
L 323.236219 197.392696 
L 321.086189 202.902261 
L 318.936159 208.411826 
L 316.786129 219.430957 
L 314.636099 202.902261 
L 312.486069 197.392696 
L 310.336039 186.373565 
L 308.186008 191.88313 
L 306.035978 186.373565 
L 303.885948 191.88313 
L 301.735918 175.354435 
L 299.585888 169.84487 
L 297.435858 180.864 
L 295.285828 213.921391 
L 293.135798 219.430957 
L 290.985768 197.392696 
L 288.835738 208.411826 
L 286.685707 219.430957 
L 284.535677 213.921391 
L 282.385647 197.392696 
L 280.235617 202.902261 
L 278.085587 213.921391 
L 275.935557 186.373565 
L 273.785527 180.864 
L 271.635497 197.392696 
L 269.485467 186.373565 
L 267.335436 197.392696 
L 265.185406 208.411826 
L 263.035376 202.902261 
L 260.885346 197.392696 
L 258.735316 191.88313 
L 256.585286 186.373565 
L 254.435256 180.864 
L 252.285226 202.902261 
L 250.135196 197.392696 
L 247.985166 191.88313 
L 245.835135 186.373565 
L 243.685105 191.88313 
L 241.535075 186.373565 
L 239.385045 180.864 
L 237.235015 186.373565 
L 235.084985 197.392696 
L 232.934955 186.373565 
L 230.784925 197.392696 
L 228.634895 213.921391 
L 226.484865 208.411826 
L 224.334834 202.902261 
L 222.184804 191.88313 
L 220.034774 186.373565 
L 217.884744 191.88313 
L 215.734714 197.392696 
L 213.584684 202.902261 
L 211.434654 197.392696 
L 209.284624 191.88313 
L 207.134594 186.373565 
L 204.984564 202.902261 
L 202.834533 186.373565 
L 200.684503 191.88313 
L 198.534473 186.373565 
L 196.384443 197.392696 
L 194.234413 191.88313 
L 192.084383 208.411826 
L 189.934353 197.392696 
L 187.784323 197.392696 
L 185.634293 191.88313 
L 183.484262 202.902261 
L 181.334232 191.88313 
L 179.184202 197.392696 
L 177.034172 202.902261 
L 174.884142 191.88313 
L 172.734112 208.411826 
L 170.584082 197.392696 
L 168.434052 191.88313 
L 166.284022 175.354435 
L 164.133992 153.316174 
L 161.983961 136.787478 
L 159.833931 153.316174 
L 157.683901 120.258783 
L 155.533871 131.277913 
L 153.383841 131.277913 
L 151.233811 142.297043 
L 149.083781 153.316174 
L 146.933751 131.277913 
L 144.783721 59.653565 
L 142.633691 59.653565 
L 140.48366 65.16313 
L 138.33363 65.16313 
L 136.1836 59.653565 
L 134.03357 59.653565 
L 131.88354 59.653565 
L 129.73351 59.653565 
L 127.58348 59.653565 
L 125.43345 59.653565 
L 123.28342 59.653565 
L 121.13339 65.16313 
L 118.983359 59.653565 
L 116.833329 65.16313 
L 114.683299 59.653565 
L 112.533269 59.653565 
L 110.383239 59.653565 
L 108.233209 59.653565 
L 106.083179 59.653565 
L 103.933149 54.144 
L 101.783119 59.653565 
L 99.633089 59.653565 
L 97.483058 59.653565 
L 95.333028 65.16313 
L 93.182998 59.653565 
L 91.032968 65.16313 
L 88.882938 59.653565 
L 86.732908 65.16313 
L 84.582878 65.16313 
L 82.432848 59.653565 
L 80.282818 59.653565 
L 78.132787 59.653565 
L 75.982757 59.653565 
L 73.832727 59.653565 
z
" style="fill:#d62728;"/>
   </g>
   <g id="PolyCollection_5">
    <path clip-path="url(#pf0bcbb5d80)" d="M 73.832727 59.653565 
L 73.832727 59.653565 
L 75.982757 59.653565 
L 78.132787 59.653565 
L 80.282818 59.653565 
L 82.432848 59.653565 
L 84.582878 65.16313 
L 86.732908 65.16313 
L 88.882938 59.653565 
L 91.032968 65.16313 
L 93.182998 59.653565 
L 95.333028 65.16313 
L 97.483058 59.653565 
L 99.633089 59.653565 
L 101.783119 59.653565 
L 103.933149 54.144 
L 106.083179 59.653565 
L 108.233209 59.653565 
L 110.383239 59.653565 
L 112.533269 59.653565 
L 114.683299 59.653565 
L 116.833329 65.16313 
L 118.983359 59.653565 
L 121.13339 65.16313 
L 123.28342 59.653565 
L 125.43345 59.653565 
L 127.58348 59.653565 
L 129.73351 59.653565 
L 131.88354 59.653565 
L 134.03357 59.653565 
L 136.1836 59.653565 
L 138.33363 65.16313 
L 140.48366 65.16313 
L 142.633691 59.653565 
L 144.783721 59.653565 
L 146.933751 131.277913 
L 149.083781 153.316174 
L 151.233811 142.297043 
L 153.383841 131.277913 
L 155.533871 131.277913 
L 157.683901 120.258783 
L 159.833931 153.316174 
L 161.983961 136.787478 
L 164.133992 153.316174 
L 166.284022 175.354435 
L 168.434052 191.88313 
L 170.584082 197.392696 
L 172.734112 208.411826 
L 174.884142 191.88313 
L 177.034172 202.902261 
L 179.184202 197.392696 
L 181.334232 191.88313 
L 183.484262 202.902261 
L 185.634293 191.88313 
L 187.784323 197.392696 
L 189.934353 197.392696 
L 192.084383 208.411826 
L 194.234413 191.88313 
L 196.384443 197.392696 
L 198.534473 186.373565 
L 200.684503 191.88313 
L 202.834533 186.373565 
L 204.984564 202.902261 
L 207.134594 186.373565 
L 209.284624 191.88313 
L 211.434654 197.392696 
L 213.584684 202.902261 
L 215.734714 197.392696 
L 217.884744 191.88313 
L 220.034774 186.373565 
L 222.184804 191.88313 
L 224.334834 202.902261 
L 226.484865 208.411826 
L 228.634895 213.921391 
L 230.784925 197.392696 
L 232.934955 186.373565 
L 235.084985 197.392696 
L 237.235015 186.373565 
L 239.385045 180.864 
L 241.535075 186.373565 
L 243.685105 191.88313 
L 245.835135 186.373565 
L 247.985166 191.88313 
L 250.135196 197.392696 
L 252.285226 202.902261 
L 254.435256 180.864 
L 256.585286 186.373565 
L 258.735316 191.88313 
L 260.885346 197.392696 
L 263.035376 202.902261 
L 265.185406 208.411826 
L 267.335436 197.392696 
L 269.485467 186.373565 
L 271.635497 197.392696 
L 273.785527 180.864 
L 275.935557 186.373565 
L 278.085587 213.921391 
L 280.235617 202.902261 
L 282.385647 197.392696 
L 284.535677 213.921391 
L 286.685707 219.430957 
L 288.835738 208.411826 
L 290.985768 197.392696 
L 293.135798 219.430957 
L 295.285828 213.921391 
L 297.435858 180.864 
L 299.585888 169.84487 
L 301.735918 175.354435 
L 303.885948 191.88313 
L 306.035978 186.373565 
L 308.186008 191.88313 
L 310.336039 186.373565 
L 312.486069 197.392696 
L 314.636099 202.902261 
L 316.786129 219.430957 
L 318.936159 208.411826 
L 321.086189 202.902261 
L 323.236219 197.392696 
L 325.386249 186.373565 
L 327.536279 197.392696 
L 329.686309 202.902261 
L 331.83634 208.411826 
L 333.98637 224.940522 
L 336.1364 219.430957 
L 338.28643 208.411826 
L 340.43646 213.921391 
L 342.58649 191.88313 
L 344.73652 197.392696 
L 346.88655 191.88313 
L 349.03658 186.373565 
L 351.18661 191.88313 
L 353.336641 186.373565 
L 355.486671 197.392696 
L 357.636701 191.88313 
L 359.786731 197.392696 
L 361.936761 191.88313 
L 364.086791 219.430957 
L 366.236821 202.902261 
L 368.386851 191.88313 
L 370.536881 197.392696 
L 372.686911 202.902261 
L 374.836942 213.921391 
L 376.986972 230.450087 
L 379.137002 224.940522 
L 381.287032 208.411826 
L 383.437062 202.902261 
L 385.587092 208.411826 
L 387.737122 213.921391 
L 389.887152 208.411826 
L 392.037182 202.902261 
L 394.187213 197.392696 
L 396.337243 202.902261 
L 398.487273 197.392696 
L 398.487273 197.392696 
L 398.487273 197.392696 
L 396.337243 202.902261 
L 394.187213 197.392696 
L 392.037182 202.902261 
L 389.887152 208.411826 
L 387.737122 213.921391 
L 385.587092 208.411826 
L 383.437062 202.902261 
L 381.287032 208.411826 
L 379.137002 224.940522 
L 376.986972 230.450087 
L 374.836942 213.921391 
L 372.686911 202.902261 
L 370.536881 197.392696 
L 368.386851 191.88313 
L 366.236821 202.902261 
L 364.086791 219.430957 
L 361.936761 191.88313 
L 359.786731 197.392696 
L 357.636701 191.88313 
L 355.486671 197.392696 
L 353.336641 186.373565 
L 351.18661 191.88313 
L 349.03658 186.373565 
L 346.88655 191.88313 
L 344.73652 197.392696 
L 342.58649 191.88313 
L 340.43646 213.921391 
L 338.28643 208.411826 
L 336.1364 219.430957 
L 333.98637 224.940522 
L 331.83634 208.411826 
L 329.686309 202.902261 
L 327.536279 197.392696 
L 325.386249 186.373565 
L 323.236219 197.392696 
L 321.086189 202.902261 
L 318.936159 208.411826 
L 316.786129 219.430957 
L 314.636099 202.902261 
L 312.486069 197.392696 
L 310.336039 186.373565 
L 308.186008 191.88313 
L 306.035978 186.373565 
L 303.885948 191.88313 
L 301.735918 175.354435 
L 299.585888 169.84487 
L 297.435858 180.864 
L 295.285828 213.921391 
L 293.135798 219.430957 
L 290.985768 197.392696 
L 288.835738 208.411826 
L 286.685707 219.430957 
L 284.535677 213.921391 
L 282.385647 197.392696 
L 280.235617 202.902261 
L 278.085587 213.921391 
L 275.935557 186.373565 
L 273.785527 180.864 
L 271.635497 197.392696 
L 269.485467 186.373565 
L 267.335436 197.392696 
L 265.185406 208.411826 
L 263.035376 202.902261 
L 260.885346 197.392696 
L 258.735316 191.88313 
L 256.585286 186.373565 
L 254.435256 180.864 
L 252.285226 202.902261 
L 250.135196 197.392696 
L 247.985166 191.88313 
L 245.835135 186.373565 
L 243.685105 191.88313 
L 241.535075 186.373565 
L 239.385045 180.864 
L 237.235015 186.373565 
L 235.084985 197.392696 
L 232.934955 186.373565 
L 230.784925 197.392696 
L 228.634895 213.921391 
L 226.484865 208.411826 
L 224.334834 202.902261 
L 222.184804 191.88313 
L 220.034774 186.373565 
L 217.884744 191.88313 
L 215.734714 197.392696 
L 213.584684 202.902261 
L 211.434654 197.392696 
L 209.284624 191.88313 
L 207.134594 186.373565 
L 204.984564 109.239652 
L 202.834533 92.710957 
L 200.684503 59.653565 
L 198.534473 59.653565 
L 196.384443 59.653565 
L 194.234413 59.653565 
L 192.084383 59.653565 
L 189.934353 59.653565 
L 187.784323 59.653565 
L 185.634293 59.653565 
L 183.484262 59.653565 
L 181.334232 59.653565 
L 179.184202 59.653565 
L 177.034172 59.653565 
L 174.884142 59.653565 
L 172.734112 59.653565 
L 170.584082 59.653565 
L 168.434052 59.653565 
L 166.284022 59.653565 
L 164.133992 59.653565 
L 161.983961 59.653565 
L 159.833931 59.653565 
L 157.683901 59.653565 
L 155.533871 54.144 
L 153.383841 59.653565 
L 151.233811 54.144 
L 149.083781 59.653565 
L 146.933751 59.653565 
L 144.783721 59.653565 
L 142.633691 59.653565 
L 140.48366 65.16313 
L 138.33363 65.16313 
L 136.1836 59.653565 
L 134.03357 59.653565 
L 131.88354 59.653565 
L 129.73351 59.653565 
L 127.58348 59.653565 
L 125.43345 59.653565 
L 123.28342 59.653565 
L 121.13339 65.16313 
L 118.983359 59.653565 
L 116.833329 65.16313 
L 114.683299 59.653565 
L 112.533269 59.653565 
L 110.383239 59.653565 
L 108.233209 59.653565 
L 106.083179 59.653565 
L 103.933149 54.144 
L 101.783119 59.653565 
L 99.633089 59.653565 
L 97.483058 59.653565 
L 95.333028 65.16313 
L 93.182998 59.653565 
L 91.032968 65.16313 
L 88.882938 59.653565 
L 86.732908 65.16313 
L 84.582878 65.16313 
L 82.432848 59.653565 
L 80.282818 59.653565 
L 78.132787 59.653565 
L 75.982757 59.653565 
L 73.832727 59.653565 
z
" style="fill:#9467bd;"/>
   </g>
   <g id="PolyCollection_6">
    <path clip-path="url(#pf0bcbb5d80)" d="M 73.832727 59.653565 
L 73.832727 59.653565 
L 75.982757 59.653565 
L 78.132787 59.653565 
L 80.282818 59.653565 
L 82.432848 59.653565 
L 84.582878 65.16313 
L 86.732908 65.16313 
L 88.882938 59.653565 
L 91.032968 65.16313 
L 93.182998 59.653565 
L 95.333028 65.16313 
L 97.483058 59.653565 
L 99.633089 59.653565 
L 101.783119 59.653565 
L 103.933149 54.144 
L 106.083179 59.653565 
L 108.233209 59.653565 
L 110.383239 59.653565 
L 112.533269 59.653565 
L 114.683299 59.653565 
L 116.833329 65.16313 
L 118.983359 59.653565 
L 121.13339 65.16313 
L 123.28342 59.653565 
L 125.43345 59.653565 
L 127.58348 59.653565 
L 129.73351 59.653565 
L 131.88354 59.653565 
L 134.03357 59.653565 
L 136.1836 59.653565 
L 138.33363 65.16313 
L 140.48366 65.16313 
L 142.633691 59.653565 
L 144.783721 59.653565 
L 146.933751 59.653565 
L 149.083781 59.653565 
L 151.233811 54.144 
L 153.383841 59.653565 
L 155.533871 54.144 
L 157.683901 59.653565 
L 159.833931 59.653565 
L 161.983961 59.653565 
L 164.133992 59.653565 
L 166.284022 59.653565 
L 168.434052 59.653565 
L 170.584082 59.653565 
L 172.734112 59.653565 
L 174.884142 59.653565 
L 177.034172 59.653565 
L 179.184202 59.653565 
L 181.334232 59.653565 
L 183.484262 59.653565 
L 185.634293 59.653565 
L 187.784323 59.653565 
L 189.934353 59.653565 
L 192.084383 59.653565 
L 194.234413 59.653565 
L 196.384443 59.653565 
L 198.534473 59.653565 
L 200.684503 59.653565 
L 202.834533 92.710957 
L 204.984564 109.239652 
L 207.134594 186.373565 
L 209.284624 191.88313 
L 211.434654 197.392696 
L 213.584684 202.902261 
L 215.734714 197.392696 
L 217.884744 191.88313 
L 220.034774 186.373565 
L 222.184804 191.88313 
L 224.334834 202.902261 
L 226.484865 208.411826 
L 228.634895 213.921391 
L 230.784925 197.392696 
L 232.934955 186.373565 
L 235.084985 197.392696 
L 237.235015 186.373565 
L 239.385045 180.864 
L 241.535075 186.373565 
L 243.685105 191.88313 
L 245.835135 186.373565 
L 247.985166 191.88313 
L 250.135196 197.392696 
L 252.285226 202.902261 
L 254.435256 180.864 
L 256.585286 186.373565 
L 258.735316 191.88313 
L 260.885346 197.392696 
L 263.035376 202.902261 
L 265.185406 208.411826 
L 267.335436 197.392696 
L 269.485467 186.373565 
L 271.635497 197.392696 
L 273.785527 180.864 
L 275.935557 186.373565 
L 278.085587 213.921391 
L 280.235617 202.902261 
L 282.385647 197.392696 
L 284.535677 213.921391 
L 286.685707 219.430957 
L 288.835738 208.411826 
L 290.985768 197.392696 
L 293.135798 219.430957 
L 295.285828 213.921391 
L 297.435858 180.864 
L 299.585888 169.84487 
L 301.735918 175.354435 
L 303.885948 191.88313 
L 306.035978 186.373565 
L 308.186008 191.88313 
L 310.336039 186.373565 
L 312.486069 197.392696 
L 314.636099 202.902261 
L 316.786129 219.430957 
L 318.936159 208.411826 
L 321.086189 202.902261 
L 323.236219 197.392696 
L 325.386249 186.373565 
L 327.536279 197.392696 
L 329.686309 202.902261 
L 331.83634 208.411826 
L 333.98637 224.940522 
L 336.1364 219.430957 
L 338.28643 208.411826 
L 340.43646 213.921391 
L 342.58649 191.88313 
L 344.73652 197.392696 
L 346.88655 191.88313 
L 349.03658 186.373565 
L 351.18661 191.88313 
L 353.336641 186.373565 
L 355.486671 197.392696 
L 357.636701 191.88313 
L 359.786731 197.392696 
L 361.936761 191.88313 
L 364.086791 219.430957 
L 366.236821 202.902261 
L 368.386851 191.88313 
L 370.536881 197.392696 
L 372.686911 202.902261 
L 374.836942 213.921391 
L 376.986972 230.450087 
L 379.137002 224.940522 
L 381.287032 208.411826 
L 383.437062 202.902261 
L 385.587092 208.411826 
L 387.737122 213.921391 
L 389.887152 208.411826 
L 392.037182 202.902261 
L 394.187213 197.392696 
L 396.337243 202.902261 
L 398.487273 197.392696 
L 398.487273 59.653565 
L 398.487273 59.653565 
L 396.337243 59.653565 
L 394.187213 59.653565 
L 392.037182 59.653565 
L 389.887152 59.653565 
L 387.737122 59.653565 
L 385.587092 59.653565 
L 383.437062 59.653565 
L 381.287032 59.653565 
L 379.137002 59.653565 
L 376.986972 59.653565 
L 374.836942 59.653565 
L 372.686911 59.653565 
L 370.536881 59.653565 
L 368.386851 59.653565 
L 366.236821 59.653565 
L 364.086791 59.653565 
L 361.936761 59.653565 
L 359.786731 59.653565 
L 357.636701 59.653565 
L 355.486671 59.653565 
L 353.336641 59.653565 
L 351.18661 59.653565 
L 349.03658 59.653565 
L 346.88655 59.653565 
L 344.73652 59.653565 
L 342.58649 59.653565 
L 340.43646 59.653565 
L 338.28643 59.653565 
L 336.1364 59.653565 
L 333.98637 59.653565 
L 331.83634 59.653565 
L 329.686309 59.653565 
L 327.536279 59.653565 
L 325.386249 59.653565 
L 323.236219 59.653565 
L 321.086189 59.653565 
L 318.936159 59.653565 
L 316.786129 59.653565 
L 314.636099 59.653565 
L 312.486069 59.653565 
L 310.336039 59.653565 
L 308.186008 59.653565 
L 306.035978 59.653565 
L 303.885948 59.653565 
L 301.735918 59.653565 
L 299.585888 59.653565 
L 297.435858 59.653565 
L 295.285828 59.653565 
L 293.135798 59.653565 
L 290.985768 59.653565 
L 288.835738 59.653565 
L 286.685707 59.653565 
L 284.535677 59.653565 
L 282.385647 59.653565 
L 280.235617 59.653565 
L 278.085587 59.653565 
L 275.935557 59.653565 
L 273.785527 59.653565 
L 271.635497 59.653565 
L 269.485467 59.653565 
L 267.335436 59.653565 
L 265.185406 59.653565 
L 263.035376 59.653565 
L 260.885346 59.653565 
L 258.735316 59.653565 
L 256.585286 59.653565 
L 254.435256 59.653565 
L 252.285226 59.653565 
L 250.135196 59.653565 
L 247.985166 59.653565 
L 245.835135 59.653565 
L 243.685105 59.653565 
L 241.535075 59.653565 
L 239.385045 59.653565 
L 237.235015 59.653565 
L 235.084985 59.653565 
L 232.934955 59.653565 
L 230.784925 59.653565 
L 228.634895 59.653565 
L 226.484865 59.653565 
L 224.334834 59.653565 
L 222.184804 59.653565 
L 220.034774 59.653565 
L 217.884744 59.653565 
L 215.734714 59.653565 
L 213.584684 59.653565 
L 211.434654 59.653565 
L 209.284624 59.653565 
L 207.134594 65.16313 
L 204.984564 54.144 
L 202.834533 59.653565 
L 200.684503 59.653565 
L 198.534473 59.653565 
L 196.384443 59.653565 
L 194.234413 59.653565 
L 192.084383 59.653565 
L 189.934353 59.653565 
L 187.784323 59.653565 
L 185.634293 59.653565 
L 183.484262 59.653565 
L 181.334232 59.653565 
L 179.184202 59.653565 
L 177.034172 59.653565 
L 174.884142 59.653565 
L 172.734112 59.653565 
L 170.584082 59.653565 
L 168.434052 59.653565 
L 166.284022 59.653565 
L 164.133992 59.653565 
L 161.983961 59.653565 
L 159.833931 59.653565 
L 157.683901 59.653565 
L 155.533871 54.144 
L 153.383841 59.653565 
L 151.233811 54.144 
L 149.083781 59.653565 
L 146.933751 59.653565 
L 144.783721 59.653565 
L 142.633691 59.653565 
L 140.48366 65.16313 
L 138.33363 65.16313 
L 136.1836 59.653565 
L 134.03357 59.653565 
L 131.88354 59.653565 
L 129.73351 59.653565 
L 127.58348 59.653565 
L 125.43345 59.653565 
L 123.28342 59.653565 
L 121.13339 65.16313 
L 118.983359 59.653565 
L 116.833329 65.16313 
L 114.683299 59.653565 
L 112.533269 59.653565 
L 110.383239 59.653565 
L 108.233209 59.653565 
L 106.083179 59.653565 
L 103.933149 54.144 
L 101.783119 59.653565 
L 99.633089 59.653565 
L 97.483058 59.653565 
L 95.333028 65.16313 
L 93.182998 59.653565 
L 91.032968 65.16313 
L 88.882938 59.653565 
L 86.732908 65.16313 
L 84.582878 65.16313 
L 82.432848 59.653565 
L 80.282818 59.653565 
L 78.132787 59.653565 
L 75.982757 59.653565 
L 73.832727 59.653565 
z
" style="fill:#8c564b;"/>
   </g>
   <g id="matplotlib.axis_1">
    <g id="xtick_1">
     <g id="line2d_1">
      <defs>
       <path d="M 0 0 
L 0 3.5 
" id="md6a9a61385" style="stroke:#000000;stroke-width:0.8;"/>
      </defs>
      <g>
       <use style="stroke:#000000;stroke-width:0.8;" x="73.832727" xlink:href="#md6a9a61385" y="307.584"/>
      </g>
     </g>
     <g id="text_1">
      <!-- 0 -->
      <defs>
       <path d="M 31.78125 66.40625 
Q 24.171875 66.40625 20.328125 58.90625 
Q 16.5 51.421875 16.5 36.375 
Q 16.5 21.390625 20.328125 13.890625 
Q 24.171875 6.390625 31.78125 6.390625 
Q 39.453125 6.390625 43.28125 13.890625 
Q 47.125 21.390625 47.125 36.375 
Q 47.125 51.421875 43.28125 58.90625 
Q 39.453125 66.40625 31.78125 66.40625 
z
M 31.78125 74.21875 
Q 44.046875 74.21875 50.515625 64.515625 
Q 56.984375 54.828125 56.984375 36.375 
Q 56.984375 17.96875 50.515625 8.265625 
Q 44.046875 -1.421875 31.78125 -1.421875 
Q 19.53125 -1.421875 13.0625 8.265625 
Q 6.59375 17.96875 6.59375 36.375 
Q 6.59375 54.828125 13.0625 64.515625 
Q 19.53125 74.21875 31.78125 74.21875 
z
" id="DejaVuSans-30"/>
      </defs>
      <g transform="translate(70.651477 322.182437)scale(0.1 -0.1)">
       <use xlink:href="#DejaVuSans-30"/>
      </g>
     </g>
    </g>
    <g id="xtick_2">
     <g id="line2d_2">
      <g>
       <use style="stroke:#000000;stroke-width:0.8;" x="116.833329" xlink:href="#md6a9a61385" y="307.584"/>
      </g>
     </g>
     <g id="text_2">
      <!-- 20 -->
      <defs>
       <path d="M 19.1875 8.296875 
L 53.609375 8.296875 
L 53.609375 0 
L 7.328125 0 
L 7.328125 8.296875 
Q 12.9375 14.109375 22.625 23.890625 
Q 32.328125 33.6875 34.8125 36.53125 
Q 39.546875 41.84375 41.421875 45.53125 
Q 43.3125 49.21875 43.3125 52.78125 
Q 43.3125 58.59375 39.234375 62.25 
Q 35.15625 65.921875 28.609375 65.921875 
Q 23.96875 65.921875 18.8125 64.3125 
Q 13.671875 62.703125 7.8125 59.421875 
L 7.8125 69.390625 
Q 13.765625 71.78125 18.9375 73 
Q 24.125 74.21875 28.421875 74.21875 
Q 39.75 74.21875 46.484375 68.546875 
Q 53.21875 62.890625 53.21875 53.421875 
Q 53.21875 48.921875 51.53125 44.890625 
Q 49.859375 40.875 45.40625 35.40625 
Q 44.1875 33.984375 37.640625 27.21875 
Q 31.109375 20.453125 19.1875 8.296875 
z
" id="DejaVuSans-32"/>
      </defs>
      <g transform="translate(110.470829 322.182437)scale(0.1 -0.1)">
       <use xlink:href="#DejaVuSans-32"/>
       <use x="63.623047" xlink:href="#DejaVuSans-30"/>
      </g>
     </g>
    </g>
    <g id="xtick_3">
     <g id="line2d_3">
      <g>
       <use style="stroke:#000000;stroke-width:0.8;" x="159.833931" xlink:href="#md6a9a61385" y="307.584"/>
      </g>
     </g>
     <g id="text_3">
      <!-- 40 -->
      <defs>
       <path d="M 37.796875 64.3125 
L 12.890625 25.390625 
L 37.796875 25.390625 
z
M 35.203125 72.90625 
L 47.609375 72.90625 
L 47.609375 25.390625 
L 58.015625 25.390625 
L 58.015625 17.1875 
L 47.609375 17.1875 
L 47.609375 0 
L 37.796875 0 
L 37.796875 17.1875 
L 4.890625 17.1875 
L 4.890625 26.703125 
z
" id="DejaVuSans-34"/>
      </defs>
      <g transform="translate(153.471431 322.182437)scale(0.1 -0.1)">
       <use xlink:href="#DejaVuSans-34"/>
       <use x="63.623047" xlink:href="#DejaVuSans-30"/>
      </g>
     </g>
    </g>
    <g id="xtick_4">
     <g id="line2d_4">
      <g>
       <use style="stroke:#000000;stroke-width:0.8;" x="202.834533" xlink:href="#md6a9a61385" y="307.584"/>
      </g>
     </g>
     <g id="text_4">
      <!-- 60 -->
      <defs>
       <path d="M 33.015625 40.375 
Q 26.375 40.375 22.484375 35.828125 
Q 18.609375 31.296875 18.609375 23.390625 
Q 18.609375 15.53125 22.484375 10.953125 
Q 26.375 6.390625 33.015625 6.390625 
Q 39.65625 6.390625 43.53125 10.953125 
Q 47.40625 15.53125 47.40625 23.390625 
Q 47.40625 31.296875 43.53125 35.828125 
Q 39.65625 40.375 33.015625 40.375 
z
M 52.59375 71.296875 
L 52.59375 62.3125 
Q 48.875 64.0625 45.09375 64.984375 
Q 41.3125 65.921875 37.59375 65.921875 
Q 27.828125 65.921875 22.671875 59.328125 
Q 17.53125 52.734375 16.796875 39.40625 
Q 19.671875 43.65625 24.015625 45.921875 
Q 28.375 48.1875 33.59375 48.1875 
Q 44.578125 48.1875 50.953125 41.515625 
Q 57.328125 34.859375 57.328125 23.390625 
Q 57.328125 12.15625 50.6875 5.359375 
Q 44.046875 -1.421875 33.015625 -1.421875 
Q 20.359375 -1.421875 13.671875 8.265625 
Q 6.984375 17.96875 6.984375 36.375 
Q 6.984375 53.65625 15.1875 63.9375 
Q 23.390625 74.21875 37.203125 74.21875 
Q 40.921875 74.21875 44.703125 73.484375 
Q 48.484375 72.75 52.59375 71.296875 
z
" id="DejaVuSans-36"/>
      </defs>
      <g transform="translate(196.472033 322.182437)scale(0.1 -0.1)">
       <use xlink:href="#DejaVuSans-36"/>
       <use x="63.623047" xlink:href="#DejaVuSans-30"/>
      </g>
     </g>
    </g>
    <g id="xtick_5">
     <g id="line2d_5">
      <g>
       <use style="stroke:#000000;stroke-width:0.8;" x="245.835135" xlink:href="#md6a9a61385" y="307.584"/>
      </g>
     </g>
     <g id="text_5">
      <!-- 80 -->
      <defs>
       <path d="M 31.78125 34.625 
Q 24.75 34.625 20.71875 30.859375 
Q 16.703125 27.09375 16.703125 20.515625 
Q 16.703125 13.921875 20.71875 10.15625 
Q 24.75 6.390625 31.78125 6.390625 
Q 38.8125 6.390625 42.859375 10.171875 
Q 46.921875 13.96875 46.921875 20.515625 
Q 46.921875 27.09375 42.890625 30.859375 
Q 38.875 34.625 31.78125 34.625 
z
M 21.921875 38.8125 
Q 15.578125 40.375 12.03125 44.71875 
Q 8.5 49.078125 8.5 55.328125 
Q 8.5 64.0625 14.71875 69.140625 
Q 20.953125 74.21875 31.78125 74.21875 
Q 42.671875 74.21875 48.875 69.140625 
Q 55.078125 64.0625 55.078125 55.328125 
Q 55.078125 49.078125 51.53125 44.71875 
Q 48 40.375 41.703125 38.8125 
Q 48.828125 37.15625 52.796875 32.3125 
Q 56.78125 27.484375 56.78125 20.515625 
Q 56.78125 9.90625 50.3125 4.234375 
Q 43.84375 -1.421875 31.78125 -1.421875 
Q 19.734375 -1.421875 13.25 4.234375 
Q 6.78125 9.90625 6.78125 20.515625 
Q 6.78125 27.484375 10.78125 32.3125 
Q 14.796875 37.15625 21.921875 38.8125 
z
M 18.3125 54.390625 
Q 18.3125 48.734375 21.84375 45.5625 
Q 25.390625 42.390625 31.78125 42.390625 
Q 38.140625 42.390625 41.71875 45.5625 
Q 45.3125 48.734375 45.3125 54.390625 
Q 45.3125 60.0625 41.71875 63.234375 
Q 38.140625 66.40625 31.78125 66.40625 
Q 25.390625 66.40625 21.84375 63.234375 
Q 18.3125 60.0625 18.3125 54.390625 
z
" id="DejaVuSans-38"/>
      </defs>
      <g transform="translate(239.472635 322.182437)scale(0.1 -0.1)">
       <use xlink:href="#DejaVuSans-38"/>
       <use x="63.623047" xlink:href="#DejaVuSans-30"/>
      </g>
     </g>
    </g>
    <g id="xtick_6">
     <g id="line2d_6">
      <g>
       <use style="stroke:#000000;stroke-width:0.8;" x="288.835738" xlink:href="#md6a9a61385" y="307.584"/>
      </g>
     </g>
     <g id="text_6">
      <!-- 100 -->
      <defs>
       <path d="M 12.40625 8.296875 
L 28.515625 8.296875 
L 28.515625 63.921875 
L 10.984375 60.40625 
L 10.984375 69.390625 
L 28.421875 72.90625 
L 38.28125 72.90625 
L 38.28125 8.296875 
L 54.390625 8.296875 
L 54.390625 0 
L 12.40625 0 
z
" id="DejaVuSans-31"/>
      </defs>
      <g transform="translate(279.291988 322.182437)scale(0.1 -0.1)">
       <use xlink:href="#DejaVuSans-31"/>
       <use x="63.623047" xlink:href="#DejaVuSans-30"/>
       <use x="127.246094" xlink:href="#DejaVuSans-30"/>
      </g>
     </g>
    </g>
    <g id="xtick_7">
     <g id="line2d_7">
      <g>
       <use style="stroke:#000000;stroke-width:0.8;" x="331.83634" xlink:href="#md6a9a61385" y="307.584"/>
      </g>
     </g>
     <g id="text_7">
      <!-- 120 -->
      <g transform="translate(322.29259 322.182437)scale(0.1 -0.1)">
       <use xlink:href="#DejaVuSans-31"/>
       <use x="63.623047" xlink:href="#DejaVuSans-32"/>
       <use x="127.246094" xlink:href="#DejaVuSans-30"/>
      </g>
     </g>
    </g>
    <g id="xtick_8">
     <g id="line2d_8">
      <g>
       <use style="stroke:#000000;stroke-width:0.8;" x="374.836942" xlink:href="#md6a9a61385" y="307.584"/>
      </g>
     </g>
     <g id="text_8">
      <!-- 140 -->
      <g transform="translate(365.293192 322.182437)scale(0.1 -0.1)">
       <use xlink:href="#DejaVuSans-31"/>
       <use x="63.623047" xlink:href="#DejaVuSans-34"/>
       <use x="127.246094" xlink:href="#DejaVuSans-30"/>
      </g>
     </g>
    </g>
    <g id="text_9">
     <!-- Generations -->
     <defs>
      <path d="M 59.515625 10.40625 
L 59.515625 29.984375 
L 43.40625 29.984375 
L 43.40625 38.09375 
L 69.28125 38.09375 
L 69.28125 6.78125 
Q 63.578125 2.734375 56.6875 0.65625 
Q 49.8125 -1.421875 42 -1.421875 
Q 24.90625 -1.421875 15.25 8.5625 
Q 5.609375 18.5625 5.609375 36.375 
Q 5.609375 54.25 15.25 64.234375 
Q 24.90625 74.21875 42 74.21875 
Q 49.125 74.21875 55.546875 72.453125 
Q 61.96875 70.703125 67.390625 67.28125 
L 67.390625 56.78125 
Q 61.921875 61.421875 55.765625 63.765625 
Q 49.609375 66.109375 42.828125 66.109375 
Q 29.4375 66.109375 22.71875 58.640625 
Q 16.015625 51.171875 16.015625 36.375 
Q 16.015625 21.625 22.71875 14.15625 
Q 29.4375 6.6875 42.828125 6.6875 
Q 48.046875 6.6875 52.140625 7.59375 
Q 56.25 8.5 59.515625 10.40625 
z
" id="DejaVuSans-47"/>
      <path d="M 56.203125 29.59375 
L 56.203125 25.203125 
L 14.890625 25.203125 
Q 15.484375 15.921875 20.484375 11.0625 
Q 25.484375 6.203125 34.421875 6.203125 
Q 39.59375 6.203125 44.453125 7.46875 
Q 49.3125 8.734375 54.109375 11.28125 
L 54.109375 2.78125 
Q 49.265625 0.734375 44.1875 -0.34375 
Q 39.109375 -1.421875 33.890625 -1.421875 
Q 20.796875 -1.421875 13.15625 6.1875 
Q 5.515625 13.8125 5.515625 26.8125 
Q 5.515625 40.234375 12.765625 48.109375 
Q 20.015625 56 32.328125 56 
Q 43.359375 56 49.78125 48.890625 
Q 56.203125 41.796875 56.203125 29.59375 
z
M 47.21875 32.234375 
Q 47.125 39.59375 43.09375 43.984375 
Q 39.0625 48.390625 32.421875 48.390625 
Q 24.90625 48.390625 20.390625 44.140625 
Q 15.875 39.890625 15.1875 32.171875 
z
" id="DejaVuSans-65"/>
      <path d="M 54.890625 33.015625 
L 54.890625 0 
L 45.90625 0 
L 45.90625 32.71875 
Q 45.90625 40.484375 42.875 44.328125 
Q 39.84375 48.1875 33.796875 48.1875 
Q 26.515625 48.1875 22.3125 43.546875 
Q 18.109375 38.921875 18.109375 30.90625 
L 18.109375 0 
L 9.078125 0 
L 9.078125 54.6875 
L 18.109375 54.6875 
L 18.109375 46.1875 
Q 21.34375 51.125 25.703125 53.5625 
Q 30.078125 56 35.796875 56 
Q 45.21875 56 50.046875 50.171875 
Q 54.890625 44.34375 54.890625 33.015625 
z
" id="DejaVuSans-6e"/>
      <path d="M 41.109375 46.296875 
Q 39.59375 47.171875 37.8125 47.578125 
Q 36.03125 48 33.890625 48 
Q 26.265625 48 22.1875 43.046875 
Q 18.109375 38.09375 18.109375 28.8125 
L 18.109375 0 
L 9.078125 0 
L 9.078125 54.6875 
L 18.109375 54.6875 
L 18.109375 46.1875 
Q 20.953125 51.171875 25.484375 53.578125 
Q 30.03125 56 36.53125 56 
Q 37.453125 56 38.578125 55.875 
Q 39.703125 55.765625 41.0625 55.515625 
z
" id="DejaVuSans-72"/>
      <path d="M 34.28125 27.484375 
Q 23.390625 27.484375 19.1875 25 
Q 14.984375 22.515625 14.984375 16.5 
Q 14.984375 11.71875 18.140625 8.90625 
Q 21.296875 6.109375 26.703125 6.109375 
Q 34.1875 6.109375 38.703125 11.40625 
Q 43.21875 16.703125 43.21875 25.484375 
L 43.21875 27.484375 
z
M 52.203125 31.203125 
L 52.203125 0 
L 43.21875 0 
L 43.21875 8.296875 
Q 40.140625 3.328125 35.546875 0.953125 
Q 30.953125 -1.421875 24.3125 -1.421875 
Q 15.921875 -1.421875 10.953125 3.296875 
Q 6 8.015625 6 15.921875 
Q 6 25.140625 12.171875 29.828125 
Q 18.359375 34.515625 30.609375 34.515625 
L 43.21875 34.515625 
L 43.21875 35.40625 
Q 43.21875 41.609375 39.140625 45 
Q 35.0625 48.390625 27.6875 48.390625 
Q 23 48.390625 18.546875 47.265625 
Q 14.109375 46.140625 10.015625 43.890625 
L 10.015625 52.203125 
Q 14.9375 54.109375 19.578125 55.046875 
Q 24.21875 56 28.609375 56 
Q 40.484375 56 46.34375 49.84375 
Q 52.203125 43.703125 52.203125 31.203125 
z
" id="DejaVuSans-61"/>
      <path d="M 18.3125 70.21875 
L 18.3125 54.6875 
L 36.8125 54.6875 
L 36.8125 47.703125 
L 18.3125 47.703125 
L 18.3125 18.015625 
Q 18.3125 11.328125 20.140625 9.421875 
Q 21.96875 7.515625 27.59375 7.515625 
L 36.8125 7.515625 
L 36.8125 0 
L 27.59375 0 
Q 17.1875 0 13.234375 3.875 
Q 9.28125 7.765625 9.28125 18.015625 
L 9.28125 47.703125 
L 2.6875 47.703125 
L 2.6875 54.6875 
L 9.28125 54.6875 
L 9.28125 70.21875 
z
" id="DejaVuSans-74"/>
      <path d="M 9.421875 54.6875 
L 18.40625 54.6875 
L 18.40625 0 
L 9.421875 0 
z
M 9.421875 75.984375 
L 18.40625 75.984375 
L 18.40625 64.59375 
L 9.421875 64.59375 
z
" id="DejaVuSans-69"/>
      <path d="M 30.609375 48.390625 
Q 23.390625 48.390625 19.1875 42.75 
Q 14.984375 37.109375 14.984375 27.296875 
Q 14.984375 17.484375 19.15625 11.84375 
Q 23.34375 6.203125 30.609375 6.203125 
Q 37.796875 6.203125 41.984375 11.859375 
Q 46.1875 17.53125 46.1875 27.296875 
Q 46.1875 37.015625 41.984375 42.703125 
Q 37.796875 48.390625 30.609375 48.390625 
z
M 30.609375 56 
Q 42.328125 56 49.015625 48.375 
Q 55.71875 40.765625 55.71875 27.296875 
Q 55.71875 13.875 49.015625 6.21875 
Q 42.328125 -1.421875 30.609375 -1.421875 
Q 18.84375 -1.421875 12.171875 6.21875 
Q 5.515625 13.875 5.515625 27.296875 
Q 5.515625 40.765625 12.171875 48.375 
Q 18.84375 56 30.609375 56 
z
" id="DejaVuSans-6f"/>
      <path d="M 44.28125 53.078125 
L 44.28125 44.578125 
Q 40.484375 46.53125 36.375 47.5 
Q 32.28125 48.484375 27.875 48.484375 
Q 21.1875 48.484375 17.84375 46.4375 
Q 14.5 44.390625 14.5 40.28125 
Q 14.5 37.15625 16.890625 35.375 
Q 19.28125 33.59375 26.515625 31.984375 
L 29.59375 31.296875 
Q 39.15625 29.25 43.1875 25.515625 
Q 47.21875 21.78125 47.21875 15.09375 
Q 47.21875 7.46875 41.1875 3.015625 
Q 35.15625 -1.421875 24.609375 -1.421875 
Q 20.21875 -1.421875 15.453125 -0.5625 
Q 10.6875 0.296875 5.421875 2 
L 5.421875 11.28125 
Q 10.40625 8.6875 15.234375 7.390625 
Q 20.0625 6.109375 24.8125 6.109375 
Q 31.15625 6.109375 34.5625 8.28125 
Q 37.984375 10.453125 37.984375 14.40625 
Q 37.984375 18.0625 35.515625 20.015625 
Q 33.0625 21.96875 24.703125 23.78125 
L 21.578125 24.515625 
Q 13.234375 26.265625 9.515625 29.90625 
Q 5.8125 33.546875 5.8125 39.890625 
Q 5.8125 47.609375 11.28125 51.796875 
Q 16.75 56 26.8125 56 
Q 31.78125 56 36.171875 55.265625 
Q 40.578125 54.546875 44.28125 53.078125 
z
" id="DejaVuSans-73"/>
     </defs>
     <g transform="translate(205.662344 335.860562)scale(0.1 -0.1)">
      <use xlink:href="#DejaVuSans-47"/>
      <use x="77.490234" xlink:href="#DejaVuSans-65"/>
      <use x="139.013672" xlink:href="#DejaVuSans-6e"/>
      <use x="202.392578" xlink:href="#DejaVuSans-65"/>
      <use x="263.916016" xlink:href="#DejaVuSans-72"/>
      <use x="305.029297" xlink:href="#DejaVuSans-61"/>
      <use x="366.308594" xlink:href="#DejaVuSans-74"/>
      <use x="405.517578" xlink:href="#DejaVuSans-69"/>
      <use x="433.300781" xlink:href="#DejaVuSans-6f"/>
      <use x="494.482422" xlink:href="#DejaVuSans-6e"/>
      <use x="557.861328" xlink:href="#DejaVuSans-73"/>
     </g>
    </g>
   </g>
   <g id="matplotlib.axis_2">
    <g id="ytick_1">
     <g id="line2d_9">
      <defs>
       <path d="M 0 0 
L -3.5 0 
" id="mef2a77f2ad" style="stroke:#000000;stroke-width:0.8;"/>
      </defs>
      <g>
       <use style="stroke:#000000;stroke-width:0.8;" x="57.6" xlink:href="#mef2a77f2ad" y="307.584"/>
      </g>
     </g>
     <g id="text_10">
      <!-- 0 -->
      <g transform="translate(44.2375 311.383219)scale(0.1 -0.1)">
       <use xlink:href="#DejaVuSans-30"/>
      </g>
     </g>
    </g>
    <g id="ytick_2">
     <g id="line2d_10">
      <g>
       <use style="stroke:#000000;stroke-width:0.8;" x="57.6" xlink:href="#mef2a77f2ad" y="252.488348"/>
      </g>
     </g>
     <g id="text_11">
      <!-- 10 -->
      <g transform="translate(37.875 256.287567)scale(0.1 -0.1)">
       <use xlink:href="#DejaVuSans-31"/>
       <use x="63.623047" xlink:href="#DejaVuSans-30"/>
      </g>
     </g>
    </g>
    <g id="ytick_3">
     <g id="line2d_11">
      <g>
       <use style="stroke:#000000;stroke-width:0.8;" x="57.6" xlink:href="#mef2a77f2ad" y="197.392696"/>
      </g>
     </g>
     <g id="text_12">
      <!-- 20 -->
      <g transform="translate(37.875 201.191914)scale(0.1 -0.1)">
       <use xlink:href="#DejaVuSans-32"/>
       <use x="63.623047" xlink:href="#DejaVuSans-30"/>
      </g>
     </g>
    </g>
    <g id="ytick_4">
     <g id="line2d_12">
      <g>
       <use style="stroke:#000000;stroke-width:0.8;" x="57.6" xlink:href="#mef2a77f2ad" y="142.297043"/>
      </g>
     </g>
     <g id="text_13">
      <!-- 30 -->
      <defs>
       <path d="M 40.578125 39.3125 
Q 47.65625 37.796875 51.625 33 
Q 55.609375 28.21875 55.609375 21.1875 
Q 55.609375 10.40625 48.1875 4.484375 
Q 40.765625 -1.421875 27.09375 -1.421875 
Q 22.515625 -1.421875 17.65625 -0.515625 
Q 12.796875 0.390625 7.625 2.203125 
L 7.625 11.71875 
Q 11.71875 9.328125 16.59375 8.109375 
Q 21.484375 6.890625 26.8125 6.890625 
Q 36.078125 6.890625 40.9375 10.546875 
Q 45.796875 14.203125 45.796875 21.1875 
Q 45.796875 27.640625 41.28125 31.265625 
Q 36.765625 34.90625 28.71875 34.90625 
L 20.21875 34.90625 
L 20.21875 43.015625 
L 29.109375 43.015625 
Q 36.375 43.015625 40.234375 45.921875 
Q 44.09375 48.828125 44.09375 54.296875 
Q 44.09375 59.90625 40.109375 62.90625 
Q 36.140625 65.921875 28.71875 65.921875 
Q 24.65625 65.921875 20.015625 65.03125 
Q 15.375 64.15625 9.8125 62.3125 
L 9.8125 71.09375 
Q 15.4375 72.65625 20.34375 73.4375 
Q 25.25 74.21875 29.59375 74.21875 
Q 40.828125 74.21875 47.359375 69.109375 
Q 53.90625 64.015625 53.90625 55.328125 
Q 53.90625 49.265625 50.4375 45.09375 
Q 46.96875 40.921875 40.578125 39.3125 
z
" id="DejaVuSans-33"/>
      </defs>
      <g transform="translate(37.875 146.096262)scale(0.1 -0.1)">
       <use xlink:href="#DejaVuSans-33"/>
       <use x="63.623047" xlink:href="#DejaVuSans-30"/>
      </g>
     </g>
    </g>
    <g id="ytick_5">
     <g id="line2d_13">
      <g>
       <use style="stroke:#000000;stroke-width:0.8;" x="57.6" xlink:href="#mef2a77f2ad" y="87.201391"/>
      </g>
     </g>
     <g id="text_14">
      <!-- 40 -->
      <g transform="translate(37.875 91.00061)scale(0.1 -0.1)">
       <use xlink:href="#DejaVuSans-34"/>
       <use x="63.623047" xlink:href="#DejaVuSans-30"/>
      </g>
     </g>
    </g>
    <g id="text_15">
     <!-- Size per Species -->
     <defs>
      <path d="M 53.515625 70.515625 
L 53.515625 60.890625 
Q 47.90625 63.578125 42.921875 64.890625 
Q 37.9375 66.21875 33.296875 66.21875 
Q 25.25 66.21875 20.875 63.09375 
Q 16.5 59.96875 16.5 54.203125 
Q 16.5 49.359375 19.40625 46.890625 
Q 22.3125 44.4375 30.421875 42.921875 
L 36.375 41.703125 
Q 47.40625 39.59375 52.65625 34.296875 
Q 57.90625 29 57.90625 20.125 
Q 57.90625 9.515625 50.796875 4.046875 
Q 43.703125 -1.421875 29.984375 -1.421875 
Q 24.8125 -1.421875 18.96875 -0.25 
Q 13.140625 0.921875 6.890625 3.21875 
L 6.890625 13.375 
Q 12.890625 10.015625 18.65625 8.296875 
Q 24.421875 6.59375 29.984375 6.59375 
Q 38.421875 6.59375 43.015625 9.90625 
Q 47.609375 13.234375 47.609375 19.390625 
Q 47.609375 24.75 44.3125 27.78125 
Q 41.015625 30.8125 33.5 32.328125 
L 27.484375 33.5 
Q 16.453125 35.6875 11.515625 40.375 
Q 6.59375 45.0625 6.59375 53.421875 
Q 6.59375 63.09375 13.40625 68.65625 
Q 20.21875 74.21875 32.171875 74.21875 
Q 37.3125 74.21875 42.625 73.28125 
Q 47.953125 72.359375 53.515625 70.515625 
z
" id="DejaVuSans-53"/>
      <path d="M 5.515625 54.6875 
L 48.1875 54.6875 
L 48.1875 46.484375 
L 14.40625 7.171875 
L 48.1875 7.171875 
L 48.1875 0 
L 4.296875 0 
L 4.296875 8.203125 
L 38.09375 47.515625 
L 5.515625 47.515625 
z
" id="DejaVuSans-7a"/>
      <path id="DejaVuSans-20"/>
      <path d="M 18.109375 8.203125 
L 18.109375 -20.796875 
L 9.078125 -20.796875 
L 9.078125 54.6875 
L 18.109375 54.6875 
L 18.109375 46.390625 
Q 20.953125 51.265625 25.265625 53.625 
Q 29.59375 56 35.59375 56 
Q 45.5625 56 51.78125 48.09375 
Q 58.015625 40.1875 58.015625 27.296875 
Q 58.015625 14.40625 51.78125 6.484375 
Q 45.5625 -1.421875 35.59375 -1.421875 
Q 29.59375 -1.421875 25.265625 0.953125 
Q 20.953125 3.328125 18.109375 8.203125 
z
M 48.6875 27.296875 
Q 48.6875 37.203125 44.609375 42.84375 
Q 40.53125 48.484375 33.40625 48.484375 
Q 26.265625 48.484375 22.1875 42.84375 
Q 18.109375 37.203125 18.109375 27.296875 
Q 18.109375 17.390625 22.1875 11.75 
Q 26.265625 6.109375 33.40625 6.109375 
Q 40.53125 6.109375 44.609375 11.75 
Q 48.6875 17.390625 48.6875 27.296875 
z
" id="DejaVuSans-70"/>
      <path d="M 48.78125 52.59375 
L 48.78125 44.1875 
Q 44.96875 46.296875 41.140625 47.34375 
Q 37.3125 48.390625 33.40625 48.390625 
Q 24.65625 48.390625 19.8125 42.84375 
Q 14.984375 37.3125 14.984375 27.296875 
Q 14.984375 17.28125 19.8125 11.734375 
Q 24.65625 6.203125 33.40625 6.203125 
Q 37.3125 6.203125 41.140625 7.25 
Q 44.96875 8.296875 48.78125 10.40625 
L 48.78125 2.09375 
Q 45.015625 0.34375 40.984375 -0.53125 
Q 36.96875 -1.421875 32.421875 -1.421875 
Q 20.0625 -1.421875 12.78125 6.34375 
Q 5.515625 14.109375 5.515625 27.296875 
Q 5.515625 40.671875 12.859375 48.328125 
Q 20.21875 56 33.015625 56 
Q 37.15625 56 41.109375 55.140625 
Q 45.0625 54.296875 48.78125 52.59375 
z
" id="DejaVuSans-63"/>
     </defs>
     <g transform="translate(31.795312 215.520969)rotate(-90)scale(0.1 -0.1)">
      <use xlink:href="#DejaVuSans-53"/>
      <use x="63.476562" xlink:href="#DejaVuSans-69"/>
      <use x="91.259766" xlink:href="#DejaVuSans-7a"/>
      <use x="143.75" xlink:href="#DejaVuSans-65"/>
      <use x="205.273438" xlink:href="#DejaVuSans-20"/>
      <use x="237.060547" xlink:href="#DejaVuSans-70"/>
      <use x="300.537109" xlink:href="#DejaVuSans-65"/>
      <use x="362.060547" xlink:href="#DejaVuSans-72"/>
      <use x="403.173828" xlink:href="#DejaVuSans-20"/>
      <use x="434.960938" xlink:href="#DejaVuSans-53"/>
      <use x="498.4375" xlink:href="#DejaVuSans-70"/>
      <use x="561.914062" xlink:href="#DejaVuSans-65"/>
      <use x="623.4375" xlink:href="#DejaVuSans-63"/>
      <use x="678.417969" xlink:href="#DejaVuSans-69"/>
      <use x="706.201172" xlink:href="#DejaVuSans-65"/>
      <use x="767.724609" xlink:href="#DejaVuSans-73"/>
     </g>
    </g>
   </g>
   <g id="patch_3">
    <path d="M 57.6 307.584 
L 57.6 41.472 
" style="fill:none;stroke:#000000;stroke-linecap:square;stroke-linejoin:miter;stroke-width:0.8;"/>
   </g>
   <g id="patch_4">
    <path d="M 414.72 307.584 
L 414.72 41.472 
" style="fill:none;stroke:#000000;stroke-linecap:square;stroke-linejoin:miter;stroke-width:0.8;"/>
   </g>
   <g id="patch_5">
    <path d="M 57.6 307.584 
L 414.72 307.584 
" style="fill:none;stroke:#000000;stroke-linecap:square;stroke-linejoin:miter;stroke-width:0.8;"/>
   </g>
   <g id="patch_6">
    <path d="M 57.6 41.472 
L 414.72 41.472 
" style="fill:none;stroke:#000000;stroke-linecap:square;stroke-linejoin:miter;stroke-width:0.8;"/>
   </g>
   <g id="text_16">
    <!-- Speciation -->
    <g transform="translate(204.714375 35.472)scale(0.12 -0.12)">
     <use xlink:href="#DejaVuSans-53"/>
     <use x="63.476562" xlink:href="#DejaVuSans-70"/>
     <use x="126.953125" xlink:href="#DejaVuSans-65"/>
     <use x="188.476562" xlink:href="#DejaVuSans-63"/>
     <use x="243.457031" xlink:href="#DejaVuSans-69"/>
     <use x="271.240234" xlink:href="#DejaVuSans-61"/>
     <use x="332.519531" xlink:href="#DejaVuSans-74"/>
     <use x="371.728516" xlink:href="#DejaVuSans-69"/>
     <use x="399.511719" xlink:href="#DejaVuSans-6f"/>
     <use x="460.693359" xlink:href="#DejaVuSans-6e"/>
    </g>
   </g>
  </g>
 </g>
 <defs>
  <clipPath id="pf0bcbb5d80">
   <rect height="266.112" width="357.12" x="57.6" y="41.472"/>
  </clipPath>
 </defs>
</svg>
