<?xml version="1.0" encoding="UTF-8" standalone="no"?>
<!DOCTYPE svg PUBLIC "-//W3C//DTD SVG 1.1//EN"
 "http://www.w3.org/Graphics/SVG/1.1/DTD/svg11.dtd">
<!-- Generated by graphviz version 2.38.0 (20140413.2041)
 -->
<!-- Title: %3 Pages: 1 -->
<svg width="655pt" height="483pt"
 viewBox="0.00 0.00 655.43 483.19" xmlns="http://www.w3.org/2000/svg" xmlns:xlink="http://www.w3.org/1999/xlink">
<g id="graph0" class="graph" transform="scale(1 1) rotate(0) translate(4 479.186)">
<title>%3</title>
<polygon fill="white" stroke="none" points="-4,4 -4,-479.186 651.432,-479.186 651.432,4 -4,4"/>
<!-- direc_dist -->
<g id="node1" class="node"><title>direc_dist</title>
<polygon fill="lightgray" stroke="black" points="396,-408.973 344,-408.973 344,-390.973 396,-390.973 396,-408.973"/>
<text text-anchor="middle" x="370" y="-397.773" font-family="Times New Roman,serif" font-size="9.00">direc_dist</text>
</g>
<!-- 650 -->
<g id="node11" class="node"><title>650</title>
<ellipse fill="white" stroke="black" cx="403" cy="-318.011" rx="21.4286" ry="21.4286"/>
<text text-anchor="middle" x="403" y="-315.811" font-family="Times New Roman,serif" font-size="9.00">650</text>
</g>
<!-- direc_dist&#45;&gt;650 -->
<g id="edge17" class="edge"><title>direc_dist&#45;&gt;650</title>
<path fill="none" stroke="red" stroke-width="0.547922" d="M373.407,-390.716C377.595,-380.569 384.923,-362.813 391.239,-347.509"/>
<polygon fill="red" stroke="red" stroke-width="0.547922" points="394.62,-348.49 395.2,-337.912 388.149,-345.82 394.62,-348.49"/>
</g>
<!-- vx -->
<g id="node2" class="node"><title>vx</title>
<polygon fill="lightgray" stroke="black" points="395.5,-475.186 370.5,-475.186 370.5,-457.186 395.5,-457.186 395.5,-475.186"/>
<text text-anchor="middle" x="383" y="-463.986" font-family="Times New Roman,serif" font-size="9.00">vx</text>
</g>
<!-- horizontal -->
<g id="node9" class="node"><title>horizontal</title>
<ellipse fill="lightblue" stroke="black" cx="286" cy="-219.785" rx="37.4533" ry="37.4533"/>
<text text-anchor="middle" x="286" y="-217.585" font-family="Times New Roman,serif" font-size="9.00">horizontal</text>
</g>
<!-- vx&#45;&gt;horizontal -->
<g id="edge13" class="edge"><title>vx&#45;&gt;horizontal</title>
<path fill="none" stroke="green" stroke-width="0.660324" d="M370.192,-464.359C346.595,-462.065 296.691,-453.445 275,-421.186 243.885,-374.911 255.971,-308.177 269.404,-264.648"/>
<polygon fill="green" stroke="green" stroke-width="0.660324" points="272.804,-265.51 272.548,-254.918 266.143,-263.358 272.804,-265.51"/>
</g>
<!-- vx&#45;&gt;650 -->
<g id="edge28" class="edge"><title>vx&#45;&gt;650</title>
<path fill="none" stroke="green" stroke-width="0.163913" d="M395.838,-459.226C409.184,-452.235 429.313,-439.261 438,-421.186 450.296,-395.604 435.813,-364.55 421.921,-343.441"/>
<polygon fill="green" stroke="green" stroke-width="0.163913" points="424.666,-341.259 416.083,-335.048 418.92,-345.256 424.666,-341.259"/>
</g>
<!-- 766 -->
<g id="node12" class="node"><title>766</title>
<ellipse fill="white" stroke="black" cx="305" cy="-399.973" rx="21.4286" ry="21.4286"/>
<text text-anchor="middle" x="305" y="-397.773" font-family="Times New Roman,serif" font-size="9.00">766</text>
</g>
<!-- vx&#45;&gt;766 -->
<g id="edge14" class="edge"><title>vx&#45;&gt;766</title>
<path fill="none" stroke="red" stroke-width="0.468209" d="M373.121,-457.053C362.053,-447.941 343.714,-432.844 328.851,-420.608"/>
<polygon fill="red" stroke="red" stroke-width="0.468209" points="330.965,-417.815 321.02,-414.161 326.516,-423.219 330.965,-417.815"/>
</g>
<!-- 1466 -->
<g id="node13" class="node"><title>1466</title>
<ellipse fill="white" stroke="black" cx="453" cy="-219.785" rx="25" ry="25"/>
<text text-anchor="middle" x="453" y="-217.585" font-family="Times New Roman,serif" font-size="9.00">1466</text>
</g>
<!-- vx&#45;&gt;1466 -->
<g id="edge33" class="edge"><title>vx&#45;&gt;1466</title>
<path fill="none" stroke="green" stroke-width="0.559664" d="M395.614,-463.452C428.78,-458.608 517.04,-443.793 534,-421.186 545.316,-406.102 538.425,-397.089 534,-378.759 530.747,-365.285 492.068,-292.739 469.357,-250.797"/>
<polygon fill="green" stroke="green" stroke-width="0.559664" points="472.346,-248.965 464.501,-241.844 466.193,-252.303 472.346,-248.965"/>
</g>
<!-- 1434 -->
<g id="node15" class="node"><title>1434</title>
<ellipse fill="white" stroke="black" cx="432" cy="-24.7487" rx="25" ry="25"/>
<text text-anchor="middle" x="432" y="-22.5487" font-family="Times New Roman,serif" font-size="9.00">1434</text>
</g>
<!-- vx&#45;&gt;1434 -->
<g id="edge21" class="edge"><title>vx&#45;&gt;1434</title>
<path fill="none" stroke="green" stroke-width="0.413732" d="M395.541,-464.723C440.419,-462.804 592.097,-453.958 625,-421.186 657.726,-388.59 644,-365.2 644,-319.011 644,-319.011 644,-319.011 644,-218.785 644,-122.83 523.793,-61.9298 464.412,-37.6993"/>
<polygon fill="green" stroke="green" stroke-width="0.413732" points="465.677,-34.4358 455.091,-33.9937 463.091,-40.9406 465.677,-34.4358"/>
</g>
<!-- 510 -->
<g id="node16" class="node"><title>510</title>
<ellipse fill="white" stroke="black" cx="207" cy="-399.973" rx="21.4286" ry="21.4286"/>
<text text-anchor="middle" x="207" y="-397.773" font-family="Times New Roman,serif" font-size="9.00">510</text>
</g>
<!-- vx&#45;&gt;510 -->
<g id="edge12" class="edge"><title>vx&#45;&gt;510</title>
<path fill="none" stroke="green" stroke-width="0.494583" stroke-dasharray="1,5" d="M370.212,-462.208C345.043,-456.128 287.563,-441.157 242,-421.186 239.289,-419.997 236.521,-418.652 233.788,-417.233"/>
<polygon fill="green" stroke="green" stroke-width="0.494583" points="235.214,-414.022 224.768,-412.25 231.828,-420.149 235.214,-414.022"/>
</g>
<!-- vy -->
<g id="node3" class="node"><title>vy</title>
<polygon fill="lightgray" stroke="black" points="130,-408.973 104,-408.973 104,-390.973 130,-390.973 130,-408.973"/>
<text text-anchor="middle" x="117" y="-397.773" font-family="Times New Roman,serif" font-size="9.00">vy</text>
</g>
<!-- vertical -->
<g id="node8" class="node"><title>vertical</title>
<ellipse fill="lightblue" stroke="black" cx="400" cy="-115.903" rx="30.3115" ry="30.3115"/>
<text text-anchor="middle" x="400" y="-113.703" font-family="Times New Roman,serif" font-size="9.00">vertical</text>
</g>
<!-- vy&#45;&gt;vertical -->
<g id="edge4" class="edge"><title>vy&#45;&gt;vertical</title>
<path fill="none" stroke="green" stroke-width="0.763072" d="M117.913,-390.954C121.914,-359.529 140.73,-243.493 206,-182.309 248.522,-142.448 316.167,-126.817 359.304,-120.729"/>
<polygon fill="green" stroke="green" stroke-width="0.763072" points="359.981,-124.171 369.446,-119.41 359.078,-117.229 359.981,-124.171"/>
</g>
<!-- vy&#45;&gt;650 -->
<g id="edge9" class="edge"><title>vy&#45;&gt;650</title>
<path fill="none" stroke="red" stroke-width="0.115326" d="M130.264,-394.222C142.368,-389.953 160.788,-383.628 177,-378.759 246.484,-357.896 329.126,-337.036 372.67,-326.348"/>
<polygon fill="red" stroke="red" stroke-width="0.115326" points="373.732,-329.692 382.615,-323.917 372.07,-322.892 373.732,-329.692"/>
</g>
<!-- cp2x -->
<g id="node4" class="node"><title>cp2x</title>
<polygon fill="lightgray" stroke="black" points="93,-475.186 59,-475.186 59,-457.186 93,-457.186 93,-475.186"/>
<text text-anchor="middle" x="76" y="-463.986" font-family="Times New Roman,serif" font-size="9.00">cp2x</text>
</g>
<!-- cp2x&#45;&gt;horizontal -->
<g id="edge5" class="edge"><title>cp2x&#45;&gt;horizontal</title>
<path fill="none" stroke="red" stroke-width="0.557491" d="M76.3332,-457.06C77.2887,-441.127 80.9614,-405.05 95,-378.759 128.565,-315.902 198.623,-268.265 243.919,-242.458"/>
<polygon fill="red" stroke="red" stroke-width="0.557491" points="245.885,-245.369 252.909,-237.437 242.472,-239.258 245.885,-245.369"/>
</g>
<!-- 249 -->
<g id="node14" class="node"><title>249</title>
<ellipse fill="white" stroke="black" cx="184" cy="-24.7487" rx="21.4286" ry="21.4286"/>
<text text-anchor="middle" x="184" y="-22.5487" font-family="Times New Roman,serif" font-size="9.00">249</text>
</g>
<!-- cp2x&#45;&gt;249 -->
<g id="edge3" class="edge"><title>cp2x&#45;&gt;249</title>
<path fill="none" stroke="green" stroke-width="0.126023" stroke-dasharray="1,5" d="M68.1529,-457.075C48.735,-436.108 0,-377.646 0,-319.011 0,-319.011 0,-319.011 0,-218.785 0,-129.434 104.568,-65.0957 156.045,-38.8367"/>
<polygon fill="green" stroke="green" stroke-width="0.126023" points="157.609,-41.9681 165.002,-34.3793 154.49,-35.7012 157.609,-41.9681"/>
</g>
<!-- cp2x&#45;&gt;510 -->
<g id="edge8" class="edge"><title>cp2x&#45;&gt;510</title>
<path fill="none" stroke="red" stroke-width="0.353868" d="M92.3264,-457.183C114.073,-446.523 152.862,-427.51 179.246,-414.577"/>
<polygon fill="red" stroke="red" stroke-width="0.353868" points="180.912,-417.658 188.35,-410.114 177.831,-411.373 180.912,-417.658"/>
</g>
<!-- cp2y -->
<g id="node5" class="node"><title>cp2y</title>
<polygon fill="lightgray" stroke="black" points="525.5,-408.973 490.5,-408.973 490.5,-390.973 525.5,-390.973 525.5,-408.973"/>
<text text-anchor="middle" x="508" y="-397.773" font-family="Times New Roman,serif" font-size="9.00">cp2y</text>
</g>
<!-- cp2y&#45;&gt;650 -->
<g id="edge19" class="edge"><title>cp2y&#45;&gt;650</title>
<path fill="none" stroke="red" stroke-width="0.135652" stroke-dasharray="1,5" d="M497.159,-390.716C480.876,-378.317 449.673,-354.555 427.66,-337.79"/>
<polygon fill="red" stroke="red" stroke-width="0.135652" points="429.511,-334.801 419.435,-331.527 425.27,-340.37 429.511,-334.801"/>
</g>
<!-- cp2y&#45;&gt;1466 -->
<g id="edge29" class="edge"><title>cp2y&#45;&gt;1466</title>
<path fill="none" stroke="red" stroke-width="0.270133" stroke-dasharray="1,5" d="M504.222,-390.721C499.35,-379.877 490.815,-360.161 485,-342.759 475.165,-313.326 466.411,-279.091 460.555,-254.396"/>
<polygon fill="red" stroke="red" stroke-width="0.270133" points="463.912,-253.38 458.229,-244.438 457.096,-254.973 463.912,-253.38"/>
</g>
<!-- cp4x -->
<g id="node6" class="node"><title>cp4x</title>
<polygon fill="lightgray" stroke="black" points="616,-408.973 582,-408.973 582,-390.973 616,-390.973 616,-408.973"/>
<text text-anchor="middle" x="599" y="-397.773" font-family="Times New Roman,serif" font-size="9.00">cp4x</text>
</g>
<!-- cp4x&#45;&gt;vertical -->
<g id="edge2" class="edge"><title>cp4x&#45;&gt;vertical</title>
<path fill="none" stroke="green" stroke-width="0.364265" stroke-dasharray="1,5" d="M599.072,-390.78C599,-372.696 597.554,-328.198 586,-293.262 568.195,-239.422 563.649,-221.848 523,-182.309 498.788,-158.758 464.386,-141.437 438.119,-130.558"/>
<polygon fill="green" stroke="green" stroke-width="0.364265" points="439.073,-127.17 428.488,-126.704 436.472,-133.669 439.073,-127.17"/>
</g>
<!-- cp4x&#45;&gt;650 -->
<g id="edge34" class="edge"><title>cp4x&#45;&gt;650</title>
<path fill="none" stroke="red" stroke-width="0.269368" d="M581.949,-392.016C548.322,-378.298 473.133,-347.623 431.722,-330.728"/>
<polygon fill="red" stroke="red" stroke-width="0.269368" points="433.033,-327.483 422.452,-326.947 430.389,-333.965 433.033,-327.483"/>
</g>
<!-- 1791 -->
<g id="node17" class="node"><title>1791</title>
<ellipse fill="white" stroke="black" cx="552" cy="-318.011" rx="25" ry="25"/>
<text text-anchor="middle" x="552" y="-315.811" font-family="Times New Roman,serif" font-size="9.00">1791</text>
</g>
<!-- cp4x&#45;&gt;1791 -->
<g id="edge31" class="edge"><title>cp4x&#45;&gt;1791</title>
<path fill="none" stroke="red" stroke-width="0.328865" d="M594.147,-390.716C588.359,-380.869 578.359,-363.856 569.552,-348.873"/>
<polygon fill="red" stroke="red" stroke-width="0.328865" points="572.356,-346.735 564.271,-339.888 566.321,-350.282 572.356,-346.735"/>
</g>
<!-- cp4y -->
<g id="node7" class="node"><title>cp4y</title>
<polygon fill="lightgray" stroke="black" points="199.5,-475.186 164.5,-475.186 164.5,-457.186 199.5,-457.186 199.5,-475.186"/>
<text text-anchor="middle" x="182" y="-463.986" font-family="Times New Roman,serif" font-size="9.00">cp4y</text>
</g>
<!-- cp4y&#45;&gt;vertical -->
<g id="edge1" class="edge"><title>cp4y&#45;&gt;vertical</title>
<path fill="none" stroke="red" stroke-width="0.485954" d="M164.244,-461.924C143.491,-457.058 110.071,-445.697 95,-421.186 54.325,-355.033 37.1454,-294.379 152,-182.309 208.17,-127.5 304.549,-117.158 359.146,-116.033"/>
<polygon fill="red" stroke="red" stroke-width="0.485954" points="359.523,-119.53 369.484,-115.921 359.446,-112.53 359.523,-119.53"/>
</g>
<!-- 482 -->
<g id="node10" class="node"><title>482</title>
<ellipse fill="white" stroke="black" cx="207" cy="-318.011" rx="21.4286" ry="21.4286"/>
<text text-anchor="middle" x="207" y="-315.811" font-family="Times New Roman,serif" font-size="9.00">482</text>
</g>
<!-- cp4y&#45;&gt;482 -->
<g id="edge16" class="edge"><title>cp4y&#45;&gt;482</title>
<path fill="none" stroke="red" stroke-width="0.116501" stroke-dasharray="1,5" d="M179.971,-456.947C176.486,-441.414 170.346,-406.839 177,-378.759 179.766,-367.086 185.189,-355.099 190.672,-344.954"/>
<polygon fill="red" stroke="red" stroke-width="0.116501" points="193.741,-346.639 195.651,-336.218 187.659,-343.173 193.741,-346.639"/>
</g>
<!-- cp4y&#45;&gt;650 -->
<g id="edge20" class="edge"><title>cp4y&#45;&gt;650</title>
<path fill="none" stroke="green" stroke-width="0.178513" stroke-dasharray="1,5" d="M199.831,-464.469C248.013,-462.122 378.94,-452.89 405,-421.186 421.511,-401.099 418.462,-370.524 412.837,-348.054"/>
<polygon fill="green" stroke="green" stroke-width="0.178513" points="416.193,-347.057 410.133,-338.366 409.451,-348.939 416.193,-347.057"/>
</g>
<!-- cp4y&#45;&gt;510 -->
<g id="edge30" class="edge"><title>cp4y&#45;&gt;510</title>
<path fill="none" stroke="red" stroke-width="0.20228" stroke-dasharray="1,5" d="M185.166,-457.053C187.894,-450.046 192.001,-439.499 195.919,-429.435"/>
<polygon fill="red" stroke="red" stroke-width="0.20228" points="199.2,-430.655 199.566,-420.066 192.677,-428.115 199.2,-430.655"/>
</g>
<!-- vertical&#45;&gt;249 -->
<g id="edge7" class="edge"><title>vertical&#45;&gt;249</title>
<path fill="none" stroke="red" stroke-width="0.695864" d="M372.204,-103.43C331.065,-86.45 254.356,-54.7882 212.702,-37.5954"/>
<polygon fill="red" stroke="red" stroke-width="0.695864" points="213.975,-34.3345 203.396,-33.7544 211.304,-40.805 213.975,-34.3345"/>
</g>
<!-- vertical&#45;&gt;1434 -->
<g id="edge24" class="edge"><title>vertical&#45;&gt;1434</title>
<path fill="none" stroke="green" stroke-width="0.114664" stroke-dasharray="1,5" d="M410.125,-86.6941C413.414,-77.5314 417.087,-67.2973 420.47,-57.871"/>
<polygon fill="green" stroke="green" stroke-width="0.114664" points="423.779,-59.0136 423.863,-48.4191 417.19,-56.6488 423.779,-59.0136"/>
</g>
<!-- 482&#45;&gt;vertical -->
<g id="edge6" class="edge"><title>482&#45;&gt;vertical</title>
<path fill="none" stroke="red" stroke-width="0.111419" stroke-dasharray="1,5" d="M206.523,-296.642C206.937,-267.802 211.858,-214.951 240,-182.309 270.628,-146.783 323.501,-130.256 360.038,-122.772"/>
<polygon fill="red" stroke="red" stroke-width="0.111419" points="360.712,-126.207 369.878,-120.892 359.399,-119.331 360.712,-126.207"/>
</g>
<!-- 482&#45;&gt;1466 -->
<g id="edge22" class="edge"><title>482&#45;&gt;1466</title>
<path fill="none" stroke="red" stroke-width="0.353517" d="M226.715,-309.299C269.024,-292.749 368.871,-253.693 420.627,-233.448"/>
<polygon fill="red" stroke="red" stroke-width="0.353517" points="421.968,-236.682 430.006,-229.78 419.418,-230.163 421.968,-236.682"/>
</g>
<!-- 650&#45;&gt;vertical -->
<g id="edge10" class="edge"><title>650&#45;&gt;vertical</title>
<path fill="none" stroke="red" stroke-width="0.327676" stroke-dasharray="1,5" d="M402.696,-296.722C402.206,-264.021 401.232,-199.062 400.599,-156.827"/>
<polygon fill="red" stroke="red" stroke-width="0.327676" points="404.095,-156.559 400.445,-146.612 397.096,-156.664 404.095,-156.559"/>
</g>
<!-- 650&#45;&gt;horizontal -->
<g id="edge11" class="edge"><title>650&#45;&gt;horizontal</title>
<path fill="none" stroke="green" stroke-width="0.373886" stroke-dasharray="1,5" d="M386.732,-303.631C370.251,-290.077 344.196,-268.648 322.714,-250.98"/>
<polygon fill="green" stroke="green" stroke-width="0.373886" points="324.68,-248.066 314.734,-244.417 320.234,-253.472 324.68,-248.066"/>
</g>
<!-- 650&#45;&gt;1466 -->
<g id="edge26" class="edge"><title>650&#45;&gt;1466</title>
<path fill="none" stroke="green" stroke-width="0.358634" d="M412.405,-298.911C419.339,-285.566 428.938,-267.092 437.062,-251.459"/>
<polygon fill="green" stroke="green" stroke-width="0.358634" points="440.387,-252.651 441.892,-242.163 434.175,-249.423 440.387,-252.651"/>
</g>
<!-- 766&#45;&gt;horizontal -->
<g id="edge15" class="edge"><title>766&#45;&gt;horizontal</title>
<path fill="none" stroke="red" stroke-width="0.205213" stroke-dasharray="1,5" d="M302.82,-378.532C299.955,-351.658 294.835,-303.639 290.994,-267.616"/>
<polygon fill="red" stroke="red" stroke-width="0.205213" points="294.438,-266.904 289.897,-257.331 287.477,-267.646 294.438,-266.904"/>
</g>
<!-- 766&#45;&gt;482 -->
<g id="edge18" class="edge"><title>766&#45;&gt;482</title>
<path fill="none" stroke="green" stroke-width="0.839599" d="M288.817,-385.769C273.071,-372.921 248.957,-353.245 230.982,-338.578"/>
<polygon fill="green" stroke="green" stroke-width="0.839599" points="233.168,-335.845 223.207,-332.234 228.742,-341.268 233.168,-335.845"/>
</g>
<!-- 766&#45;&gt;650 -->
<g id="edge36" class="edge"><title>766&#45;&gt;650</title>
<path fill="none" stroke="red" stroke-width="0.255442" d="M321.183,-385.769C336.929,-372.921 361.043,-353.245 379.018,-338.578"/>
<polygon fill="red" stroke="red" stroke-width="0.255442" points="381.258,-341.268 386.793,-332.234 376.832,-335.845 381.258,-341.268"/>
</g>
<!-- 1466&#45;&gt;vertical -->
<g id="edge23" class="edge"><title>1466&#45;&gt;vertical</title>
<path fill="none" stroke="green" stroke-width="0.205297" stroke-dasharray="1,5" d="M441.76,-197.179C434.966,-184.118 426.142,-167.155 418.356,-152.189"/>
<polygon fill="green" stroke="green" stroke-width="0.205297" points="421.39,-150.438 413.67,-143.182 415.18,-153.668 421.39,-150.438"/>
</g>
<!-- 510&#45;&gt;482 -->
<g id="edge27" class="edge"><title>510&#45;&gt;482</title>
<path fill="none" stroke="red" stroke-width="0.197332" stroke-dasharray="1,5" d="M207,-378.38C207,-369.545 207,-359.043 207,-349.346"/>
<polygon fill="red" stroke="red" stroke-width="0.197332" points="210.5,-349.256 207,-339.256 203.5,-349.256 210.5,-349.256"/>
</g>
<!-- 510&#45;&gt;1466 -->
<g id="edge25" class="edge"><title>510&#45;&gt;1466</title>
<path fill="none" stroke="green" stroke-width="0.318981" d="M223.909,-386.725C265.57,-356.548 373.5,-278.37 424.939,-241.111"/>
<polygon fill="green" stroke="green" stroke-width="0.318981" points="427.229,-243.774 433.275,-235.073 423.123,-238.105 427.229,-243.774"/>
</g>
<!-- 1791&#45;&gt;vertical -->
<g id="edge32" class="edge"><title>1791&#45;&gt;vertical</title>
<path fill="none" stroke="red" stroke-width="0.413554" d="M544.756,-294.165C534.95,-265.76 515.355,-216.814 487,-182.309 472.493,-164.655 452.279,-149.086 434.987,-137.57"/>
<polygon fill="red" stroke="red" stroke-width="0.413554" points="436.555,-134.417 426.257,-131.929 432.756,-140.296 436.555,-134.417"/>
</g>
<!-- 1791&#45;&gt;1466 -->
<g id="edge35" class="edge"><title>1791&#45;&gt;1466</title>
<path fill="none" stroke="red" stroke-width="0.18514" stroke-dasharray="1,5" d="M534.756,-300.25C518.953,-284.89 495.382,-261.98 477.604,-244.7"/>
<polygon fill="red" stroke="red" stroke-width="0.18514" points="479.989,-242.137 470.379,-237.677 475.11,-247.157 479.989,-242.137"/>
</g>
</g>
</svg>
