<?xml version="1.0" encoding="utf-8" standalone="no"?>
<!DOCTYPE svg PUBLIC "-//W3C//DTD SVG 1.1//EN"
  "http://www.w3.org/Graphics/SVG/1.1/DTD/svg11.dtd">
<!-- Created with matplotlib (http://matplotlib.org/) -->
<svg height="345.6pt" version="1.1" viewBox="0 0 460.8 345.6" width="460.8pt" xmlns="http://www.w3.org/2000/svg" xmlns:xlink="http://www.w3.org/1999/xlink">
 <defs>
  <style type="text/css">
*{stroke-linecap:butt;stroke-linejoin:round;}
  </style>
 </defs>
 <g id="figure_1">
  <g id="patch_1">
   <path d="M 0 345.6 
L 460.8 345.6 
L 460.8 0 
L 0 0 
z
" style="fill:#ffffff;"/>
  </g>
  <g id="axes_1">
   <g id="patch_2">
    <path d="M 57.6 307.584 
L 414.72 307.584 
L 414.72 41.472 
L 57.6 41.472 
z
" style="fill:#ffffff;"/>
   </g>
   <g id="matplotlib.axis_1">
    <g id="xtick_1">
     <g id="line2d_1">
      <path clip-path="url(#p9d55c8b7e6)" d="M 73.832727 307.584 
L 73.832727 41.472 
" style="fill:none;stroke:#b0b0b0;stroke-linecap:square;stroke-width:0.8;"/>
     </g>
     <g id="line2d_2">
      <defs>
       <path d="M 0 0 
L 0 3.5 
" id="maba8e17973" style="stroke:#000000;stroke-width:0.8;"/>
      </defs>
      <g>
       <use style="stroke:#000000;stroke-width:0.8;" x="73.832727" xlink:href="#maba8e17973" y="307.584"/>
      </g>
     </g>
     <g id="text_1">
      <!-- 0 -->
      <defs>
       <path d="M 31.78125 66.40625 
Q 24.171875 66.40625 20.328125 58.90625 
Q 16.5 51.421875 16.5 36.375 
Q 16.5 21.390625 20.328125 13.890625 
Q 24.171875 6.390625 31.78125 6.390625 
Q 39.453125 6.390625 43.28125 13.890625 
Q 47.125 21.390625 47.125 36.375 
Q 47.125 51.421875 43.28125 58.90625 
Q 39.453125 66.40625 31.78125 66.40625 
z
M 31.78125 74.21875 
Q 44.046875 74.21875 50.515625 64.515625 
Q 56.984375 54.828125 56.984375 36.375 
Q 56.984375 17.96875 50.515625 8.265625 
Q 44.046875 -1.421875 31.78125 -1.421875 
Q 19.53125 -1.421875 13.0625 8.265625 
Q 6.59375 17.96875 6.59375 36.375 
Q 6.59375 54.828125 13.0625 64.515625 
Q 19.53125 74.21875 31.78125 74.21875 
z
" id="DejaVuSans-30"/>
      </defs>
      <g transform="translate(70.651477 322.182437)scale(0.1 -0.1)">
       <use xlink:href="#DejaVuSans-30"/>
      </g>
     </g>
    </g>
    <g id="xtick_2">
     <g id="line2d_3">
      <path clip-path="url(#p9d55c8b7e6)" d="M 139.024403 307.584 
L 139.024403 41.472 
" style="fill:none;stroke:#b0b0b0;stroke-linecap:square;stroke-width:0.8;"/>
     </g>
     <g id="line2d_4">
      <g>
       <use style="stroke:#000000;stroke-width:0.8;" x="139.024403" xlink:href="#maba8e17973" y="307.584"/>
      </g>
     </g>
     <g id="text_2">
      <!-- 50 -->
      <defs>
       <path d="M 10.796875 72.90625 
L 49.515625 72.90625 
L 49.515625 64.59375 
L 19.828125 64.59375 
L 19.828125 46.734375 
Q 21.96875 47.46875 24.109375 47.828125 
Q 26.265625 48.1875 28.421875 48.1875 
Q 40.625 48.1875 47.75 41.5 
Q 54.890625 34.8125 54.890625 23.390625 
Q 54.890625 11.625 47.5625 5.09375 
Q 40.234375 -1.421875 26.90625 -1.421875 
Q 22.3125 -1.421875 17.546875 -0.640625 
Q 12.796875 0.140625 7.71875 1.703125 
L 7.71875 11.625 
Q 12.109375 9.234375 16.796875 8.0625 
Q 21.484375 6.890625 26.703125 6.890625 
Q 35.15625 6.890625 40.078125 11.328125 
Q 45.015625 15.765625 45.015625 23.390625 
Q 45.015625 31 40.078125 35.4375 
Q 35.15625 39.890625 26.703125 39.890625 
Q 22.75 39.890625 18.8125 39.015625 
Q 14.890625 38.140625 10.796875 36.28125 
z
" id="DejaVuSans-35"/>
      </defs>
      <g transform="translate(132.661903 322.182437)scale(0.1 -0.1)">
       <use xlink:href="#DejaVuSans-35"/>
       <use x="63.623047" xlink:href="#DejaVuSans-30"/>
      </g>
     </g>
    </g>
    <g id="xtick_3">
     <g id="line2d_5">
      <path clip-path="url(#p9d55c8b7e6)" d="M 204.216079 307.584 
L 204.216079 41.472 
" style="fill:none;stroke:#b0b0b0;stroke-linecap:square;stroke-width:0.8;"/>
     </g>
     <g id="line2d_6">
      <g>
       <use style="stroke:#000000;stroke-width:0.8;" x="204.216079" xlink:href="#maba8e17973" y="307.584"/>
      </g>
     </g>
     <g id="text_3">
      <!-- 100 -->
      <defs>
       <path d="M 12.40625 8.296875 
L 28.515625 8.296875 
L 28.515625 63.921875 
L 10.984375 60.40625 
L 10.984375 69.390625 
L 28.421875 72.90625 
L 38.28125 72.90625 
L 38.28125 8.296875 
L 54.390625 8.296875 
L 54.390625 0 
L 12.40625 0 
z
" id="DejaVuSans-31"/>
      </defs>
      <g transform="translate(194.672329 322.182437)scale(0.1 -0.1)">
       <use xlink:href="#DejaVuSans-31"/>
       <use x="63.623047" xlink:href="#DejaVuSans-30"/>
       <use x="127.246094" xlink:href="#DejaVuSans-30"/>
      </g>
     </g>
    </g>
    <g id="xtick_4">
     <g id="line2d_7">
      <path clip-path="url(#p9d55c8b7e6)" d="M 269.407755 307.584 
L 269.407755 41.472 
" style="fill:none;stroke:#b0b0b0;stroke-linecap:square;stroke-width:0.8;"/>
     </g>
     <g id="line2d_8">
      <g>
       <use style="stroke:#000000;stroke-width:0.8;" x="269.407755" xlink:href="#maba8e17973" y="307.584"/>
      </g>
     </g>
     <g id="text_4">
      <!-- 150 -->
      <g transform="translate(259.864005 322.182437)scale(0.1 -0.1)">
       <use xlink:href="#DejaVuSans-31"/>
       <use x="63.623047" xlink:href="#DejaVuSans-35"/>
       <use x="127.246094" xlink:href="#DejaVuSans-30"/>
      </g>
     </g>
    </g>
    <g id="xtick_5">
     <g id="line2d_9">
      <path clip-path="url(#p9d55c8b7e6)" d="M 334.59943 307.584 
L 334.59943 41.472 
" style="fill:none;stroke:#b0b0b0;stroke-linecap:square;stroke-width:0.8;"/>
     </g>
     <g id="line2d_10">
      <g>
       <use style="stroke:#000000;stroke-width:0.8;" x="334.59943" xlink:href="#maba8e17973" y="307.584"/>
      </g>
     </g>
     <g id="text_5">
      <!-- 200 -->
      <defs>
       <path d="M 19.1875 8.296875 
L 53.609375 8.296875 
L 53.609375 0 
L 7.328125 0 
L 7.328125 8.296875 
Q 12.9375 14.109375 22.625 23.890625 
Q 32.328125 33.6875 34.8125 36.53125 
Q 39.546875 41.84375 41.421875 45.53125 
Q 43.3125 49.21875 43.3125 52.78125 
Q 43.3125 58.59375 39.234375 62.25 
Q 35.15625 65.921875 28.609375 65.921875 
Q 23.96875 65.921875 18.8125 64.3125 
Q 13.671875 62.703125 7.8125 59.421875 
L 7.8125 69.390625 
Q 13.765625 71.78125 18.9375 73 
Q 24.125 74.21875 28.421875 74.21875 
Q 39.75 74.21875 46.484375 68.546875 
Q 53.21875 62.890625 53.21875 53.421875 
Q 53.21875 48.921875 51.53125 44.890625 
Q 49.859375 40.875 45.40625 35.40625 
Q 44.1875 33.984375 37.640625 27.21875 
Q 31.109375 20.453125 19.1875 8.296875 
z
" id="DejaVuSans-32"/>
      </defs>
      <g transform="translate(325.05568 322.182437)scale(0.1 -0.1)">
       <use xlink:href="#DejaVuSans-32"/>
       <use x="63.623047" xlink:href="#DejaVuSans-30"/>
       <use x="127.246094" xlink:href="#DejaVuSans-30"/>
      </g>
     </g>
    </g>
    <g id="xtick_6">
     <g id="line2d_11">
      <path clip-path="url(#p9d55c8b7e6)" d="M 399.791106 307.584 
L 399.791106 41.472 
" style="fill:none;stroke:#b0b0b0;stroke-linecap:square;stroke-width:0.8;"/>
     </g>
     <g id="line2d_12">
      <g>
       <use style="stroke:#000000;stroke-width:0.8;" x="399.791106" xlink:href="#maba8e17973" y="307.584"/>
      </g>
     </g>
     <g id="text_6">
      <!-- 250 -->
      <g transform="translate(390.247356 322.182437)scale(0.1 -0.1)">
       <use xlink:href="#DejaVuSans-32"/>
       <use x="63.623047" xlink:href="#DejaVuSans-35"/>
       <use x="127.246094" xlink:href="#DejaVuSans-30"/>
      </g>
     </g>
    </g>
    <g id="text_7">
     <!-- Generations -->
     <defs>
      <path d="M 59.515625 10.40625 
L 59.515625 29.984375 
L 43.40625 29.984375 
L 43.40625 38.09375 
L 69.28125 38.09375 
L 69.28125 6.78125 
Q 63.578125 2.734375 56.6875 0.65625 
Q 49.8125 -1.421875 42 -1.421875 
Q 24.90625 -1.421875 15.25 8.5625 
Q 5.609375 18.5625 5.609375 36.375 
Q 5.609375 54.25 15.25 64.234375 
Q 24.90625 74.21875 42 74.21875 
Q 49.125 74.21875 55.546875 72.453125 
Q 61.96875 70.703125 67.390625 67.28125 
L 67.390625 56.78125 
Q 61.921875 61.421875 55.765625 63.765625 
Q 49.609375 66.109375 42.828125 66.109375 
Q 29.4375 66.109375 22.71875 58.640625 
Q 16.015625 51.171875 16.015625 36.375 
Q 16.015625 21.625 22.71875 14.15625 
Q 29.4375 6.6875 42.828125 6.6875 
Q 48.046875 6.6875 52.140625 7.59375 
Q 56.25 8.5 59.515625 10.40625 
z
" id="DejaVuSans-47"/>
      <path d="M 56.203125 29.59375 
L 56.203125 25.203125 
L 14.890625 25.203125 
Q 15.484375 15.921875 20.484375 11.0625 
Q 25.484375 6.203125 34.421875 6.203125 
Q 39.59375 6.203125 44.453125 7.46875 
Q 49.3125 8.734375 54.109375 11.28125 
L 54.109375 2.78125 
Q 49.265625 0.734375 44.1875 -0.34375 
Q 39.109375 -1.421875 33.890625 -1.421875 
Q 20.796875 -1.421875 13.15625 6.1875 
Q 5.515625 13.8125 5.515625 26.8125 
Q 5.515625 40.234375 12.765625 48.109375 
Q 20.015625 56 32.328125 56 
Q 43.359375 56 49.78125 48.890625 
Q 56.203125 41.796875 56.203125 29.59375 
z
M 47.21875 32.234375 
Q 47.125 39.59375 43.09375 43.984375 
Q 39.0625 48.390625 32.421875 48.390625 
Q 24.90625 48.390625 20.390625 44.140625 
Q 15.875 39.890625 15.1875 32.171875 
z
" id="DejaVuSans-65"/>
      <path d="M 54.890625 33.015625 
L 54.890625 0 
L 45.90625 0 
L 45.90625 32.71875 
Q 45.90625 40.484375 42.875 44.328125 
Q 39.84375 48.1875 33.796875 48.1875 
Q 26.515625 48.1875 22.3125 43.546875 
Q 18.109375 38.921875 18.109375 30.90625 
L 18.109375 0 
L 9.078125 0 
L 9.078125 54.6875 
L 18.109375 54.6875 
L 18.109375 46.1875 
Q 21.34375 51.125 25.703125 53.5625 
Q 30.078125 56 35.796875 56 
Q 45.21875 56 50.046875 50.171875 
Q 54.890625 44.34375 54.890625 33.015625 
z
" id="DejaVuSans-6e"/>
      <path d="M 41.109375 46.296875 
Q 39.59375 47.171875 37.8125 47.578125 
Q 36.03125 48 33.890625 48 
Q 26.265625 48 22.1875 43.046875 
Q 18.109375 38.09375 18.109375 28.8125 
L 18.109375 0 
L 9.078125 0 
L 9.078125 54.6875 
L 18.109375 54.6875 
L 18.109375 46.1875 
Q 20.953125 51.171875 25.484375 53.578125 
Q 30.03125 56 36.53125 56 
Q 37.453125 56 38.578125 55.875 
Q 39.703125 55.765625 41.0625 55.515625 
z
" id="DejaVuSans-72"/>
      <path d="M 34.28125 27.484375 
Q 23.390625 27.484375 19.1875 25 
Q 14.984375 22.515625 14.984375 16.5 
Q 14.984375 11.71875 18.140625 8.90625 
Q 21.296875 6.109375 26.703125 6.109375 
Q 34.1875 6.109375 38.703125 11.40625 
Q 43.21875 16.703125 43.21875 25.484375 
L 43.21875 27.484375 
z
M 52.203125 31.203125 
L 52.203125 0 
L 43.21875 0 
L 43.21875 8.296875 
Q 40.140625 3.328125 35.546875 0.953125 
Q 30.953125 -1.421875 24.3125 -1.421875 
Q 15.921875 -1.421875 10.953125 3.296875 
Q 6 8.015625 6 15.921875 
Q 6 25.140625 12.171875 29.828125 
Q 18.359375 34.515625 30.609375 34.515625 
L 43.21875 34.515625 
L 43.21875 35.40625 
Q 43.21875 41.609375 39.140625 45 
Q 35.0625 48.390625 27.6875 48.390625 
Q 23 48.390625 18.546875 47.265625 
Q 14.109375 46.140625 10.015625 43.890625 
L 10.015625 52.203125 
Q 14.9375 54.109375 19.578125 55.046875 
Q 24.21875 56 28.609375 56 
Q 40.484375 56 46.34375 49.84375 
Q 52.203125 43.703125 52.203125 31.203125 
z
" id="DejaVuSans-61"/>
      <path d="M 18.3125 70.21875 
L 18.3125 54.6875 
L 36.8125 54.6875 
L 36.8125 47.703125 
L 18.3125 47.703125 
L 18.3125 18.015625 
Q 18.3125 11.328125 20.140625 9.421875 
Q 21.96875 7.515625 27.59375 7.515625 
L 36.8125 7.515625 
L 36.8125 0 
L 27.59375 0 
Q 17.1875 0 13.234375 3.875 
Q 9.28125 7.765625 9.28125 18.015625 
L 9.28125 47.703125 
L 2.6875 47.703125 
L 2.6875 54.6875 
L 9.28125 54.6875 
L 9.28125 70.21875 
z
" id="DejaVuSans-74"/>
      <path d="M 9.421875 54.6875 
L 18.40625 54.6875 
L 18.40625 0 
L 9.421875 0 
z
M 9.421875 75.984375 
L 18.40625 75.984375 
L 18.40625 64.59375 
L 9.421875 64.59375 
z
" id="DejaVuSans-69"/>
      <path d="M 30.609375 48.390625 
Q 23.390625 48.390625 19.1875 42.75 
Q 14.984375 37.109375 14.984375 27.296875 
Q 14.984375 17.484375 19.15625 11.84375 
Q 23.34375 6.203125 30.609375 6.203125 
Q 37.796875 6.203125 41.984375 11.859375 
Q 46.1875 17.53125 46.1875 27.296875 
Q 46.1875 37.015625 41.984375 42.703125 
Q 37.796875 48.390625 30.609375 48.390625 
z
M 30.609375 56 
Q 42.328125 56 49.015625 48.375 
Q 55.71875 40.765625 55.71875 27.296875 
Q 55.71875 13.875 49.015625 6.21875 
Q 42.328125 -1.421875 30.609375 -1.421875 
Q 18.84375 -1.421875 12.171875 6.21875 
Q 5.515625 13.875 5.515625 27.296875 
Q 5.515625 40.765625 12.171875 48.375 
Q 18.84375 56 30.609375 56 
z
" id="DejaVuSans-6f"/>
      <path d="M 44.28125 53.078125 
L 44.28125 44.578125 
Q 40.484375 46.53125 36.375 47.5 
Q 32.28125 48.484375 27.875 48.484375 
Q 21.1875 48.484375 17.84375 46.4375 
Q 14.5 44.390625 14.5 40.28125 
Q 14.5 37.15625 16.890625 35.375 
Q 19.28125 33.59375 26.515625 31.984375 
L 29.59375 31.296875 
Q 39.15625 29.25 43.1875 25.515625 
Q 47.21875 21.78125 47.21875 15.09375 
Q 47.21875 7.46875 41.1875 3.015625 
Q 35.15625 -1.421875 24.609375 -1.421875 
Q 20.21875 -1.421875 15.453125 -0.5625 
Q 10.6875 0.296875 5.421875 2 
L 5.421875 11.28125 
Q 10.40625 8.6875 15.234375 7.390625 
Q 20.0625 6.109375 24.8125 6.109375 
Q 31.15625 6.109375 34.5625 8.28125 
Q 37.984375 10.453125 37.984375 14.40625 
Q 37.984375 18.0625 35.515625 20.015625 
Q 33.0625 21.96875 24.703125 23.78125 
L 21.578125 24.515625 
Q 13.234375 26.265625 9.515625 29.90625 
Q 5.8125 33.546875 5.8125 39.890625 
Q 5.8125 47.609375 11.28125 51.796875 
Q 16.75 56 26.8125 56 
Q 31.78125 56 36.171875 55.265625 
Q 40.578125 54.546875 44.28125 53.078125 
z
" id="DejaVuSans-73"/>
     </defs>
     <g transform="translate(205.662344 335.860562)scale(0.1 -0.1)">
      <use xlink:href="#DejaVuSans-47"/>
      <use x="77.490234" xlink:href="#DejaVuSans-65"/>
      <use x="139.013672" xlink:href="#DejaVuSans-6e"/>
      <use x="202.392578" xlink:href="#DejaVuSans-65"/>
      <use x="263.916016" xlink:href="#DejaVuSans-72"/>
      <use x="305.029297" xlink:href="#DejaVuSans-61"/>
      <use x="366.308594" xlink:href="#DejaVuSans-74"/>
      <use x="405.517578" xlink:href="#DejaVuSans-69"/>
      <use x="433.300781" xlink:href="#DejaVuSans-6f"/>
      <use x="494.482422" xlink:href="#DejaVuSans-6e"/>
      <use x="557.861328" xlink:href="#DejaVuSans-73"/>
     </g>
    </g>
   </g>
   <g id="matplotlib.axis_2">
    <g id="ytick_1">
     <g id="line2d_13">
      <path clip-path="url(#p9d55c8b7e6)" d="M 57.6 279.111266 
L 414.72 279.111266 
" style="fill:none;stroke:#b0b0b0;stroke-linecap:square;stroke-width:0.8;"/>
     </g>
     <g id="line2d_14">
      <defs>
       <path d="M 0 0 
L -3.5 0 
" id="mc8b0a93c54" style="stroke:#000000;stroke-width:0.8;"/>
      </defs>
      <g>
       <use style="stroke:#000000;stroke-width:0.8;" x="57.6" xlink:href="#mc8b0a93c54" y="279.111266"/>
      </g>
     </g>
     <g id="text_8">
      <!-- 0 -->
      <g transform="translate(44.2375 282.910485)scale(0.1 -0.1)">
       <use xlink:href="#DejaVuSans-30"/>
      </g>
     </g>
    </g>
    <g id="ytick_2">
     <g id="line2d_15">
      <path clip-path="url(#p9d55c8b7e6)" d="M 57.6 227.617369 
L 414.72 227.617369 
" style="fill:none;stroke:#b0b0b0;stroke-linecap:square;stroke-width:0.8;"/>
     </g>
     <g id="line2d_16">
      <g>
       <use style="stroke:#000000;stroke-width:0.8;" x="57.6" xlink:href="#mc8b0a93c54" y="227.617369"/>
      </g>
     </g>
     <g id="text_9">
      <!-- 50 -->
      <g transform="translate(37.875 231.416588)scale(0.1 -0.1)">
       <use xlink:href="#DejaVuSans-35"/>
       <use x="63.623047" xlink:href="#DejaVuSans-30"/>
      </g>
     </g>
    </g>
    <g id="ytick_3">
     <g id="line2d_17">
      <path clip-path="url(#p9d55c8b7e6)" d="M 57.6 176.123473 
L 414.72 176.123473 
" style="fill:none;stroke:#b0b0b0;stroke-linecap:square;stroke-width:0.8;"/>
     </g>
     <g id="line2d_18">
      <g>
       <use style="stroke:#000000;stroke-width:0.8;" x="57.6" xlink:href="#mc8b0a93c54" y="176.123473"/>
      </g>
     </g>
     <g id="text_10">
      <!-- 100 -->
      <g transform="translate(31.5125 179.922692)scale(0.1 -0.1)">
       <use xlink:href="#DejaVuSans-31"/>
       <use x="63.623047" xlink:href="#DejaVuSans-30"/>
       <use x="127.246094" xlink:href="#DejaVuSans-30"/>
      </g>
     </g>
    </g>
    <g id="ytick_4">
     <g id="line2d_19">
      <path clip-path="url(#p9d55c8b7e6)" d="M 57.6 124.629577 
L 414.72 124.629577 
" style="fill:none;stroke:#b0b0b0;stroke-linecap:square;stroke-width:0.8;"/>
     </g>
     <g id="line2d_20">
      <g>
       <use style="stroke:#000000;stroke-width:0.8;" x="57.6" xlink:href="#mc8b0a93c54" y="124.629577"/>
      </g>
     </g>
     <g id="text_11">
      <!-- 150 -->
      <g transform="translate(31.5125 128.428796)scale(0.1 -0.1)">
       <use xlink:href="#DejaVuSans-31"/>
       <use x="63.623047" xlink:href="#DejaVuSans-35"/>
       <use x="127.246094" xlink:href="#DejaVuSans-30"/>
      </g>
     </g>
    </g>
    <g id="ytick_5">
     <g id="line2d_21">
      <path clip-path="url(#p9d55c8b7e6)" d="M 57.6 73.135681 
L 414.72 73.135681 
" style="fill:none;stroke:#b0b0b0;stroke-linecap:square;stroke-width:0.8;"/>
     </g>
     <g id="line2d_22">
      <g>
       <use style="stroke:#000000;stroke-width:0.8;" x="57.6" xlink:href="#mc8b0a93c54" y="73.135681"/>
      </g>
     </g>
     <g id="text_12">
      <!-- 200 -->
      <g transform="translate(31.5125 76.934899)scale(0.1 -0.1)">
       <use xlink:href="#DejaVuSans-32"/>
       <use x="63.623047" xlink:href="#DejaVuSans-30"/>
       <use x="127.246094" xlink:href="#DejaVuSans-30"/>
      </g>
     </g>
    </g>
    <g id="text_13">
     <!-- Fitness -->
     <defs>
      <path d="M 9.8125 72.90625 
L 51.703125 72.90625 
L 51.703125 64.59375 
L 19.671875 64.59375 
L 19.671875 43.109375 
L 48.578125 43.109375 
L 48.578125 34.8125 
L 19.671875 34.8125 
L 19.671875 0 
L 9.8125 0 
z
" id="DejaVuSans-46"/>
     </defs>
     <g transform="translate(25.432812 192.202219)rotate(-90)scale(0.1 -0.1)">
      <use xlink:href="#DejaVuSans-46"/>
      <use x="57.410156" xlink:href="#DejaVuSans-69"/>
      <use x="85.193359" xlink:href="#DejaVuSans-74"/>
      <use x="124.402344" xlink:href="#DejaVuSans-6e"/>
      <use x="187.78125" xlink:href="#DejaVuSans-65"/>
      <use x="249.304688" xlink:href="#DejaVuSans-73"/>
      <use x="301.404297" xlink:href="#DejaVuSans-73"/>
     </g>
    </g>
   </g>
   <g id="line2d_23">
    <path clip-path="url(#p9d55c8b7e6)" d="M 73.832727 274.076307 
L 75.136561 273.046429 
L 76.440394 270.34586 
L 77.744228 269.018462 
L 79.048061 268.217446 
L 80.351895 268.103015 
L 81.655728 265.059154 
L 84.263395 263.457121 
L 85.567229 257.209195 
L 86.871062 250.114481 
L 89.478729 231.233385 
L 90.782563 212.878672 
L 92.086396 230.638345 
L 93.39023 229.608467 
L 94.694064 224.848142 
L 95.997897 225.694931 
L 97.301731 220.225135 
L 98.605564 228.670134 
L 99.909398 208.988022 
L 101.213231 228.258182 
L 102.517065 240.525173 
L 103.820898 202.213714 
L 105.124732 213.061761 
L 106.428565 212.604038 
L 107.732399 197.361845 
L 109.036232 200.0853 
L 110.340066 188.390464 
L 111.643899 193.951804 
L 112.947733 196.881235 
L 114.251566 193.745829 
L 115.5554 202.213714 
L 116.859233 192.143796 
L 118.163067 215.670786 
L 119.4669 194.066235 
L 120.770734 206.813835 
L 122.074567 193.814487 
L 123.378401 187.108838 
L 124.682234 182.073879 
L 125.986068 197.842454 
L 127.289901 206.836722 
L 128.593735 197.728023 
L 129.897568 182.920667 
L 131.201402 215.258834 
L 132.505235 211.757249 
L 133.809069 201.550015 
L 135.112903 211.57416 
L 136.416736 210.292534 
L 137.72057 199.513145 
L 139.024403 203.79286 
L 140.328237 194.4553 
L 141.63207 194.981682 
L 144.239737 189.900951 
L 145.543571 202.946072 
L 146.847404 202.785868 
L 148.151238 212.306518 
L 149.455071 219.035053 
L 150.758905 201.229608 
L 152.062738 229.585581 
L 153.366572 216.082737 
L 154.670405 205.005827 
L 155.974239 225.87802 
L 157.278072 219.675866 
L 158.581906 222.719728 
L 159.885739 208.003917 
L 161.189573 206.539201 
L 162.493406 203.037616 
L 163.79724 188.619325 
L 165.101073 208.667616 
L 166.404907 215.785216 
L 167.70874 217.638997 
L 169.012574 222.879931 
L 170.316407 189.717862 
L 171.620241 201.75599 
L 172.924074 215.510582 
L 174.227908 201.733104 
L 175.531742 191.82339 
L 176.835575 218.165379 
L 178.139409 221.850053 
L 179.443242 226.427288 
L 180.747076 216.082737 
L 182.050909 232.10306 
L 183.354743 232.492125 
L 184.658576 218.142493 
L 185.96241 219.538549 
L 187.266243 228.303955 
L 188.570077 227.800459 
L 189.87391 216.746436 
L 191.177744 203.747088 
L 193.785411 200.909202 
L 195.089244 230.798548 
L 196.393078 212.306518 
L 197.696911 216.654891 
L 199.000745 199.238511 
L 200.304578 219.05794 
L 201.608412 184.22518 
L 202.912245 214.068753 
L 204.216079 199.993755 
L 205.519912 225.672044 
L 206.823746 201.618673 
L 208.127579 204.593876 
L 209.431413 201.916194 
L 210.735246 209.949241 
L 212.03908 204.845624 
L 213.342913 198.231519 
L 214.646747 204.021722 
L 215.950581 199.787779 
L 217.254414 213.176192 
L 218.558248 200.909202 
L 219.862081 205.577982 
L 221.165915 204.960055 
L 222.469748 203.037616 
L 223.773582 192.281114 
L 225.077415 209.354201 
L 227.685082 189.031277 
L 228.988916 202.122169 
L 230.292749 201.801763 
L 231.596583 206.768063 
L 232.900416 193.631398 
L 234.20425 194.363756 
L 235.508083 192.258227 
L 236.811917 211.597046 
L 238.11575 206.516315 
L 239.419584 215.808103 
L 240.723417 217.7992 
L 242.027251 200.039527 
L 243.331084 207.180014 
L 244.634918 223.06302 
L 245.938751 214.618021 
L 247.242585 228.578589 
L 248.546418 208.530299 
L 249.850252 220.682858 
L 251.154085 217.570338 
L 252.457919 203.146574 
L 253.761752 212.581152 
L 255.065586 198.139975 
L 256.369419 192.212455 
L 257.673253 202.053511 
L 258.977087 202.923185 
L 260.28092 189.740748 
L 261.584754 195.302089 
L 262.888587 195.027455 
L 264.192421 207.935258 
L 265.496254 204.776966 
L 266.800088 203.769974 
L 268.103921 213.588144 
L 269.407755 211.688591 
L 270.711588 206.470543 
L 272.015422 214.709566 
L 273.319255 214.640908 
L 274.623089 209.377087 
L 275.926922 193.37965 
L 277.230756 186.971521 
L 278.534589 186.834204 
L 279.838423 174.132376 
L 281.142256 201.550015 
L 282.44609 206.90538 
L 283.749923 206.676518 
L 285.053757 195.965788 
L 286.35759 216.586233 
L 287.661424 178.320546 
L 288.965257 200.108186 
L 290.269091 207.523307 
L 291.572924 220.545541 
L 292.876758 213.702574 
L 294.180591 222.216232 
L 295.484425 227.502939 
L 296.788258 237.84749 
L 298.092092 225.603386 
L 299.395926 205.440665 
L 300.699759 206.539201 
L 302.003593 208.75916 
L 303.307426 209.216884 
L 304.61126 189.878065 
L 305.915093 210.933347 
L 307.218927 211.825908 
L 308.52276 211.963225 
L 309.826594 209.148225 
L 311.130427 208.507412 
L 312.434261 212.329404 
L 313.738094 204.387901 
L 315.041928 210.132331 
L 316.345761 198.780788 
L 318.953428 228.303955 
L 320.257262 208.255664 
L 321.561095 202.579893 
L 322.864929 202.41969 
L 324.168762 215.876761 
L 325.472596 190.404447 
L 326.776429 207.225787 
L 328.080263 190.358675 
L 329.384096 191.136805 
L 330.68793 198.506153 
L 331.991763 210.956233 
L 333.295597 188.482008 
L 334.59943 209.422859 
L 335.903264 205.097372 
L 337.207097 206.790949 
L 338.510931 196.331967 
L 339.814765 192.349772 
L 341.118598 195.347861 
L 342.422432 205.898388 
L 343.726265 213.496599 
L 345.030099 205.761071 
L 346.333932 180.723595 
L 347.637766 197.613593 
L 348.941599 204.113267 
L 350.245433 193.562739 
L 351.549266 204.27347 
L 352.8531 219.149484 
L 354.156933 202.396803 
L 355.460767 209.445746 
L 356.7646 189.832293 
L 358.068434 202.099283 
L 359.372267 192.967699 
L 360.676101 195.71404 
L 361.979934 209.72038 
L 363.283768 208.988022 
L 364.587601 190.999488 
L 365.891435 206.90538 
L 367.195268 202.625665 
L 368.499102 175.345343 
L 369.802935 191.434325 
L 371.106769 191.52587 
L 372.410602 185.415261 
L 373.714436 197.56782 
L 375.018269 166.62571 
L 376.322103 168.548149 
L 377.625936 173.651766 
L 378.92977 184.22518 
L 380.233604 188.848187 
L 381.537437 199.261397 
L 382.841271 193.516967 
L 384.145104 173.285587 
L 385.448938 191.914935 
L 386.752771 195.41652 
L 388.056605 191.205463 
L 389.360438 213.817005 
L 390.664272 213.290623 
L 391.968105 193.700056 
L 393.271939 199.238511 
L 394.575772 186.216277 
L 395.879606 184.476927 
L 397.183439 198.918105 
L 398.487273 199.993755 
L 398.487273 199.993755 
" style="fill:none;stroke:#0000ff;stroke-linecap:square;stroke-width:1.5;"/>
   </g>
   <g id="line2d_24">
    <path clip-path="url(#p9d55c8b7e6)" d="M 73.832727 281.218848 
L 76.440394 277.872107 
L 77.744228 277.570791 
L 79.048061 276.514876 
L 80.351895 276.12115 
L 81.655728 283.280402 
L 82.959562 288.807684 
L 84.263395 291.877606 
L 85.567229 293.863076 
L 88.174896 287.043898 
L 89.478729 281.702131 
L 90.782563 266.825152 
L 92.086396 283.620935 
L 93.39023 283.74318 
L 94.694064 284.127067 
L 95.997897 284.392793 
L 97.301731 273.407044 
L 98.605564 282.292176 
L 99.909398 265.691746 
L 101.213231 282.728368 
L 102.517065 291.56465 
L 103.820898 259.631705 
L 105.124732 268.24998 
L 106.428565 276.083104 
L 107.732399 263.849144 
L 109.036232 268.404641 
L 110.340066 253.733338 
L 111.643899 260.591909 
L 112.947733 271.409097 
L 114.251566 260.582437 
L 115.5554 273.770263 
L 116.859233 257.437138 
L 118.163067 276.933817 
L 119.4669 265.505917 
L 120.770734 269.18307 
L 122.074567 261.75809 
L 123.378401 255.492181 
L 124.682234 254.15091 
L 125.986068 267.069804 
L 127.289901 270.73022 
L 128.593735 266.417952 
L 129.897568 252.733731 
L 131.201402 278.825657 
L 132.505235 273.923898 
L 133.809069 272.648837 
L 135.112903 279.010498 
L 136.416736 279.043788 
L 137.72057 265.744829 
L 139.024403 268.302142 
L 140.328237 264.429962 
L 141.63207 268.225184 
L 142.935904 266.112373 
L 144.239737 257.865712 
L 145.543571 270.918346 
L 146.847404 269.527546 
L 148.151238 279.619403 
L 149.455071 288.206604 
L 150.758905 271.010892 
L 152.062738 286.223591 
L 153.366572 277.261916 
L 154.670405 266.343666 
L 155.974239 291.750796 
L 157.278072 279.194781 
L 158.581906 284.071859 
L 159.885739 268.870372 
L 161.189573 271.305923 
L 162.493406 267.518759 
L 163.79724 255.139342 
L 165.101073 278.26698 
L 166.404907 279.579528 
L 169.012574 289.664036 
L 170.316407 261.455544 
L 171.620241 275.154566 
L 172.924074 287.328898 
L 175.531742 263.723378 
L 176.835575 286.192534 
L 178.139409 282.493998 
L 179.443242 282.477192 
L 180.747076 267.240298 
L 182.050909 292.168936 
L 183.354743 292.991315 
L 184.658576 285.301835 
L 185.96241 283.645527 
L 187.266243 287.113501 
L 188.570077 285.846885 
L 189.87391 277.849269 
L 191.177744 267.350345 
L 192.481577 270.998619 
L 193.785411 267.273059 
L 195.089244 294.438679 
L 196.393078 279.180982 
L 197.696911 281.150856 
L 199.000745 261.82691 
L 200.304578 286.162589 
L 201.608412 248.577526 
L 202.912245 279.127539 
L 204.216079 271.287724 
L 205.519912 291.996404 
L 206.823746 269.718505 
L 208.127579 276.536796 
L 209.431413 271.325502 
L 210.735246 282.107674 
L 212.03908 274.985015 
L 213.342913 271.087439 
L 214.646747 275.197413 
L 215.950581 268.52573 
L 217.254414 280.886692 
L 218.558248 273.153636 
L 219.862081 275.064144 
L 221.165915 270.425521 
L 222.469748 271.090514 
L 223.773582 258.351106 
L 225.077415 277.594147 
L 226.381249 268.354282 
L 227.685082 261.028379 
L 228.988916 276.581752 
L 230.292749 274.982672 
L 231.596583 279.302526 
L 232.900416 259.920843 
L 234.20425 262.979573 
L 235.508083 258.384268 
L 236.811917 271.863262 
L 238.11575 269.799824 
L 239.419584 277.830586 
L 240.723417 281.459616 
L 242.027251 263.332446 
L 243.331084 270.256226 
L 244.634918 285.224015 
L 245.938751 279.758391 
L 247.242585 288.713975 
L 248.546418 272.60184 
L 249.850252 284.540974 
L 251.154085 281.284252 
L 252.457919 264.548897 
L 253.761752 276.96638 
L 255.065586 260.234882 
L 256.369419 256.417647 
L 257.673253 273.316065 
L 258.977087 269.288495 
L 260.28092 251.286863 
L 261.584754 263.986802 
L 262.888587 260.516735 
L 264.192421 278.448009 
L 265.496254 270.647762 
L 266.800088 270.651612 
L 268.103921 278.986712 
L 269.407755 278.105418 
L 270.711588 268.111449 
L 272.015422 278.083136 
L 274.623089 274.244908 
L 275.926922 262.062944 
L 277.230756 253.948821 
L 278.534589 256.243663 
L 279.838423 238.264513 
L 281.142256 275.563406 
L 282.44609 279.782526 
L 283.749923 275.743381 
L 285.053757 262.652767 
L 286.35759 289.620844 
L 287.661424 248.56114 
L 288.965257 271.515901 
L 290.269091 271.255148 
L 291.572924 284.24408 
L 292.876758 278.685477 
L 294.180591 287.737176 
L 295.484425 292.338268 
L 296.788258 295.437796 
L 298.092092 287.339184 
L 299.395926 269.371157 
L 300.699759 270.558116 
L 302.003593 275.881369 
L 303.307426 276.994572 
L 304.61126 259.28914 
L 305.915093 276.278306 
L 307.218927 282.000836 
L 308.52276 283.227867 
L 309.826594 276.183144 
L 311.130427 275.836038 
L 312.434261 279.038136 
L 313.738094 266.680734 
L 315.041928 273.80048 
L 316.345761 263.68725 
L 317.649595 283.593996 
L 318.953428 295.488 
L 320.257262 276.216025 
L 321.561095 270.844849 
L 322.864929 272.263875 
L 324.168762 286.271477 
L 325.472596 266.818212 
L 326.776429 281.639913 
L 328.080263 268.494158 
L 329.384096 264.942484 
L 331.991763 284.217904 
L 333.295597 259.74579 
L 334.59943 281.329681 
L 335.903264 271.333675 
L 337.207097 275.617105 
L 338.510931 273.473815 
L 339.814765 261.897559 
L 341.118598 276.55845 
L 342.422432 279.987851 
L 343.726265 284.779767 
L 345.030099 276.672698 
L 346.333932 255.436126 
L 347.637766 273.503041 
L 348.941599 276.425167 
L 350.245433 262.728293 
L 351.549266 277.610613 
L 352.8531 290.049809 
L 354.156933 279.024957 
L 355.460767 281.864109 
L 356.7646 263.711492 
L 358.068434 275.839274 
L 359.372267 264.421786 
L 360.676101 263.482995 
L 361.979934 281.349453 
L 363.283768 278.660978 
L 364.587601 261.514355 
L 365.891435 277.177383 
L 367.195268 271.087342 
L 368.499102 240.522561 
L 369.802935 257.279823 
L 371.106769 254.815462 
L 372.410602 257.545118 
L 373.714436 271.573398 
L 375.018269 236.621014 
L 376.322103 236.018964 
L 377.625936 241.739913 
L 378.92977 254.505358 
L 380.233604 254.284179 
L 381.537437 267.420195 
L 382.841271 263.667446 
L 384.145104 239.307164 
L 385.448938 271.204686 
L 386.752771 272.630781 
L 388.056605 262.457058 
L 389.360438 280.99277 
L 390.664272 277.577823 
L 391.968105 261.861206 
L 393.271939 272.10315 
L 394.575772 256.467272 
L 395.879606 262.367667 
L 397.183439 272.211076 
L 398.487273 267.690607 
L 398.487273 267.690607 
" style="fill:none;stroke:#008000;stroke-dasharray:9.6,2.4,1.5,2.4;stroke-dashoffset:0;stroke-width:1.5;"/>
   </g>
   <g id="line2d_25">
    <path clip-path="url(#p9d55c8b7e6)" d="M 73.832727 266.933766 
L 75.136561 266.572027 
L 76.440394 262.819613 
L 77.744228 260.466134 
L 79.048061 259.920016 
L 80.351895 260.08488 
L 81.655728 246.837905 
L 82.959562 239.800135 
L 84.263395 235.036637 
L 85.567229 220.555314 
L 86.871062 209.772143 
L 88.174896 193.823358 
L 89.478729 180.764639 
L 90.782563 158.932192 
L 92.086396 177.655755 
L 93.39023 175.473753 
L 94.694064 165.569217 
L 95.997897 166.997069 
L 97.301731 167.043226 
L 98.605564 175.048092 
L 99.909398 152.284298 
L 101.213231 173.787997 
L 102.517065 189.485696 
L 103.820898 144.795723 
L 105.124732 157.873543 
L 106.428565 149.124972 
L 107.732399 130.874545 
L 109.036232 131.765958 
L 110.340066 123.047589 
L 111.643899 127.3117 
L 112.947733 122.353373 
L 114.251566 126.909221 
L 115.5554 130.657165 
L 116.859233 126.850454 
L 118.163067 154.407754 
L 119.4669 122.626553 
L 120.770734 144.444601 
L 122.074567 125.870884 
L 123.378401 118.725495 
L 124.682234 109.996848 
L 125.986068 128.615104 
L 127.289901 142.943223 
L 128.593735 129.038095 
L 129.897568 113.107604 
L 131.201402 151.692012 
L 132.505235 149.590601 
L 133.809069 130.451192 
L 135.112903 144.137822 
L 136.416736 141.54128 
L 137.72057 133.281461 
L 139.024403 139.283578 
L 140.328237 124.480638 
L 142.935904 118.907577 
L 144.239737 121.93619 
L 145.543571 134.973797 
L 146.847404 136.044191 
L 148.151238 144.993632 
L 149.455071 149.863503 
L 150.758905 131.448325 
L 152.062738 172.94757 
L 153.366572 154.903557 
L 154.670405 143.667989 
L 155.974239 160.005244 
L 157.278072 160.156952 
L 158.581906 161.367596 
L 159.885739 147.137461 
L 161.189573 141.772479 
L 162.493406 138.556474 
L 163.79724 122.099309 
L 165.101073 139.068252 
L 166.404907 151.990905 
L 167.70874 150.710199 
L 169.012574 156.095826 
L 170.316407 117.98018 
L 171.620241 128.357415 
L 172.924074 143.692267 
L 174.227908 128.233965 
L 175.531742 119.923402 
L 176.835575 150.138223 
L 178.139409 161.206108 
L 179.443242 170.377384 
L 180.747076 164.925176 
L 182.050909 172.037184 
L 183.354743 171.992935 
L 184.658576 150.98315 
L 185.96241 155.431572 
L 187.266243 169.494408 
L 188.570077 169.754032 
L 189.87391 155.643603 
L 191.177744 140.143831 
L 192.481577 133.611899 
L 193.785411 134.545344 
L 195.089244 167.158417 
L 196.393078 145.432054 
L 197.696911 152.158926 
L 199.000745 136.650112 
L 200.304578 151.953291 
L 201.608412 119.872833 
L 202.912245 149.009968 
L 204.216079 128.699786 
L 205.519912 159.347685 
L 206.823746 133.518842 
L 208.127579 132.650957 
L 209.431413 132.506885 
L 210.735246 137.790809 
L 212.03908 134.706234 
L 213.342913 125.3756 
L 214.646747 132.846031 
L 215.950581 131.049828 
L 217.254414 145.465693 
L 218.558248 128.664768 
L 219.862081 136.09182 
L 221.165915 139.494589 
L 222.469748 134.984718 
L 223.773582 126.211121 
L 225.077415 141.114255 
L 226.381249 130.076968 
L 227.685082 117.034174 
L 228.988916 127.662587 
L 230.292749 128.620854 
L 231.596583 134.2336 
L 232.900416 127.341953 
L 234.20425 125.747938 
L 235.508083 126.132187 
L 236.811917 151.33083 
L 238.11575 143.232806 
L 239.419584 153.785619 
L 240.723417 154.138784 
L 242.027251 136.746608 
L 243.331084 144.103803 
L 244.634918 160.902026 
L 245.938751 149.477652 
L 247.242585 168.443202 
L 248.546418 144.458757 
L 249.850252 156.824742 
L 251.154085 153.856424 
L 252.457919 141.744252 
L 253.761752 148.195923 
L 255.065586 136.045068 
L 256.369419 128.007263 
L 257.673253 130.790956 
L 258.977087 136.557876 
L 260.28092 128.194633 
L 261.584754 126.617376 
L 262.888587 129.538175 
L 264.192421 137.422507 
L 265.496254 138.906169 
L 266.800088 136.888336 
L 268.103921 148.189575 
L 269.407755 145.271764 
L 270.711588 144.829636 
L 272.015422 151.335996 
L 273.319255 153.193864 
L 274.623089 144.509266 
L 275.926922 124.696356 
L 277.230756 119.99422 
L 278.534589 117.424744 
L 279.838423 110.000238 
L 281.142256 127.536624 
L 282.44609 134.028234 
L 283.749923 137.609656 
L 285.053757 129.278809 
L 286.35759 143.551621 
L 287.661424 108.079952 
L 288.965257 128.70047 
L 290.269091 143.791466 
L 291.572924 156.847002 
L 292.876758 148.719672 
L 294.180591 156.695288 
L 295.484425 162.667609 
L 296.788258 180.257185 
L 298.092092 163.867588 
L 299.395926 141.510173 
L 300.699759 142.520287 
L 302.003593 141.636951 
L 303.307426 141.439196 
L 304.61126 120.46699 
L 305.915093 145.588388 
L 307.218927 141.65098 
L 308.52276 140.698583 
L 309.826594 142.113307 
L 311.130427 141.178787 
L 312.434261 145.620672 
L 313.738094 142.095067 
L 315.041928 146.464182 
L 316.345761 133.874325 
L 317.649595 143.811153 
L 318.953428 161.11991 
L 320.257262 140.295304 
L 321.561095 134.314937 
L 322.864929 132.575504 
L 324.168762 145.482046 
L 325.472596 113.990682 
L 326.776429 132.81166 
L 328.080263 112.223191 
L 330.68793 122.684193 
L 331.991763 137.694563 
L 333.295597 117.218226 
L 334.59943 137.516038 
L 335.903264 138.86107 
L 337.207097 137.964793 
L 338.510931 119.190118 
L 339.814765 122.801985 
L 341.118598 114.137272 
L 342.422432 131.808925 
L 343.726265 142.21343 
L 345.030099 134.849445 
L 346.333932 106.011064 
L 347.637766 121.724144 
L 348.941599 131.801366 
L 350.245433 124.397186 
L 351.549266 130.936326 
L 352.8531 148.24916 
L 354.156933 125.76865 
L 355.460767 137.027382 
L 356.7646 115.953093 
L 358.068434 128.359292 
L 359.372267 121.513612 
L 360.676101 127.945085 
L 361.979934 138.091306 
L 363.283768 139.315067 
L 364.587601 120.48462 
L 365.891435 136.633377 
L 367.195268 134.163988 
L 368.499102 110.168125 
L 369.802935 125.588827 
L 371.106769 128.236278 
L 372.410602 113.285404 
L 373.714436 123.562242 
L 375.018269 96.630407 
L 377.625936 105.563619 
L 378.92977 113.945001 
L 380.233604 123.412195 
L 381.537437 131.102599 
L 382.841271 123.366488 
L 384.145104 107.264011 
L 386.752771 118.202258 
L 388.056605 119.953868 
L 389.360438 146.64124 
L 390.664272 149.003424 
L 391.968105 125.538907 
L 393.271939 126.373872 
L 394.575772 115.965281 
L 395.879606 106.586188 
L 397.183439 125.625134 
L 398.487273 132.296902 
L 398.487273 132.296902 
" style="fill:none;stroke:#008000;stroke-dasharray:9.6,2.4,1.5,2.4;stroke-dashoffset:0;stroke-width:1.5;"/>
   </g>
   <g id="line2d_26">
    <path clip-path="url(#p9d55c8b7e6)" d="M 73.832727 250.274684 
L 75.136561 261.603341 
L 76.440394 251.304562 
L 77.744228 245.125294 
L 79.048061 246.155172 
L 80.351895 259.543585 
L 81.655728 160.675304 
L 82.959562 159.645426 
L 84.263395 159.645426 
L 85.567229 145.227135 
L 86.871062 118.450309 
L 88.174896 118.450309 
L 89.478729 109.181408 
L 90.782563 112.271042 
L 92.086396 127.719211 
L 93.39023 126.689333 
L 94.694064 113.30092 
L 95.997897 115.360676 
L 97.301731 125.659455 
L 98.605564 117.420431 
L 99.909398 111.241164 
L 101.213231 109.181408 
L 102.517065 118.450309 
L 103.820898 117.420431 
L 105.124732 118.450309 
L 106.428565 95.792995 
L 107.732399 85.494216 
L 109.036232 86.524094 
L 110.340066 80.344826 
L 111.643899 87.553972 
L 112.947733 69.016169 
L 114.251566 77.255192 
L 115.5554 80.344826 
L 116.859233 86.524094 
L 118.163067 86.524094 
L 119.4669 69.016169 
L 120.770734 89.613727 
L 122.074567 88.583849 
L 123.378401 82.404582 
L 124.682234 67.986291 
L 125.986068 62.836901 
L 127.289901 69.016169 
L 128.593735 90.643605 
L 129.897568 88.583849 
L 131.201402 95.792995 
L 132.505235 97.852751 
L 133.809069 88.583849 
L 135.112903 88.583849 
L 136.416736 74.165559 
L 137.72057 84.464338 
L 139.024403 70.046047 
L 140.328237 78.28507 
L 141.63207 66.956413 
L 142.935904 59.747268 
L 144.239737 70.046047 
L 145.543571 90.643605 
L 146.847404 96.822873 
L 148.151238 83.43446 
L 149.455071 98.882629 
L 150.758905 98.882629 
L 152.062738 103.00214 
L 153.366572 110.211286 
L 154.670405 96.822873 
L 155.974239 77.255192 
L 157.278072 97.852751 
L 158.581906 91.673483 
L 159.885739 90.643605 
L 161.189573 80.344826 
L 162.493406 78.28507 
L 163.79724 84.464338 
L 165.101073 77.255192 
L 166.404907 99.912507 
L 167.70874 89.613727 
L 169.012574 103.00214 
L 170.316407 86.524094 
L 171.620241 67.986291 
L 172.924074 67.986291 
L 174.227908 70.046047 
L 175.531742 89.613727 
L 176.835575 77.255192 
L 178.139409 103.00214 
L 179.443242 98.882629 
L 180.747076 104.032018 
L 182.050909 103.00214 
L 183.354743 103.00214 
L 184.658576 95.792995 
L 185.96241 97.852751 
L 187.266243 83.43446 
L 188.570077 91.673483 
L 189.87391 92.703361 
L 191.177744 92.703361 
L 192.481577 89.613727 
L 193.785411 90.643605 
L 195.089244 89.613727 
L 196.393078 69.016169 
L 197.696911 81.374704 
L 199.000745 97.852751 
L 200.304578 83.43446 
L 201.608412 81.374704 
L 202.912245 92.703361 
L 204.216079 73.135681 
L 205.519912 67.986291 
L 206.823746 92.703361 
L 208.127579 66.956413 
L 209.431413 91.673483 
L 210.735246 87.553972 
L 212.03908 69.016169 
L 213.342913 88.583849 
L 214.646747 70.046047 
L 215.950581 92.703361 
L 217.254414 86.524094 
L 218.558248 82.404582 
L 219.862081 77.255192 
L 221.165915 99.912507 
L 222.469748 93.733239 
L 223.773582 96.822873 
L 225.077415 89.613727 
L 226.381249 90.643605 
L 227.685082 84.464338 
L 228.988916 75.195436 
L 230.292749 80.344826 
L 231.596583 67.986291 
L 232.900416 87.553972 
L 234.20425 96.822873 
L 235.508083 96.822873 
L 236.811917 99.912507 
L 238.11575 98.882629 
L 239.419584 85.494216 
L 240.723417 94.763117 
L 242.027251 95.792995 
L 243.331084 93.733239 
L 244.634918 98.882629 
L 245.938751 103.00214 
L 247.242585 101.972263 
L 248.546418 101.972263 
L 249.850252 98.882629 
L 251.154085 90.643605 
L 252.457919 103.00214 
L 253.761752 99.912507 
L 255.065586 103.00214 
L 256.369419 103.00214 
L 258.977087 90.643605 
L 260.28092 87.553972 
L 261.584754 96.822873 
L 262.888587 95.792995 
L 265.496254 99.912507 
L 266.800088 99.912507 
L 268.103921 103.00214 
L 269.407755 93.733239 
L 270.711588 110.211286 
L 272.015422 111.241164 
L 273.319255 103.00214 
L 274.623089 103.00214 
L 275.926922 97.852751 
L 277.230756 99.912507 
L 278.534589 96.822873 
L 279.838423 95.792995 
L 281.142256 79.314948 
L 282.44609 92.703361 
L 283.749923 90.643605 
L 285.053757 80.344826 
L 286.35759 72.105803 
L 287.661424 73.135681 
L 288.965257 70.046047 
L 290.269091 86.524094 
L 291.572924 77.255192 
L 292.876758 86.524094 
L 294.180591 72.105803 
L 295.484425 69.016169 
L 296.788258 103.00214 
L 298.092092 81.374704 
L 299.395926 71.075925 
L 300.699759 79.314948 
L 302.003593 103.00214 
L 303.307426 75.195436 
L 304.61126 70.046047 
L 305.915093 80.344826 
L 307.218927 81.374704 
L 308.52276 67.986291 
L 309.826594 74.165559 
L 311.130427 70.046047 
L 312.434261 83.43446 
L 313.738094 75.195436 
L 315.041928 95.792995 
L 316.345761 92.703361 
L 317.649595 73.135681 
L 318.953428 88.583849 
L 320.257262 67.986291 
L 321.561095 90.643605 
L 322.864929 103.00214 
L 324.168762 90.643605 
L 325.472596 75.195436 
L 326.776429 88.583849 
L 328.080263 67.986291 
L 329.384096 77.255192 
L 330.68793 69.016169 
L 331.991763 83.43446 
L 333.295597 69.016169 
L 335.903264 69.016169 
L 337.207097 75.195436 
L 338.510931 78.28507 
L 339.814765 66.956413 
L 341.118598 70.046047 
L 342.422432 62.836901 
L 343.726265 69.016169 
L 345.030099 70.046047 
L 346.333932 65.926535 
L 347.637766 88.583849 
L 348.941599 53.568 
L 350.245433 67.986291 
L 351.549266 58.71739 
L 352.8531 58.71739 
L 354.156933 75.195436 
L 355.460767 69.016169 
L 356.7646 69.016169 
L 358.068434 65.926535 
L 359.372267 73.135681 
L 360.676101 95.792995 
L 361.979934 61.807023 
L 363.283768 90.643605 
L 364.587601 90.643605 
L 365.891435 95.792995 
L 367.195268 76.225314 
L 368.499102 75.195436 
L 369.802935 90.643605 
L 371.106769 77.255192 
L 372.410602 70.046047 
L 373.714436 66.956413 
L 375.018269 75.195436 
L 376.322103 75.195436 
L 377.625936 85.494216 
L 378.92977 77.255192 
L 380.233604 92.703361 
L 381.537437 86.524094 
L 382.841271 66.956413 
L 384.145104 62.836901 
L 385.448938 62.836901 
L 386.752771 69.016169 
L 388.056605 86.524094 
L 389.360438 93.733239 
L 390.664272 92.703361 
L 391.968105 86.524094 
L 393.271939 91.673483 
L 394.575772 83.43446 
L 395.879606 69.016169 
L 397.183439 84.464338 
L 398.487273 77.255192 
L 398.487273 77.255192 
" style="fill:none;stroke:#ff0000;stroke-linecap:square;stroke-width:1.5;"/>
   </g>
   <g id="patch_3">
    <path d="M 57.6 307.584 
L 57.6 41.472 
" style="fill:none;stroke:#000000;stroke-linecap:square;stroke-linejoin:miter;stroke-width:0.8;"/>
   </g>
   <g id="patch_4">
    <path d="M 414.72 307.584 
L 414.72 41.472 
" style="fill:none;stroke:#000000;stroke-linecap:square;stroke-linejoin:miter;stroke-width:0.8;"/>
   </g>
   <g id="patch_5">
    <path d="M 57.6 307.584 
L 414.72 307.584 
" style="fill:none;stroke:#000000;stroke-linecap:square;stroke-linejoin:miter;stroke-width:0.8;"/>
   </g>
   <g id="patch_6">
    <path d="M 57.6 41.472 
L 414.72 41.472 
" style="fill:none;stroke:#000000;stroke-linecap:square;stroke-linejoin:miter;stroke-width:0.8;"/>
   </g>
   <g id="text_14">
    <!-- Population's average and best fitness -->
    <defs>
     <path d="M 19.671875 64.796875 
L 19.671875 37.40625 
L 32.078125 37.40625 
Q 38.96875 37.40625 42.71875 40.96875 
Q 46.484375 44.53125 46.484375 51.125 
Q 46.484375 57.671875 42.71875 61.234375 
Q 38.96875 64.796875 32.078125 64.796875 
z
M 9.8125 72.90625 
L 32.078125 72.90625 
Q 44.34375 72.90625 50.609375 67.359375 
Q 56.890625 61.8125 56.890625 51.125 
Q 56.890625 40.328125 50.609375 34.8125 
Q 44.34375 29.296875 32.078125 29.296875 
L 19.671875 29.296875 
L 19.671875 0 
L 9.8125 0 
z
" id="DejaVuSans-50"/>
     <path d="M 18.109375 8.203125 
L 18.109375 -20.796875 
L 9.078125 -20.796875 
L 9.078125 54.6875 
L 18.109375 54.6875 
L 18.109375 46.390625 
Q 20.953125 51.265625 25.265625 53.625 
Q 29.59375 56 35.59375 56 
Q 45.5625 56 51.78125 48.09375 
Q 58.015625 40.1875 58.015625 27.296875 
Q 58.015625 14.40625 51.78125 6.484375 
Q 45.5625 -1.421875 35.59375 -1.421875 
Q 29.59375 -1.421875 25.265625 0.953125 
Q 20.953125 3.328125 18.109375 8.203125 
z
M 48.6875 27.296875 
Q 48.6875 37.203125 44.609375 42.84375 
Q 40.53125 48.484375 33.40625 48.484375 
Q 26.265625 48.484375 22.1875 42.84375 
Q 18.109375 37.203125 18.109375 27.296875 
Q 18.109375 17.390625 22.1875 11.75 
Q 26.265625 6.109375 33.40625 6.109375 
Q 40.53125 6.109375 44.609375 11.75 
Q 48.6875 17.390625 48.6875 27.296875 
z
" id="DejaVuSans-70"/>
     <path d="M 8.5 21.578125 
L 8.5 54.6875 
L 17.484375 54.6875 
L 17.484375 21.921875 
Q 17.484375 14.15625 20.5 10.265625 
Q 23.53125 6.390625 29.59375 6.390625 
Q 36.859375 6.390625 41.078125 11.03125 
Q 45.3125 15.671875 45.3125 23.6875 
L 45.3125 54.6875 
L 54.296875 54.6875 
L 54.296875 0 
L 45.3125 0 
L 45.3125 8.40625 
Q 42.046875 3.421875 37.71875 1 
Q 33.40625 -1.421875 27.6875 -1.421875 
Q 18.265625 -1.421875 13.375 4.4375 
Q 8.5 10.296875 8.5 21.578125 
z
M 31.109375 56 
z
" id="DejaVuSans-75"/>
     <path d="M 9.421875 75.984375 
L 18.40625 75.984375 
L 18.40625 0 
L 9.421875 0 
z
" id="DejaVuSans-6c"/>
     <path d="M 17.921875 72.90625 
L 17.921875 45.796875 
L 9.625 45.796875 
L 9.625 72.90625 
z
" id="DejaVuSans-27"/>
     <path id="DejaVuSans-20"/>
     <path d="M 2.984375 54.6875 
L 12.5 54.6875 
L 29.59375 8.796875 
L 46.6875 54.6875 
L 56.203125 54.6875 
L 35.6875 0 
L 23.484375 0 
z
" id="DejaVuSans-76"/>
     <path d="M 45.40625 27.984375 
Q 45.40625 37.75 41.375 43.109375 
Q 37.359375 48.484375 30.078125 48.484375 
Q 22.859375 48.484375 18.828125 43.109375 
Q 14.796875 37.75 14.796875 27.984375 
Q 14.796875 18.265625 18.828125 12.890625 
Q 22.859375 7.515625 30.078125 7.515625 
Q 37.359375 7.515625 41.375 12.890625 
Q 45.40625 18.265625 45.40625 27.984375 
z
M 54.390625 6.78125 
Q 54.390625 -7.171875 48.1875 -13.984375 
Q 42 -20.796875 29.203125 -20.796875 
Q 24.46875 -20.796875 20.265625 -20.09375 
Q 16.0625 -19.390625 12.109375 -17.921875 
L 12.109375 -9.1875 
Q 16.0625 -11.328125 19.921875 -12.34375 
Q 23.78125 -13.375 27.78125 -13.375 
Q 36.625 -13.375 41.015625 -8.765625 
Q 45.40625 -4.15625 45.40625 5.171875 
L 45.40625 9.625 
Q 42.625 4.78125 38.28125 2.390625 
Q 33.9375 0 27.875 0 
Q 17.828125 0 11.671875 7.65625 
Q 5.515625 15.328125 5.515625 27.984375 
Q 5.515625 40.671875 11.671875 48.328125 
Q 17.828125 56 27.875 56 
Q 33.9375 56 38.28125 53.609375 
Q 42.625 51.21875 45.40625 46.390625 
L 45.40625 54.6875 
L 54.390625 54.6875 
z
" id="DejaVuSans-67"/>
     <path d="M 45.40625 46.390625 
L 45.40625 75.984375 
L 54.390625 75.984375 
L 54.390625 0 
L 45.40625 0 
L 45.40625 8.203125 
Q 42.578125 3.328125 38.25 0.953125 
Q 33.9375 -1.421875 27.875 -1.421875 
Q 17.96875 -1.421875 11.734375 6.484375 
Q 5.515625 14.40625 5.515625 27.296875 
Q 5.515625 40.1875 11.734375 48.09375 
Q 17.96875 56 27.875 56 
Q 33.9375 56 38.25 53.625 
Q 42.578125 51.265625 45.40625 46.390625 
z
M 14.796875 27.296875 
Q 14.796875 17.390625 18.875 11.75 
Q 22.953125 6.109375 30.078125 6.109375 
Q 37.203125 6.109375 41.296875 11.75 
Q 45.40625 17.390625 45.40625 27.296875 
Q 45.40625 37.203125 41.296875 42.84375 
Q 37.203125 48.484375 30.078125 48.484375 
Q 22.953125 48.484375 18.875 42.84375 
Q 14.796875 37.203125 14.796875 27.296875 
z
" id="DejaVuSans-64"/>
     <path d="M 48.6875 27.296875 
Q 48.6875 37.203125 44.609375 42.84375 
Q 40.53125 48.484375 33.40625 48.484375 
Q 26.265625 48.484375 22.1875 42.84375 
Q 18.109375 37.203125 18.109375 27.296875 
Q 18.109375 17.390625 22.1875 11.75 
Q 26.265625 6.109375 33.40625 6.109375 
Q 40.53125 6.109375 44.609375 11.75 
Q 48.6875 17.390625 48.6875 27.296875 
z
M 18.109375 46.390625 
Q 20.953125 51.265625 25.265625 53.625 
Q 29.59375 56 35.59375 56 
Q 45.5625 56 51.78125 48.09375 
Q 58.015625 40.1875 58.015625 27.296875 
Q 58.015625 14.40625 51.78125 6.484375 
Q 45.5625 -1.421875 35.59375 -1.421875 
Q 29.59375 -1.421875 25.265625 0.953125 
Q 20.953125 3.328125 18.109375 8.203125 
L 18.109375 0 
L 9.078125 0 
L 9.078125 75.984375 
L 18.109375 75.984375 
z
" id="DejaVuSans-62"/>
     <path d="M 37.109375 75.984375 
L 37.109375 68.5 
L 28.515625 68.5 
Q 23.6875 68.5 21.796875 66.546875 
Q 19.921875 64.59375 19.921875 59.515625 
L 19.921875 54.6875 
L 34.71875 54.6875 
L 34.71875 47.703125 
L 19.921875 47.703125 
L 19.921875 0 
L 10.890625 0 
L 10.890625 47.703125 
L 2.296875 47.703125 
L 2.296875 54.6875 
L 10.890625 54.6875 
L 10.890625 58.5 
Q 10.890625 67.625 15.140625 71.796875 
Q 19.390625 75.984375 28.609375 75.984375 
z
" id="DejaVuSans-66"/>
    </defs>
    <g transform="translate(123.315 35.472)scale(0.12 -0.12)">
     <use xlink:href="#DejaVuSans-50"/>
     <use x="60.255859" xlink:href="#DejaVuSans-6f"/>
     <use x="121.4375" xlink:href="#DejaVuSans-70"/>
     <use x="184.914062" xlink:href="#DejaVuSans-75"/>
     <use x="248.292969" xlink:href="#DejaVuSans-6c"/>
     <use x="276.076172" xlink:href="#DejaVuSans-61"/>
     <use x="337.355469" xlink:href="#DejaVuSans-74"/>
     <use x="376.564453" xlink:href="#DejaVuSans-69"/>
     <use x="404.347656" xlink:href="#DejaVuSans-6f"/>
     <use x="465.529297" xlink:href="#DejaVuSans-6e"/>
     <use x="528.908203" xlink:href="#DejaVuSans-27"/>
     <use x="556.398438" xlink:href="#DejaVuSans-73"/>
     <use x="608.498047" xlink:href="#DejaVuSans-20"/>
     <use x="640.285156" xlink:href="#DejaVuSans-61"/>
     <use x="701.564453" xlink:href="#DejaVuSans-76"/>
     <use x="760.744141" xlink:href="#DejaVuSans-65"/>
     <use x="822.267578" xlink:href="#DejaVuSans-72"/>
     <use x="863.380859" xlink:href="#DejaVuSans-61"/>
     <use x="924.660156" xlink:href="#DejaVuSans-67"/>
     <use x="988.136719" xlink:href="#DejaVuSans-65"/>
     <use x="1049.660156" xlink:href="#DejaVuSans-20"/>
     <use x="1081.447266" xlink:href="#DejaVuSans-61"/>
     <use x="1142.726562" xlink:href="#DejaVuSans-6e"/>
     <use x="1206.105469" xlink:href="#DejaVuSans-64"/>
     <use x="1269.582031" xlink:href="#DejaVuSans-20"/>
     <use x="1301.369141" xlink:href="#DejaVuSans-62"/>
     <use x="1364.845703" xlink:href="#DejaVuSans-65"/>
     <use x="1426.369141" xlink:href="#DejaVuSans-73"/>
     <use x="1478.46875" xlink:href="#DejaVuSans-74"/>
     <use x="1517.677734" xlink:href="#DejaVuSans-20"/>
     <use x="1549.464844" xlink:href="#DejaVuSans-66"/>
     <use x="1584.669922" xlink:href="#DejaVuSans-69"/>
     <use x="1612.453125" xlink:href="#DejaVuSans-74"/>
     <use x="1651.662109" xlink:href="#DejaVuSans-6e"/>
     <use x="1715.041016" xlink:href="#DejaVuSans-65"/>
     <use x="1776.564453" xlink:href="#DejaVuSans-73"/>
     <use x="1828.664062" xlink:href="#DejaVuSans-73"/>
    </g>
   </g>
   <g id="legend_1">
    <g id="patch_7">
     <path d="M 64.6 108.1845 
L 137.540625 108.1845 
Q 139.540625 108.1845 139.540625 106.1845 
L 139.540625 48.472 
Q 139.540625 46.472 137.540625 46.472 
L 64.6 46.472 
Q 62.6 46.472 62.6 48.472 
L 62.6 106.1845 
Q 62.6 108.1845 64.6 108.1845 
z
" style="fill:#ffffff;opacity:0.8;stroke:#cccccc;stroke-linejoin:miter;"/>
    </g>
    <g id="line2d_27">
     <path d="M 66.6 54.570438 
L 86.6 54.570438 
" style="fill:none;stroke:#0000ff;stroke-linecap:square;stroke-width:1.5;"/>
    </g>
    <g id="line2d_28"/>
    <g id="text_15">
     <!-- average -->
     <g transform="translate(94.6 58.070438)scale(0.1 -0.1)">
      <use xlink:href="#DejaVuSans-61"/>
      <use x="61.279297" xlink:href="#DejaVuSans-76"/>
      <use x="120.458984" xlink:href="#DejaVuSans-65"/>
      <use x="181.982422" xlink:href="#DejaVuSans-72"/>
      <use x="223.095703" xlink:href="#DejaVuSans-61"/>
      <use x="284.375" xlink:href="#DejaVuSans-67"/>
      <use x="347.851562" xlink:href="#DejaVuSans-65"/>
     </g>
    </g>
    <g id="line2d_29">
     <path d="M 66.6 69.248563 
L 86.6 69.248563 
" style="fill:none;stroke:#008000;stroke-dasharray:9.6,2.4,1.5,2.4;stroke-dashoffset:0;stroke-width:1.5;"/>
    </g>
    <g id="line2d_30"/>
    <g id="text_16">
     <!-- -1 sd -->
     <defs>
      <path d="M 4.890625 31.390625 
L 31.203125 31.390625 
L 31.203125 23.390625 
L 4.890625 23.390625 
z
" id="DejaVuSans-2d"/>
     </defs>
     <g transform="translate(94.6 72.748563)scale(0.1 -0.1)">
      <use xlink:href="#DejaVuSans-2d"/>
      <use x="36.083984" xlink:href="#DejaVuSans-31"/>
      <use x="99.707031" xlink:href="#DejaVuSans-20"/>
      <use x="131.494141" xlink:href="#DejaVuSans-73"/>
      <use x="183.59375" xlink:href="#DejaVuSans-64"/>
     </g>
    </g>
    <g id="line2d_31">
     <path d="M 66.6 83.926688 
L 86.6 83.926688 
" style="fill:none;stroke:#008000;stroke-dasharray:9.6,2.4,1.5,2.4;stroke-dashoffset:0;stroke-width:1.5;"/>
    </g>
    <g id="line2d_32"/>
    <g id="text_17">
     <!-- +1 sd -->
     <defs>
      <path d="M 46 62.703125 
L 46 35.5 
L 73.1875 35.5 
L 73.1875 27.203125 
L 46 27.203125 
L 46 0 
L 37.796875 0 
L 37.796875 27.203125 
L 10.59375 27.203125 
L 10.59375 35.5 
L 37.796875 35.5 
L 37.796875 62.703125 
z
" id="DejaVuSans-2b"/>
     </defs>
     <g transform="translate(94.6 87.426688)scale(0.1 -0.1)">
      <use xlink:href="#DejaVuSans-2b"/>
      <use x="83.789062" xlink:href="#DejaVuSans-31"/>
      <use x="147.412109" xlink:href="#DejaVuSans-20"/>
      <use x="179.199219" xlink:href="#DejaVuSans-73"/>
      <use x="231.298828" xlink:href="#DejaVuSans-64"/>
     </g>
    </g>
    <g id="line2d_33">
     <path d="M 66.6 98.604813 
L 86.6 98.604813 
" style="fill:none;stroke:#ff0000;stroke-linecap:square;stroke-width:1.5;"/>
    </g>
    <g id="line2d_34"/>
    <g id="text_18">
     <!-- best -->
     <g transform="translate(94.6 102.104813)scale(0.1 -0.1)">
      <use xlink:href="#DejaVuSans-62"/>
      <use x="63.476562" xlink:href="#DejaVuSans-65"/>
      <use x="125" xlink:href="#DejaVuSans-73"/>
      <use x="177.099609" xlink:href="#DejaVuSans-74"/>
     </g>
    </g>
   </g>
  </g>
 </g>
 <defs>
  <clipPath id="p9d55c8b7e6">
   <rect height="266.112" width="357.12" x="57.6" y="41.472"/>
  </clipPath>
 </defs>
</svg>
