<?xml version="1.0" encoding="UTF-8" standalone="no"?>
<!DOCTYPE svg PUBLIC "-//W3C//DTD SVG 1.1//EN"
 "http://www.w3.org/Graphics/SVG/1.1/DTD/svg11.dtd">
<!-- Generated by graphviz version 2.38.0 (20140413.2041)
 -->
<!-- Title: %3 Pages: 1 -->
<svg width="1292pt" height="1507pt"
 viewBox="0.00 0.00 1292.00 1506.71" xmlns="http://www.w3.org/2000/svg" xmlns:xlink="http://www.w3.org/1999/xlink">
<g id="graph0" class="graph" transform="scale(1 1) rotate(0) translate(4 1502.71)">
<title>%3</title>
<polygon fill="white" stroke="none" points="-4,4 -4,-1502.71 1288,-1502.71 1288,4 -4,4"/>
<!-- direc_dist -->
<g id="node1" class="node"><title>direc_dist</title>
<polygon fill="lightgray" stroke="black" points="1166,-1226.47 1114,-1226.47 1114,-1208.47 1166,-1208.47 1166,-1226.47"/>
<text text-anchor="middle" x="1140" y="-1215.27" font-family="Times New Roman,serif" font-size="9.00">direc_dist</text>
</g>
<!-- 1465 -->
<g id="node22" class="node"><title>1465</title>
<ellipse fill="white" stroke="black" cx="779" cy="-616.16" rx="25" ry="25"/>
<text text-anchor="middle" x="779" y="-613.96" font-family="Times New Roman,serif" font-size="9.00">1465</text>
</g>
<!-- direc_dist&#45;&gt;1465 -->
<g id="edge19" class="edge"><title>direc_dist&#45;&gt;1465</title>
<path fill="none" stroke="red" stroke-width="0.401504" d="M1137.43,-1208.34C1120.57,-1155.9 1021.32,-861.799 860,-676.909 841.76,-656.003 831.219,-657.525 809,-640.909 807.983,-640.148 806.95,-639.368 805.91,-638.577"/>
<polygon fill="red" stroke="red" stroke-width="0.401504" points="807.972,-635.747 797.922,-632.395 803.688,-641.283 807.972,-635.747"/>
</g>
<!-- 2800 -->
<g id="node37" class="node"><title>2800</title>
<ellipse fill="white" stroke="black" cx="1193" cy="-1131.97" rx="25" ry="25"/>
<text text-anchor="middle" x="1193" y="-1129.77" font-family="Times New Roman,serif" font-size="9.00">2800</text>
</g>
<!-- direc_dist&#45;&gt;2800 -->
<g id="edge58" class="edge"><title>direc_dist&#45;&gt;2800</title>
<path fill="none" stroke="red" stroke-width="0.184736" d="M1145.08,-1208.46C1151.81,-1197.86 1164.06,-1178.57 1174.48,-1162.15"/>
<polygon fill="red" stroke="red" stroke-width="0.184736" points="1177.64,-1163.71 1180.04,-1153.39 1171.73,-1159.96 1177.64,-1163.71"/>
</g>
<!-- 502 -->
<g id="node38" class="node"><title>502</title>
<ellipse fill="white" stroke="black" cx="1102" cy="-195.744" rx="21.4286" ry="21.4286"/>
<text text-anchor="middle" x="1102" y="-193.544" font-family="Times New Roman,serif" font-size="9.00">502</text>
</g>
<!-- direc_dist&#45;&gt;502 -->
<g id="edge18" class="edge"><title>direc_dist&#45;&gt;502</title>
<path fill="none" stroke="green" stroke-width="0.411755" stroke-dasharray="1,5" d="M1140,-1208.38C1140,-1184.04 1140,-1109.38 1140,-1047.48 1140,-1047.48 1140,-1047.48 1140,-362.203 1140,-313.268 1124.02,-258.21 1112.78,-225.556"/>
<polygon fill="green" stroke="green" stroke-width="0.411755" points="1115.96,-224.04 1109.33,-215.777 1109.36,-226.371 1115.96,-224.04"/>
</g>
<!-- vx -->
<g id="node2" class="node"><title>vx</title>
<polygon fill="lightgray" stroke="black" points="495.5,-1055.48 470.5,-1055.48 470.5,-1037.48 495.5,-1037.48 495.5,-1055.48"/>
<text text-anchor="middle" x="483" y="-1044.28" font-family="Times New Roman,serif" font-size="9.00">vx</text>
</g>
<!-- up -->
<g id="node6" class="node"><title>up</title>
<ellipse fill="lightblue" stroke="black" cx="261" cy="-24.7487" rx="18.2703" ry="18.2703"/>
<text text-anchor="middle" x="261" y="-22.5487" font-family="Times New Roman,serif" font-size="9.00">up</text>
</g>
<!-- vx&#45;&gt;up -->
<g id="edge2" class="edge"><title>vx&#45;&gt;up</title>
<path fill="none" stroke="green" stroke-width="0.383897" d="M470.222,-1044.9C436.968,-1042.74 346.603,-1032.64 293,-985.727 261.431,-958.098 265.456,-940.29 253,-900.23 229.745,-825.439 230.467,-804.461 224,-726.406 212.868,-592.035 248.658,-166.104 258.542,-53.355"/>
<polygon fill="green" stroke="green" stroke-width="0.383897" points="262.049,-53.4242 259.441,-43.1556 255.076,-52.8098 262.049,-53.4242"/>
</g>
<!-- down -->
<g id="node7" class="node"><title>down</title>
<ellipse fill="lightblue" stroke="black" cx="464" cy="-788.569" rx="26.3269" ry="26.3269"/>
<text text-anchor="middle" x="464" y="-786.369" font-family="Times New Roman,serif" font-size="9.00">down</text>
</g>
<!-- vx&#45;&gt;down -->
<g id="edge8" class="edge"><title>vx&#45;&gt;down</title>
<path fill="none" stroke="green" stroke-width="0.463799" stroke-dasharray="1,5" d="M482.389,-1037.25C479.993,-1004.97 471.14,-885.738 466.65,-825.255"/>
<polygon fill="green" stroke="green" stroke-width="0.463799" points="470.121,-824.741 465.89,-815.027 463.14,-825.259 470.121,-824.741"/>
</g>
<!-- left -->
<g id="node8" class="node"><title>left</title>
<ellipse fill="lightblue" stroke="black" cx="448" cy="-363.203" rx="20.5122" ry="20.5122"/>
<text text-anchor="middle" x="448" y="-361.003" font-family="Times New Roman,serif" font-size="9.00">left</text>
</g>
<!-- vx&#45;&gt;left -->
<g id="edge5" class="edge"><title>vx&#45;&gt;left</title>
<path fill="none" stroke="green" stroke-width="0.571567" d="M483.966,-1037.43C487.955,-1005.02 503.788,-884.199 522,-850.732 532.967,-830.579 550.075,-835.869 559,-814.732 582.828,-758.302 574.459,-736.181 559,-676.909 551.192,-646.97 502.065,-584.305 491,-555.411 469.867,-500.228 457.618,-431.917 451.924,-393.688"/>
<polygon fill="green" stroke="green" stroke-width="0.571567" points="455.381,-393.137 450.49,-383.739 448.453,-394.136 455.381,-393.137"/>
</g>
<!-- 1691 -->
<g id="node13" class="node"><title>1691</title>
<ellipse fill="white" stroke="black" cx="1011" cy="-445.165" rx="25" ry="25"/>
<text text-anchor="middle" x="1011" y="-442.965" font-family="Times New Roman,serif" font-size="9.00">1691</text>
</g>
<!-- vx&#45;&gt;1691 -->
<g id="edge39" class="edge"><title>vx&#45;&gt;1691</title>
<path fill="none" stroke="red" stroke-width="0.275375" d="M495.623,-1044.39C577.152,-1037.04 1026,-991.379 1026,-876.481 1026,-876.481 1026,-876.481 1026,-615.16 1026,-568.249 1020.19,-514.3 1015.81,-480.225"/>
<polygon fill="red" stroke="red" stroke-width="0.275375" points="1019.22,-479.35 1014.44,-469.895 1012.28,-480.267 1019.22,-479.35"/>
</g>
<!-- 1595 -->
<g id="node23" class="node"><title>1595</title>
<ellipse fill="white" stroke="black" cx="114" cy="-195.744" rx="25" ry="25"/>
<text text-anchor="middle" x="114" y="-193.544" font-family="Times New Roman,serif" font-size="9.00">1595</text>
</g>
<!-- vx&#45;&gt;1595 -->
<g id="edge23" class="edge"><title>vx&#45;&gt;1595</title>
<path fill="none" stroke="green" stroke-width="0.230254" d="M470.159,-1045.04C413.715,-1042.88 188.225,-1031.46 138,-985.727 12.5076,-871.447 38,-786.89 38,-617.16 38,-617.16 38,-617.16 38,-362.203 38,-309.615 70.0943,-255.502 92.5705,-224.054"/>
<polygon fill="green" stroke="green" stroke-width="0.230254" points="95.5286,-225.939 98.6203,-215.805 89.8839,-221.799 95.5286,-225.939"/>
</g>
<!-- 1987 -->
<g id="node27" class="node"><title>1987</title>
<ellipse fill="white" stroke="black" cx="719" cy="-960.978" rx="25" ry="25"/>
<text text-anchor="middle" x="719" y="-958.778" font-family="Times New Roman,serif" font-size="9.00">1987</text>
</g>
<!-- vx&#45;&gt;1987 -->
<g id="edge38" class="edge"><title>vx&#45;&gt;1987</title>
<path fill="none" stroke="green" stroke-width="0.476092" d="M495.688,-1040.99C531.306,-1028.38 633.063,-992.383 686.04,-973.64"/>
<polygon fill="green" stroke="green" stroke-width="0.476092" points="687.384,-976.877 695.644,-970.242 685.05,-970.278 687.384,-976.877"/>
</g>
<!-- 1860 -->
<g id="node28" class="node"><title>1860</title>
<ellipse fill="white" stroke="black" cx="293" cy="-701.657" rx="25" ry="25"/>
<text text-anchor="middle" x="293" y="-699.457" font-family="Times New Roman,serif" font-size="9.00">1860</text>
</g>
<!-- vx&#45;&gt;1860 -->
<g id="edge34" class="edge"><title>vx&#45;&gt;1860</title>
<path fill="none" stroke="red" stroke-width="0.279756" stroke-dasharray="1,5" d="M470.489,-1041.6C431.866,-1028.89 314.439,-984.321 270,-900.23 241.828,-846.921 262.785,-774.422 278.959,-733.709"/>
<polygon fill="red" stroke="red" stroke-width="0.279756" points="282.256,-734.894 282.832,-724.315 275.784,-732.226 282.256,-734.894"/>
</g>
<!-- 1354 -->
<g id="node32" class="node"><title>1354</title>
<ellipse fill="white" stroke="black" cx="631" cy="-530.663" rx="25" ry="25"/>
<text text-anchor="middle" x="631" y="-528.463" font-family="Times New Roman,serif" font-size="9.00">1354</text>
</g>
<!-- vx&#45;&gt;1354 -->
<g id="edge17" class="edge"><title>vx&#45;&gt;1354</title>
<path fill="none" stroke="red" stroke-width="1.18211" stroke-dasharray="1,5" d="M495.674,-1045.59C536.375,-1045.37 666.164,-1040.19 753,-985.727 835.031,-934.282 856.244,-906.204 888,-814.732 922.339,-715.822 893.571,-658.274 813,-591.411 770.009,-555.734 705.07,-541.152 665.499,-535.342"/>
<polygon fill="red" stroke="red" stroke-width="1.18211" points="665.913,-531.866 655.533,-533.986 664.97,-538.803 665.913,-531.866"/>
</g>
<!-- vy -->
<g id="node3" class="node"><title>vy</title>
<polygon fill="lightgray" stroke="black" points="305,-884.481 279,-884.481 279,-866.481 305,-866.481 305,-884.481"/>
<text text-anchor="middle" x="292" y="-873.281" font-family="Times New Roman,serif" font-size="9.00">vy</text>
</g>
<!-- vy&#45;&gt;down -->
<g id="edge6" class="edge"><title>vy&#45;&gt;down</title>
<path fill="none" stroke="red" stroke-width="0.816345" d="M305.211,-867.959C332.043,-854.713 393.598,-824.325 431.702,-805.514"/>
<polygon fill="red" stroke="red" stroke-width="0.816345" points="433.432,-808.563 440.849,-800.998 430.333,-802.286 433.432,-808.563"/>
</g>
<!-- right -->
<g id="node9" class="node"><title>right</title>
<ellipse fill="lightblue" stroke="black" cx="114" cy="-281.241" rx="23.1702" ry="23.1702"/>
<text text-anchor="middle" x="114" y="-279.041" font-family="Times New Roman,serif" font-size="9.00">right</text>
</g>
<!-- vy&#45;&gt;right -->
<g id="edge7" class="edge"><title>vy&#45;&gt;right</title>
<path fill="none" stroke="green" stroke-width="0.116787" d="M278.911,-869.428C237.804,-852.614 114,-794.359 114,-702.657 114,-702.657 114,-702.657 114,-444.165 114,-399.461 114,-347.814 114,-315.1"/>
<polygon fill="green" stroke="green" stroke-width="0.116787" points="117.5,-314.769 114,-304.769 110.5,-314.769 117.5,-314.769"/>
</g>
<!-- 3107 -->
<g id="node17" class="node"><title>3107</title>
<ellipse fill="white" stroke="black" cx="319" cy="-788.569" rx="25" ry="25"/>
<text text-anchor="middle" x="319" y="-786.369" font-family="Times New Roman,serif" font-size="9.00">3107</text>
</g>
<!-- vy&#45;&gt;3107 -->
<g id="edge75" class="edge"><title>vy&#45;&gt;3107</title>
<path fill="none" stroke="green" stroke-width="0.94965" stroke-dasharray="1,5" d="M294.589,-866.339C297.824,-856.164 303.557,-838.135 308.654,-822.105"/>
<polygon fill="green" stroke="green" stroke-width="0.94965" points="312.023,-823.061 311.718,-812.471 305.352,-820.94 312.023,-823.061"/>
</g>
<!-- 703 -->
<g id="node26" class="node"><title>703</title>
<ellipse fill="white" stroke="black" cx="198" cy="-363.203" rx="21.4286" ry="21.4286"/>
<text text-anchor="middle" x="198" y="-361.003" font-family="Times New Roman,serif" font-size="9.00">703</text>
</g>
<!-- vy&#45;&gt;703 -->
<g id="edge16" class="edge"><title>vy&#45;&gt;703</title>
<path fill="none" stroke="red" stroke-width="0.290208" stroke-dasharray="1,5" d="M286.543,-866.306C271.066,-842.303 228,-769.506 228,-702.657 228,-702.657 228,-702.657 228,-529.663 228,-481.323 215.45,-426.296 206.584,-393.455"/>
<polygon fill="red" stroke="red" stroke-width="0.290208" points="209.899,-392.311 203.856,-383.608 203.153,-394.18 209.899,-392.311"/>
</g>
<!-- vy&#45;&gt;1860 -->
<g id="edge47" class="edge"><title>vy&#45;&gt;1860</title>
<path fill="none" stroke="green" stroke-width="0.431565" stroke-dasharray="1,5" d="M290.748,-866.389C289.044,-854.927 286.083,-833.291 285,-814.732 283.645,-791.516 283.453,-785.611 285,-762.406 285.569,-753.869 286.591,-744.69 287.718,-736.151"/>
<polygon fill="green" stroke="green" stroke-width="0.431565" points="291.199,-736.527 289.121,-726.138 284.267,-735.556 291.199,-736.527"/>
</g>
<!-- 759 -->
<g id="node39" class="node"><title>759</title>
<ellipse fill="white" stroke="black" cx="529" cy="-788.569" rx="21.4286" ry="21.4286"/>
<text text-anchor="middle" x="529" y="-786.369" font-family="Times New Roman,serif" font-size="9.00">759</text>
</g>
<!-- vy&#45;&gt;759 -->
<g id="edge21" class="edge"><title>vy&#45;&gt;759</title>
<path fill="none" stroke="red" stroke-width="0.57871" d="M305.315,-872.604C339.297,-867.41 431.324,-850.784 499,-814.732 501.362,-813.474 503.708,-812.007 505.985,-810.426"/>
<polygon fill="red" stroke="red" stroke-width="0.57871" points="508.568,-812.853 514.328,-803.96 504.28,-807.32 508.568,-812.853"/>
</g>
<!-- cp1x -->
<g id="node4" class="node"><title>cp1x</title>
<polygon fill="lightgray" stroke="black" points="74,-1482.96 40,-1482.96 40,-1464.96 74,-1464.96 74,-1482.96"/>
<text text-anchor="middle" x="57" y="-1471.76" font-family="Times New Roman,serif" font-size="9.00">cp1x</text>
</g>
<!-- cp1x&#45;&gt;left -->
<g id="edge3" class="edge"><title>cp1x&#45;&gt;left</title>
<path fill="none" stroke="red" stroke-width="0.807273" d="M58.5548,-1464.91C63.0926,-1440.67 76,-1366.26 76,-1303.97 76,-1303.97 76,-1303.97 76,-1045.48 76,-921.556 231.787,-992.95 314,-900.23 398.469,-804.965 358,-744.479 358,-617.16 358,-617.16 358,-617.16 358,-529.663 358,-478.678 366.688,-464.087 393,-420.416 401.335,-406.583 413.71,-393.531 424.612,-383.493"/>
<polygon fill="red" stroke="red" stroke-width="0.807273" points="427.056,-386.004 432.212,-376.748 422.409,-380.768 427.056,-386.004"/>
</g>
<!-- cp1x&#45;&gt;right -->
<g id="edge1" class="edge"><title>cp1x&#45;&gt;right</title>
<path fill="none" stroke="green" stroke-width="0.677258" d="M52.1402,-1464.85C38.356,-1441.05 0,-1368.99 0,-1303.97 0,-1303.97 0,-1303.97 0,-700.657 0,-549.961 69.6888,-379.131 100.093,-311.773"/>
<polygon fill="green" stroke="green" stroke-width="0.677258" points="103.311,-313.151 104.28,-302.6 96.9433,-310.243 103.311,-313.151"/>
</g>
<!-- 1195 -->
<g id="node19" class="node"><title>1195</title>
<ellipse fill="white" stroke="black" cx="1026" cy="-1388.47" rx="25" ry="25"/>
<text text-anchor="middle" x="1026" y="-1386.27" font-family="Times New Roman,serif" font-size="9.00">1195</text>
</g>
<!-- cp1x&#45;&gt;1195 -->
<g id="edge14" class="edge"><title>cp1x&#45;&gt;1195</title>
<path fill="none" stroke="green" stroke-width="0.133555" d="M63.325,-1464.82C68.0852,-1459.35 75.1225,-1452.56 83,-1449.21 167.773,-1413.2 829.593,-1394.39 990.723,-1390.32"/>
<polygon fill="green" stroke="green" stroke-width="0.133555" points="991.115,-1393.81 1001.02,-1390.06 990.94,-1386.81 991.115,-1393.81"/>
</g>
<!-- cp1x&#45;&gt;703 -->
<g id="edge10" class="edge"><title>cp1x&#45;&gt;703</title>
<path fill="none" stroke="green" stroke-width="0.274577" stroke-dasharray="1,5" d="M55.4452,-1464.91C50.9074,-1440.67 38,-1366.26 38,-1303.97 38,-1303.97 38,-1303.97 38,-874.481 38,-681.669 143.296,-465.874 183.049,-391.275"/>
<polygon fill="green" stroke="green" stroke-width="0.274577" points="186.332,-392.56 187.991,-382.096 180.169,-389.241 186.332,-392.56"/>
</g>
<!-- cp1y -->
<g id="node5" class="node"><title>cp1y</title>
<polygon fill="lightgray" stroke="black" points="633.5,-884.481 598.5,-884.481 598.5,-866.481 633.5,-866.481 633.5,-884.481"/>
<text text-anchor="middle" x="616" y="-873.281" font-family="Times New Roman,serif" font-size="9.00">cp1y</text>
</g>
<!-- cp1y&#45;&gt;down -->
<g id="edge4" class="edge"><title>cp1y&#45;&gt;down</title>
<path fill="none" stroke="green" stroke-width="0.725371" d="M608.426,-866.173C603.543,-861.188 596.844,-855.008 590,-850.732 553.113,-827.686 537.169,-835.585 499,-814.732 496.972,-813.624 494.925,-812.418 492.891,-811.152"/>
<polygon fill="green" stroke="green" stroke-width="0.725371" points="494.439,-807.978 484.174,-805.351 490.56,-813.805 494.439,-807.978"/>
</g>
<!-- 2466 -->
<g id="node16" class="node"><title>2466</title>
<ellipse fill="white" stroke="black" cx="631" cy="-701.657" rx="25" ry="25"/>
<text text-anchor="middle" x="631" y="-699.457" font-family="Times New Roman,serif" font-size="9.00">2466</text>
</g>
<!-- cp1y&#45;&gt;2466 -->
<g id="edge57" class="edge"><title>cp1y&#45;&gt;2466</title>
<path fill="none" stroke="green" stroke-width="0.393682" stroke-dasharray="1,5" d="M616.723,-866.193C618.737,-843.13 624.491,-777.218 628.049,-736.458"/>
<polygon fill="green" stroke="green" stroke-width="0.393682" points="631.542,-736.697 628.925,-726.43 624.568,-736.088 631.542,-736.697"/>
</g>
<!-- 1733 -->
<g id="node29" class="node"><title>1733</title>
<ellipse fill="white" stroke="black" cx="988" cy="-110.246" rx="25" ry="25"/>
<text text-anchor="middle" x="988" y="-108.046" font-family="Times New Roman,serif" font-size="9.00">1733</text>
</g>
<!-- cp1y&#45;&gt;1733 -->
<g id="edge32" class="edge"><title>cp1y&#45;&gt;1733</title>
<path fill="none" stroke="red" stroke-width="0.237145" stroke-dasharray="1,5" d="M620.555,-866.292C640.844,-829.019 722,-671.208 722,-531.663 722,-531.663 722,-531.663 722,-280.241 722,-171.774 881.525,-129.955 953.498,-116.607"/>
<polygon fill="red" stroke="red" stroke-width="0.237145" points="954.218,-120.034 963.452,-114.839 952.994,-113.141 954.218,-120.034"/>
</g>
<!-- 1710 -->
<g id="node20" class="node"><title>1710</title>
<ellipse fill="white" stroke="black" cx="476" cy="-616.16" rx="25" ry="25"/>
<text text-anchor="middle" x="476" y="-613.96" font-family="Times New Roman,serif" font-size="9.00">1710</text>
</g>
<!-- down&#45;&gt;1710 -->
<g id="edge42" class="edge"><title>down&#45;&gt;1710</title>
<path fill="none" stroke="green" stroke-width="0.131393" stroke-dasharray="1,5" d="M459.784,-762.386C456.69,-739.871 453.708,-706.032 458,-676.909 459.354,-667.72 461.82,-657.984 464.501,-649.099"/>
<polygon fill="green" stroke="green" stroke-width="0.131393" points="467.858,-650.094 467.572,-639.503 461.191,-647.96 467.858,-650.094"/>
</g>
<!-- 1102 -->
<g id="node33" class="node"><title>1102</title>
<ellipse fill="white" stroke="black" cx="935" cy="-281.241" rx="25" ry="25"/>
<text text-anchor="middle" x="935" y="-279.041" font-family="Times New Roman,serif" font-size="9.00">1102</text>
</g>
<!-- left&#45;&gt;1102 -->
<g id="edge35" class="edge"><title>left&#45;&gt;1102</title>
<path fill="none" stroke="green" stroke-width="0.644306" stroke-dasharray="1,5" d="M468.636,-361.008C546.345,-356.301 821.029,-337.721 902,-305.99 903.873,-305.256 905.738,-304.391 907.573,-303.433"/>
<polygon fill="green" stroke="green" stroke-width="0.644306" points="909.689,-306.243 916.406,-298.05 906.046,-300.266 909.689,-306.243"/>
</g>
<!-- right&#45;&gt;1595 -->
<g id="edge25" class="edge"><title>right&#45;&gt;1595</title>
<path fill="none" stroke="red" stroke-width="0.586194" d="M114,-257.865C114,-249.512 114,-239.829 114,-230.668"/>
<polygon fill="red" stroke="red" stroke-width="0.586194" points="117.5,-230.644 114,-220.645 110.5,-230.645 117.5,-230.644"/>
</g>
<!-- 2053 -->
<g id="node10" class="node"><title>2053</title>
<ellipse fill="white" stroke="black" cx="166" cy="-110.246" rx="25" ry="25"/>
<text text-anchor="middle" x="166" y="-108.046" font-family="Times New Roman,serif" font-size="9.00">2053</text>
</g>
<!-- 2053&#45;&gt;up -->
<g id="edge44" class="edge"><title>2053&#45;&gt;up</title>
<path fill="none" stroke="green" stroke-width="0.298724" stroke-dasharray="1,5" d="M184.317,-93.1471C200.256,-79.1376 223.354,-58.8366 240.03,-44.18"/>
<polygon fill="green" stroke="green" stroke-width="0.298724" points="242.44,-46.7213 247.641,-37.4907 237.819,-41.4635 242.44,-46.7213"/>
</g>
<!-- 1675 -->
<g id="node11" class="node"><title>1675</title>
<ellipse fill="white" stroke="black" cx="166" cy="-24.7487" rx="25" ry="25"/>
<text text-anchor="middle" x="166" y="-22.5487" font-family="Times New Roman,serif" font-size="9.00">1675</text>
</g>
<!-- 2053&#45;&gt;1675 -->
<g id="edge61" class="edge"><title>2053&#45;&gt;1675</title>
<path fill="none" stroke="green" stroke-width="0.182668" d="M166,-85.0953C166,-77.1512 166,-68.1667 166,-59.6364"/>
<polygon fill="green" stroke="green" stroke-width="0.182668" points="169.5,-59.557 166,-49.557 162.5,-59.5571 169.5,-59.557"/>
</g>
<!-- 2069 -->
<g id="node12" class="node"><title>2069</title>
<ellipse fill="white" stroke="black" cx="525" cy="-530.663" rx="25" ry="25"/>
<text text-anchor="middle" x="525" y="-528.463" font-family="Times New Roman,serif" font-size="9.00">2069</text>
</g>
<!-- 2069&#45;&gt;1691 -->
<g id="edge56" class="edge"><title>2069&#45;&gt;1691</title>
<path fill="none" stroke="green" stroke-width="0.302993" stroke-dasharray="1,5" d="M548.051,-520.913C562.037,-515.894 580.343,-509.831 597,-505.914 735.177,-473.419 903.705,-455.713 975.68,-449.157"/>
<polygon fill="green" stroke="green" stroke-width="0.302993" points="976.336,-452.612 985.984,-448.235 975.712,-445.64 976.336,-452.612"/>
</g>
<!-- 828 -->
<g id="node24" class="node"><title>828</title>
<ellipse fill="white" stroke="black" cx="423" cy="-445.165" rx="21.4286" ry="21.4286"/>
<text text-anchor="middle" x="423" y="-442.965" font-family="Times New Roman,serif" font-size="9.00">828</text>
</g>
<!-- 2069&#45;&gt;828 -->
<g id="edge46" class="edge"><title>2069&#45;&gt;828</title>
<path fill="none" stroke="green" stroke-width="0.241705" stroke-dasharray="1,5" d="M506.292,-514.348C489.634,-500.711 465.168,-480.683 447.058,-465.859"/>
<polygon fill="green" stroke="green" stroke-width="0.241705" points="449.191,-463.082 439.236,-459.456 444.757,-468.499 449.191,-463.082"/>
</g>
<!-- 1691&#45;&gt;1733 -->
<g id="edge83" class="edge"><title>1691&#45;&gt;1733</title>
<path fill="none" stroke="green" stroke-width="0.291875" d="M1009.35,-420.222C1005.32,-361.916 994.989,-212.416 990.335,-145.052"/>
<polygon fill="green" stroke="green" stroke-width="0.291875" points="993.82,-144.707 989.639,-134.972 986.837,-145.189 993.82,-144.707"/>
</g>
<!-- 1691&#45;&gt;502 -->
<g id="edge29" class="edge"><title>1691&#45;&gt;502</title>
<path fill="none" stroke="green" stroke-width="0.362218" stroke-dasharray="1,5" d="M1012.1,-420.395C1014.64,-383.506 1022.94,-311.047 1050,-256.492 1057.18,-242.02 1068.72,-228.247 1079.11,-217.58"/>
<polygon fill="green" stroke="green" stroke-width="0.362218" points="1081.73,-219.911 1086.39,-210.396 1076.81,-214.928 1081.73,-219.911"/>
</g>
<!-- 3099 -->
<g id="node14" class="node"><title>3099</title>
<ellipse fill="white" stroke="black" cx="631" cy="-616.16" rx="25" ry="25"/>
<text text-anchor="middle" x="631" y="-613.96" font-family="Times New Roman,serif" font-size="9.00">3099</text>
</g>
<!-- 3099&#45;&gt;1354 -->
<g id="edge73" class="edge"><title>3099&#45;&gt;1354</title>
<path fill="none" stroke="green" stroke-width="0.313087" d="M631,-591.009C631,-583.065 631,-574.08 631,-565.55"/>
<polygon fill="green" stroke="green" stroke-width="0.313087" points="634.5,-565.471 631,-555.471 627.5,-565.471 634.5,-565.471"/>
</g>
<!-- 414 -->
<g id="node15" class="node"><title>414</title>
<ellipse fill="white" stroke="black" cx="901" cy="-195.744" rx="21.4286" ry="21.4286"/>
<text text-anchor="middle" x="901" y="-193.544" font-family="Times New Roman,serif" font-size="9.00">414</text>
</g>
<!-- 2466&#45;&gt;up -->
<g id="edge62" class="edge"><title>2466&#45;&gt;up</title>
<path fill="none" stroke="red" stroke-width="0.270683" stroke-dasharray="1,5" d="M617.364,-680.763C610.267,-669.524 602.042,-654.949 597,-640.909 580.343,-594.526 578,-580.945 578,-531.663 578,-531.663 578,-531.663 578,-194.744 578,-64.5937 367.351,-34.3349 289.484,-27.5957"/>
<polygon fill="red" stroke="red" stroke-width="0.270683" points="289.66,-24.0987 279.413,-26.7929 289.104,-31.0765 289.66,-24.0987"/>
</g>
<!-- 2466&#45;&gt;3099 -->
<g id="edge72" class="edge"><title>2466&#45;&gt;3099</title>
<path fill="none" stroke="red" stroke-width="0.109517" stroke-dasharray="1,5" d="M631,-676.507C631,-668.562 631,-659.578 631,-651.048"/>
<polygon fill="red" stroke="red" stroke-width="0.109517" points="634.5,-650.968 631,-640.968 627.5,-650.968 634.5,-650.968"/>
</g>
<!-- 2466&#45;&gt;1710 -->
<g id="edge52" class="edge"><title>2466&#45;&gt;1710</title>
<path fill="none" stroke="green" stroke-width="0.847897" stroke-dasharray="1,5" d="M609.448,-689.048C582.611,-674.591 536.609,-649.809 506.25,-633.455"/>
<polygon fill="green" stroke="green" stroke-width="0.847897" points="507.833,-630.333 497.369,-628.671 504.513,-636.495 507.833,-630.333"/>
</g>
<!-- 2466&#45;&gt;1465 -->
<g id="edge69" class="edge"><title>2466&#45;&gt;1465</title>
<path fill="none" stroke="green" stroke-width="0.448169" d="M652.205,-688.694C677.592,-674.372 720.278,-650.29 749.029,-634.069"/>
<polygon fill="green" stroke="green" stroke-width="0.448169" points="750.845,-637.063 757.835,-629.101 747.405,-630.966 750.845,-637.063"/>
</g>
<!-- 2466&#45;&gt;1354 -->
<g id="edge68" class="edge"><title>2466&#45;&gt;1354</title>
<path fill="none" stroke="green" stroke-width="0.406386" d="M645.422,-681.33C652.857,-670.148 661.153,-655.446 665,-640.909 670.627,-619.642 670.627,-612.678 665,-591.411 662.085,-580.394 656.614,-569.284 650.9,-559.682"/>
<polygon fill="green" stroke="green" stroke-width="0.406386" points="653.715,-557.584 645.422,-550.99 647.793,-561.317 653.715,-557.584"/>
</g>
<!-- 3107&#45;&gt;1860 -->
<g id="edge76" class="edge"><title>3107&#45;&gt;1860</title>
<path fill="none" stroke="green" stroke-width="0.532937" d="M312.032,-764.814C309.235,-755.677 305.958,-744.976 302.919,-735.052"/>
<polygon fill="green" stroke="green" stroke-width="0.532937" points="306.261,-734.012 299.987,-725.475 299.568,-736.062 306.261,-734.012"/>
</g>
<!-- 2983 -->
<g id="node18" class="node"><title>2983</title>
<ellipse fill="white" stroke="black" cx="1220" cy="-1217.47" rx="25" ry="25"/>
<text text-anchor="middle" x="1220" y="-1215.27" font-family="Times New Roman,serif" font-size="9.00">2983</text>
</g>
<!-- 2983&#45;&gt;2800 -->
<g id="edge71" class="edge"><title>2983&#45;&gt;2800</title>
<path fill="none" stroke="green" stroke-width="0.414283" d="M1212.62,-1193.65C1209.79,-1184.91 1206.51,-1174.76 1203.45,-1165.29"/>
<polygon fill="green" stroke="green" stroke-width="0.414283" points="1206.78,-1164.2 1200.37,-1155.76 1200.12,-1166.35 1206.78,-1164.2"/>
</g>
<!-- 2983&#45;&gt;502 -->
<g id="edge64" class="edge"><title>2983&#45;&gt;502</title>
<path fill="none" stroke="green" stroke-width="0.944739" d="M1225.83,-1193.41C1233.5,-1161.03 1246,-1100.17 1246,-1047.48 1246,-1047.48 1246,-1047.48 1246,-362.203 1246,-291.927 1171.17,-236.989 1129.4,-211.795"/>
<polygon fill="green" stroke="green" stroke-width="0.944739" points="1130.93,-208.636 1120.53,-206.595 1127.39,-214.674 1130.93,-208.636"/>
</g>
<!-- 1195&#45;&gt;1691 -->
<g id="edge28" class="edge"><title>1195&#45;&gt;1691</title>
<path fill="none" stroke="red" stroke-width="0.270925" stroke-dasharray="1,5" d="M1027.99,-1363.54C1035.81,-1269.17 1064,-925.519 1064,-876.481 1064,-876.481 1064,-876.481 1064,-615.16 1064,-564.785 1042.29,-509.675 1026.66,-476.521"/>
<polygon fill="red" stroke="red" stroke-width="0.270925" points="1029.74,-474.85 1022.24,-467.37 1023.44,-477.897 1029.74,-474.85"/>
</g>
<!-- 1195&#45;&gt;1102 -->
<g id="edge77" class="edge"><title>1195&#45;&gt;1102</title>
<path fill="none" stroke="red" stroke-width="0.593446" stroke-dasharray="1,5" d="M1010.98,-1368.44C988.836,-1338.4 950,-1277.34 950,-1218.47 950,-1218.47 950,-1218.47 950,-1045.48 950,-930.492 988,-904.553 988,-789.569 988,-789.569 988,-789.569 988,-615.16 988,-504.185 958.923,-374.961 943.843,-315.404"/>
<polygon fill="red" stroke="red" stroke-width="0.593446" points="947.165,-314.265 941.288,-305.449 940.384,-316.005 947.165,-314.265"/>
</g>
<!-- 1195&#45;&gt;502 -->
<g id="edge15" class="edge"><title>1195&#45;&gt;502</title>
<path fill="none" stroke="green" stroke-width="0.178735" stroke-dasharray="1,5" d="M1035.52,-1365.43C1039.95,-1354.32 1044.92,-1340.51 1048,-1327.72 1095.22,-1131.33 1102,-1078.46 1102,-876.481 1102,-876.481 1102,-876.481 1102,-362.203 1102,-315.232 1102,-260.761 1102,-227.534"/>
<polygon fill="green" stroke="green" stroke-width="0.178735" points="1105.5,-227.122 1102,-217.122 1098.5,-227.122 1105.5,-227.122"/>
</g>
<!-- 1917 -->
<g id="node40" class="node"><title>1917</title>
<ellipse fill="white" stroke="black" cx="1220" cy="-1302.97" rx="25" ry="25"/>
<text text-anchor="middle" x="1220" y="-1300.77" font-family="Times New Roman,serif" font-size="9.00">1917</text>
</g>
<!-- 1195&#45;&gt;1917 -->
<g id="edge36" class="edge"><title>1195&#45;&gt;1917</title>
<path fill="none" stroke="green" stroke-width="0.435382" d="M1048.63,-1377.72C1083.1,-1362.89 1148.85,-1334.59 1188.13,-1317.68"/>
<polygon fill="green" stroke="green" stroke-width="0.435382" points="1189.71,-1320.82 1197.51,-1313.65 1186.94,-1314.39 1189.71,-1320.82"/>
</g>
<!-- 1710&#45;&gt;2069 -->
<g id="edge45" class="edge"><title>1710&#45;&gt;2069</title>
<path fill="none" stroke="red" stroke-width="0.345433" d="M488.112,-594.52C494.002,-584.484 501.187,-572.24 507.647,-561.233"/>
<polygon fill="red" stroke="red" stroke-width="0.345433" points="510.814,-562.75 512.857,-552.354 504.777,-559.207 510.814,-562.75"/>
</g>
<!-- 1710&#45;&gt;828 -->
<g id="edge31" class="edge"><title>1710&#45;&gt;828</title>
<path fill="none" stroke="red" stroke-width="0.112629" stroke-dasharray="1,5" d="M468.852,-592.369C459.352,-562.077 442.556,-508.522 432.144,-475.32"/>
<polygon fill="red" stroke="red" stroke-width="0.112629" points="435.464,-474.212 429.132,-465.717 428.785,-476.306 435.464,-474.212"/>
</g>
<!-- 1663 -->
<g id="node21" class="node"><title>1663</title>
<ellipse fill="white" stroke="black" cx="117" cy="-1473.96" rx="25" ry="25"/>
<text text-anchor="middle" x="117" y="-1471.76" font-family="Times New Roman,serif" font-size="9.00">1663</text>
</g>
<!-- 1465&#45;&gt;1675 -->
<g id="edge27" class="edge"><title>1465&#45;&gt;1675</title>
<path fill="none" stroke="red" stroke-width="0.111404" d="M761.642,-598.469C675.335,-515.485 292.531,-147.411 190.863,-49.6547"/>
<polygon fill="red" stroke="red" stroke-width="0.111404" points="193.134,-46.9827 183.499,-42.5747 188.282,-52.0286 193.134,-46.9827"/>
</g>
<!-- 1465&#45;&gt;2069 -->
<g id="edge48" class="edge"><title>1465&#45;&gt;2069</title>
<path fill="none" stroke="red" stroke-width="0.371411" d="M755.725,-607.531C721.111,-596.182 654.02,-574.175 597,-555.411 584.302,-551.233 570.347,-546.632 558.131,-542.601"/>
<polygon fill="red" stroke="red" stroke-width="0.371411" points="558.937,-539.182 548.344,-539.372 556.743,-545.829 558.937,-539.182"/>
</g>
<!-- 1465&#45;&gt;502 -->
<g id="edge20" class="edge"><title>1465&#45;&gt;502</title>
<path fill="none" stroke="green" stroke-width="0.467919" stroke-dasharray="1,5" d="M803.053,-609.408C855.976,-595.427 982.742,-554.428 1045,-469.914 1102.39,-392.01 1067.4,-351.035 1088,-256.492 1090.13,-246.707 1092.59,-236.052 1094.84,-226.486"/>
<polygon fill="green" stroke="green" stroke-width="0.467919" points="1098.27,-227.162 1097.18,-216.625 1091.46,-225.546 1098.27,-227.162"/>
</g>
<!-- 1595&#45;&gt;up -->
<g id="edge24" class="edge"><title>1595&#45;&gt;up</title>
<path fill="none" stroke="green" stroke-width="0.129347" d="M135.859,-183.31C154.602,-172.693 181.44,-155.468 200,-134.995 222.596,-110.07 240.178,-75.3187 250.542,-51.7535"/>
<polygon fill="green" stroke="green" stroke-width="0.129347" points="253.828,-52.9714 254.536,-42.4002 247.39,-50.2226 253.828,-52.9714"/>
</g>
<!-- 1595&#45;&gt;2053 -->
<g id="edge43" class="edge"><title>1595&#45;&gt;2053</title>
<path fill="none" stroke="green" stroke-width="0.129698" d="M126.854,-174.104C133.214,-163.891 140.998,-151.392 147.945,-140.237"/>
<polygon fill="green" stroke="green" stroke-width="0.129698" points="150.978,-141.987 153.294,-131.649 145.037,-138.287 150.978,-141.987"/>
</g>
<!-- 1595&#45;&gt;1675 -->
<g id="edge33" class="edge"><title>1595&#45;&gt;1675</title>
<path fill="none" stroke="red" stroke-width="0.255843" d="M115.512,-170.697C117.496,-148.148 121.991,-113.764 132,-85.4975 135.774,-74.8403 141.41,-63.8893 147.014,-54.321"/>
<polygon fill="red" stroke="red" stroke-width="0.255843" points="150.098,-55.9861 152.314,-45.6257 144.121,-52.3424 150.098,-55.9861"/>
</g>
<!-- 828&#45;&gt;left -->
<g id="edge13" class="edge"><title>828&#45;&gt;left</title>
<path fill="none" stroke="green" stroke-width="0.605765" d="M429.052,-424.808C432.052,-415.211 435.736,-403.431 439.054,-392.816"/>
<polygon fill="green" stroke="green" stroke-width="0.605765" points="442.447,-393.694 442.09,-383.105 435.766,-391.605 442.447,-393.694"/>
</g>
<!-- 828&#45;&gt;703 -->
<g id="edge74" class="edge"><title>828&#45;&gt;703</title>
<path fill="none" stroke="green" stroke-width="0.186536" d="M403.033,-437.069C363.254,-422.932 273.952,-391.195 227.435,-374.664"/>
<polygon fill="green" stroke="green" stroke-width="0.186536" points="228.517,-371.334 217.923,-371.283 226.173,-377.93 228.517,-371.334"/>
</g>
<!-- 2493 -->
<g id="node25" class="node"><title>2493</title>
<ellipse fill="white" stroke="black" cx="768" cy="-701.657" rx="25" ry="25"/>
<text text-anchor="middle" x="768" y="-699.457" font-family="Times New Roman,serif" font-size="9.00">2493</text>
</g>
<!-- 2493&#45;&gt;1465 -->
<g id="edge55" class="edge"><title>2493&#45;&gt;1465</title>
<path fill="none" stroke="green" stroke-width="0.881852" d="M771.123,-676.954C772.191,-668.845 773.407,-659.611 774.559,-650.867"/>
<polygon fill="green" stroke="green" stroke-width="0.881852" points="778.033,-651.294 775.869,-640.923 771.093,-650.38 778.033,-651.294"/>
</g>
<!-- 703&#45;&gt;right -->
<g id="edge9" class="edge"><title>703&#45;&gt;right</title>
<path fill="none" stroke="green" stroke-width="0.659099" stroke-dasharray="1,5" d="M182.982,-347.908C170.56,-336.082 152.675,-319.057 138.23,-305.306"/>
<polygon fill="green" stroke="green" stroke-width="0.659099" points="140.271,-302.417 130.615,-298.057 135.444,-307.487 140.271,-302.417"/>
</g>
<!-- 1987&#45;&gt;1465 -->
<g id="edge53" class="edge"><title>1987&#45;&gt;1465</title>
<path fill="none" stroke="red" stroke-width="0.173369" stroke-dasharray="1,5" d="M738.581,-945.733C752.096,-934.819 769.314,-918.555 779,-900.23 825.628,-812.016 820.229,-775.008 802,-676.909 800.21,-667.278 796.927,-657.198 793.391,-648.119"/>
<polygon fill="red" stroke="red" stroke-width="0.173369" points="796.565,-646.635 789.513,-638.728 790.095,-649.307 796.565,-646.635"/>
</g>
<!-- 1987&#45;&gt;2493 -->
<g id="edge54" class="edge"><title>1987&#45;&gt;2493</title>
<path fill="none" stroke="red" stroke-width="0.633562" stroke-dasharray="1,5" d="M712.208,-937.036C702.241,-899.119 687.261,-821.681 711,-762.406 717.063,-747.268 728.992,-733.786 740.376,-723.477"/>
<polygon fill="red" stroke="red" stroke-width="0.633562" points="742.776,-726.031 748.092,-716.866 738.221,-720.715 742.776,-726.031"/>
</g>
<!-- 3017 -->
<g id="node31" class="node"><title>3017</title>
<ellipse fill="white" stroke="black" cx="745" cy="-875.481" rx="25" ry="25"/>
<text text-anchor="middle" x="745" y="-873.281" font-family="Times New Roman,serif" font-size="9.00">3017</text>
</g>
<!-- 1987&#45;&gt;3017 -->
<g id="edge66" class="edge"><title>1987&#45;&gt;3017</title>
<path fill="none" stroke="red" stroke-width="0.213614" d="M726.105,-937.162C728.799,-928.51 731.922,-918.482 734.843,-909.1"/>
<polygon fill="red" stroke="red" stroke-width="0.213614" points="738.273,-909.858 737.904,-899.269 731.589,-907.777 738.273,-909.858"/>
</g>
<!-- 1535 -->
<g id="node41" class="node"><title>1535</title>
<ellipse fill="white" stroke="black" cx="556" cy="-875.481" rx="25" ry="25"/>
<text text-anchor="middle" x="556" y="-873.281" font-family="Times New Roman,serif" font-size="9.00">1535</text>
</g>
<!-- 1987&#45;&gt;1535 -->
<g id="edge49" class="edge"><title>1987&#45;&gt;1535</title>
<path fill="none" stroke="red" stroke-width="0.163352" d="M696.26,-951.096C669.779,-940.398 625.061,-921.228 589,-900.23 587.262,-899.217 585.501,-898.136 583.745,-897.014"/>
<polygon fill="red" stroke="red" stroke-width="0.163352" points="585.371,-893.888 575.126,-891.189 581.452,-899.688 585.371,-893.888"/>
</g>
<!-- 1607 -->
<g id="node30" class="node"><title>1607</title>
<ellipse fill="white" stroke="black" cx="868" cy="-281.241" rx="25" ry="25"/>
<text text-anchor="middle" x="868" y="-279.041" font-family="Times New Roman,serif" font-size="9.00">1607</text>
</g>
<!-- 1607&#45;&gt;414 -->
<g id="edge26" class="edge"><title>1607&#45;&gt;414</title>
<path fill="none" stroke="red" stroke-width="0.533322" stroke-dasharray="1,5" d="M876.843,-257.865C880.819,-247.806 885.557,-235.817 889.78,-225.134"/>
<polygon fill="red" stroke="red" stroke-width="0.533322" points="893.055,-226.368 893.476,-215.782 886.545,-223.796 893.055,-226.368"/>
</g>
<!-- 3017&#45;&gt;2493 -->
<g id="edge67" class="edge"><title>3017&#45;&gt;2493</title>
<path fill="none" stroke="red" stroke-width="0.373721" stroke-dasharray="1,5" d="M759.422,-855.153C766.857,-843.971 775.153,-829.27 779,-814.732 785.896,-788.672 782.172,-758.171 777.268,-735.574"/>
<polygon fill="red" stroke="red" stroke-width="0.373721" points="780.664,-734.724 774.966,-725.792 773.85,-736.328 780.664,-734.724"/>
</g>
<!-- 3150 -->
<g id="node34" class="node"><title>3150</title>
<ellipse fill="white" stroke="black" cx="745" cy="-788.569" rx="25" ry="25"/>
<text text-anchor="middle" x="745" y="-786.369" font-family="Times New Roman,serif" font-size="9.00">3150</text>
</g>
<!-- 3017&#45;&gt;3150 -->
<g id="edge78" class="edge"><title>3017&#45;&gt;3150</title>
<path fill="none" stroke="green" stroke-width="0.178202" d="M745,-850.376C745,-842.059 745,-832.579 745,-823.619"/>
<polygon fill="green" stroke="green" stroke-width="0.178202" points="748.5,-823.441 745,-813.441 741.5,-823.441 748.5,-823.441"/>
</g>
<!-- 3017&#45;&gt;759 -->
<g id="edge70" class="edge"><title>3017&#45;&gt;759</title>
<path fill="none" stroke="red" stroke-width="0.463136" d="M722.292,-865.554C682.801,-850.03 601.536,-818.084 558.017,-800.976"/>
<polygon fill="red" stroke="red" stroke-width="0.463136" points="559.16,-797.665 548.573,-797.263 556.599,-804.179 559.16,-797.665"/>
</g>
<!-- 1102&#45;&gt;414 -->
<g id="edge50" class="edge"><title>1102&#45;&gt;414</title>
<path fill="none" stroke="green" stroke-width="0.131439" d="M925.889,-257.865C921.792,-247.806 916.911,-235.817 912.56,-225.134"/>
<polygon fill="green" stroke="green" stroke-width="0.131439" points="915.765,-223.724 908.752,-215.782 909.282,-226.364 915.765,-223.724"/>
</g>
<!-- 1102&#45;&gt;502 -->
<g id="edge12" class="edge"><title>1102&#45;&gt;502</title>
<path fill="none" stroke="red" stroke-width="0.181219" d="M956.832,-269.325C986.928,-254.278 1041.17,-227.157 1074.15,-210.667"/>
<polygon fill="red" stroke="red" stroke-width="0.181219" points="1075.87,-213.719 1083.25,-206.117 1072.74,-207.458 1075.87,-213.719"/>
</g>
<!-- 3150&#45;&gt;2493 -->
<g id="edge79" class="edge"><title>3150&#45;&gt;2493</title>
<path fill="none" stroke="green" stroke-width="0.12388" d="M751.285,-764.367C753.693,-755.474 756.489,-745.153 759.097,-735.525"/>
<polygon fill="green" stroke="green" stroke-width="0.12388" points="762.486,-736.399 761.723,-725.832 755.73,-734.569 762.486,-736.399"/>
</g>
<!-- 3175 -->
<g id="node35" class="node"><title>3175</title>
<ellipse fill="white" stroke="black" cx="525" cy="-701.657" rx="25" ry="25"/>
<text text-anchor="middle" x="525" y="-699.457" font-family="Times New Roman,serif" font-size="9.00">3175</text>
</g>
<!-- 3175&#45;&gt;1710 -->
<g id="edge82" class="edge"><title>3175&#45;&gt;1710</title>
<path fill="none" stroke="green" stroke-width="0.23977" d="M512.888,-680.018C506.998,-669.982 499.813,-657.737 493.353,-646.731"/>
<polygon fill="green" stroke="green" stroke-width="0.23977" points="496.223,-644.705 488.143,-637.852 490.186,-648.248 496.223,-644.705"/>
</g>
<!-- 2025 -->
<g id="node36" class="node"><title>2025</title>
<ellipse fill="white" stroke="black" cx="783" cy="-1046.48" rx="25" ry="25"/>
<text text-anchor="middle" x="783" y="-1044.28" font-family="Times New Roman,serif" font-size="9.00">2025</text>
</g>
<!-- 2025&#45;&gt;1465 -->
<g id="edge40" class="edge"><title>2025&#45;&gt;1465</title>
<path fill="none" stroke="green" stroke-width="0.942028" d="M800.116,-1027.91C826.477,-998.93 874,-938.128 874,-876.481 874,-876.481 874,-876.481 874,-787.569 874,-729.49 831.38,-672.763 803.234,-641.632"/>
<polygon fill="green" stroke="green" stroke-width="0.942028" points="805.789,-639.24 796.424,-634.284 800.654,-643.998 805.789,-639.24"/>
</g>
<!-- 2025&#45;&gt;1987 -->
<g id="edge65" class="edge"><title>2025&#45;&gt;1987</title>
<path fill="none" stroke="green" stroke-width="0.277931" stroke-dasharray="1,5" d="M768.156,-1026.11C759.756,-1015.15 749.115,-1001.27 739.884,-989.225"/>
<polygon fill="green" stroke="green" stroke-width="0.277931" points="742.625,-987.047 733.763,-981.239 737.069,-991.305 742.625,-987.047"/>
</g>
<!-- 2025&#45;&gt;1860 -->
<g id="edge41" class="edge"><title>2025&#45;&gt;1860</title>
<path fill="none" stroke="green" stroke-width="0.596756" d="M760.793,-1035.04C714.603,-1012.93 605.53,-958.59 522,-900.23 442.302,-844.547 358.097,-766.058 317.595,-726.882"/>
<polygon fill="green" stroke="green" stroke-width="0.596756" points="319.702,-724.049 310.092,-719.589 314.823,-729.068 319.702,-724.049"/>
</g>
<!-- 2800&#45;&gt;2025 -->
<g id="edge60" class="edge"><title>2800&#45;&gt;2025</title>
<path fill="none" stroke="red" stroke-width="1.09368" d="M1168.88,-1126.06C1099.31,-1111.89 898.077,-1070.91 817.226,-1054.45"/>
<polygon fill="red" stroke="red" stroke-width="1.09368" points="817.584,-1050.95 807.086,-1052.38 816.187,-1057.81 817.584,-1050.95"/>
</g>
<!-- 2800&#45;&gt;502 -->
<g id="edge59" class="edge"><title>2800&#45;&gt;502</title>
<path fill="none" stroke="green" stroke-width="0.486946" stroke-dasharray="1,5" d="M1191.16,-1107.2C1188.8,-1074.51 1185,-1013.82 1185,-961.978 1185,-961.978 1185,-961.978 1185,-362.203 1185,-313.242 1177.5,-299.443 1154,-256.492 1146.24,-242.32 1134.66,-228.572 1124.39,-217.844"/>
<polygon fill="green" stroke="green" stroke-width="0.486946" points="1126.74,-215.245 1117.21,-210.603 1121.76,-220.171 1126.74,-215.245"/>
</g>
<!-- 502&#45;&gt;1733 -->
<g id="edge80" class="edge"><title>502&#45;&gt;1733</title>
<path fill="none" stroke="red" stroke-width="0.212892" d="M1085.18,-182.423C1066.92,-169.047 1037.46,-147.471 1015.76,-131.576"/>
<polygon fill="red" stroke="red" stroke-width="0.212892" points="1017.7,-128.664 1007.57,-125.579 1013.57,-134.312 1017.7,-128.664"/>
</g>
<!-- 759&#45;&gt;2466 -->
<g id="edge51" class="edge"><title>759&#45;&gt;2466</title>
<path fill="none" stroke="red" stroke-width="0.415986" d="M544.938,-774.302C560.92,-760.997 585.807,-740.279 604.716,-724.538"/>
<polygon fill="red" stroke="red" stroke-width="0.415986" points="606.964,-727.221 612.41,-718.133 602.485,-721.841 606.964,-727.221"/>
</g>
<!-- 759&#45;&gt;1710 -->
<g id="edge30" class="edge"><title>759&#45;&gt;1710</title>
<path fill="none" stroke="green" stroke-width="0.191564" d="M516.322,-771.416C507.747,-759.618 496.939,-742.869 491,-726.406 482.291,-702.264 478.59,-673.447 477.04,-651.473"/>
<polygon fill="green" stroke="green" stroke-width="0.191564" points="480.522,-651.062 476.439,-641.286 473.534,-651.474 480.522,-651.062"/>
</g>
<!-- 759&#45;&gt;828 -->
<g id="edge11" class="edge"><title>759&#45;&gt;828</title>
<path fill="none" stroke="red" stroke-width="0.154097" d="M513.956,-773.105C502.397,-761.363 486.657,-743.935 476,-726.406 427.167,-646.084 421.614,-530.777 422.005,-476.545"/>
<polygon fill="red" stroke="red" stroke-width="0.154097" points="425.505,-476.592 422.152,-466.542 418.506,-476.489 425.505,-476.592"/>
</g>
<!-- 759&#45;&gt;3175 -->
<g id="edge81" class="edge"><title>759&#45;&gt;3175</title>
<path fill="none" stroke="green" stroke-width="0.254429" d="M528.032,-767.014C527.606,-757.98 527.095,-747.124 526.614,-736.924"/>
<polygon fill="green" stroke="green" stroke-width="0.254429" points="530.096,-736.459 526.13,-726.635 523.104,-736.789 530.096,-736.459"/>
</g>
<!-- 1917&#45;&gt;2983 -->
<g id="edge63" class="edge"><title>1917&#45;&gt;2983</title>
<path fill="none" stroke="red" stroke-width="0.298479" d="M1220,-1277.82C1220,-1269.87 1220,-1260.89 1220,-1252.36"/>
<polygon fill="red" stroke="red" stroke-width="0.298479" points="1223.5,-1252.28 1220,-1242.28 1216.5,-1252.28 1223.5,-1252.28"/>
</g>
<!-- 1917&#45;&gt;502 -->
<g id="edge37" class="edge"><title>1917&#45;&gt;502</title>
<path fill="none" stroke="red" stroke-width="0.121255" d="M1233.11,-1281.83C1251.83,-1251.06 1284,-1189.92 1284,-1132.97 1284,-1132.97 1284,-1132.97 1284,-362.203 1284,-308.18 1263.34,-293.513 1224,-256.492 1197.5,-231.557 1158.63,-214.975 1131.92,-205.735"/>
<polygon fill="red" stroke="red" stroke-width="0.121255" points="1132.93,-202.381 1122.33,-202.551 1130.72,-209.025 1132.93,-202.381"/>
</g>
<!-- 1535&#45;&gt;down -->
<g id="edge22" class="edge"><title>1535&#45;&gt;down</title>
<path fill="none" stroke="green" stroke-width="0.16268" stroke-dasharray="1,5" d="M538.261,-858.109C524.744,-845.633 505.911,-828.251 490.594,-814.114"/>
<polygon fill="green" stroke="green" stroke-width="0.16268" points="492.673,-811.27 482.951,-807.06 487.926,-816.414 492.673,-811.27"/>
</g>
</g>
</svg>
